# Blender 4.4.0
# www.blender.org
mtllib roadbarriers1 - 3.mtl
o Cube.001
v -1.000000 0.092775 1.000000
v -1.000000 0.197850 1.000000
v -1.000000 0.092775 -1.000000
v -1.000000 0.197850 -1.000000
v 1.000000 0.092775 1.000000
v 1.000000 0.197850 1.000000
v 1.000000 0.092775 -1.000000
v 1.000000 0.197850 -1.000000
v -1.000000 -0.008163 1.000000
v -1.000000 0.096912 1.000000
v -1.000000 -0.008163 -1.000000
v -1.000000 0.096912 -1.000000
v 1.000000 -0.008163 1.000000
v 1.000000 0.096912 1.000000
v 1.000000 -0.008163 -1.000000
v 1.000000 0.096912 -1.000000
v 0.013299 0.140376 -1.031283
v 0.013299 0.496631 -1.031283
v 0.013299 0.140376 -0.996592
v 0.013299 0.496631 -0.996592
v -0.012895 0.140376 -1.031283
v -0.012895 0.496631 -1.031283
v -0.012895 0.140376 -0.996592
v -0.012895 0.496631 -0.996592
v -0.018332 0.510146 -1.032969
v -0.018332 0.484317 -1.032969
v -0.018332 0.510146 -0.993154
v -0.018332 0.484317 -0.993154
v 0.017071 0.510146 -1.032969
v 0.017071 0.484317 -1.032969
v 0.017071 0.510146 -0.993154
v 0.017071 0.484317 -0.993154
v 0.013656 0.445285 -1.035587
v 0.013656 0.456971 -1.035587
v 0.013656 0.445285 -1.015587
v 0.013656 0.456971 -1.015587
v -0.013858 0.445285 -1.035587
v -0.013858 0.456971 -1.035587
v -0.013858 0.445285 -1.015587
v -0.013858 0.456971 -1.015587
v -0.015864 0.508345 -1.030367
v -0.015864 0.486117 -1.030367
v -0.015864 0.508345 -1.033783
v -0.015864 0.486117 -1.033783
v 0.014603 0.508345 -1.030367
v 0.014603 0.486117 -1.030367
v 0.014603 0.508345 -1.033783
v 0.014603 0.486117 -1.033783
v 0.082043 0.214023 -0.160690
v 0.075302 0.214023 -0.160690
v 0.082043 0.207425 -0.159973
v 0.075302 0.207425 -0.159973
v 0.082043 0.201136 -0.157854
v 0.075302 0.201136 -0.157854
v 0.082043 0.195450 -0.154432
v 0.075302 0.195450 -0.154432
v 0.082043 0.190632 -0.149868
v 0.075302 0.190632 -0.149868
v 0.082043 0.186908 -0.144375
v 0.075302 0.186908 -0.144375
v 0.082043 0.184451 -0.138210
v 0.075302 0.184451 -0.138210
v 0.082043 0.183378 -0.131662
v 0.075302 0.183378 -0.131662
v 0.082043 0.183737 -0.125035
v 0.075302 0.183737 -0.125035
v 0.082043 0.185512 -0.118640
v 0.075302 0.185512 -0.118640
v 0.082043 0.188621 -0.112777
v 0.075302 0.188621 -0.112777
v 0.082043 0.192917 -0.107719
v 0.075302 0.192917 -0.107719
v 0.082043 0.198200 -0.103703
v 0.075302 0.198200 -0.103703
v 0.082043 0.204223 -0.100916
v 0.075302 0.204223 -0.100916
v 0.082043 0.210704 -0.099490
v 0.075302 0.210704 -0.099490
v 0.082043 0.217341 -0.099490
v 0.075302 0.217341 -0.099490
v 0.082043 0.223822 -0.100916
v 0.075302 0.223822 -0.100916
v 0.082043 0.229845 -0.103703
v 0.075302 0.229845 -0.103703
v 0.082043 0.235128 -0.107719
v 0.075302 0.235128 -0.107719
v 0.082043 0.239424 -0.112777
v 0.075302 0.239424 -0.112777
v 0.082043 0.242533 -0.118640
v 0.075302 0.242533 -0.118640
v 0.082043 0.244308 -0.125035
v 0.075302 0.244308 -0.125035
v 0.082043 0.244668 -0.131662
v 0.075302 0.244668 -0.131662
v 0.082043 0.243594 -0.138210
v 0.075302 0.243594 -0.138210
v 0.082043 0.241138 -0.144375
v 0.075302 0.241138 -0.144375
v 0.082043 0.237413 -0.149868
v 0.075302 0.237413 -0.149868
v 0.082043 0.232595 -0.154432
v 0.075302 0.232595 -0.154432
v 0.082043 0.226909 -0.157854
v 0.075302 0.226909 -0.157854
v 0.082043 0.220620 -0.159973
v 0.075302 0.220620 -0.159973
v -0.069572 0.214023 -0.160690
v -0.076313 0.214023 -0.160690
v -0.069572 0.207425 -0.159973
v -0.076313 0.207425 -0.159973
v -0.069572 0.201136 -0.157854
v -0.076313 0.201136 -0.157854
v -0.069572 0.195450 -0.154432
v -0.076313 0.195450 -0.154432
v -0.069572 0.190632 -0.149868
v -0.076313 0.190632 -0.149868
v -0.069572 0.186908 -0.144375
v -0.076313 0.186908 -0.144375
v -0.069572 0.184451 -0.138210
v -0.076313 0.184451 -0.138210
v -0.069572 0.183378 -0.131662
v -0.076313 0.183378 -0.131662
v -0.069572 0.183737 -0.125035
v -0.076313 0.183737 -0.125035
v -0.069572 0.185512 -0.118640
v -0.076313 0.185512 -0.118640
v -0.069572 0.188621 -0.112777
v -0.076313 0.188621 -0.112777
v -0.069572 0.192917 -0.107719
v -0.076313 0.192917 -0.107719
v -0.069572 0.198200 -0.103703
v -0.076313 0.198200 -0.103703
v -0.069572 0.204223 -0.100916
v -0.076313 0.204223 -0.100916
v -0.069572 0.210704 -0.099490
v -0.076313 0.210704 -0.099490
v -0.069572 0.217341 -0.099490
v -0.076313 0.217341 -0.099490
v -0.069572 0.223822 -0.100916
v -0.076313 0.223822 -0.100916
v -0.069572 0.229845 -0.103703
v -0.076313 0.229845 -0.103703
v -0.069572 0.235128 -0.107719
v -0.076313 0.235128 -0.107719
v -0.069572 0.239424 -0.112777
v -0.076313 0.239424 -0.112777
v -0.069572 0.242533 -0.118640
v -0.076313 0.242533 -0.118640
v -0.069572 0.244308 -0.125035
v -0.076313 0.244308 -0.125035
v -0.069572 0.244668 -0.131662
v -0.076313 0.244668 -0.131662
v -0.069572 0.243594 -0.138210
v -0.076313 0.243594 -0.138210
v -0.069572 0.241138 -0.144375
v -0.076313 0.241138 -0.144375
v -0.069572 0.237413 -0.149868
v -0.076313 0.237413 -0.149868
v -0.069572 0.232595 -0.154432
v -0.076313 0.232595 -0.154432
v -0.069572 0.226909 -0.157854
v -0.076313 0.226909 -0.157854
v -0.069572 0.220620 -0.159973
v -0.076313 0.220620 -0.159973
v -0.088182 0.221929 -0.140700
v 0.084180 0.221929 -0.140700
v -0.088182 0.219629 -0.140450
v 0.084180 0.219629 -0.140450
v -0.088182 0.217436 -0.139711
v 0.084180 0.217436 -0.139711
v -0.088182 0.215454 -0.138518
v 0.084180 0.215454 -0.138518
v -0.088182 0.213774 -0.136927
v 0.084180 0.213774 -0.136927
v -0.088182 0.212475 -0.135012
v 0.084180 0.212475 -0.135012
v -0.088182 0.211619 -0.132863
v 0.084180 0.211619 -0.132863
v -0.088182 0.211244 -0.130579
v 0.084180 0.211244 -0.130579
v -0.088182 0.211370 -0.128269
v 0.084180 0.211370 -0.128269
v -0.088182 0.211989 -0.126039
v 0.084180 0.211989 -0.126039
v -0.088182 0.213073 -0.123995
v 0.084180 0.213073 -0.123995
v -0.088182 0.214570 -0.122232
v 0.084180 0.214570 -0.122232
v -0.088182 0.216413 -0.120831
v 0.084180 0.216412 -0.120831
v -0.088182 0.218512 -0.119860
v 0.084180 0.218512 -0.119860
v -0.088182 0.220772 -0.119362
v 0.084180 0.220772 -0.119362
v -0.088182 0.223086 -0.119362
v 0.084180 0.223086 -0.119362
v -0.088182 0.225346 -0.119860
v 0.084180 0.225346 -0.119860
v -0.088182 0.227446 -0.120831
v 0.084180 0.227446 -0.120831
v -0.088182 0.229288 -0.122232
v 0.084180 0.229288 -0.122232
v -0.088182 0.230786 -0.123995
v 0.084180 0.230786 -0.123995
v -0.088182 0.231869 -0.126039
v 0.084180 0.231869 -0.126039
v -0.088182 0.232488 -0.128269
v 0.084180 0.232488 -0.128269
v -0.088182 0.232614 -0.130579
v 0.084180 0.232614 -0.130579
v -0.088182 0.232239 -0.132863
v 0.084180 0.232239 -0.132863
v -0.088182 0.231383 -0.135012
v 0.084180 0.231383 -0.135012
v -0.088182 0.230084 -0.136927
v 0.084180 0.230084 -0.136927
v -0.088182 0.228405 -0.138518
v 0.084180 0.228405 -0.138518
v -0.088182 0.226422 -0.139711
v 0.084180 0.226422 -0.139711
v -0.088182 0.224229 -0.140450
v 0.084180 0.224229 -0.140450
v 0.081992 0.221688 -0.145163
v 0.084323 0.221688 -0.145163
v 0.081992 0.208123 -0.137331
v 0.084323 0.208123 -0.137331
v 0.081992 0.208123 -0.121667
v 0.084323 0.208123 -0.121667
v 0.081992 0.221688 -0.113835
v 0.084323 0.221688 -0.113835
v 0.081992 0.235253 -0.121667
v 0.084323 0.235253 -0.121667
v 0.081992 0.235253 -0.137331
v 0.084323 0.235253 -0.137331
v -0.083726 0.221688 -0.145163
v -0.075357 0.221688 -0.145163
v -0.083726 0.208123 -0.137331
v -0.075357 0.208123 -0.137331
v -0.083726 0.208123 -0.121667
v -0.075357 0.208123 -0.121667
v -0.083726 0.221688 -0.113835
v -0.075357 0.221688 -0.113835
v -0.083726 0.235253 -0.121667
v -0.075357 0.235253 -0.121667
v -0.083726 0.235253 -0.137331
v -0.075357 0.235253 -0.137331
v 0.055501 0.169891 -0.086605
v -0.004502 0.460794 -1.009954
v 0.057794 0.169237 -0.086959
v -0.002209 0.460141 -1.010309
v 0.060194 0.169129 -0.087149
v 0.000191 0.460033 -1.010499
v 0.062562 0.169573 -0.087163
v 0.002559 0.460477 -1.010513
v 0.064760 0.170544 -0.087001
v 0.004756 0.461447 -1.010350
v 0.066660 0.171983 -0.086670
v 0.006656 0.462887 -1.010020
v 0.068151 0.173809 -0.086192
v 0.008148 0.464713 -1.009542
v 0.069148 0.175915 -0.085593
v 0.009145 0.466819 -1.008943
v 0.069593 0.178178 -0.084909
v 0.009589 0.469082 -1.008259
v 0.069458 0.180468 -0.084179
v 0.009455 0.471371 -1.007529
v 0.068753 0.182650 -0.083446
v 0.008750 0.473553 -1.006795
v 0.067518 0.184599 -0.082752
v 0.007515 0.475502 -1.006101
v 0.065825 0.186200 -0.082137
v 0.005821 0.477103 -1.005486
v 0.063772 0.187361 -0.081638
v 0.003769 0.478264 -1.004987
v 0.061479 0.188015 -0.081283
v 0.001476 0.478918 -1.004632
v 0.059079 0.188122 -0.081093
v -0.000925 0.479026 -1.004442
v 0.056711 0.187678 -0.081079
v -0.003292 0.478582 -1.004429
v 0.054513 0.186708 -0.081242
v -0.005490 0.477612 -1.004591
v 0.052613 0.185268 -0.081572
v -0.007390 0.476172 -1.004921
v 0.051121 0.183443 -0.082050
v -0.008882 0.474346 -1.005400
v 0.050124 0.181337 -0.082649
v -0.009879 0.472240 -1.005998
v 0.049680 0.179073 -0.083333
v -0.010323 0.469977 -1.006683
v 0.049815 0.176784 -0.084063
v -0.010189 0.467687 -1.007413
v 0.050520 0.174602 -0.084797
v -0.009483 0.465505 -1.008146
v 0.051755 0.172653 -0.085491
v -0.008248 0.463557 -1.008840
v 0.053448 0.171052 -0.086105
v -0.006555 0.461955 -1.009455
v 0.028229 0.175632 -0.072236
v -0.003369 0.366765 -1.022641
v 0.030516 0.174901 -0.072459
v -0.001082 0.366034 -1.022864
v 0.032917 0.174728 -0.072574
v 0.001319 0.365861 -1.022978
v 0.035293 0.175123 -0.072573
v 0.003695 0.366256 -1.022978
v 0.037507 0.176063 -0.072458
v 0.005909 0.367196 -1.022862
v 0.039429 0.177494 -0.072234
v 0.007831 0.368627 -1.022639
v 0.040948 0.179332 -0.071915
v 0.009350 0.370465 -1.022320
v 0.041976 0.181471 -0.071519
v 0.010378 0.372603 -1.021924
v 0.042452 0.183786 -0.071069
v 0.010854 0.374918 -1.021474
v 0.042350 0.186143 -0.070592
v 0.010752 0.377275 -1.020997
v 0.041675 0.188404 -0.070115
v 0.010077 0.379536 -1.020519
v 0.040466 0.190439 -0.069665
v 0.008868 0.381571 -1.020070
v 0.038794 0.192129 -0.069270
v 0.007196 0.383261 -1.019675
v 0.036755 0.193375 -0.068951
v 0.005157 0.384508 -1.019356
v 0.034469 0.194106 -0.068728
v 0.002871 0.385239 -1.019133
v 0.032068 0.194279 -0.068614
v 0.000470 0.385412 -1.019018
v 0.029691 0.193884 -0.068614
v -0.001907 0.385017 -1.019019
v 0.027478 0.192944 -0.068729
v -0.004120 0.384077 -1.019134
v 0.025555 0.191514 -0.068953
v -0.006043 0.382646 -1.019358
v 0.024036 0.189675 -0.069272
v -0.007562 0.380808 -1.019677
v 0.023009 0.187537 -0.069668
v -0.008589 0.378669 -1.020073
v 0.022532 0.185222 -0.070118
v -0.009066 0.376354 -1.020523
v 0.022634 0.182865 -0.070595
v -0.008964 0.373998 -1.021000
v 0.023310 0.180604 -0.071073
v -0.008288 0.371736 -1.021477
v 0.024519 0.178569 -0.071522
v -0.007079 0.369701 -1.021927
v 0.026191 0.176879 -0.071917
v -0.005407 0.368012 -1.022322
v 0.005788 0.181477 -0.063942
v -0.004813 0.275753 -1.029239
v 0.008020 0.180573 -0.064055
v -0.002581 0.274849 -1.029352
v 0.010404 0.180227 -0.064115
v -0.000197 0.274503 -1.029412
v 0.012802 0.180458 -0.064119
v 0.002201 0.274734 -1.029416
v 0.015074 0.181253 -0.064066
v 0.004473 0.275529 -1.029363
v 0.017089 0.182565 -0.063960
v 0.006488 0.276841 -1.029257
v 0.018729 0.184319 -0.063807
v 0.008128 0.278595 -1.029104
v 0.019898 0.186412 -0.063615
v 0.009297 0.280688 -1.028912
v 0.020530 0.188723 -0.063396
v 0.009929 0.282999 -1.028693
v 0.020586 0.191118 -0.063163
v 0.009985 0.285394 -1.028460
v 0.020065 0.193457 -0.062929
v 0.009464 0.287733 -1.028226
v 0.018996 0.195605 -0.062707
v 0.008395 0.289881 -1.028005
v 0.017441 0.197436 -0.062512
v 0.006840 0.291712 -1.027809
v 0.015491 0.198844 -0.062353
v 0.004890 0.293120 -1.027650
v 0.013259 0.199747 -0.062240
v 0.002658 0.294023 -1.027537
v 0.010874 0.200094 -0.062180
v 0.000273 0.294370 -1.027477
v 0.008477 0.199863 -0.062176
v -0.002125 0.294139 -1.027473
v 0.006204 0.199068 -0.062229
v -0.004397 0.293344 -1.027526
v 0.004190 0.197756 -0.062335
v -0.006411 0.292032 -1.027632
v 0.002550 0.196002 -0.062488
v -0.008051 0.290278 -1.027785
v 0.001380 0.193908 -0.062680
v -0.009221 0.288185 -1.027977
v 0.000749 0.191597 -0.062898
v -0.009852 0.285873 -1.028196
v 0.000692 0.189203 -0.063132
v -0.009909 0.283479 -1.028429
v 0.001214 0.186864 -0.063366
v -0.009387 0.281140 -1.028663
v 0.002283 0.184716 -0.063587
v -0.008318 0.278992 -1.028884
v 0.003838 0.182885 -0.063783
v -0.006763 0.277161 -1.029080
v -0.067725 0.191107 -0.120791
v -0.067725 0.217668 -0.120791
v -0.067725 0.191107 -0.059491
v -0.067725 0.217668 -0.059491
v 0.076926 0.191107 -0.120791
v 0.076926 0.217668 -0.120791
v 0.076926 0.191107 -0.059491
v 0.076926 0.217668 -0.059491
v -0.027135 0.187471 -0.061264
v -0.002526 0.200625 -1.030810
v -0.024900 0.186568 -0.061219
v -0.000291 0.199722 -1.030766
v -0.022515 0.186225 -0.061163
v 0.002094 0.199379 -1.030710
v -0.020119 0.186462 -0.061099
v 0.004490 0.199616 -1.030646
v -0.017850 0.187266 -0.061031
v 0.006759 0.200420 -1.030577
v -0.015840 0.188589 -0.060962
v 0.008768 0.201743 -1.030508
v -0.014207 0.190354 -0.060896
v 0.010401 0.203508 -1.030443
v -0.013046 0.192460 -0.060838
v 0.011563 0.205614 -1.030385
v -0.012422 0.194783 -0.060791
v 0.012186 0.207937 -1.030337
v -0.012374 0.197189 -0.060757
v 0.012234 0.210343 -1.030303
v -0.012904 0.199538 -0.060739
v 0.011705 0.212692 -1.030285
v -0.013980 0.201693 -0.060737
v 0.010628 0.214847 -1.030283
v -0.015541 0.203529 -0.060751
v 0.009067 0.216683 -1.030298
v -0.017496 0.204940 -0.060782
v 0.007113 0.218094 -1.030329
v -0.019731 0.205843 -0.060826
v 0.004878 0.218997 -1.030373
v -0.022116 0.206186 -0.060882
v 0.002493 0.219340 -1.030429
v -0.024512 0.205949 -0.060946
v 0.000097 0.219103 -1.030493
v -0.026781 0.205145 -0.061015
v -0.002172 0.218299 -1.030561
v -0.028790 0.203823 -0.061084
v -0.004182 0.216976 -1.030630
v -0.030423 0.202057 -0.061149
v -0.005815 0.215211 -1.030696
v -0.031585 0.199951 -0.061207
v -0.006976 0.213105 -1.030754
v -0.032208 0.197628 -0.061254
v -0.007600 0.210782 -1.030801
v -0.032256 0.195222 -0.061288
v -0.007648 0.208376 -1.030835
v -0.031727 0.192873 -0.061307
v -0.007118 0.206027 -1.030853
v -0.030650 0.190718 -0.061309
v -0.006042 0.203872 -1.030855
v -0.029089 0.188882 -0.061294
v -0.004481 0.202036 -1.030841
vn -1.0000 -0.0000 -0.0000
vn -0.0000 -0.0000 -1.0000
vn 1.0000 -0.0000 -0.0000
vn -0.0000 -0.0000 1.0000
vn -0.0000 -1.0000 -0.0000
vn -0.0000 1.0000 -0.0000
vn -0.0000 -0.1081 -0.9941
vn -0.0000 -0.3193 -0.9477
vn -0.0000 -0.5156 -0.8569
vn -0.0000 -0.6877 -0.7260
vn -0.0000 -0.8277 -0.5612
vn -0.0000 -0.9290 -0.3701
vn -0.0000 -0.9868 -0.1618
vn -0.0000 -0.9985 0.0541
vn -0.0000 -0.9635 0.2675
vn -0.0000 -0.8835 0.4684
vn -0.0000 -0.7622 0.6474
vn -0.0000 -0.6052 0.7961
vn -0.0000 -0.4199 0.9076
vn -0.0000 -0.2150 0.9766
vn -0.0000 0.2150 0.9766
vn -0.0000 0.4199 0.9076
vn -0.0000 0.6052 0.7961
vn -0.0000 0.7622 0.6474
vn -0.0000 0.8835 0.4684
vn -0.0000 0.9636 0.2675
vn -0.0000 0.9985 0.0541
vn -0.0000 0.9868 -0.1618
vn -0.0000 0.9290 -0.3701
vn -0.0000 0.8277 -0.5612
vn -0.0000 0.6877 -0.7260
vn -0.0000 0.5156 -0.8569
vn -0.0000 0.3193 -0.9477
vn -0.0000 0.1081 -0.9941
vn -0.0000 -0.5000 -0.8660
vn -0.0000 -0.5000 0.8660
vn -0.0000 0.5000 0.8660
vn -0.0000 0.5000 -0.8660
vn -0.3022 -0.9146 -0.2685
vn -0.0663 -0.9529 -0.2959
vn 0.1737 -0.9360 -0.3062
vn 0.4038 -0.8647 -0.2987
vn 0.6107 -0.7431 -0.2738
vn 0.7821 -0.5780 -0.2329
vn 0.9080 -0.3791 -0.1785
vn 0.9809 -0.1582 -0.1136
vn 0.9965 0.0719 -0.0421
vn 0.9541 0.2977 0.0318
vn 0.8563 0.5059 0.1037
vn 0.7090 0.6845 0.1696
vn 0.5207 0.8234 0.2256
vn 0.3022 0.9146 0.2685
vn 0.0663 0.9529 0.2959
vn -0.1737 0.9360 0.3062
vn -0.4038 0.8647 0.2987
vn -0.6107 0.7430 0.2738
vn -0.7821 0.5780 0.2329
vn -0.9080 0.3791 0.1785
vn -0.9809 0.1581 0.1136
vn -0.9965 -0.0719 0.0421
vn -0.9541 -0.2977 -0.0318
vn -0.8563 -0.5059 -0.1037
vn -0.0619 0.2999 -0.9520
vn -0.7090 -0.6845 -0.1696
vn -0.5206 -0.8234 -0.2256
vn 0.0619 -0.2999 0.9520
vn -0.3154 -0.9323 -0.1770
vn -0.0797 -0.9778 -0.1940
vn 0.1607 -0.9666 -0.1997
vn 0.3921 -0.8993 -0.1939
vn 0.6008 -0.7796 -0.1768
vn 0.7748 -0.6144 -0.1493
vn 0.9036 -0.4132 -0.1131
vn 0.9796 -0.1880 -0.0704
vn 0.9986 0.0481 -0.0235
vn 0.9593 0.2812 0.0247
vn 0.8644 0.4978 0.0714
vn 0.7194 0.6852 0.1139
vn 0.5328 0.8329 0.1498
vn 0.3154 0.9323 0.1770
vn 0.0797 0.9778 0.1940
vn -0.1607 0.9666 0.1997
vn -0.3921 0.8993 0.1939
vn -0.6008 0.7796 0.1768
vn -0.7748 0.6144 0.1493
vn -0.9036 0.4132 0.1131
vn -0.9796 0.1880 0.0704
vn -0.9986 -0.0481 0.0235
vn -0.9593 -0.2812 -0.0247
vn -0.8644 -0.4978 -0.0714
vn -0.0326 0.1971 -0.9799
vn -0.7194 -0.6852 -0.1139
vn -0.5328 -0.8329 -0.1498
vn 0.0326 -0.1971 0.9799
vn -0.3776 -0.9220 -0.0859
vn -0.1455 -0.9848 -0.0946
vn 0.0952 -0.9906 -0.0978
vn 0.3306 -0.9389 -0.0953
vn 0.5470 -0.8326 -0.0873
vn 0.7317 -0.6776 -0.0742
vn 0.8738 -0.4830 -0.0568
vn 0.9649 -0.2602 -0.0360
vn 0.9997 -0.0224 -0.0132
vn 0.9762 0.2166 0.0104
vn 0.8961 0.4427 0.0334
vn 0.7640 0.6429 0.0544
vn 0.5878 0.8058 0.0722
vn 0.3776 0.9220 0.0859
vn 0.1455 0.9848 0.0946
vn -0.0952 0.9906 0.0978
vn -0.3306 0.9389 0.0953
vn -0.5470 0.8326 0.0873
vn -0.7317 0.6776 0.0742
vn -0.8738 0.4830 0.0568
vn -0.9649 0.2602 0.0360
vn -0.9997 0.0224 0.0132
vn -0.9762 -0.2166 -0.0104
vn -0.8961 -0.4427 -0.0334
vn -0.0109 0.0972 -0.9952
vn -0.7640 -0.6429 -0.0544
vn -0.5878 -0.8058 -0.0722
vn 0.0109 -0.0972 0.9952
vn -0.3742 -0.9271 -0.0221
vn -0.1419 -0.9897 -0.0170
vn 0.0987 -0.9951 -0.0110
vn 0.3339 -0.9426 -0.0043
vn 0.5498 -0.8353 0.0026
vn 0.7339 -0.6792 0.0094
vn 0.8753 -0.4834 0.0157
vn 0.9655 -0.2594 0.0210
vn 0.9995 -0.0204 0.0251
vn 0.9752 0.2197 0.0277
vn 0.8942 0.4467 0.0288
vn 0.7615 0.6476 0.0281
vn 0.5847 0.8108 0.0258
vn 0.3742 0.9271 0.0221
vn 0.1419 0.9897 0.0170
vn -0.0987 0.9951 0.0110
vn -0.3339 0.9426 0.0043
vn -0.5498 0.8353 -0.0026
vn -0.7339 0.6792 -0.0094
vn -0.8753 0.4834 -0.0157
vn -0.9655 0.2594 -0.0210
vn -0.9995 0.0204 -0.0251
vn -0.9752 -0.2197 -0.0277
vn -0.8942 -0.4467 -0.0288
vn 0.0254 0.0136 -0.9996
vn -0.7615 -0.6476 -0.0281
vn -0.5847 -0.8108 -0.0258
vn -0.0254 -0.0136 0.9996
vt 0.375000 0.000000
vt 0.625000 0.000000
vt 0.625000 0.250000
vt 0.375000 0.250000
vt 0.625000 0.500000
vt 0.375000 0.500000
vt 0.625000 0.750000
vt 0.375000 0.750000
vt 0.625000 1.000000
vt 0.375000 1.000000
vt 0.125000 0.500000
vt 0.125000 0.750000
vt 0.875000 0.500000
vt 0.875000 0.750000
vt 1.000000 0.500000
vt 0.965517 0.500000
vt 0.965517 1.000000
vt 1.000000 1.000000
vt 0.931034 0.500000
vt 0.931034 1.000000
vt 0.896552 0.500000
vt 0.896552 1.000000
vt 0.862069 0.500000
vt 0.862069 1.000000
vt 0.827586 0.500000
vt 0.827586 1.000000
vt 0.793103 0.500000
vt 0.793103 1.000000
vt 0.758621 0.500000
vt 0.758621 1.000000
vt 0.724138 0.500000
vt 0.724138 1.000000
vt 0.689655 0.500000
vt 0.689655 1.000000
vt 0.655172 0.500000
vt 0.655172 1.000000
vt 0.620689 0.500000
vt 0.620689 1.000000
vt 0.586207 0.500000
vt 0.586207 1.000000
vt 0.551724 0.500000
vt 0.551724 1.000000
vt 0.517241 0.500000
vt 0.517241 1.000000
vt 0.482758 0.500000
vt 0.482758 1.000000
vt 0.448276 0.500000
vt 0.448276 1.000000
vt 0.413793 0.500000
vt 0.413793 1.000000
vt 0.379310 0.500000
vt 0.379310 1.000000
vt 0.344827 0.500000
vt 0.344827 1.000000
vt 0.310345 0.500000
vt 0.310345 1.000000
vt 0.275862 0.500000
vt 0.275862 1.000000
vt 0.241379 0.500000
vt 0.241379 1.000000
vt 0.206896 0.500000
vt 0.206896 1.000000
vt 0.172414 0.500000
vt 0.172414 1.000000
vt 0.137931 0.500000
vt 0.137931 1.000000
vt 0.103448 0.500000
vt 0.103448 1.000000
vt 0.068965 0.500000
vt 0.068965 1.000000
vt 0.301593 0.484389
vt 0.350773 0.467818
vt 0.395242 0.441062
vt 0.432919 0.405373
vt 0.462043 0.362418
vt 0.481252 0.314207
vt 0.489648 0.262993
vt 0.486838 0.211172
vt 0.472954 0.161167
vt 0.448645 0.115315
vt 0.415048 0.075761
vt 0.373733 0.044354
vt 0.326632 0.022563
vt 0.275949 0.011407
vt 0.224051 0.011407
vt 0.173368 0.022563
vt 0.126267 0.044354
vt 0.084952 0.075761
vt 0.051355 0.115315
vt 0.027046 0.161167
vt 0.013162 0.211172
vt 0.010352 0.262993
vt 0.018748 0.314207
vt 0.037957 0.362418
vt 0.067081 0.405373
vt 0.104758 0.441062
vt 0.149227 0.467818
vt 0.198407 0.484389
vt 0.250000 0.490000
vt 0.034483 0.500000
vt 0.034483 1.000000
vt -0.000000 0.500000
vt -0.000000 1.000000
vt 0.750000 0.490000
vt 0.698407 0.484389
vt 0.649227 0.467818
vt 0.604758 0.441062
vt 0.567081 0.405373
vt 0.537957 0.362418
vt 0.518748 0.314207
vt 0.510352 0.262993
vt 0.513162 0.211172
vt 0.527046 0.161167
vt 0.551355 0.115315
vt 0.584952 0.075761
vt 0.626267 0.044354
vt 0.673368 0.022563
vt 0.724051 0.011407
vt 0.775949 0.011407
vt 0.826632 0.022563
vt 0.873733 0.044354
vt 0.915048 0.075761
vt 0.948645 0.115315
vt 0.972954 0.161167
vt 0.986838 0.211172
vt 0.989648 0.262993
vt 0.981252 0.314207
vt 0.962043 0.362418
vt 0.932919 0.405373
vt 0.895242 0.441062
vt 0.850773 0.467818
vt 0.801593 0.484389
vt 0.833333 1.000000
vt 0.833333 0.500000
vt 0.666667 1.000000
vt 0.666667 0.500000
vt 0.500000 1.000000
vt 0.500000 0.500000
vt 0.333333 1.000000
vt 0.333333 0.500000
vt 0.457846 0.370000
vt 0.042154 0.370000
vt 0.042154 0.130000
vt 0.250000 0.010000
vt 0.457846 0.130000
vt 0.166667 1.000000
vt 0.166667 0.500000
vt -0.000000 1.000000
vt -0.000000 0.500000
vt 0.957846 0.370000
vt 0.957846 0.130000
vt 0.750000 0.010000
vt 0.542154 0.130000
vt 0.542154 0.370000
vt 0.961538 1.000000
vt 0.961538 0.500000
vt 0.923077 1.000000
vt 0.923077 0.500000
vt 0.884615 1.000000
vt 0.884615 0.500000
vt 0.846154 1.000000
vt 0.846154 0.500000
vt 0.807692 1.000000
vt 0.807692 0.500000
vt 0.769231 1.000000
vt 0.769231 0.500000
vt 0.730769 1.000000
vt 0.730769 0.500000
vt 0.692307 1.000000
vt 0.692307 0.500000
vt 0.653846 1.000000
vt 0.653846 0.500000
vt 0.615384 1.000000
vt 0.615384 0.500000
vt 0.576923 1.000000
vt 0.576923 0.500000
vt 0.538461 1.000000
vt 0.538461 0.500000
vt 0.500000 1.000000
vt 0.500000 0.500000
vt 0.461538 1.000000
vt 0.461538 0.500000
vt 0.423077 1.000000
vt 0.423077 0.500000
vt 0.384615 1.000000
vt 0.384615 0.500000
vt 0.346154 1.000000
vt 0.346154 0.500000
vt 0.307692 1.000000
vt 0.307692 0.500000
vt 0.269230 1.000000
vt 0.269230 0.500000
vt 0.230769 1.000000
vt 0.230769 0.500000
vt 0.192307 1.000000
vt 0.192307 0.500000
vt 0.153846 1.000000
vt 0.153846 0.500000
vt 0.115384 1.000000
vt 0.115384 0.500000
vt 0.076923 1.000000
vt 0.076923 0.500000
vt 0.307436 0.483026
vt 0.250000 0.490000
vt 0.192564 0.483026
vt 0.138466 0.462509
vt 0.090851 0.429643
vt 0.052484 0.386336
vt 0.025596 0.335105
vt 0.011750 0.278929
vt 0.011750 0.221071
vt 0.025596 0.164895
vt 0.052484 0.113664
vt 0.090851 0.070357
vt 0.138466 0.037491
vt 0.192564 0.016974
vt 0.250000 0.010000
vt 0.307436 0.016974
vt 0.361534 0.037491
vt 0.409149 0.070357
vt 0.447516 0.113664
vt 0.474404 0.164895
vt 0.488250 0.221071
vt 0.488250 0.278929
vt 0.474404 0.335105
vt 0.447516 0.386336
vt 0.409149 0.429643
vt 0.361534 0.462509
vt 0.038461 1.000000
vt 0.038461 0.500000
vt -0.000000 1.000000
vt -0.000000 0.500000
vt 0.750000 0.490000
vt 0.807436 0.483026
vt 0.861534 0.462509
vt 0.909149 0.429643
vt 0.947516 0.386336
vt 0.974404 0.335105
vt 0.988250 0.278929
vt 0.988250 0.221071
vt 0.974404 0.164895
vt 0.947516 0.113664
vt 0.909149 0.070357
vt 0.861534 0.037491
vt 0.807436 0.016974
vt 0.750000 0.010000
vt 0.692564 0.016974
vt 0.638466 0.037491
vt 0.590851 0.070357
vt 0.552484 0.113664
vt 0.525596 0.164895
vt 0.511750 0.221071
vt 0.511750 0.278929
vt 0.525596 0.335105
vt 0.552484 0.386336
vt 0.590851 0.429643
vt 0.638466 0.462509
vt 0.692564 0.483026
s 0
usemtl Material
f 1/1/1 2/2/1 4/3/1 3/4/1
f 3/4/2 4/3/2 8/5/2 7/6/2
f 7/6/3 8/5/3 6/7/3 5/8/3
f 5/8/4 6/7/4 2/9/4 1/10/4
f 3/11/5 7/6/5 5/8/5 1/12/5
f 8/5/6 4/13/6 2/14/6 6/7/6
usemtl 
f 9/1/1 10/2/1 12/3/1 11/4/1
f 11/4/2 12/3/2 16/5/2 15/6/2
f 15/6/3 16/5/3 14/7/3 13/8/3
f 13/8/4 14/7/4 10/9/4 9/10/4
f 11/11/5 15/6/5 13/8/5 9/12/5
f 16/5/6 12/13/6 10/14/6 14/7/6
usemtl Material.003
f 17/1/3 18/2/3 20/3/3 19/4/3
f 19/4/4 20/3/4 24/5/4 23/6/4
f 23/6/1 24/5/1 22/7/1 21/8/1
f 21/8/2 22/7/2 18/9/2 17/10/2
f 19/11/5 23/6/5 21/8/5 17/12/5
f 24/5/6 20/13/6 18/14/6 22/7/6
usemtl Material.001
f 25/1/1 26/2/1 28/3/1 27/4/1
f 27/4/4 28/3/4 32/5/4 31/6/4
f 31/6/3 32/5/3 30/7/3 29/8/3
f 29/8/2 30/7/2 26/9/2 25/10/2
f 27/11/6 31/6/6 29/8/6 25/12/6
f 32/5/5 28/13/5 26/14/5 30/7/5
usemtl Material.006
f 33/1/3 34/2/3 36/3/3 35/4/3
f 35/4/4 36/3/4 40/5/4 39/6/4
f 39/6/1 40/5/1 38/7/1 37/8/1
f 37/8/2 38/7/2 34/9/2 33/10/2
f 35/11/5 39/6/5 37/8/5 33/12/5
f 40/5/6 36/13/6 34/14/6 38/7/6
usemtl Material.012
f 41/1/3 42/2/3 44/3/3 43/4/3
f 43/4/4 44/3/4 48/5/4 47/6/4
f 47/6/1 48/5/1 46/7/1 45/8/1
f 45/8/2 46/7/2 42/9/2 41/10/2
f 43/11/5 47/6/5 45/8/5 41/12/5
f 48/5/6 44/13/6 42/14/6 46/7/6
usemtl Material.022
f 49/15/7 51/16/7 52/17/7 50/18/7
f 51/16/8 53/19/8 54/20/8 52/17/8
f 53/19/9 55/21/9 56/22/9 54/20/9
f 55/21/10 57/23/10 58/24/10 56/22/10
f 57/23/11 59/25/11 60/26/11 58/24/11
f 59/25/12 61/27/12 62/28/12 60/26/12
f 61/27/13 63/29/13 64/30/13 62/28/13
f 63/29/14 65/31/14 66/32/14 64/30/14
f 65/31/15 67/33/15 68/34/15 66/32/15
f 67/33/16 69/35/16 70/36/16 68/34/16
f 69/35/17 71/37/17 72/38/17 70/36/17
f 71/37/18 73/39/18 74/40/18 72/38/18
f 73/39/19 75/41/19 76/42/19 74/40/19
f 75/41/20 77/43/20 78/44/20 76/42/20
f 77/43/4 79/45/4 80/46/4 78/44/4
f 79/45/21 81/47/21 82/48/21 80/46/21
f 81/47/22 83/49/22 84/50/22 82/48/22
f 83/49/23 85/51/23 86/52/23 84/50/23
f 85/51/24 87/53/24 88/54/24 86/52/24
f 87/53/25 89/55/25 90/56/25 88/54/25
f 89/55/26 91/57/26 92/58/26 90/56/26
f 91/57/27 93/59/27 94/60/27 92/58/27
f 93/59/28 95/61/28 96/62/28 94/60/28
f 95/61/29 97/63/29 98/64/29 96/62/29
f 97/63/30 99/65/30 100/66/30 98/64/30
f 99/65/31 101/67/31 102/68/31 100/66/31
f 101/67/32 103/69/32 104/70/32 102/68/32
f 52/71/1 54/72/1 56/73/1 58/74/1 60/75/1 62/76/1 64/77/1 66/78/1 68/79/1 70/80/1 72/81/1 74/82/1 76/83/1 78/84/1 80/85/1 82/86/1 84/87/1 86/88/1 88/89/1 90/90/1 92/91/1 94/92/1 96/93/1 98/94/1 100/95/1 102/96/1 104/97/1 106/98/1 50/99/1
f 103/69/33 105/100/33 106/101/33 104/70/33
f 105/100/34 49/102/34 50/103/34 106/101/34
f 49/104/3 105/105/3 103/106/3 101/107/3 99/108/3 97/109/3 95/110/3 93/111/3 91/112/3 89/113/3 87/114/3 85/115/3 83/116/3 81/117/3 79/118/3 77/119/3 75/120/3 73/121/3 71/122/3 69/123/3 67/124/3 65/125/3 63/126/3 61/127/3 59/128/3 57/129/3 55/130/3 53/131/3 51/132/3
usemtl Material.021
f 107/15/7 109/16/7 110/17/7 108/18/7
f 109/16/8 111/19/8 112/20/8 110/17/8
f 111/19/9 113/21/9 114/22/9 112/20/9
f 113/21/10 115/23/10 116/24/10 114/22/10
f 115/23/11 117/25/11 118/26/11 116/24/11
f 117/25/12 119/27/12 120/28/12 118/26/12
f 119/27/13 121/29/13 122/30/13 120/28/13
f 121/29/14 123/31/14 124/32/14 122/30/14
f 123/31/15 125/33/15 126/34/15 124/32/15
f 125/33/16 127/35/16 128/36/16 126/34/16
f 127/35/17 129/37/17 130/38/17 128/36/17
f 129/37/18 131/39/18 132/40/18 130/38/18
f 131/39/19 133/41/19 134/42/19 132/40/19
f 133/41/20 135/43/20 136/44/20 134/42/20
f 135/43/4 137/45/4 138/46/4 136/44/4
f 137/45/21 139/47/21 140/48/21 138/46/21
f 139/47/22 141/49/22 142/50/22 140/48/22
f 141/49/23 143/51/23 144/52/23 142/50/23
f 143/51/24 145/53/24 146/54/24 144/52/24
f 145/53/25 147/55/25 148/56/25 146/54/25
f 147/55/26 149/57/26 150/58/26 148/56/26
f 149/57/27 151/59/27 152/60/27 150/58/27
f 151/59/28 153/61/28 154/62/28 152/60/28
f 153/61/29 155/63/29 156/64/29 154/62/29
f 155/63/30 157/65/30 158/66/30 156/64/30
f 157/65/31 159/67/31 160/68/31 158/66/31
f 159/67/32 161/69/32 162/70/32 160/68/32
f 110/71/1 112/72/1 114/73/1 116/74/1 118/75/1 120/76/1 122/77/1 124/78/1 126/79/1 128/80/1 130/81/1 132/82/1 134/83/1 136/84/1 138/85/1 140/86/1 142/87/1 144/88/1 146/89/1 148/90/1 150/91/1 152/92/1 154/93/1 156/94/1 158/95/1 160/96/1 162/97/1 164/98/1 108/99/1
f 161/69/33 163/100/33 164/101/33 162/70/33
f 163/100/34 107/102/34 108/103/34 164/101/34
f 107/104/3 163/105/3 161/106/3 159/107/3 157/108/3 155/109/3 153/110/3 151/111/3 149/112/3 147/113/3 145/114/3 143/115/3 141/116/3 139/117/3 137/118/3 135/119/3 133/120/3 131/121/3 129/122/3 127/123/3 125/124/3 123/125/3 121/126/3 119/127/3 117/128/3 115/129/3 113/130/3 111/131/3 109/132/3
usemtl Material.007
f 165/15/7 166/18/7 168/17/7 167/16/7
f 167/16/8 168/17/8 170/20/8 169/19/8
f 169/19/9 170/20/9 172/22/9 171/21/9
f 171/21/10 172/22/10 174/24/10 173/23/10
f 173/23/11 174/24/11 176/26/11 175/25/11
f 175/25/12 176/26/12 178/28/12 177/27/12
f 177/27/13 178/28/13 180/30/13 179/29/13
f 179/29/14 180/30/14 182/32/14 181/31/14
f 181/31/15 182/32/15 184/34/15 183/33/15
f 183/33/16 184/34/16 186/36/16 185/35/16
f 185/35/17 186/36/17 188/38/17 187/37/17
f 187/37/18 188/38/18 190/40/18 189/39/18
f 189/39/19 190/40/19 192/42/19 191/41/19
f 191/41/20 192/42/20 194/44/20 193/43/20
f 193/43/4 194/44/4 196/46/4 195/45/4
f 195/45/21 196/46/21 198/48/21 197/47/21
f 197/47/22 198/48/22 200/50/22 199/49/22
f 199/49/23 200/50/23 202/52/23 201/51/23
f 201/51/24 202/52/24 204/54/24 203/53/24
f 203/53/25 204/54/25 206/56/25 205/55/25
f 205/55/26 206/56/26 208/58/26 207/57/26
f 207/57/27 208/58/27 210/60/27 209/59/27
f 209/59/28 210/60/28 212/62/28 211/61/28
f 211/61/29 212/62/29 214/64/29 213/63/29
f 213/63/30 214/64/30 216/66/30 215/65/30
f 215/65/31 216/66/31 218/68/31 217/67/31
f 217/67/32 218/68/32 220/70/32 219/69/32
f 168/71/3 166/99/3 222/98/3 220/97/3 218/96/3 216/95/3 214/94/3 212/93/3 210/92/3 208/91/3 206/90/3 204/89/3 202/88/3 200/87/3 198/86/3 196/85/3 194/84/3 192/83/3 190/82/3 188/81/3 186/80/3 184/79/3 182/78/3 180/77/3 178/76/3 176/75/3 174/74/3 172/73/3 170/72/3
f 219/69/33 220/70/33 222/101/33 221/100/33
f 221/100/34 222/101/34 166/103/34 165/102/34
f 165/104/1 167/132/1 169/131/1 171/130/1 173/129/1 175/128/1 177/127/1 179/126/1 181/125/1 183/124/1 185/123/1 187/122/1 189/121/1 191/120/1 193/119/1 195/118/1 197/117/1 199/116/1 201/115/1 203/114/1 205/113/1 207/112/1 209/111/1 211/110/1 213/109/1 215/108/1 217/107/1 219/106/1 221/105/1
usemtl Material.004
f 223/15/35 224/18/35 226/133/35 225/134/35
f 225/134/5 226/133/5 228/135/5 227/136/5
f 227/136/36 228/135/36 230/137/36 229/138/36
f 229/138/37 230/137/37 232/139/37 231/140/37
f 226/141/3 224/99/3 234/142/3 232/143/3 230/144/3 228/145/3
f 231/140/6 232/139/6 234/146/6 233/147/6
f 233/147/38 234/146/38 224/148/38 223/149/38
f 223/104/1 225/150/1 227/151/1 229/152/1 231/153/1 233/154/1
usemtl Material.005
f 235/15/35 236/18/35 238/133/35 237/134/35
f 237/134/5 238/133/5 240/135/5 239/136/5
f 239/136/36 240/135/36 242/137/36 241/138/36
f 241/138/37 242/137/37 244/139/37 243/140/37
f 238/141/3 236/99/3 246/142/3 244/143/3 242/144/3 240/145/3
f 243/140/6 244/139/6 246/146/6 245/147/6
f 245/147/38 246/146/38 236/148/38 235/149/38
f 235/104/1 237/150/1 239/151/1 241/152/1 243/153/1 245/154/1
usemtl Material.017
f 247/15/39 248/18/39 250/155/39 249/156/39
f 249/156/40 250/155/40 252/157/40 251/158/40
f 251/158/41 252/157/41 254/159/41 253/160/41
f 253/160/42 254/159/42 256/161/42 255/162/42
f 255/162/43 256/161/43 258/163/43 257/164/43
f 257/164/44 258/163/44 260/165/44 259/166/44
f 259/166/45 260/165/45 262/167/45 261/168/45
f 261/168/46 262/167/46 264/169/46 263/170/46
f 263/170/47 264/169/47 266/171/47 265/172/47
f 265/172/48 266/171/48 268/173/48 267/174/48
f 267/174/49 268/173/49 270/175/49 269/176/49
f 269/176/50 270/175/50 272/177/50 271/178/50
f 271/178/51 272/177/51 274/179/51 273/180/51
f 273/180/52 274/179/52 276/181/52 275/182/52
f 275/182/53 276/181/53 278/183/53 277/184/53
f 277/184/54 278/183/54 280/185/54 279/186/54
f 279/186/55 280/185/55 282/187/55 281/188/55
f 281/188/56 282/187/56 284/189/56 283/190/56
f 283/190/57 284/189/57 286/191/57 285/192/57
f 285/192/58 286/191/58 288/193/58 287/194/58
f 287/194/59 288/193/59 290/195/59 289/196/59
f 289/196/60 290/195/60 292/197/60 291/198/60
f 291/198/61 292/197/61 294/199/61 293/200/61
f 293/200/62 294/199/62 296/201/62 295/202/62
f 250/203/63 248/204/63 298/205/63 296/206/63 294/207/63 292/208/63 290/209/63 288/210/63 286/211/63 284/212/63 282/213/63 280/214/63 278/215/63 276/216/63 274/217/63 272/218/63 270/219/63 268/220/63 266/221/63 264/222/63 262/223/63 260/224/63 258/225/63 256/226/63 254/227/63 252/228/63
f 295/202/64 296/201/64 298/229/64 297/230/64
f 297/230/65 298/229/65 248/231/65 247/232/65
f 247/233/66 249/234/66 251/235/66 253/236/66 255/237/66 257/238/66 259/239/66 261/240/66 263/241/66 265/242/66 267/243/66 269/244/66 271/245/66 273/246/66 275/247/66 277/248/66 279/249/66 281/250/66 283/251/66 285/252/66 287/253/66 289/254/66 291/255/66 293/256/66 295/257/66 297/258/66
usemtl Material.018
f 299/15/67 300/18/67 302/155/67 301/156/67
f 301/156/68 302/155/68 304/157/68 303/158/68
f 303/158/69 304/157/69 306/159/69 305/160/69
f 305/160/70 306/159/70 308/161/70 307/162/70
f 307/162/71 308/161/71 310/163/71 309/164/71
f 309/164/72 310/163/72 312/165/72 311/166/72
f 311/166/73 312/165/73 314/167/73 313/168/73
f 313/168/74 314/167/74 316/169/74 315/170/74
f 315/170/75 316/169/75 318/171/75 317/172/75
f 317/172/76 318/171/76 320/173/76 319/174/76
f 319/174/77 320/173/77 322/175/77 321/176/77
f 321/176/78 322/175/78 324/177/78 323/178/78
f 323/178/79 324/177/79 326/179/79 325/180/79
f 325/180/80 326/179/80 328/181/80 327/182/80
f 327/182/81 328/181/81 330/183/81 329/184/81
f 329/184/82 330/183/82 332/185/82 331/186/82
f 331/186/83 332/185/83 334/187/83 333/188/83
f 333/188/84 334/187/84 336/189/84 335/190/84
f 335/190/85 336/189/85 338/191/85 337/192/85
f 337/192/86 338/191/86 340/193/86 339/194/86
f 339/194/87 340/193/87 342/195/87 341/196/87
f 341/196/88 342/195/88 344/197/88 343/198/88
f 343/198/89 344/197/89 346/199/89 345/200/89
f 345/200/90 346/199/90 348/201/90 347/202/90
f 302/203/91 300/204/91 350/205/91 348/206/91 346/207/91 344/208/91 342/209/91 340/210/91 338/211/91 336/212/91 334/213/91 332/214/91 330/215/91 328/216/91 326/217/91 324/218/91 322/219/91 320/220/91 318/221/91 316/222/91 314/223/91 312/224/91 310/225/91 308/226/91 306/227/91 304/228/91
f 347/202/92 348/201/92 350/229/92 349/230/92
f 349/230/93 350/229/93 300/231/93 299/232/93
f 299/233/94 301/234/94 303/235/94 305/236/94 307/237/94 309/238/94 311/239/94 313/240/94 315/241/94 317/242/94 319/243/94 321/244/94 323/245/94 325/246/94 327/247/94 329/248/94 331/249/94 333/250/94 335/251/94 337/252/94 339/253/94 341/254/94 343/255/94 345/256/94 347/257/94 349/258/94
usemtl Material.019
f 351/15/95 352/18/95 354/155/95 353/156/95
f 353/156/96 354/155/96 356/157/96 355/158/96
f 355/158/97 356/157/97 358/159/97 357/160/97
f 357/160/98 358/159/98 360/161/98 359/162/98
f 359/162/99 360/161/99 362/163/99 361/164/99
f 361/164/100 362/163/100 364/165/100 363/166/100
f 363/166/101 364/165/101 366/167/101 365/168/101
f 365/168/102 366/167/102 368/169/102 367/170/102
f 367/170/103 368/169/103 370/171/103 369/172/103
f 369/172/104 370/171/104 372/173/104 371/174/104
f 371/174/105 372/173/105 374/175/105 373/176/105
f 373/176/106 374/175/106 376/177/106 375/178/106
f 375/178/107 376/177/107 378/179/107 377/180/107
f 377/180/108 378/179/108 380/181/108 379/182/108
f 379/182/109 380/181/109 382/183/109 381/184/109
f 381/184/110 382/183/110 384/185/110 383/186/110
f 383/186/111 384/185/111 386/187/111 385/188/111
f 385/188/112 386/187/112 388/189/112 387/190/112
f 387/190/113 388/189/113 390/191/113 389/192/113
f 389/192/114 390/191/114 392/193/114 391/194/114
f 391/194/115 392/193/115 394/195/115 393/196/115
f 393/196/116 394/195/116 396/197/116 395/198/116
f 395/198/117 396/197/117 398/199/117 397/200/117
f 397/200/118 398/199/118 400/201/118 399/202/118
f 354/203/119 352/204/119 402/205/119 400/206/119 398/207/119 396/208/119 394/209/119 392/210/119 390/211/119 388/212/119 386/213/119 384/214/119 382/215/119 380/216/119 378/217/119 376/218/119 374/219/119 372/220/119 370/221/119 368/222/119 366/223/119 364/224/119 362/225/119 360/226/119 358/227/119 356/228/119
f 399/202/120 400/201/120 402/229/120 401/230/120
f 401/230/121 402/229/121 352/231/121 351/232/121
f 351/233/122 353/234/122 355/235/122 357/236/122 359/237/122 361/238/122 363/239/122 365/240/122 367/241/122 369/242/122 371/243/122 373/244/122 375/245/122 377/246/122 379/247/122 381/248/122 383/249/122 385/250/122 387/251/122 389/252/122 391/253/122 393/254/122 395/255/122 397/256/122 399/257/122 401/258/122
usemtl Material.008
f 403/1/1 405/4/1 406/3/1 404/2/1
f 405/4/4 409/6/4 410/5/4 406/3/4
f 409/6/3 407/8/3 408/7/3 410/5/3
f 407/8/2 403/10/2 404/9/2 408/7/2
f 405/11/5 403/12/5 407/8/5 409/6/5
f 410/5/6 408/7/6 404/14/6 406/13/6
usemtl Material.020
f 411/15/123 412/18/123 414/155/123 413/156/123
f 413/156/124 414/155/124 416/157/124 415/158/124
f 415/158/125 416/157/125 418/159/125 417/160/125
f 417/160/126 418/159/126 420/161/126 419/162/126
f 419/162/127 420/161/127 422/163/127 421/164/127
f 421/164/128 422/163/128 424/165/128 423/166/128
f 423/166/129 424/165/129 426/167/129 425/168/129
f 425/168/130 426/167/130 428/169/130 427/170/130
f 427/170/131 428/169/131 430/171/131 429/172/131
f 429/172/132 430/171/132 432/173/132 431/174/132
f 431/174/133 432/173/133 434/175/133 433/176/133
f 433/176/134 434/175/134 436/177/134 435/178/134
f 435/178/135 436/177/135 438/179/135 437/180/135
f 437/180/136 438/179/136 440/181/136 439/182/136
f 439/182/137 440/181/137 442/183/137 441/184/137
f 441/184/138 442/183/138 444/185/138 443/186/138
f 443/186/139 444/185/139 446/187/139 445/188/139
f 445/188/140 446/187/140 448/189/140 447/190/140
f 447/190/141 448/189/141 450/191/141 449/192/141
f 449/192/142 450/191/142 452/193/142 451/194/142
f 451/194/143 452/193/143 454/195/143 453/196/143
f 453/196/144 454/195/144 456/197/144 455/198/144
f 455/198/145 456/197/145 458/199/145 457/200/145
f 457/200/146 458/199/146 460/201/146 459/202/146
f 414/203/147 412/204/147 462/205/147 460/206/147 458/207/147 456/208/147 454/209/147 452/210/147 450/211/147 448/212/147 446/213/147 444/214/147 442/215/147 440/216/147 438/217/147 436/218/147 434/219/147 432/220/147 430/221/147 428/222/147 426/223/147 424/224/147 422/225/147 420/226/147 418/227/147 416/228/147
f 459/202/148 460/201/148 462/229/148 461/230/148
f 461/230/149 462/229/149 412/231/149 411/232/149
f 411/233/150 413/234/150 415/235/150 417/236/150 419/237/150 421/238/150 423/239/150 425/240/150 427/241/150 429/242/150 431/243/150 433/244/150 435/245/150 437/246/150 439/247/150 441/248/150 443/249/150 445/250/150 447/251/150 449/252/150 451/253/150 453/254/150 455/255/150 457/256/150 459/257/150 461/258/150
