# Blender 4.4.0
# www.blender.org
mtllib road2newfix.mtl
o Cube
v -0.995161 0.096028 0.988960
v -0.995161 0.203386 0.988960
v -0.995161 0.096028 1.002767
v -0.995161 0.203386 1.002767
v 0.899804 0.096028 0.988960
v 0.899804 0.203386 0.988960
v 0.899804 0.096028 1.002767
v 0.899804 0.203386 1.002767
v 0.296969 0.185722 0.475978
v 0.279745 0.200125 0.475978
v 0.233542 0.209954 0.475978
v 0.173029 0.212091 0.475978
v 0.117418 0.205855 0.475978
v 0.084366 0.193228 0.475978
v 0.084366 0.178217 0.475978
v 0.117418 0.165590 0.475978
v 0.173029 0.159354 0.475978
v 0.233542 0.161490 0.475978
v 0.279745 0.171320 0.475978
v 0.290845 0.185722 0.393882
v 0.273789 0.200125 0.396129
v 0.228035 0.209954 0.402157
v 0.168111 0.212091 0.410051
v 0.113041 0.205855 0.417306
v 0.080311 0.193228 0.421618
v 0.080311 0.178217 0.421618
v 0.113041 0.165590 0.417306
v 0.168111 0.159354 0.410051
v 0.228035 0.161490 0.402157
v 0.273789 0.171320 0.396129
v 0.272591 0.185722 0.313384
v 0.256035 0.200125 0.317835
v 0.211621 0.209954 0.329772
v 0.153452 0.212091 0.345407
v 0.099996 0.205855 0.359776
v 0.068224 0.193228 0.368316
v 0.068224 0.178217 0.368316
v 0.099996 0.165590 0.359776
v 0.153452 0.159354 0.345407
v 0.211621 0.161490 0.329772
v 0.256035 0.171320 0.317835
v 0.242564 0.185722 0.236051
v 0.226829 0.200125 0.242618
v 0.184620 0.209954 0.260234
v 0.129339 0.212091 0.283305
v 0.078536 0.205855 0.304507
v 0.048341 0.193228 0.317109
v 0.048341 0.178217 0.317109
v 0.078536 0.165590 0.304507
v 0.129339 0.159354 0.283305
v 0.184620 0.161490 0.260234
v 0.226829 0.171320 0.242618
v 0.201347 0.185722 0.163388
v 0.186740 0.200125 0.171944
v 0.147557 0.209954 0.194894
v 0.096239 0.212091 0.224953
v 0.049079 0.205855 0.252576
v 0.021049 0.193228 0.268995
v 0.021049 0.178217 0.268995
v 0.049079 0.165590 0.252576
v 0.096239 0.159354 0.224953
v 0.147557 0.161490 0.194894
v 0.186740 0.171320 0.171944
v 0.149742 0.185722 0.096809
v 0.136548 0.200125 0.107187
v 0.101154 0.209954 0.135025
v 0.054798 0.212091 0.171487
v 0.012198 0.205855 0.204994
v -0.013121 0.193228 0.224909
v -0.013121 0.178217 0.224909
v 0.012198 0.165590 0.204994
v 0.054798 0.159354 0.171487
v 0.101154 0.161490 0.135025
v 0.136548 0.171320 0.107187
v 0.088755 0.185722 0.037610
v 0.077230 0.200125 0.049608
v 0.046314 0.209954 0.081793
v 0.005823 0.212091 0.123947
v -0.031388 0.205855 0.162685
v -0.053505 0.193228 0.185710
v -0.053505 0.178217 0.185710
v -0.031388 0.165590 0.162685
v 0.005823 0.159354 0.123947
v 0.046314 0.161490 0.081793
v 0.077230 0.171320 0.049608
v 0.019572 0.185722 -0.013057
v 0.009940 0.200125 0.000328
v -0.015896 0.209954 0.036233
v -0.049735 0.212091 0.083259
v -0.080832 0.205855 0.126475
v -0.099315 0.193228 0.152161
v -0.099315 0.178217 0.152161
v -0.080832 0.165590 0.126475
v -0.049735 0.159354 0.083259
v -0.015896 0.161490 0.036233
v 0.009940 0.171320 0.000328
v -0.056461 0.185722 -0.054205
v -0.064011 0.200125 -0.039694
v -0.084266 0.209954 -0.000768
v -0.110793 0.212091 0.050215
v -0.135171 0.205855 0.097067
v -0.149660 0.193228 0.124914
v -0.149660 0.178217 0.124914
v -0.135171 0.165590 0.097067
v -0.110793 0.159354 0.050215
v -0.084266 0.161490 -0.000768
v -0.064011 0.171320 -0.039694
v -0.137863 0.185722 -0.085034
v -0.143185 0.200125 -0.069679
v -0.157463 0.209954 -0.028489
v -0.176162 0.212091 0.025458
v -0.193347 0.205855 0.075035
v -0.203561 0.193228 0.104501
v -0.203561 0.178217 0.104501
v -0.193347 0.165590 0.075035
v -0.176162 0.159354 0.025458
v -0.157463 0.161490 -0.028489
v -0.143185 0.171320 -0.069679
v -0.223050 0.185722 -0.104943
v -0.226041 0.200125 -0.089043
v -0.234064 0.209954 -0.046392
v -0.244572 0.212091 0.009470
v -0.254228 0.205855 0.060806
v -0.259968 0.193228 0.091317
v -0.259968 0.178217 0.091317
v -0.254228 0.165590 0.060806
v -0.244572 0.159354 0.009470
v -0.234064 0.161490 -0.046392
v -0.226041 0.171320 -0.089043
v -0.310364 0.185722 -0.113545
v -0.310965 0.200125 -0.097410
v -0.312577 0.209954 -0.054127
v -0.314689 0.212091 0.002562
v -0.316630 0.205855 0.054658
v -0.317783 0.193228 0.085621
v -0.317783 0.178217 0.085621
v -0.316630 0.165590 0.054658
v -0.314689 0.159354 0.002562
v -0.312577 0.161490 -0.054127
v -0.310965 0.171320 -0.097410
v -1.000000 0.096380 1.000000
v -1.000000 -0.010090 1.000000
v -1.000000 0.096380 -1.000000
v -1.000000 -0.010090 -1.000000
v 1.000000 0.096380 1.000000
v 1.000000 -0.010090 1.000000
v 1.000000 0.096380 -1.000000
v 1.000000 -0.010090 -1.000000
v -0.999196 0.204400 0.988516
v -0.999196 0.097930 0.988516
v -0.999196 0.204400 -0.926834
v -0.999196 0.097930 -0.926834
v 1.000804 0.204400 0.988516
v 1.000804 0.097930 0.988516
v 1.000804 0.204400 -0.926834
v 1.000804 0.097930 -0.926834
v -1.000000 0.260364 -0.898264
v -1.000000 0.096720 -0.898264
v -1.000000 0.260364 -1.001948
v -1.000000 0.096720 -1.001948
v 1.000000 0.260364 -0.898264
v 1.000000 0.096720 -0.898264
v 1.000000 0.260364 -1.001948
v 1.000000 0.096720 -1.001948
v 1.002740 0.260364 1.002767
v 1.002740 0.096720 1.002767
v 0.899059 0.260364 1.001991
v 0.899059 0.096720 1.001991
v 1.017704 0.260364 -0.997177
v 1.017704 0.096720 -0.997177
v 0.914022 0.260364 -0.997953
v 0.914022 0.096720 -0.997953
vn -1.0000 -0.0000 -0.0000
vn -0.0000 -0.0000 1.0000
vn 1.0000 -0.0000 -0.0000
vn -0.0000 -0.0000 -1.0000
vn -0.0000 -1.0000 -0.0000
vn -0.0000 1.0000 -0.0000
vn 0.6407 0.7663 -0.0478
vn 0.2081 0.9780 -0.0155
vn 0.0353 0.9994 -0.0026
vn -0.1114 0.9937 0.0083
vn -0.3568 0.9338 0.0266
vn -0.9972 -0.0000 0.0744
vn -0.3568 -0.9338 0.0266
vn -0.1114 -0.9937 0.0083
vn 0.0353 -0.9994 -0.0026
vn 0.2081 -0.9780 -0.0155
vn 0.6407 -0.7663 -0.0478
vn 0.6276 0.7654 -0.1423
vn 0.2040 0.9779 -0.0463
vn 0.0346 0.9994 -0.0078
vn -0.1093 0.9937 0.0248
vn -0.3497 0.9335 0.0793
vn -0.9752 -0.0000 0.2211
vn -0.3497 -0.9335 0.0793
vn -0.1093 -0.9937 0.0248
vn 0.0346 -0.9994 -0.0078
vn 0.2040 -0.9779 -0.0463
vn 0.6276 -0.7654 -0.1423
vn 0.6017 0.7638 -0.2336
vn 0.1959 0.9777 -0.0761
vn 0.0332 0.9994 -0.0129
vn -0.1050 0.9936 0.0408
vn -0.3357 0.9329 0.1304
vn -0.9322 -0.0000 0.3620
vn -0.3357 -0.9329 0.1304
vn -0.1050 -0.9936 0.0408
vn 0.0332 -0.9994 -0.0129
vn 0.1959 -0.9777 -0.0761
vn 0.6017 -0.7638 -0.2336
vn 0.5637 0.7616 -0.3197
vn 0.1840 0.9774 -0.1044
vn 0.0312 0.9994 -0.0177
vn -0.0986 0.9936 0.0559
vn -0.3152 0.9320 0.1788
vn -0.8698 -0.0000 0.4934
vn -0.3152 -0.9320 0.1788
vn -0.0986 -0.9936 0.0559
vn 0.0312 -0.9994 -0.0177
vn 0.1840 -0.9774 -0.1044
vn 0.5637 -0.7616 -0.3197
vn 0.5147 0.7589 -0.3989
vn 0.1686 0.9770 -0.1307
vn 0.0286 0.9993 -0.0222
vn -0.0903 0.9934 0.0700
vn -0.2885 0.9310 0.2236
vn -0.7904 -0.0000 0.6126
vn -0.2885 -0.9310 0.2236
vn -0.0903 -0.9934 0.0700
vn 0.0286 -0.9993 -0.0222
vn 0.1686 -0.9770 -0.1307
vn 0.5147 -0.7589 -0.3989
vn 0.4559 0.7560 -0.4696
vn 0.1498 0.9766 -0.1543
vn 0.0254 0.9993 -0.0262
vn -0.0803 0.9933 0.0827
vn -0.2562 0.9299 0.2639
vn -0.6965 -0.0000 0.7175
vn -0.2562 -0.9299 0.2639
vn -0.0803 -0.9933 0.0827
vn 0.0254 -0.9993 -0.0262
vn 0.1498 -0.9766 -0.1543
vn 0.4559 -0.7560 -0.4696
vn 0.3887 0.7532 -0.5307
vn 0.1282 0.9762 -0.1750
vn 0.0218 0.9993 -0.0297
vn -0.0687 0.9932 0.0939
vn -0.2190 0.9288 0.2990
vn -0.5909 -0.0000 0.8068
vn -0.2190 -0.9288 0.2990
vn -0.0687 -0.9932 0.0939
vn 0.0218 -0.9993 -0.0297
vn 0.1282 -0.9762 -0.1750
vn 0.3887 -0.7532 -0.5307
vn 0.3145 0.7505 -0.5812
vn 0.1041 0.9758 -0.1923
vn 0.0177 0.9993 -0.0327
vn -0.0558 0.9931 0.1031
vn -0.1777 0.9277 0.3283
vn -0.4760 -0.0000 0.8795
vn -0.1777 -0.9277 0.3283
vn -0.0558 -0.9931 0.1031
vn 0.0177 -0.9993 -0.0327
vn 0.1041 -0.9758 -0.1923
vn 0.3145 -0.7505 -0.5812
vn 0.2350 0.7483 -0.6204
vn 0.0779 0.9755 -0.2058
vn 0.0132 0.9993 -0.0350
vn -0.0418 0.9930 0.1104
vn -0.1330 0.9268 0.3511
vn -0.3542 -0.0000 0.9352
vn -0.1330 -0.9268 0.3511
vn -0.0418 -0.9930 0.1104
vn 0.0132 -0.9993 -0.0350
vn 0.0779 -0.9755 -0.2058
vn 0.2350 -0.7483 -0.6204
vn 0.1514 0.7466 -0.6478
vn 0.0503 0.9753 -0.2153
vn 0.0086 0.9993 -0.0366
vn -0.0270 0.9929 0.1155
vn -0.0858 0.9262 0.3672
vn -0.2276 -0.0000 0.9738
vn -0.0858 -0.9262 0.3672
vn -0.0270 -0.9929 0.1155
vn 0.0086 -0.9993 -0.0366
vn 0.0503 -0.9753 -0.2153
vn 0.1514 -0.7466 -0.6478
vn 0.0653 0.7456 -0.6631
vn 0.0217 0.9751 -0.2206
vn 0.0037 0.9993 -0.0375
vn -0.0117 0.9929 0.1184
vn -0.0371 0.9258 0.3762
vn -0.0980 -0.0000 0.9952
vn -0.0371 -0.9258 0.3762
vn -0.0117 -0.9929 0.1184
vn 0.0037 -0.9993 -0.0375
vn 0.0217 -0.9751 -0.2206
vn 0.0653 -0.7456 -0.6631
vn -0.0075 -0.0000 1.0000
vn -1.0000 -0.0000 -0.0075
vn 0.0075 -0.0000 -1.0000
vn 1.0000 -0.0000 0.0075
vt 0.375000 0.000000
vt 0.625000 0.000000
vt 0.625000 0.250000
vt 0.375000 0.250000
vt 0.625000 0.500000
vt 0.375000 0.500000
vt 0.625000 0.750000
vt 0.375000 0.750000
vt 0.625000 1.000000
vt 0.375000 1.000000
vt 0.125000 0.500000
vt 0.125000 0.750000
vt 0.875000 0.500000
vt 0.875000 0.750000
vt 0.511111 0.545455
vt 0.511111 0.636364
vt 0.533333 0.636364
vt 0.533333 0.545455
vt 0.511111 0.727273
vt 0.533333 0.727273
vt 0.511111 0.818182
vt 0.533333 0.818182
vt 0.511111 0.909091
vt 0.533333 0.909091
vt 0.511111 1.000000
vt 0.533333 1.000000
vt 0.511111 0.000000
vt 0.511111 0.090909
vt 0.533333 0.090909
vt 0.533333 0.000000
vt 0.511111 0.181818
vt 0.533333 0.181818
vt 0.511111 0.272727
vt 0.533333 0.272727
vt 0.511111 0.363636
vt 0.533333 0.363636
vt 0.511111 0.454545
vt 0.533333 0.454545
vt 0.555556 0.636364
vt 0.555556 0.545455
vt 0.555556 0.727273
vt 0.555556 0.818182
vt 0.555556 0.909091
vt 0.555556 1.000000
vt 0.555556 0.090909
vt 0.555556 0.000000
vt 0.555556 0.181818
vt 0.555556 0.272727
vt 0.555556 0.363636
vt 0.555556 0.454545
vt 0.577778 0.636364
vt 0.577778 0.545455
vt 0.577778 0.727273
vt 0.577778 0.818182
vt 0.577778 0.909091
vt 0.577778 1.000000
vt 0.577778 0.090909
vt 0.577778 0.000000
vt 0.577778 0.181818
vt 0.577778 0.272727
vt 0.577778 0.363636
vt 0.577778 0.454545
vt 0.600000 0.636364
vt 0.600000 0.545455
vt 0.600000 0.727273
vt 0.600000 0.818182
vt 0.600000 0.909091
vt 0.600000 1.000000
vt 0.600000 0.090909
vt 0.600000 0.000000
vt 0.600000 0.181818
vt 0.600000 0.272727
vt 0.600000 0.363636
vt 0.600000 0.454545
vt 0.622222 0.636364
vt 0.622222 0.545455
vt 0.622222 0.727273
vt 0.622222 0.818182
vt 0.622222 0.909091
vt 0.622222 1.000000
vt 0.622222 0.090909
vt 0.622222 0.000000
vt 0.622222 0.181818
vt 0.622222 0.272727
vt 0.622222 0.363636
vt 0.622222 0.454545
vt 0.644444 0.636364
vt 0.644444 0.545455
vt 0.644444 0.727273
vt 0.644444 0.818182
vt 0.644444 0.909091
vt 0.644444 1.000000
vt 0.644444 0.090909
vt 0.644444 0.000000
vt 0.644444 0.181818
vt 0.644444 0.272727
vt 0.644444 0.363636
vt 0.644444 0.454545
vt 0.666667 0.636364
vt 0.666667 0.545455
vt 0.666667 0.727273
vt 0.666667 0.818182
vt 0.666667 0.909091
vt 0.666667 1.000000
vt 0.666667 0.090909
vt 0.666667 0.000000
vt 0.666667 0.181818
vt 0.666667 0.272727
vt 0.666667 0.363636
vt 0.666667 0.454545
vt 0.688889 0.636364
vt 0.688889 0.545455
vt 0.688889 0.727273
vt 0.688889 0.818182
vt 0.688889 0.909091
vt 0.688889 1.000000
vt 0.688889 0.090909
vt 0.688889 0.000000
vt 0.688889 0.181818
vt 0.688889 0.272727
vt 0.688889 0.363636
vt 0.688889 0.454545
vt 0.711111 0.636364
vt 0.711111 0.545455
vt 0.711111 0.727273
vt 0.711111 0.818182
vt 0.711111 0.909091
vt 0.711111 1.000000
vt 0.711111 0.090909
vt 0.711111 0.000000
vt 0.711111 0.181818
vt 0.711111 0.272727
vt 0.711111 0.363636
vt 0.711111 0.454545
vt 0.733333 0.636364
vt 0.733333 0.545455
vt 0.733333 0.727273
vt 0.733333 0.818182
vt 0.733333 0.909091
vt 0.733333 1.000000
vt 0.733333 0.090909
vt 0.733333 0.000000
vt 0.733333 0.181818
vt 0.733333 0.272727
vt 0.733333 0.363636
vt 0.733333 0.454545
vt 0.755556 0.636364
vt 0.755556 0.545455
vt 0.755556 0.727273
vt 0.755556 0.818182
vt 0.755556 0.909091
vt 0.755556 1.000000
vt 0.755556 0.090909
vt 0.755556 0.000000
vt 0.755556 0.181818
vt 0.755556 0.272727
vt 0.755556 0.363636
vt 0.755556 0.454545
s 0
usemtl Material
f 1/1/1 3/4/1 4/3/1 2/2/1
f 3/4/2 7/6/2 8/5/2 4/3/2
f 7/6/3 5/8/3 6/7/3 8/5/3
f 5/8/4 1/10/4 2/9/4 6/7/4
f 3/11/5 1/12/5 5/8/5 7/6/5
f 8/5/6 6/7/6 2/14/6 4/13/6
usemtl Material.001
f 9/15/7 20/18/7 21/17/7 10/16/7
f 10/16/8 21/17/8 22/20/8 11/19/8
f 11/19/9 22/20/9 23/22/9 12/21/9
f 12/21/10 23/22/10 24/24/10 13/23/10
f 13/23/11 24/24/11 25/26/11 14/25/11
f 14/27/12 25/30/12 26/29/12 15/28/12
f 15/28/13 26/29/13 27/32/13 16/31/13
f 16/31/14 27/32/14 28/34/14 17/33/14
f 17/33/15 28/34/15 29/36/15 18/35/15
f 18/35/16 29/36/16 30/38/16 19/37/16
f 19/37/17 30/38/17 20/18/17 9/15/17
f 20/18/18 31/40/18 32/39/18 21/17/18
f 21/17/19 32/39/19 33/41/19 22/20/19
f 22/20/20 33/41/20 34/42/20 23/22/20
f 23/22/21 34/42/21 35/43/21 24/24/21
f 24/24/22 35/43/22 36/44/22 25/26/22
f 25/30/23 36/46/23 37/45/23 26/29/23
f 26/29/24 37/45/24 38/47/24 27/32/24
f 27/32/25 38/47/25 39/48/25 28/34/25
f 28/34/26 39/48/26 40/49/26 29/36/26
f 29/36/27 40/49/27 41/50/27 30/38/27
f 30/38/28 41/50/28 31/40/28 20/18/28
f 31/40/29 42/52/29 43/51/29 32/39/29
f 32/39/30 43/51/30 44/53/30 33/41/30
f 33/41/31 44/53/31 45/54/31 34/42/31
f 34/42/32 45/54/32 46/55/32 35/43/32
f 35/43/33 46/55/33 47/56/33 36/44/33
f 36/46/34 47/58/34 48/57/34 37/45/34
f 37/45/35 48/57/35 49/59/35 38/47/35
f 38/47/36 49/59/36 50/60/36 39/48/36
f 39/48/37 50/60/37 51/61/37 40/49/37
f 40/49/38 51/61/38 52/62/38 41/50/38
f 41/50/39 52/62/39 42/52/39 31/40/39
f 42/52/40 53/64/40 54/63/40 43/51/40
f 43/51/41 54/63/41 55/65/41 44/53/41
f 44/53/42 55/65/42 56/66/42 45/54/42
f 45/54/43 56/66/43 57/67/43 46/55/43
f 46/55/44 57/67/44 58/68/44 47/56/44
f 47/58/45 58/70/45 59/69/45 48/57/45
f 48/57/46 59/69/46 60/71/46 49/59/46
f 49/59/47 60/71/47 61/72/47 50/60/47
f 50/60/48 61/72/48 62/73/48 51/61/48
f 51/61/49 62/73/49 63/74/49 52/62/49
f 52/62/50 63/74/50 53/64/50 42/52/50
f 53/64/51 64/76/51 65/75/51 54/63/51
f 54/63/52 65/75/52 66/77/52 55/65/52
f 55/65/53 66/77/53 67/78/53 56/66/53
f 56/66/54 67/78/54 68/79/54 57/67/54
f 57/67/55 68/79/55 69/80/55 58/68/55
f 58/70/56 69/82/56 70/81/56 59/69/56
f 59/69/57 70/81/57 71/83/57 60/71/57
f 60/71/58 71/83/58 72/84/58 61/72/58
f 61/72/59 72/84/59 73/85/59 62/73/59
f 62/73/60 73/85/60 74/86/60 63/74/60
f 63/74/61 74/86/61 64/76/61 53/64/61
f 64/76/62 75/88/62 76/87/62 65/75/62
f 65/75/63 76/87/63 77/89/63 66/77/63
f 66/77/64 77/89/64 78/90/64 67/78/64
f 67/78/65 78/90/65 79/91/65 68/79/65
f 68/79/66 79/91/66 80/92/66 69/80/66
f 69/82/67 80/94/67 81/93/67 70/81/67
f 70/81/68 81/93/68 82/95/68 71/83/68
f 71/83/69 82/95/69 83/96/69 72/84/69
f 72/84/70 83/96/70 84/97/70 73/85/70
f 73/85/71 84/97/71 85/98/71 74/86/71
f 74/86/72 85/98/72 75/88/72 64/76/72
f 75/88/73 86/100/73 87/99/73 76/87/73
f 76/87/74 87/99/74 88/101/74 77/89/74
f 77/89/75 88/101/75 89/102/75 78/90/75
f 78/90/76 89/102/76 90/103/76 79/91/76
f 79/91/77 90/103/77 91/104/77 80/92/77
f 80/94/78 91/106/78 92/105/78 81/93/78
f 81/93/79 92/105/79 93/107/79 82/95/79
f 82/95/80 93/107/80 94/108/80 83/96/80
f 83/96/81 94/108/81 95/109/81 84/97/81
f 84/97/82 95/109/82 96/110/82 85/98/82
f 85/98/83 96/110/83 86/100/83 75/88/83
f 86/100/84 97/112/84 98/111/84 87/99/84
f 87/99/85 98/111/85 99/113/85 88/101/85
f 88/101/86 99/113/86 100/114/86 89/102/86
f 89/102/87 100/114/87 101/115/87 90/103/87
f 90/103/88 101/115/88 102/116/88 91/104/88
f 91/106/89 102/118/89 103/117/89 92/105/89
f 92/105/90 103/117/90 104/119/90 93/107/90
f 93/107/91 104/119/91 105/120/91 94/108/91
f 94/108/92 105/120/92 106/121/92 95/109/92
f 95/109/93 106/121/93 107/122/93 96/110/93
f 96/110/94 107/122/94 97/112/94 86/100/94
f 97/112/95 108/124/95 109/123/95 98/111/95
f 98/111/96 109/123/96 110/125/96 99/113/96
f 99/113/97 110/125/97 111/126/97 100/114/97
f 100/114/98 111/126/98 112/127/98 101/115/98
f 101/115/99 112/127/99 113/128/99 102/116/99
f 102/118/100 113/130/100 114/129/100 103/117/100
f 103/117/101 114/129/101 115/131/101 104/119/101
f 104/119/102 115/131/102 116/132/102 105/120/102
f 105/120/103 116/132/103 117/133/103 106/121/103
f 106/121/104 117/133/104 118/134/104 107/122/104
f 107/122/105 118/134/105 108/124/105 97/112/105
f 108/124/106 119/136/106 120/135/106 109/123/106
f 109/123/107 120/135/107 121/137/107 110/125/107
f 110/125/108 121/137/108 122/138/108 111/126/108
f 111/126/109 122/138/109 123/139/109 112/127/109
f 112/127/110 123/139/110 124/140/110 113/128/110
f 113/130/111 124/142/111 125/141/111 114/129/111
f 114/129/112 125/141/112 126/143/112 115/131/112
f 115/131/113 126/143/113 127/144/113 116/132/113
f 116/132/114 127/144/114 128/145/114 117/133/114
f 117/133/115 128/145/115 129/146/115 118/134/115
f 118/134/116 129/146/116 119/136/116 108/124/116
f 119/136/117 130/148/117 131/147/117 120/135/117
f 120/135/118 131/147/118 132/149/118 121/137/118
f 121/137/119 132/149/119 133/150/119 122/138/119
f 122/138/120 133/150/120 134/151/120 123/139/120
f 123/139/121 134/151/121 135/152/121 124/140/121
f 124/142/122 135/154/122 136/153/122 125/141/122
f 125/141/123 136/153/123 137/155/123 126/143/123
f 126/143/124 137/155/124 138/156/124 127/144/124
f 127/144/125 138/156/125 139/157/125 128/145/125
f 128/145/126 139/157/126 140/158/126 129/146/126
f 129/146/127 140/158/127 130/148/127 119/136/127
f 141/1/1 143/4/1 144/3/1 142/2/1
f 143/4/4 147/6/4 148/5/4 144/3/4
f 147/6/3 145/8/3 146/7/3 148/5/3
f 145/8/2 141/10/2 142/9/2 146/7/2
f 143/11/6 141/12/6 145/8/6 147/6/6
f 148/5/5 146/7/5 142/14/5 144/13/5
usemtl Material.031
f 149/1/1 151/4/1 152/3/1 150/2/1
f 151/4/4 155/6/4 156/5/4 152/3/4
f 155/6/3 153/8/3 154/7/3 156/5/3
f 153/8/2 149/10/2 150/9/2 154/7/2
f 151/11/6 149/12/6 153/8/6 155/6/6
f 156/5/5 154/7/5 150/14/5 152/13/5
usemtl Material.035
f 157/1/1 159/4/1 160/3/1 158/2/1
f 159/4/4 163/6/4 164/5/4 160/3/4
f 163/6/3 161/8/3 162/7/3 164/5/3
f 161/8/2 157/10/2 158/9/2 162/7/2
f 159/11/6 157/12/6 161/8/6 163/6/6
f 164/5/5 162/7/5 158/14/5 160/13/5
usemtl Material.036
f 165/1/128 167/4/128 168/3/128 166/2/128
f 167/4/129 171/6/129 172/5/129 168/3/129
f 171/6/130 169/8/130 170/7/130 172/5/130
f 169/8/131 165/10/131 166/9/131 170/7/131
f 167/11/6 165/12/6 169/8/6 171/6/6
f 172/5/5 170/7/5 166/14/5 168/13/5
