# Blender 4.4.0
# www.blender.org
mtllib Building-1Tall.mtl.mtl
o Cube.020
v -2.120081 10.421625 -2.267316
v -2.120081 9.519037 -2.267316
v -2.120081 10.421625 -2.917155
v -2.120081 9.519037 -2.917155
v 0.253180 10.421625 -2.267316
v 0.253180 9.519037 -2.267316
v 0.253180 10.421625 -2.917155
v 0.253180 9.519037 -2.917155
v 2.168380 0.008871 0.437682
v 2.168380 1.174438 0.437682
v 2.168380 0.008871 -0.304275
v 2.168380 1.174438 -0.304275
v 2.233961 0.008871 0.437682
v 2.233961 1.174438 0.437682
v 2.233961 0.008871 -0.304275
v 2.233961 1.174438 -0.304275
v 2.168380 0.008871 -0.307265
v 2.168380 1.174438 -0.307265
v 2.168380 0.008871 -1.049222
v 2.168380 1.174438 -1.049222
v 2.233961 0.008871 -0.307265
v 2.233961 1.174438 -0.307265
v 2.233961 0.008871 -1.049222
v 2.233961 1.174438 -1.049222
v 2.168380 0.008871 1.178498
v 2.168380 1.174438 1.178498
v 2.168380 0.008871 0.436541
v 2.168380 1.174438 0.436541
v 2.233961 0.008871 1.178498
v 2.233961 1.174438 1.178498
v 2.233961 0.008871 0.436541
v 2.233961 1.174438 0.436541
v 2.168380 0.008871 1.603954
v 2.168380 1.174438 1.603954
v 2.168380 0.008871 1.175958
v 2.168380 1.174438 1.175958
v 2.233961 0.008871 1.603954
v 2.233961 1.174438 1.603954
v 2.233961 0.008871 1.175958
v 2.233961 1.174438 1.175958
v 2.168380 0.008871 -1.046368
v 2.168380 1.174438 -1.046368
v 2.168380 0.008871 -1.474364
v 2.168380 1.174438 -1.474364
v 2.233961 0.008871 -1.046368
v 2.233961 1.174438 -1.046368
v 2.233961 0.008871 -1.474364
v 2.233961 1.174438 -1.474364
v 2.189685 0.008871 1.650589
v 2.189685 1.174438 1.650589
v 2.189685 0.008871 1.604101
v 2.189685 1.174438 1.604101
v 2.255266 0.008871 1.650589
v 2.255266 1.174438 1.650589
v 2.255266 0.008871 1.604101
v 2.255266 1.174438 1.604101
v 2.189685 0.008871 1.233916
v 2.189685 1.174438 1.233916
v 2.189685 0.008871 1.187428
v 2.189685 1.174438 1.187428
v 2.255266 0.008871 1.233916
v 2.255266 1.174438 1.233916
v 2.255266 0.008871 1.187428
v 2.255266 1.174438 1.187428
v 2.189685 0.008871 0.469720
v 2.189685 1.174438 0.469720
v 2.189685 0.008871 0.423232
v 2.189685 1.174438 0.423232
v 2.255266 0.008871 0.469720
v 2.255266 1.174438 0.469720
v 2.255266 0.008871 0.423232
v 2.255266 1.174438 0.423232
v 2.189685 0.008871 -0.276289
v 2.189685 1.174438 -0.276289
v 2.189685 0.008871 -0.322777
v 2.189685 1.174438 -0.322777
v 2.255266 0.008871 -0.276289
v 2.255266 1.174438 -0.276289
v 2.255266 0.008871 -0.322777
v 2.255266 1.174438 -0.322777
v 2.189685 0.008871 -1.035879
v 2.189685 1.174438 -1.035879
v 2.189685 0.008871 -1.082367
v 2.189685 1.174438 -1.082367
v 2.255266 0.008871 -1.035879
v 2.255266 1.174438 -1.035879
v 2.255266 0.008871 -1.082367
v 2.255266 1.174438 -1.082367
v 2.189685 0.008871 -1.476671
v 2.189685 1.174438 -1.476671
v 2.189685 0.008871 -1.523159
v 2.189685 1.174438 -1.523159
v 2.255266 0.008871 -1.476671
v 2.255266 1.174438 -1.476671
v 2.255266 0.008871 -1.523159
v 2.255266 1.174438 -1.523159
v 2.189685 1.214755 1.681505
v 2.189685 1.214755 -1.542326
v 2.189685 1.168267 1.681505
v 2.189685 1.168267 -1.542326
v 2.255266 1.214755 1.681505
v 2.255266 1.214755 -1.542326
v 2.255266 1.168267 1.681505
v 2.255266 1.168267 -1.542326
v 2.189685 0.974335 1.681505
v 2.189685 0.974335 -1.542326
v 2.189685 0.927847 1.681505
v 2.189685 0.927847 -1.542326
v 2.255266 0.974335 1.681505
v 2.255266 0.974335 -1.542326
v 2.255266 0.927847 1.681505
v 2.255266 0.927847 -1.542326
v 2.183505 1.291841 1.681505
v 2.183505 1.291841 -1.542326
v 2.188899 1.245667 1.681505
v 2.188899 1.245666 -1.542326
v 3.477200 1.442963 1.681505
v 3.477200 1.442962 -1.542326
v 3.482593 1.396789 1.681505
v 3.482593 1.396789 -1.542326
v 2.274403 0.013839 0.066753
v 2.274403 0.912642 0.066753
v 2.274403 0.013839 0.070658
v 2.274403 0.912642 0.070658
v 2.289977 0.013839 0.066753
v 2.289977 0.912642 0.066753
v 2.289977 0.013839 0.070658
v 2.289977 0.912642 0.070658
v 2.181171 1.499691 3.126648
v 2.181171 9.498826 3.126648
v 2.181171 1.499691 -2.892757
v 2.181171 9.498826 -2.892757
v 2.221170 1.499691 3.126648
v 2.221170 9.498826 3.126648
v 2.221170 1.499691 -2.892757
v 2.221170 9.498826 -2.892757
v -0.914021 9.809810 1.985317
v -0.914021 9.486292 1.985317
v -0.914021 9.809810 1.335478
v -0.914021 9.486292 1.335478
v -0.627181 9.809810 1.985317
v -0.627181 9.486292 1.985317
v -0.627181 9.809810 1.335478
v -0.627181 9.486292 1.335478
v -0.233141 9.809810 1.985317
v -0.233141 9.486292 1.985317
v -0.233141 9.809810 1.335478
v -0.233141 9.486292 1.335478
v 0.053699 9.809810 1.985317
v 0.053699 9.486292 1.985317
v 0.053699 9.809810 1.335478
v 0.053699 9.486292 1.335478
v 0.602944 9.809810 1.985317
v 0.602944 9.486292 1.985317
v 0.602944 9.809810 1.335478
v 0.602944 9.486292 1.335478
v 0.889785 9.809810 1.985317
v 0.889785 9.486292 1.985317
v 0.889785 9.809810 1.335478
v 0.889785 9.486292 1.335478
v -2.091609 0.023723 3.099982
v -2.091609 9.505603 3.099982
v -2.091609 0.023723 -2.867689
v -2.091609 9.505603 -2.867689
v 2.200595 0.023723 3.099982
v 2.200595 9.505603 3.099982
v 2.200595 0.023723 -2.867689
v 2.200595 9.505603 -2.867689
v 0.109811 9.647894 -2.799358
v 0.109811 9.481137 -2.799358
v 0.109811 9.647894 -2.931752
v 0.109811 9.481137 -2.931752
v 2.238169 9.647894 -2.799358
v 2.238169 9.481137 -2.799358
v 2.238169 9.647894 -2.931752
v 2.238169 9.481137 -2.931752
v -2.173019 9.647894 3.112638
v -2.173019 9.481137 3.112638
v -2.173019 9.647894 2.980244
v -2.173019 9.481137 2.980244
v 2.230741 9.647894 3.112638
v 2.230741 9.481137 3.112638
v 2.230741 9.647894 2.980244
v 2.230741 9.481137 2.980244
v -2.159730 9.647894 -2.392059
v -2.159730 9.481137 -2.392059
v -2.027336 9.647894 -2.392059
v -2.027336 9.481137 -2.392059
v -2.159730 9.647894 3.015283
v -2.159730 9.481137 3.015283
v -2.027336 9.647894 3.015283
v -2.027336 9.481137 3.015283
v 2.015380 9.647894 -2.836135
v 2.015380 9.481137 -2.836135
v 2.147775 9.647894 -2.836135
v 2.147775 9.481137 -2.836135
v 2.015380 9.647894 2.974398
v 2.015380 9.481137 2.974398
v 2.147774 9.647894 2.974398
v 2.147774 9.481137 2.974398
v 2.231621 1.499691 0.128199
v 2.231621 9.498826 0.128199
v 2.231621 1.499691 0.105692
v 2.231621 9.498826 0.105692
v 2.271620 1.499691 0.128199
v 2.271620 9.498826 0.128199
v 2.271620 1.499691 0.105692
v 2.271620 9.498826 0.105692
v 2.231621 1.499691 -1.780096
v 2.231621 9.498826 -1.780096
v 2.231621 1.499691 -1.802603
v 2.231621 9.498826 -1.802603
v 2.271620 1.499691 -1.780096
v 2.271620 9.498826 -1.780096
v 2.271620 1.499691 -1.802603
v 2.271620 9.498826 -1.802603
v 2.231621 1.499691 1.728381
v 2.231621 9.498826 1.728381
v 2.231621 1.499691 1.705873
v 2.231621 9.498826 1.705873
v 2.271620 1.499691 1.728381
v 2.271620 9.498826 1.728381
v 2.271620 1.499691 1.705873
v 2.271620 9.498826 1.705873
v 2.231621 1.499691 -2.370975
v 2.231621 9.498826 -2.370975
v 2.231621 1.499691 -2.393482
v 2.231621 9.498826 -2.393482
v 2.271620 1.499691 -2.370975
v 2.271620 9.498826 -2.370975
v 2.271620 1.499691 -2.393482
v 2.271620 9.498826 -2.393482
v 2.231621 1.499691 -0.910034
v 2.231621 9.498826 -0.910034
v 2.231621 1.499691 -0.932541
v 2.231621 9.498826 -0.932541
v 2.271620 1.499691 -0.910034
v 2.271620 9.498826 -0.910034
v 2.271620 1.499691 -0.932541
v 2.271620 9.498826 -0.932541
v 2.231621 1.499691 -1.331374
v 2.231621 9.498826 -1.331374
v 2.231621 1.499691 -1.353881
v 2.231621 9.498826 -1.353881
v 2.271620 1.499691 -1.331374
v 2.271620 9.498826 -1.331374
v 2.271620 1.499691 -1.353881
v 2.271620 9.498826 -1.353881
v 2.231621 1.499691 -0.406748
v 2.231621 9.498826 -0.406748
v 2.231621 1.499691 -0.429255
v 2.231621 9.498826 -0.429255
v 2.271620 1.499691 -0.406748
v 2.271620 9.498826 -0.406748
v 2.271620 1.499691 -0.429255
v 2.271620 9.498826 -0.429255
v 2.231621 1.499691 0.912895
v 2.231621 9.498826 0.912895
v 2.231621 1.499691 0.890388
v 2.231621 9.498826 0.890388
v 2.271620 1.499691 0.912895
v 2.271620 9.498826 0.912895
v 2.271620 1.499691 0.890388
v 2.271620 9.498826 0.890388
v 2.231621 1.499691 0.546675
v 2.231621 9.498826 0.546675
v 2.231621 1.499691 0.524168
v 2.231621 9.498826 0.524168
v 2.271620 1.499691 0.546675
v 2.271620 9.498826 0.546675
v 2.271620 1.499691 0.524168
v 2.271620 9.498826 0.524168
v 2.231621 1.499691 1.364957
v 2.231621 9.498826 1.364957
v 2.231621 1.499691 1.342450
v 2.231621 9.498826 1.342450
v 2.271620 1.499691 1.364957
v 2.271620 9.498826 1.364957
v 2.271620 1.499691 1.342450
v 2.271620 9.498826 1.342450
v 2.231621 1.499691 2.502246
v 2.231621 9.498826 2.502246
v 2.231621 1.499691 2.479739
v 2.231621 9.498826 2.479739
v 2.271620 1.499691 2.502246
v 2.271620 9.498826 2.502246
v 2.271620 1.499691 2.479739
v 2.271620 9.498826 2.479739
v 2.231621 1.499691 2.166714
v 2.231621 9.498826 2.166714
v 2.231621 1.499691 2.144207
v 2.231621 9.498826 2.144207
v 2.271620 1.499691 2.166714
v 2.271620 9.498826 2.166714
v 2.271620 1.499691 2.144207
v 2.271620 9.498826 2.144207
v 2.231621 1.499691 2.938152
v 2.231621 9.498826 2.938152
v 2.231621 1.499691 2.915645
v 2.231621 9.498826 2.915645
v 2.271620 1.499691 2.938152
v 2.271620 9.498826 2.938152
v 2.271620 1.499691 2.915645
v 2.271620 9.498826 2.915645
v 2.231621 5.488005 -2.900077
v 2.231621 5.488005 3.115626
v 2.231621 5.510512 -2.900077
v 2.231621 5.510512 3.115626
v 2.271620 5.488005 -2.900077
v 2.271620 5.488005 3.115626
v 2.271620 5.510512 -2.900077
v 2.271620 5.510512 3.115626
v 2.231621 7.664791 -2.900077
v 2.231621 7.664791 3.115626
v 2.231621 7.687298 -2.900077
v 2.231621 7.687298 3.115626
v 2.271620 7.664791 -2.900077
v 2.271620 7.664791 3.115626
v 2.271620 7.687298 -2.900077
v 2.271620 7.687298 3.115626
v 2.231621 3.200946 -2.900077
v 2.231621 3.200946 3.115626
v 2.231621 3.223453 -2.900077
v 2.231621 3.223453 3.115626
v 2.271620 3.200946 -2.900077
v 2.271620 3.200946 3.115626
v 2.271620 3.223453 -2.900077
v 2.271620 3.223453 3.115626
vn -1.0000 -0.0000 -0.0000
vn -0.0000 -0.0000 -1.0000
vn 1.0000 -0.0000 -0.0000
vn -0.0000 -0.0000 1.0000
vn -0.0000 1.0000 -0.0000
vn -0.0000 -1.0000 -0.0000
vn -0.9932 -0.1160 -0.0000
vn 0.1160 -0.9932 -0.0000
vn 0.9932 0.1160 -0.0000
vn -0.1160 0.9932 -0.0000
vt 0.375000 0.000000
vt 0.625000 0.000000
vt 0.625000 0.250000
vt 0.375000 0.250000
vt 0.625000 0.500000
vt 0.375000 0.500000
vt 0.625000 0.750000
vt 0.375000 0.750000
vt 0.625000 1.000000
vt 0.375000 1.000000
vt 0.125000 0.500000
vt 0.125000 0.750000
vt 0.875000 0.500000
vt 0.875000 0.750000
s 0
usemtl 
f 1/1/1 3/4/1 4/3/1 2/2/1
f 3/4/2 7/6/2 8/5/2 4/3/2
f 7/6/3 5/8/3 6/7/3 8/5/3
f 5/8/4 1/10/4 2/9/4 6/7/4
f 3/11/5 1/12/5 5/8/5 7/6/5
f 8/5/6 6/7/6 2/14/6 4/13/6
f 137/1/1 139/4/1 140/3/1 138/2/1
f 139/4/2 143/6/2 144/5/2 140/3/2
f 143/6/3 141/8/3 142/7/3 144/5/3
f 141/8/4 137/10/4 138/9/4 142/7/4
f 139/11/5 137/12/5 141/8/5 143/6/5
f 144/5/6 142/7/6 138/14/6 140/13/6
f 145/1/1 147/4/1 148/3/1 146/2/1
f 147/4/2 151/6/2 152/5/2 148/3/2
f 151/6/3 149/8/3 150/7/3 152/5/3
f 149/8/4 145/10/4 146/9/4 150/7/4
f 147/11/5 145/12/5 149/8/5 151/6/5
f 152/5/6 150/7/6 146/14/6 148/13/6
f 153/1/1 155/4/1 156/3/1 154/2/1
f 155/4/2 159/6/2 160/5/2 156/3/2
f 159/6/3 157/8/3 158/7/3 160/5/3
f 157/8/4 153/10/4 154/9/4 158/7/4
f 155/11/5 153/12/5 157/8/5 159/6/5
f 160/5/6 158/7/6 154/14/6 156/13/6
f 169/1/1 171/4/1 172/3/1 170/2/1
f 171/4/2 175/6/2 176/5/2 172/3/2
f 175/6/3 173/8/3 174/7/3 176/5/3
f 173/8/4 169/10/4 170/9/4 174/7/4
f 171/11/5 169/12/5 173/8/5 175/6/5
f 176/5/6 174/7/6 170/14/6 172/13/6
f 177/1/1 179/4/1 180/3/1 178/2/1
f 179/4/2 183/6/2 184/5/2 180/3/2
f 183/6/3 181/8/3 182/7/3 184/5/3
f 181/8/4 177/10/4 178/9/4 182/7/4
f 179/11/5 177/12/5 181/8/5 183/6/5
f 184/5/6 182/7/6 178/14/6 180/13/6
f 185/1/2 187/4/2 188/3/2 186/2/2
f 187/4/3 191/6/3 192/5/3 188/3/3
f 191/6/4 189/8/4 190/7/4 192/5/4
f 189/8/1 185/10/1 186/9/1 190/7/1
f 187/11/5 185/12/5 189/8/5 191/6/5
f 192/5/6 190/7/6 186/14/6 188/13/6
f 193/1/2 195/4/2 196/3/2 194/2/2
f 195/4/3 199/6/3 200/5/3 196/3/3
f 199/6/4 197/8/4 198/7/4 200/5/4
f 197/8/1 193/10/1 194/9/1 198/7/1
f 195/11/5 193/12/5 197/8/5 199/6/5
f 200/5/6 198/7/6 194/14/6 196/13/6
usemtl Material
f 9/1/1 10/2/1 12/3/1 11/4/1
f 11/4/2 12/3/2 16/5/2 15/6/2
f 15/6/3 16/5/3 14/7/3 13/8/3
f 13/8/4 14/7/4 10/9/4 9/10/4
f 11/11/6 15/6/6 13/8/6 9/12/6
f 16/5/5 12/13/5 10/14/5 14/7/5
usemtl Material.013
f 17/1/1 18/2/1 20/3/1 19/4/1
f 19/4/2 20/3/2 24/5/2 23/6/2
f 23/6/3 24/5/3 22/7/3 21/8/3
f 21/8/4 22/7/4 18/9/4 17/10/4
f 19/11/6 23/6/6 21/8/6 17/12/6
f 24/5/5 20/13/5 18/14/5 22/7/5
usemtl Material.012
f 25/1/1 26/2/1 28/3/1 27/4/1
f 27/4/2 28/3/2 32/5/2 31/6/2
f 31/6/3 32/5/3 30/7/3 29/8/3
f 29/8/4 30/7/4 26/9/4 25/10/4
f 27/11/6 31/6/6 29/8/6 25/12/6
f 32/5/5 28/13/5 26/14/5 30/7/5
usemtl Material.010
f 33/1/1 34/2/1 36/3/1 35/4/1
f 35/4/2 36/3/2 40/5/2 39/6/2
f 39/6/3 40/5/3 38/7/3 37/8/3
f 37/8/4 38/7/4 34/9/4 33/10/4
f 35/11/6 39/6/6 37/8/6 33/12/6
f 40/5/5 36/13/5 34/14/5 38/7/5
usemtl Material.011
f 41/1/1 42/2/1 44/3/1 43/4/1
f 43/4/2 44/3/2 48/5/2 47/6/2
f 47/6/3 48/5/3 46/7/3 45/8/3
f 45/8/4 46/7/4 42/9/4 41/10/4
f 43/11/6 47/6/6 45/8/6 41/12/6
f 48/5/5 44/13/5 42/14/5 46/7/5
usemtl Material.002
f 49/1/1 50/2/1 52/3/1 51/4/1
f 51/4/2 52/3/2 56/5/2 55/6/2
f 55/6/3 56/5/3 54/7/3 53/8/3
f 53/8/4 54/7/4 50/9/4 49/10/4
f 51/11/6 55/6/6 53/8/6 49/12/6
f 56/5/5 52/13/5 50/14/5 54/7/5
usemtl Material.009
f 57/1/1 58/2/1 60/3/1 59/4/1
f 59/4/2 60/3/2 64/5/2 63/6/2
f 63/6/3 64/5/3 62/7/3 61/8/3
f 61/8/4 62/7/4 58/9/4 57/10/4
f 59/11/6 63/6/6 61/8/6 57/12/6
f 64/5/5 60/13/5 58/14/5 62/7/5
usemtl Material.008
f 65/1/1 66/2/1 68/3/1 67/4/1
f 67/4/2 68/3/2 72/5/2 71/6/2
f 71/6/3 72/5/3 70/7/3 69/8/3
f 69/8/4 70/7/4 66/9/4 65/10/4
f 67/11/6 71/6/6 69/8/6 65/12/6
f 72/5/5 68/13/5 66/14/5 70/7/5
usemtl Material.007
f 73/1/1 74/2/1 76/3/1 75/4/1
f 75/4/2 76/3/2 80/5/2 79/6/2
f 79/6/3 80/5/3 78/7/3 77/8/3
f 77/8/4 78/7/4 74/9/4 73/10/4
f 75/11/6 79/6/6 77/8/6 73/12/6
f 80/5/5 76/13/5 74/14/5 78/7/5
usemtl Material.006
f 81/1/1 82/2/1 84/3/1 83/4/1
f 83/4/2 84/3/2 88/5/2 87/6/2
f 87/6/3 88/5/3 86/7/3 85/8/3
f 85/8/4 86/7/4 82/9/4 81/10/4
f 83/11/6 87/6/6 85/8/6 81/12/6
f 88/5/5 84/13/5 82/14/5 86/7/5
usemtl Material.004
f 89/1/1 90/2/1 92/3/1 91/4/1
f 91/4/2 92/3/2 96/5/2 95/6/2
f 95/6/3 96/5/3 94/7/3 93/8/3
f 93/8/4 94/7/4 90/9/4 89/10/4
f 91/11/6 95/6/6 93/8/6 89/12/6
f 96/5/5 92/13/5 90/14/5 94/7/5
usemtl Material.003
f 97/1/1 98/2/1 100/3/1 99/4/1
f 99/4/6 100/3/6 104/5/6 103/6/6
f 103/6/3 104/5/3 102/7/3 101/8/3
f 101/8/5 102/7/5 98/9/5 97/10/5
f 99/11/4 103/6/4 101/8/4 97/12/4
f 104/5/2 100/13/2 98/14/2 102/7/2
usemtl Material.005
f 105/1/1 106/2/1 108/3/1 107/4/1
f 107/4/6 108/3/6 112/5/6 111/6/6
f 111/6/3 112/5/3 110/7/3 109/8/3
f 109/8/5 110/7/5 106/9/5 105/10/5
f 107/11/4 111/6/4 109/8/4 105/12/4
f 112/5/2 108/13/2 106/14/2 110/7/2
usemtl Material.014
f 113/1/7 114/2/7 116/3/7 115/4/7
f 115/4/8 116/3/8 120/5/8 119/6/8
f 119/6/9 120/5/9 118/7/9 117/8/9
f 117/8/10 118/7/10 114/9/10 113/10/10
f 115/11/4 119/6/4 117/8/4 113/12/4
f 120/5/2 116/13/2 114/14/2 118/7/2
usemtl Material.015
f 121/1/1 123/4/1 124/3/1 122/2/1
f 123/4/4 127/6/4 128/5/4 124/3/4
f 127/6/3 125/8/3 126/7/3 128/5/3
f 125/8/2 121/10/2 122/9/2 126/7/2
f 123/11/6 121/12/6 125/8/6 127/6/6
f 128/5/5 126/7/5 122/14/5 124/13/5
usemtl Material.029
f 129/1/1 130/2/1 132/3/1 131/4/1
f 131/4/2 132/3/2 136/5/2 135/6/2
f 135/6/3 136/5/3 134/7/3 133/8/3
f 133/8/4 134/7/4 130/9/4 129/10/4
f 131/11/6 135/6/6 133/8/6 129/12/6
f 136/5/5 132/13/5 130/14/5 134/7/5
usemtl Material.032
f 161/1/1 162/2/1 164/3/1 163/4/1
f 163/4/2 164/3/2 168/5/2 167/6/2
f 167/6/3 168/5/3 166/7/3 165/8/3
f 165/8/4 166/7/4 162/9/4 161/10/4
f 163/11/6 167/6/6 165/8/6 161/12/6
f 168/5/5 164/13/5 162/14/5 166/7/5
usemtl Material.033
f 201/1/1 202/2/1 204/3/1 203/4/1
f 203/4/2 204/3/2 208/5/2 207/6/2
f 207/6/3 208/5/3 206/7/3 205/8/3
f 205/8/4 206/7/4 202/9/4 201/10/4
f 203/11/6 207/6/6 205/8/6 201/12/6
f 208/5/5 204/13/5 202/14/5 206/7/5
usemtl Material.034
f 209/1/1 210/2/1 212/3/1 211/4/1
f 211/4/2 212/3/2 216/5/2 215/6/2
f 215/6/3 216/5/3 214/7/3 213/8/3
f 213/8/4 214/7/4 210/9/4 209/10/4
f 211/11/6 215/6/6 213/8/6 209/12/6
f 216/5/5 212/13/5 210/14/5 214/7/5
usemtl Material.035
f 217/1/1 218/2/1 220/3/1 219/4/1
f 219/4/2 220/3/2 224/5/2 223/6/2
f 223/6/3 224/5/3 222/7/3 221/8/3
f 221/8/4 222/7/4 218/9/4 217/10/4
f 219/11/6 223/6/6 221/8/6 217/12/6
f 224/5/5 220/13/5 218/14/5 222/7/5
usemtl Material.036
f 225/1/1 226/2/1 228/3/1 227/4/1
f 227/4/2 228/3/2 232/5/2 231/6/2
f 231/6/3 232/5/3 230/7/3 229/8/3
f 229/8/4 230/7/4 226/9/4 225/10/4
f 227/11/6 231/6/6 229/8/6 225/12/6
f 232/5/5 228/13/5 226/14/5 230/7/5
usemtl Material.037
f 233/1/1 234/2/1 236/3/1 235/4/1
f 235/4/2 236/3/2 240/5/2 239/6/2
f 239/6/3 240/5/3 238/7/3 237/8/3
f 237/8/4 238/7/4 234/9/4 233/10/4
f 235/11/6 239/6/6 237/8/6 233/12/6
f 240/5/5 236/13/5 234/14/5 238/7/5
usemtl Material.038
f 241/1/1 242/2/1 244/3/1 243/4/1
f 243/4/2 244/3/2 248/5/2 247/6/2
f 247/6/3 248/5/3 246/7/3 245/8/3
f 245/8/4 246/7/4 242/9/4 241/10/4
f 243/11/6 247/6/6 245/8/6 241/12/6
f 248/5/5 244/13/5 242/14/5 246/7/5
usemtl Material.039
f 249/1/1 250/2/1 252/3/1 251/4/1
f 251/4/2 252/3/2 256/5/2 255/6/2
f 255/6/3 256/5/3 254/7/3 253/8/3
f 253/8/4 254/7/4 250/9/4 249/10/4
f 251/11/6 255/6/6 253/8/6 249/12/6
f 256/5/5 252/13/5 250/14/5 254/7/5
usemtl Material.040
f 257/1/1 258/2/1 260/3/1 259/4/1
f 259/4/2 260/3/2 264/5/2 263/6/2
f 263/6/3 264/5/3 262/7/3 261/8/3
f 261/8/4 262/7/4 258/9/4 257/10/4
f 259/11/6 263/6/6 261/8/6 257/12/6
f 264/5/5 260/13/5 258/14/5 262/7/5
usemtl Material.041
f 265/1/1 266/2/1 268/3/1 267/4/1
f 267/4/2 268/3/2 272/5/2 271/6/2
f 271/6/3 272/5/3 270/7/3 269/8/3
f 269/8/4 270/7/4 266/9/4 265/10/4
f 267/11/6 271/6/6 269/8/6 265/12/6
f 272/5/5 268/13/5 266/14/5 270/7/5
usemtl Material.042
f 273/1/1 274/2/1 276/3/1 275/4/1
f 275/4/2 276/3/2 280/5/2 279/6/2
f 279/6/3 280/5/3 278/7/3 277/8/3
f 277/8/4 278/7/4 274/9/4 273/10/4
f 275/11/6 279/6/6 277/8/6 273/12/6
f 280/5/5 276/13/5 274/14/5 278/7/5
usemtl Material.043
f 281/1/1 282/2/1 284/3/1 283/4/1
f 283/4/2 284/3/2 288/5/2 287/6/2
f 287/6/3 288/5/3 286/7/3 285/8/3
f 285/8/4 286/7/4 282/9/4 281/10/4
f 283/11/6 287/6/6 285/8/6 281/12/6
f 288/5/5 284/13/5 282/14/5 286/7/5
usemtl Material.044
f 289/1/1 290/2/1 292/3/1 291/4/1
f 291/4/2 292/3/2 296/5/2 295/6/2
f 295/6/3 296/5/3 294/7/3 293/8/3
f 293/8/4 294/7/4 290/9/4 289/10/4
f 291/11/6 295/6/6 293/8/6 289/12/6
f 296/5/5 292/13/5 290/14/5 294/7/5
usemtl Material.045
f 297/1/1 298/2/1 300/3/1 299/4/1
f 299/4/2 300/3/2 304/5/2 303/6/2
f 303/6/3 304/5/3 302/7/3 301/8/3
f 301/8/4 302/7/4 298/9/4 297/10/4
f 299/11/6 303/6/6 301/8/6 297/12/6
f 304/5/5 300/13/5 298/14/5 302/7/5
usemtl Material.046
f 305/1/1 306/2/1 308/3/1 307/4/1
f 307/4/5 308/3/5 312/5/5 311/6/5
f 311/6/3 312/5/3 310/7/3 309/8/3
f 309/8/6 310/7/6 306/9/6 305/10/6
f 307/11/2 311/6/2 309/8/2 305/12/2
f 312/5/4 308/13/4 306/14/4 310/7/4
usemtl Material.047
f 313/1/1 314/2/1 316/3/1 315/4/1
f 315/4/5 316/3/5 320/5/5 319/6/5
f 319/6/3 320/5/3 318/7/3 317/8/3
f 317/8/6 318/7/6 314/9/6 313/10/6
f 315/11/2 319/6/2 317/8/2 313/12/2
f 320/5/4 316/13/4 314/14/4 318/7/4
usemtl Material.048
f 321/1/1 322/2/1 324/3/1 323/4/1
f 323/4/5 324/3/5 328/5/5 327/6/5
f 327/6/3 328/5/3 326/7/3 325/8/3
f 325/8/6 326/7/6 322/9/6 321/10/6
f 323/11/2 327/6/2 325/8/2 321/12/2
f 328/5/4 324/13/4 322/14/4 326/7/4
