# Blender 4.4.0
# www.blender.org
mtllib Building-1Tall.mtl
o Cube.020
v -12.074265 58.097298 -13.246163
v -12.074265 53.060905 -13.246163
v -12.074265 58.097298 -16.872223
v -12.074265 53.060905 -16.872223
v 1.168381 58.097298 -13.246163
v 1.168381 53.060905 -13.246163
v 1.168381 58.097298 -16.872223
v 1.168381 53.060905 -16.872223
v 11.855076 -0.005215 1.847551
v 11.855076 6.498575 1.847551
v 11.855076 -0.005215 -2.292521
v 11.855076 6.498575 -2.292521
v 12.221012 -0.005215 1.847551
v 12.221012 6.498575 1.847551
v 12.221012 -0.005215 -2.292521
v 12.221012 6.498575 -2.292521
v 11.855076 -0.005215 -2.309204
v 11.855076 6.498575 -2.309204
v 11.855076 -0.005215 -6.449276
v 11.855076 6.498575 -6.449276
v 12.221012 -0.005215 -2.309204
v 12.221012 6.498575 -2.309204
v 12.221012 -0.005215 -6.449276
v 12.221012 6.498575 -6.449276
v 11.855076 -0.005215 5.981259
v 11.855076 6.498575 5.981259
v 11.855076 -0.005215 1.841188
v 11.855076 6.498575 1.841188
v 12.221012 -0.005215 5.981259
v 12.221012 6.498575 5.981259
v 12.221012 -0.005215 1.841188
v 12.221012 6.498575 1.841188
v 11.855076 -0.005215 8.355278
v 11.855076 6.498575 8.355278
v 11.855076 -0.005215 5.967085
v 11.855076 6.498575 5.967085
v 12.221012 -0.005215 8.355278
v 12.221012 6.498575 8.355278
v 12.221012 -0.005215 5.967085
v 12.221012 6.498575 5.967085
v 11.855076 -0.005215 -6.433350
v 11.855076 6.498575 -6.433350
v 11.855076 -0.005215 -8.821543
v 11.855076 6.498575 -8.821543
v 12.221012 -0.005215 -6.433350
v 12.221012 6.498575 -6.433350
v 12.221012 -0.005215 -8.821543
v 12.221012 6.498575 -8.821543
v 11.973955 -0.005215 8.615496
v 11.973955 6.498575 8.615496
v 11.973955 -0.005215 8.356096
v 11.973955 6.498575 8.356096
v 12.339891 -0.005215 8.615496
v 12.339891 6.498575 8.615496
v 12.339891 -0.005215 8.356096
v 12.339891 6.498575 8.356096
v 11.973955 -0.005215 6.290487
v 11.973955 6.498575 6.290487
v 11.973955 -0.005215 6.031088
v 11.973955 6.498575 6.031088
v 12.339891 -0.005215 6.290487
v 12.339891 6.498575 6.290487
v 12.339891 -0.005215 6.031088
v 12.339891 6.498575 6.031088
v 11.973955 -0.005215 2.026323
v 11.973955 6.498575 2.026323
v 11.973955 -0.005215 1.766924
v 11.973955 6.498575 1.766924
v 12.339891 -0.005215 2.026323
v 12.339891 6.498575 2.026323
v 12.339891 -0.005215 1.766924
v 12.339891 6.498575 1.766924
v 11.973955 -0.005215 -2.136362
v 11.973955 6.498575 -2.136362
v 11.973955 -0.005215 -2.395761
v 11.973955 6.498575 -2.395761
v 12.339891 -0.005215 -2.136362
v 12.339891 6.498575 -2.136362
v 12.339891 -0.005215 -2.395761
v 12.339891 6.498575 -2.395761
v 11.973955 -0.005215 -6.374827
v 11.973955 6.498575 -6.374827
v 11.973955 -0.005215 -6.634227
v 11.973955 6.498575 -6.634227
v 12.339891 -0.005215 -6.374827
v 12.339891 6.498575 -6.374827
v 12.339891 -0.005215 -6.634227
v 12.339891 6.498575 -6.634227
v 11.973955 -0.005215 -8.834418
v 11.973955 6.498575 -8.834418
v 11.973955 -0.005215 -9.093818
v 11.973955 6.498575 -9.093818
v 12.339891 -0.005215 -8.834418
v 12.339891 6.498575 -8.834418
v 12.339891 -0.005215 -9.093818
v 12.339891 6.498575 -9.093818
v 11.973955 6.723543 8.788010
v 11.973955 6.723543 -9.200768
v 11.973955 6.464144 8.788010
v 11.973955 6.464144 -9.200768
v 12.339891 6.723543 8.788010
v 12.339891 6.723543 -9.200768
v 12.339891 6.464144 8.788010
v 12.339891 6.464144 -9.200768
v 11.973955 5.382013 8.788010
v 11.973955 5.382013 -9.200768
v 11.973955 5.122614 8.788010
v 11.973955 5.122614 -9.200768
v 12.339891 5.382013 8.788010
v 12.339891 5.382013 -9.200768
v 12.339891 5.122614 8.788010
v 12.339891 5.122614 -9.200768
v 11.939472 7.153677 8.788010
v 11.939472 7.153677 -9.200768
v 11.969568 6.896030 8.788010
v 11.969568 6.896027 -9.200768
v 19.158205 7.996931 8.788010
v 19.158205 7.996927 -9.200768
v 19.188301 7.739279 8.788010
v 19.188301 7.739279 -9.200768
v 12.446674 0.022507 -0.222209
v 12.446674 5.037771 -0.222209
v 12.446674 0.022507 -0.200416
v 12.446674 5.037771 -0.200416
v 12.533579 0.022507 -0.222209
v 12.533579 5.037771 -0.222209
v 12.533579 0.022507 -0.200416
v 12.533579 5.037771 -0.200416
v 11.926447 8.313469 16.851814
v 11.926447 52.948132 16.851814
v 11.926447 8.313469 -16.736088
v 11.926447 52.948132 -16.736088
v 12.149641 8.313469 16.851814
v 12.149641 52.948132 16.851814
v 12.149641 8.313469 -16.736088
v 12.149641 52.948132 -16.736088
v -5.344525 54.683403 10.483257
v -5.344525 52.878189 10.483257
v -5.344525 54.683403 6.857198
v -5.344525 52.878189 6.857198
v -3.743974 54.683403 10.483257
v -3.743974 52.878189 10.483257
v -3.743974 54.683403 6.857198
v -3.743974 52.878189 6.857198
v -1.545259 54.683403 10.483257
v -1.545259 52.878189 10.483257
v -1.545259 54.683403 6.857198
v -1.545259 52.878189 6.857198
v 0.055291 54.683403 10.483257
v 0.055291 52.878189 10.483257
v 0.055291 54.683403 6.857198
v 0.055291 52.878189 6.857198
v 3.120043 54.683403 10.483257
v 3.120043 52.878189 10.483257
v 3.120043 54.683403 6.857198
v 3.120043 52.878189 6.857198
v 4.720594 54.683403 10.483257
v 4.720594 52.878189 10.483257
v 4.720594 54.683403 6.857198
v 4.720594 52.878189 6.857198
v -11.915390 0.077658 16.703018
v -11.915390 52.985947 16.703018
v -11.915390 0.077658 -16.596210
v -11.915390 52.985947 -16.596210
v 12.034834 0.077658 16.703018
v 12.034834 52.985947 16.703018
v 12.034834 0.077658 -16.596210
v 12.034834 52.985947 -16.596210
v 0.368389 53.779915 -16.214928
v 0.368389 52.849426 -16.214928
v 0.368389 53.779915 -16.953678
v 0.368389 52.849426 -16.953678
v 12.244495 53.779915 -16.214928
v 12.244495 52.849426 -16.214928
v 12.244495 53.779915 -16.953678
v 12.244495 52.849426 -16.953678
v -12.369656 53.779915 16.773640
v -12.369656 52.849426 16.773640
v -12.369656 53.779915 16.034889
v -12.369656 52.849426 16.034889
v 12.203041 53.779915 16.773640
v 12.203041 52.849426 16.773640
v 12.203041 53.779915 16.034889
v 12.203041 52.849426 16.034889
v -12.295502 53.779915 -13.942223
v -12.295502 52.849426 -13.942223
v -11.556753 53.779915 -13.942223
v -11.556753 52.849426 -13.942223
v -12.295504 53.779915 16.230404
v -12.295504 52.849426 16.230404
v -11.556753 53.779915 16.230404
v -11.556753 52.849426 16.230404
v 11.001347 53.779915 -16.420139
v 11.001347 52.849426 -16.420139
v 11.740099 53.779915 -16.420139
v 11.740099 52.849426 -16.420139
v 11.001345 53.779915 16.002270
v 11.001345 52.849426 16.002270
v 11.740097 53.779915 16.002270
v 11.740097 52.849426 16.002270
v 12.207952 8.313469 0.120657
v 12.207952 52.948132 0.120657
v 12.207952 8.313469 -0.004931
v 12.207952 52.948132 -0.004931
v 12.431147 8.313469 0.120657
v 12.431147 52.948132 0.120657
v 12.431147 8.313469 -0.004931
v 12.431147 52.948132 -0.004931
v 12.207952 8.313469 -10.527508
v 12.207952 52.948132 -10.527508
v 12.207952 8.313469 -10.653094
v 12.207952 52.948132 -10.653094
v 12.431147 8.313469 -10.527508
v 12.431147 52.948132 -10.527508
v 12.431147 8.313469 -10.653094
v 12.431147 52.948132 -10.653094
v 12.207952 8.313469 9.049569
v 12.207952 52.948132 9.049569
v 12.207952 8.313469 8.923981
v 12.207952 52.948132 8.923981
v 12.431147 8.313469 9.049569
v 12.431147 52.948132 9.049569
v 12.431147 8.313469 8.923981
v 12.431147 52.948132 8.923981
v 12.207952 8.313469 -13.824574
v 12.207952 52.948132 -13.824574
v 12.207952 8.313469 -13.950162
v 12.207952 52.948132 -13.950162
v 12.431147 8.313469 -13.824574
v 12.431147 52.948132 -13.824574
v 12.431147 8.313469 -13.950162
v 12.431147 52.948132 -13.950162
v 12.207952 8.313469 -5.672616
v 12.207952 52.948132 -5.672616
v 12.207952 8.313469 -5.798203
v 12.207952 52.948132 -5.798203
v 12.431147 8.313469 -5.672616
v 12.431147 52.948132 -5.672616
v 12.431147 8.313469 -5.798203
v 12.431147 52.948132 -5.798203
v 12.207952 8.313469 -8.023668
v 12.207952 52.948132 -8.023668
v 12.207952 8.313469 -8.149256
v 12.207952 52.948132 -8.149256
v 12.431147 8.313469 -8.023668
v 12.431147 52.948132 -8.023668
v 12.431147 8.313469 -8.149256
v 12.431147 52.948132 -8.149256
v 12.207952 8.313469 -2.864312
v 12.207952 52.948132 -2.864312
v 12.207952 8.313469 -2.989898
v 12.207952 52.948132 -2.989898
v 12.431147 8.313469 -2.864312
v 12.431147 52.948132 -2.864312
v 12.431147 8.313469 -2.989898
v 12.431147 52.948132 -2.989898
v 12.207952 8.313469 4.499214
v 12.207952 52.948132 4.499214
v 12.207952 8.313469 4.373625
v 12.207952 52.948132 4.373625
v 12.431147 8.313469 4.499214
v 12.431147 52.948132 4.499214
v 12.431147 8.313469 4.373625
v 12.431147 52.948132 4.373625
v 12.207952 8.313469 2.455730
v 12.207952 52.948132 2.455730
v 12.207952 8.313469 2.330141
v 12.207952 52.948132 2.330141
v 12.431147 8.313469 2.455730
v 12.431147 52.948132 2.455730
v 12.431147 8.313469 2.330141
v 12.431147 52.948132 2.330141
v 12.207952 8.313469 7.021690
v 12.207952 52.948132 7.021690
v 12.207952 8.313469 6.896102
v 12.207952 52.948132 6.896102
v 12.431147 8.313469 7.021690
v 12.431147 52.948132 7.021690
v 12.431147 8.313469 6.896102
v 12.431147 52.948132 6.896102
v 12.207952 8.313469 13.367690
v 12.207952 52.948132 13.367690
v 12.207952 8.313469 13.242102
v 12.207952 52.948132 13.242102
v 12.431147 8.313469 13.367690
v 12.431147 52.948132 13.367690
v 12.431147 8.313469 13.242102
v 12.431147 52.948132 13.242102
v 12.207952 8.313469 11.495443
v 12.207952 52.948132 11.495443
v 12.207952 8.313469 11.369855
v 12.207952 52.948132 11.369855
v 12.431147 8.313469 11.495443
v 12.431147 52.948132 11.495443
v 12.431147 8.313469 11.369855
v 12.431147 52.948132 11.369855
v 12.207952 8.313469 15.800017
v 12.207952 52.948132 15.800017
v 12.207952 8.313469 15.674429
v 12.207952 52.948132 15.674429
v 12.431147 8.313469 15.800017
v 12.431147 52.948132 15.800017
v 12.431147 8.313469 15.674429
v 12.431147 52.948132 15.674429
v 12.207952 30.568008 -16.776932
v 12.207952 30.568005 16.790310
v 12.207952 30.693596 -16.776932
v 12.207952 30.693594 16.790310
v 12.431147 30.568008 -16.776932
v 12.431147 30.568005 16.790310
v 12.431147 30.693596 -16.776932
v 12.431147 30.693594 16.790310
v 12.207952 42.714333 -16.776932
v 12.207952 42.714333 16.790310
v 12.207952 42.839920 -16.776932
v 12.207952 42.839920 16.790310
v 12.431147 42.714333 -16.776932
v 12.431147 42.714333 16.790310
v 12.431147 42.839920 -16.776932
v 12.431147 42.839920 16.790310
v 12.207952 17.806362 -16.776932
v 12.207952 17.806362 16.790310
v 12.207952 17.931948 -16.776932
v 12.207952 17.931948 16.790310
v 12.431147 17.806362 -16.776932
v 12.431147 17.806362 16.790310
v 12.431147 17.931948 -16.776932
v 12.431147 17.931948 16.790310
vn -1.0000 -0.0000 -0.0000
vn -0.0000 -0.0000 -1.0000
vn 1.0000 -0.0000 -0.0000
vn -0.0000 -0.0000 1.0000
vn -0.0000 1.0000 -0.0000
vn -0.0000 -1.0000 -0.0000
vn 0.9932 0.1160 -0.0000
vn -0.1160 0.9932 -0.0000
vn -0.9932 -0.1160 -0.0000
vn 0.1160 -0.9932 -0.0000
vt 0.375000 0.000000
vt 0.625000 0.000000
vt 0.625000 0.250000
vt 0.375000 0.250000
vt 0.625000 0.500000
vt 0.375000 0.500000
vt 0.625000 0.750000
vt 0.375000 0.750000
vt 0.625000 1.000000
vt 0.375000 1.000000
vt 0.125000 0.500000
vt 0.125000 0.750000
vt 0.875000 0.500000
vt 0.875000 0.750000
s 0
usemtl 
f 1/1/1 3/4/1 4/3/1 2/2/1
f 3/4/2 7/6/2 8/5/2 4/3/2
f 7/6/3 5/8/3 6/7/3 8/5/3
f 5/8/4 1/10/4 2/9/4 6/7/4
f 3/11/5 1/12/5 5/8/5 7/6/5
f 8/5/6 6/7/6 2/14/6 4/13/6
f 137/1/1 139/4/1 140/3/1 138/2/1
f 139/4/2 143/6/2 144/5/2 140/3/2
f 143/6/3 141/8/3 142/7/3 144/5/3
f 141/8/4 137/10/4 138/9/4 142/7/4
f 139/11/5 137/12/5 141/8/5 143/6/5
f 144/5/6 142/7/6 138/14/6 140/13/6
f 145/1/1 147/4/1 148/3/1 146/2/1
f 147/4/2 151/6/2 152/5/2 148/3/2
f 151/6/3 149/8/3 150/7/3 152/5/3
f 149/8/4 145/10/4 146/9/4 150/7/4
f 147/11/5 145/12/5 149/8/5 151/6/5
f 152/5/6 150/7/6 146/14/6 148/13/6
f 153/1/1 155/4/1 156/3/1 154/2/1
f 155/4/2 159/6/2 160/5/2 156/3/2
f 159/6/3 157/8/3 158/7/3 160/5/3
f 157/8/4 153/10/4 154/9/4 158/7/4
f 155/11/5 153/12/5 157/8/5 159/6/5
f 160/5/6 158/7/6 154/14/6 156/13/6
f 169/1/1 171/4/1 172/3/1 170/2/1
f 171/4/2 175/6/2 176/5/2 172/3/2
f 175/6/3 173/8/3 174/7/3 176/5/3
f 173/8/4 169/10/4 170/9/4 174/7/4
f 171/11/5 169/12/5 173/8/5 175/6/5
f 176/5/6 174/7/6 170/14/6 172/13/6
f 177/1/1 179/4/1 180/3/1 178/2/1
f 179/4/2 183/6/2 184/5/2 180/3/2
f 183/6/3 181/8/3 182/7/3 184/5/3
f 181/8/4 177/10/4 178/9/4 182/7/4
f 179/11/5 177/12/5 181/8/5 183/6/5
f 184/5/6 182/7/6 178/14/6 180/13/6
f 185/1/2 187/4/2 188/3/2 186/2/2
f 187/4/3 191/6/3 192/5/3 188/3/3
f 191/6/4 189/8/4 190/7/4 192/5/4
f 189/8/1 185/10/1 186/9/1 190/7/1
f 187/11/5 185/12/5 189/8/5 191/6/5
f 192/5/6 190/7/6 186/14/6 188/13/6
f 193/1/2 195/4/2 196/3/2 194/2/2
f 195/4/3 199/6/3 200/5/3 196/3/3
f 199/6/4 197/8/4 198/7/4 200/5/4
f 197/8/1 193/10/1 194/9/1 198/7/1
f 195/11/5 193/12/5 197/8/5 199/6/5
f 200/5/6 198/7/6 194/14/6 196/13/6
usemtl Material
f 9/1/3 11/4/3 12/3/3 10/2/3
f 11/4/4 15/6/4 16/5/4 12/3/4
f 15/6/1 13/8/1 14/7/1 16/5/1
f 13/8/2 9/10/2 10/9/2 14/7/2
f 11/11/5 9/12/5 13/8/5 15/6/5
f 16/5/6 14/7/6 10/14/6 12/13/6
usemtl Material.013
f 17/1/3 19/4/3 20/3/3 18/2/3
f 19/4/4 23/6/4 24/5/4 20/3/4
f 23/6/1 21/8/1 22/7/1 24/5/1
f 21/8/2 17/10/2 18/9/2 22/7/2
f 19/11/5 17/12/5 21/8/5 23/6/5
f 24/5/6 22/7/6 18/14/6 20/13/6
usemtl Material.012
f 25/1/3 27/4/3 28/3/3 26/2/3
f 27/4/4 31/6/4 32/5/4 28/3/4
f 31/6/1 29/8/1 30/7/1 32/5/1
f 29/8/2 25/10/2 26/9/2 30/7/2
f 27/11/5 25/12/5 29/8/5 31/6/5
f 32/5/6 30/7/6 26/14/6 28/13/6
usemtl Material.010
f 33/1/3 35/4/3 36/3/3 34/2/3
f 35/4/4 39/6/4 40/5/4 36/3/4
f 39/6/1 37/8/1 38/7/1 40/5/1
f 37/8/2 33/10/2 34/9/2 38/7/2
f 35/11/5 33/12/5 37/8/5 39/6/5
f 40/5/6 38/7/6 34/14/6 36/13/6
usemtl Material.011
f 41/1/3 43/4/3 44/3/3 42/2/3
f 43/4/4 47/6/4 48/5/4 44/3/4
f 47/6/1 45/8/1 46/7/1 48/5/1
f 45/8/2 41/10/2 42/9/2 46/7/2
f 43/11/5 41/12/5 45/8/5 47/6/5
f 48/5/6 46/7/6 42/14/6 44/13/6
usemtl Material.002
f 49/1/3 51/4/3 52/3/3 50/2/3
f 51/4/4 55/6/4 56/5/4 52/3/4
f 55/6/1 53/8/1 54/7/1 56/5/1
f 53/8/2 49/10/2 50/9/2 54/7/2
f 51/11/5 49/12/5 53/8/5 55/6/5
f 56/5/6 54/7/6 50/14/6 52/13/6
usemtl Material.009
f 57/1/3 59/4/3 60/3/3 58/2/3
f 59/4/4 63/6/4 64/5/4 60/3/4
f 63/6/1 61/8/1 62/7/1 64/5/1
f 61/8/2 57/10/2 58/9/2 62/7/2
f 59/11/5 57/12/5 61/8/5 63/6/5
f 64/5/6 62/7/6 58/14/6 60/13/6
usemtl Material.008
f 65/1/3 67/4/3 68/3/3 66/2/3
f 67/4/4 71/6/4 72/5/4 68/3/4
f 71/6/1 69/8/1 70/7/1 72/5/1
f 69/8/2 65/10/2 66/9/2 70/7/2
f 67/11/5 65/12/5 69/8/5 71/6/5
f 72/5/6 70/7/6 66/14/6 68/13/6
usemtl Material.007
f 73/1/3 75/4/3 76/3/3 74/2/3
f 75/4/4 79/6/4 80/5/4 76/3/4
f 79/6/1 77/8/1 78/7/1 80/5/1
f 77/8/2 73/10/2 74/9/2 78/7/2
f 75/11/5 73/12/5 77/8/5 79/6/5
f 80/5/6 78/7/6 74/14/6 76/13/6
usemtl Material.006
f 81/1/3 83/4/3 84/3/3 82/2/3
f 83/4/4 87/6/4 88/5/4 84/3/4
f 87/6/1 85/8/1 86/7/1 88/5/1
f 85/8/2 81/10/2 82/9/2 86/7/2
f 83/11/5 81/12/5 85/8/5 87/6/5
f 88/5/6 86/7/6 82/14/6 84/13/6
usemtl Material.004
f 89/1/3 91/4/3 92/3/3 90/2/3
f 91/4/4 95/6/4 96/5/4 92/3/4
f 95/6/1 93/8/1 94/7/1 96/5/1
f 93/8/2 89/10/2 90/9/2 94/7/2
f 91/11/5 89/12/5 93/8/5 95/6/5
f 96/5/6 94/7/6 90/14/6 92/13/6
usemtl Material.003
f 97/1/3 99/4/3 100/3/3 98/2/3
f 99/4/5 103/6/5 104/5/5 100/3/5
f 103/6/1 101/8/1 102/7/1 104/5/1
f 101/8/6 97/10/6 98/9/6 102/7/6
f 99/11/2 97/12/2 101/8/2 103/6/2
f 104/5/4 102/7/4 98/14/4 100/13/4
usemtl Material.005
f 105/1/3 107/4/3 108/3/3 106/2/3
f 107/4/5 111/6/5 112/5/5 108/3/5
f 111/6/1 109/8/1 110/7/1 112/5/1
f 109/8/6 105/10/6 106/9/6 110/7/6
f 107/11/2 105/12/2 109/8/2 111/6/2
f 112/5/4 110/7/4 106/14/4 108/13/4
usemtl Material.014
f 113/1/7 115/4/7 116/3/7 114/2/7
f 115/4/8 119/6/8 120/5/8 116/3/8
f 119/6/9 117/8/9 118/7/9 120/5/9
f 117/8/10 113/10/10 114/9/10 118/7/10
f 115/11/2 113/12/2 117/8/2 119/6/2
f 120/5/4 118/7/4 114/14/4 116/13/4
usemtl Material.015
f 121/1/1 123/4/1 124/3/1 122/2/1
f 123/4/4 127/6/4 128/5/4 124/3/4
f 127/6/3 125/8/3 126/7/3 128/5/3
f 125/8/2 121/10/2 122/9/2 126/7/2
f 123/11/6 121/12/6 125/8/6 127/6/6
f 128/5/5 126/7/5 122/14/5 124/13/5
usemtl Material.029
f 129/1/3 131/4/3 132/3/3 130/2/3
f 131/4/4 135/6/4 136/5/4 132/3/4
f 135/6/1 133/8/1 134/7/1 136/5/1
f 133/8/2 129/10/2 130/9/2 134/7/2
f 131/11/5 129/12/5 133/8/5 135/6/5
f 136/5/6 134/7/6 130/14/6 132/13/6
usemtl Material.032
f 161/1/3 163/4/3 164/3/3 162/2/3
f 163/4/4 167/6/4 168/5/4 164/3/4
f 167/6/1 165/8/1 166/7/1 168/5/1
f 165/8/2 161/10/2 162/9/2 166/7/2
f 163/11/5 161/12/5 165/8/5 167/6/5
f 168/5/6 166/7/6 162/14/6 164/13/6
usemtl Material.033
f 201/1/3 203/4/3 204/3/3 202/2/3
f 203/4/4 207/6/4 208/5/4 204/3/4
f 207/6/1 205/8/1 206/7/1 208/5/1
f 205/8/2 201/10/2 202/9/2 206/7/2
f 203/11/5 201/12/5 205/8/5 207/6/5
f 208/5/6 206/7/6 202/14/6 204/13/6
usemtl Material.034
f 209/1/3 211/4/3 212/3/3 210/2/3
f 211/4/4 215/6/4 216/5/4 212/3/4
f 215/6/1 213/8/1 214/7/1 216/5/1
f 213/8/2 209/10/2 210/9/2 214/7/2
f 211/11/5 209/12/5 213/8/5 215/6/5
f 216/5/6 214/7/6 210/14/6 212/13/6
usemtl Material.035
f 217/1/3 219/4/3 220/3/3 218/2/3
f 219/4/4 223/6/4 224/5/4 220/3/4
f 223/6/1 221/8/1 222/7/1 224/5/1
f 221/8/2 217/10/2 218/9/2 222/7/2
f 219/11/5 217/12/5 221/8/5 223/6/5
f 224/5/6 222/7/6 218/14/6 220/13/6
usemtl Material.036
f 225/1/3 227/4/3 228/3/3 226/2/3
f 227/4/4 231/6/4 232/5/4 228/3/4
f 231/6/1 229/8/1 230/7/1 232/5/1
f 229/8/2 225/10/2 226/9/2 230/7/2
f 227/11/5 225/12/5 229/8/5 231/6/5
f 232/5/6 230/7/6 226/14/6 228/13/6
usemtl Material.037
f 233/1/3 235/4/3 236/3/3 234/2/3
f 235/4/4 239/6/4 240/5/4 236/3/4
f 239/6/1 237/8/1 238/7/1 240/5/1
f 237/8/2 233/10/2 234/9/2 238/7/2
f 235/11/5 233/12/5 237/8/5 239/6/5
f 240/5/6 238/7/6 234/14/6 236/13/6
usemtl Material.038
f 241/1/3 243/4/3 244/3/3 242/2/3
f 243/4/4 247/6/4 248/5/4 244/3/4
f 247/6/1 245/8/1 246/7/1 248/5/1
f 245/8/2 241/10/2 242/9/2 246/7/2
f 243/11/5 241/12/5 245/8/5 247/6/5
f 248/5/6 246/7/6 242/14/6 244/13/6
usemtl Material.039
f 249/1/3 251/4/3 252/3/3 250/2/3
f 251/4/4 255/6/4 256/5/4 252/3/4
f 255/6/1 253/8/1 254/7/1 256/5/1
f 253/8/2 249/10/2 250/9/2 254/7/2
f 251/11/5 249/12/5 253/8/5 255/6/5
f 256/5/6 254/7/6 250/14/6 252/13/6
usemtl Material.040
f 257/1/3 259/4/3 260/3/3 258/2/3
f 259/4/4 263/6/4 264/5/4 260/3/4
f 263/6/1 261/8/1 262/7/1 264/5/1
f 261/8/2 257/10/2 258/9/2 262/7/2
f 259/11/5 257/12/5 261/8/5 263/6/5
f 264/5/6 262/7/6 258/14/6 260/13/6
usemtl Material.041
f 265/1/3 267/4/3 268/3/3 266/2/3
f 267/4/4 271/6/4 272/5/4 268/3/4
f 271/6/1 269/8/1 270/7/1 272/5/1
f 269/8/2 265/10/2 266/9/2 270/7/2
f 267/11/5 265/12/5 269/8/5 271/6/5
f 272/5/6 270/7/6 266/14/6 268/13/6
usemtl Material.042
f 273/1/3 275/4/3 276/3/3 274/2/3
f 275/4/4 279/6/4 280/5/4 276/3/4
f 279/6/1 277/8/1 278/7/1 280/5/1
f 277/8/2 273/10/2 274/9/2 278/7/2
f 275/11/5 273/12/5 277/8/5 279/6/5
f 280/5/6 278/7/6 274/14/6 276/13/6
usemtl Material.043
f 281/1/3 283/4/3 284/3/3 282/2/3
f 283/4/4 287/6/4 288/5/4 284/3/4
f 287/6/1 285/8/1 286/7/1 288/5/1
f 285/8/2 281/10/2 282/9/2 286/7/2
f 283/11/5 281/12/5 285/8/5 287/6/5
f 288/5/6 286/7/6 282/14/6 284/13/6
usemtl Material.044
f 289/1/3 291/4/3 292/3/3 290/2/3
f 291/4/4 295/6/4 296/5/4 292/3/4
f 295/6/1 293/8/1 294/7/1 296/5/1
f 293/8/2 289/10/2 290/9/2 294/7/2
f 291/11/5 289/12/5 293/8/5 295/6/5
f 296/5/6 294/7/6 290/14/6 292/13/6
usemtl Material.045
f 297/1/3 299/4/3 300/3/3 298/2/3
f 299/4/4 303/6/4 304/5/4 300/3/4
f 303/6/1 301/8/1 302/7/1 304/5/1
f 301/8/2 297/10/2 298/9/2 302/7/2
f 299/11/5 297/12/5 301/8/5 303/6/5
f 304/5/6 302/7/6 298/14/6 300/13/6
usemtl Material.046
f 305/1/3 307/4/3 308/3/3 306/2/3
f 307/4/6 311/6/6 312/5/6 308/3/6
f 311/6/1 309/8/1 310/7/1 312/5/1
f 309/8/5 305/10/5 306/9/5 310/7/5
f 307/11/4 305/12/4 309/8/4 311/6/4
f 312/5/2 310/7/2 306/14/2 308/13/2
usemtl Material.047
f 313/1/3 315/4/3 316/3/3 314/2/3
f 315/4/6 319/6/6 320/5/6 316/3/6
f 319/6/1 317/8/1 318/7/1 320/5/1
f 317/8/5 313/10/5 314/9/5 318/7/5
f 315/11/4 313/12/4 317/8/4 319/6/4
f 320/5/2 318/7/2 314/14/2 316/13/2
usemtl Material.048
f 321/1/3 323/4/3 324/3/3 322/2/3
f 323/4/6 327/6/6 328/5/6 324/3/6
f 327/6/1 325/8/1 326/7/1 328/5/1
f 325/8/5 321/10/5 322/9/5 326/7/5
f 323/11/4 321/12/4 325/8/4 327/6/4
f 328/5/2 326/7/2 322/14/2 324/13/2
