# Blender 4.4.0
# www.blender.org
mtllib road1V3.mtl
o Cube.008
v -1.000000 0.260364 1.001180
v -1.000000 0.096720 1.001180
v -1.000000 0.260364 0.897495
v -1.000000 0.096720 0.897495
v 1.000000 0.260364 1.001180
v 1.000000 0.096720 1.001180
v 1.000000 0.260364 0.897495
v 1.000000 0.096720 0.897495
v -1.000000 0.096380 1.000000
v -1.000000 -0.010090 1.000000
v -1.000000 0.096380 -1.000000
v -1.000000 -0.010090 -1.000000
v 1.000000 0.096380 1.000000
v 1.000000 -0.010090 1.000000
v 1.000000 0.096380 -1.000000
v 1.000000 -0.010090 -1.000000
v -1.000000 0.204400 -0.042949
v -1.000000 0.097930 -0.042949
v -1.000000 0.204400 -0.900517
v -1.000000 0.097930 -0.900517
v 1.000000 0.204400 -0.042949
v 1.000000 0.097930 -0.042949
v 1.000000 0.204400 -0.900517
v 1.000000 0.097930 -0.900517
v -1.000000 0.204400 0.908325
v -1.000000 0.097930 0.908325
v -1.000000 0.204400 0.050757
v -1.000000 0.097930 0.050757
v 1.000000 0.204400 0.908325
v 1.000000 0.097930 0.908325
v 1.000000 0.204400 0.050757
v 1.000000 0.097930 0.050757
v -0.386872 0.204400 -0.040857
v -0.386872 0.097930 -0.040857
v -0.386872 0.204400 0.048061
v -0.386872 0.097930 0.048061
v 0.386872 0.204400 -0.040857
v 0.386872 0.097930 -0.040857
v 0.386872 0.204400 0.048061
v 0.386872 0.097930 0.048061
v -1.001483 0.204400 -0.043494
v -1.001483 0.097930 -0.043494
v -1.001483 0.204400 0.050698
v -1.001483 0.097930 0.050698
v -0.383304 0.204400 -0.043494
v -0.383304 0.097930 -0.043494
v -0.383304 0.204400 0.050698
v -0.383304 0.097930 0.050698
v 0.386415 0.204400 -0.043494
v 0.386415 0.097930 -0.043494
v 0.386415 0.204400 0.050698
v 0.386415 0.097930 0.050698
v 1.004594 0.204400 -0.043494
v 1.004594 0.097930 -0.043494
v 1.004594 0.204400 0.050698
v 1.004594 0.097930 0.050698
v -1.000000 0.260364 -0.898263
v -1.000000 0.096720 -0.898263
v -1.000000 0.260364 -1.001948
v -1.000000 0.096720 -1.001948
v 1.000000 0.260364 -0.898263
v 1.000000 0.096720 -0.898263
v 1.000000 0.260364 -1.001948
v 1.000000 0.096720 -1.001948
vn -1.0000 -0.0000 -0.0000
vn -0.0000 -0.0000 -1.0000
vn 1.0000 -0.0000 -0.0000
vn -0.0000 -0.0000 1.0000
vn -0.0000 1.0000 -0.0000
vn -0.0000 -1.0000 -0.0000
vt 0.375000 0.000000
vt 0.625000 0.000000
vt 0.625000 0.250000
vt 0.375000 0.250000
vt 0.625000 0.500000
vt 0.375000 0.500000
vt 0.625000 0.750000
vt 0.375000 0.750000
vt 0.625000 1.000000
vt 0.375000 1.000000
vt 0.125000 0.500000
vt 0.125000 0.750000
vt 0.875000 0.500000
vt 0.875000 0.750000
s 0
usemtl Material.036
f 1/1/1 3/4/1 4/3/1 2/2/1
f 3/4/2 7/6/2 8/5/2 4/3/2
f 7/6/3 5/8/3 6/7/3 8/5/3
f 5/8/4 1/10/4 2/9/4 6/7/4
f 3/11/5 1/12/5 5/8/5 7/6/5
f 8/5/6 6/7/6 2/14/6 4/13/6
usemtl 
f 9/1/1 11/4/1 12/3/1 10/2/1
f 11/4/2 15/6/2 16/5/2 12/3/2
f 15/6/3 13/8/3 14/7/3 16/5/3
f 13/8/4 9/10/4 10/9/4 14/7/4
f 11/11/5 9/12/5 13/8/5 15/6/5
f 16/5/6 14/7/6 10/14/6 12/13/6
usemtl Material.031
f 17/1/1 19/4/1 20/3/1 18/2/1
f 19/4/2 23/6/2 24/5/2 20/3/2
f 23/6/3 21/8/3 22/7/3 24/5/3
f 21/8/4 17/10/4 18/9/4 22/7/4
f 19/11/5 17/12/5 21/8/5 23/6/5
f 24/5/6 22/7/6 18/14/6 20/13/6
usemtl Material.032
f 25/1/1 27/4/1 28/3/1 26/2/1
f 27/4/2 31/6/2 32/5/2 28/3/2
f 31/6/3 29/8/3 30/7/3 32/5/3
f 29/8/4 25/10/4 26/9/4 30/7/4
f 27/11/5 25/12/5 29/8/5 31/6/5
f 32/5/6 30/7/6 26/14/6 28/13/6
usemtl Material.030
f 33/1/3 35/4/3 36/3/3 34/2/3
f 35/4/2 39/6/2 40/5/2 36/3/2
f 39/6/1 37/8/1 38/7/1 40/5/1
f 37/8/4 33/10/4 34/9/4 38/7/4
f 35/11/6 33/12/6 37/8/6 39/6/6
f 40/5/5 38/7/5 34/14/5 36/13/5
usemtl Material.034
f 41/1/3 43/4/3 44/3/3 42/2/3
f 43/4/2 47/6/2 48/5/2 44/3/2
f 47/6/1 45/8/1 46/7/1 48/5/1
f 45/8/4 41/10/4 42/9/4 46/7/4
f 43/11/6 41/12/6 45/8/6 47/6/6
f 48/5/5 46/7/5 42/14/5 44/13/5
usemtl Material.002
f 49/1/3 51/4/3 52/3/3 50/2/3
f 51/4/2 55/6/2 56/5/2 52/3/2
f 55/6/1 53/8/1 54/7/1 56/5/1
f 53/8/4 49/10/4 50/9/4 54/7/4
f 51/11/6 49/12/6 53/8/6 55/6/6
f 56/5/5 54/7/5 50/14/5 52/13/5
usemtl Material.035
f 57/1/1 59/4/1 60/3/1 58/2/1
f 59/4/2 63/6/2 64/5/2 60/3/2
f 63/6/3 61/8/3 62/7/3 64/5/3
f 61/8/4 57/10/4 58/9/4 62/7/4
f 59/11/5 57/12/5 61/8/5 63/6/5
f 64/5/6 62/7/6 58/14/6 60/13/6
