# Blender 4.4.0
# www.blender.org
mtllib road1 - Copy.mtl
o Torus.003
v 0.296969 0.185722 0.475978
v 0.279745 0.200125 0.475978
v 0.233542 0.209954 0.475978
v 0.173029 0.212091 0.475978
v 0.117418 0.205855 0.475978
v 0.084366 0.193228 0.475978
v 0.084366 0.178217 0.475978
v 0.117418 0.165590 0.475978
v 0.173029 0.159354 0.475978
v 0.233542 0.161490 0.475978
v 0.279745 0.171320 0.475978
v 0.290845 0.185722 0.393883
v 0.273789 0.200125 0.396130
v 0.228035 0.209954 0.402157
v 0.168111 0.212091 0.410051
v 0.113041 0.205855 0.417306
v 0.080311 0.193228 0.421618
v 0.080311 0.178217 0.421618
v 0.113041 0.165590 0.417306
v 0.168111 0.159354 0.410051
v 0.228035 0.161490 0.402157
v 0.273789 0.171320 0.396130
v 0.272591 0.185722 0.313385
v 0.256035 0.200125 0.317835
v 0.211621 0.209954 0.329772
v 0.153452 0.212091 0.345407
v 0.099996 0.205855 0.359776
v 0.068224 0.193228 0.368316
v 0.068224 0.178217 0.368316
v 0.099996 0.165590 0.359776
v 0.153452 0.159354 0.345407
v 0.211621 0.161490 0.329772
v 0.256035 0.171320 0.317835
v 0.242564 0.185722 0.236051
v 0.226829 0.200125 0.242618
v 0.184620 0.209954 0.260234
v 0.129339 0.212091 0.283305
v 0.078536 0.205855 0.304507
v 0.048341 0.193228 0.317109
v 0.048341 0.178217 0.317109
v 0.078536 0.165590 0.304507
v 0.129339 0.159354 0.283305
v 0.184620 0.161490 0.260234
v 0.226829 0.171320 0.242618
v 0.201347 0.185722 0.163388
v 0.186740 0.200125 0.171944
v 0.147557 0.209954 0.194894
v 0.096239 0.212091 0.224953
v 0.049079 0.205855 0.252577
v 0.021049 0.193228 0.268995
v 0.021049 0.178217 0.268995
v 0.049079 0.165590 0.252577
v 0.096239 0.159354 0.224953
v 0.147557 0.161490 0.194894
v 0.186740 0.171320 0.171944
v 0.149742 0.185722 0.096809
v 0.136548 0.200125 0.107187
v 0.101154 0.209954 0.135026
v 0.054798 0.212091 0.171487
v 0.012198 0.205855 0.204994
v -0.013121 0.193228 0.224909
v -0.013121 0.178217 0.224909
v 0.012198 0.165590 0.204994
v 0.054798 0.159354 0.171487
v 0.101154 0.161490 0.135026
v 0.136548 0.171320 0.107187
v 0.088755 0.185722 0.037610
v 0.077230 0.200125 0.049608
v 0.046314 0.209954 0.081793
v 0.005823 0.212091 0.123947
v -0.031388 0.205855 0.162685
v -0.053505 0.193228 0.185710
v -0.053505 0.178217 0.185710
v -0.031388 0.165590 0.162685
v 0.005823 0.159354 0.123947
v 0.046314 0.161490 0.081793
v 0.077230 0.171320 0.049608
v 0.019571 0.185722 -0.013057
v 0.009940 0.200125 0.000328
v -0.015896 0.209954 0.036233
v -0.049735 0.212091 0.083259
v -0.080832 0.205855 0.126475
v -0.099315 0.193228 0.152161
v -0.099315 0.178217 0.152161
v -0.080832 0.165590 0.126475
v -0.049735 0.159354 0.083259
v -0.015896 0.161490 0.036233
v 0.009940 0.171320 0.000328
v -0.056461 0.185722 -0.054205
v -0.064012 0.200125 -0.039694
v -0.084266 0.209954 -0.000768
v -0.110793 0.212091 0.050215
v -0.135171 0.205855 0.097067
v -0.149660 0.193228 0.124914
v -0.149660 0.178217 0.124914
v -0.135171 0.165590 0.097067
v -0.110793 0.159354 0.050215
v -0.084266 0.161490 -0.000768
v -0.064012 0.171320 -0.039694
v -0.137863 0.185722 -0.085034
v -0.143185 0.200125 -0.069679
v -0.157463 0.209954 -0.028489
v -0.176162 0.212091 0.025458
v -0.193347 0.205855 0.075035
v -0.203561 0.193228 0.104501
v -0.203561 0.178217 0.104501
v -0.193347 0.165590 0.075035
v -0.176162 0.159354 0.025458
v -0.157463 0.161490 -0.028489
v -0.143185 0.171320 -0.069679
v -0.223050 0.185722 -0.104943
v -0.226041 0.200125 -0.089043
v -0.234064 0.209954 -0.046392
v -0.244572 0.212091 0.009470
v -0.254229 0.205855 0.060806
v -0.259968 0.193228 0.091318
v -0.259968 0.178217 0.091318
v -0.254229 0.165590 0.060806
v -0.244572 0.159354 0.009470
v -0.234064 0.161490 -0.046392
v -0.226041 0.171320 -0.089043
v -0.310364 0.185722 -0.113545
v -0.310965 0.200125 -0.097410
v -0.312577 0.209954 -0.054127
v -0.314689 0.212091 0.002562
v -0.316630 0.205855 0.054658
v -0.317783 0.193228 0.085621
v -0.317783 0.178217 0.085621
v -0.316630 0.165590 0.054658
v -0.314689 0.159354 0.002562
v -0.312577 0.161490 -0.054127
v -0.310965 0.171320 -0.097410
v -1.000000 0.096380 1.000000
v -1.000000 -0.010090 1.000000
v -1.000000 0.096380 -1.000000
v -1.000000 -0.010090 -1.000000
v 1.000000 0.096380 1.000000
v 1.000000 -0.010090 1.000000
v 1.000000 0.096380 -1.000000
v 1.000000 -0.010090 -1.000000
v -0.999196 0.204400 0.988515
v -0.999196 0.097930 0.988515
v -0.999196 0.204400 -0.926834
v -0.999196 0.097930 -0.926834
v 1.000804 0.204400 0.988515
v 1.000804 0.097930 0.988515
v 1.000804 0.204400 -0.926834
v 1.000804 0.097930 -0.926834
v -1.000000 0.260364 -0.898263
v -1.000000 0.096720 -0.898263
v -1.000000 0.260364 -1.001948
v -1.000000 0.096720 -1.001948
v 1.000000 0.260364 -0.898263
v 1.000000 0.096720 -0.898263
v 1.000000 0.260364 -1.001948
v 1.000000 0.096720 -1.001948
v 1.002740 0.260364 1.002767
v 1.002740 0.096720 1.002767
v 0.899059 0.260364 1.001991
v 0.899059 0.096720 1.001991
v 1.017704 0.260364 -0.997177
v 1.017704 0.096720 -0.997177
v 0.914022 0.260364 -0.997953
v 0.914022 0.096720 -0.997953
vn 0.6407 0.7663 -0.0478
vn 0.2081 0.9780 -0.0155
vn 0.0353 0.9994 -0.0026
vn -0.1114 0.9937 0.0083
vn -0.3568 0.9338 0.0266
vn -0.9972 -0.0000 0.0744
vn -0.3568 -0.9338 0.0266
vn -0.1114 -0.9937 0.0083
vn 0.0353 -0.9994 -0.0026
vn 0.2081 -0.9780 -0.0155
vn 0.6407 -0.7663 -0.0478
vn 0.6276 0.7654 -0.1423
vn 0.2040 0.9779 -0.0463
vn 0.0346 0.9994 -0.0078
vn -0.1093 0.9937 0.0248
vn -0.3497 0.9335 0.0793
vn -0.9752 -0.0000 0.2211
vn -0.3497 -0.9335 0.0793
vn -0.1093 -0.9937 0.0248
vn 0.0346 -0.9994 -0.0078
vn 0.2040 -0.9779 -0.0463
vn 0.6276 -0.7654 -0.1423
vn 0.6017 0.7638 -0.2336
vn 0.1959 0.9777 -0.0761
vn 0.0332 0.9994 -0.0129
vn -0.1050 0.9936 0.0408
vn -0.3357 0.9329 0.1304
vn -0.9322 -0.0000 0.3620
vn -0.3357 -0.9329 0.1304
vn -0.1050 -0.9936 0.0408
vn 0.0332 -0.9994 -0.0129
vn 0.1959 -0.9777 -0.0761
vn 0.6017 -0.7638 -0.2336
vn 0.5637 0.7616 -0.3197
vn 0.1840 0.9774 -0.1044
vn 0.0312 0.9994 -0.0177
vn -0.0986 0.9936 0.0559
vn -0.3152 0.9320 0.1788
vn -0.8698 -0.0000 0.4934
vn -0.3152 -0.9320 0.1788
vn -0.0986 -0.9936 0.0559
vn 0.0312 -0.9994 -0.0177
vn 0.1840 -0.9774 -0.1044
vn 0.5637 -0.7616 -0.3197
vn 0.5147 0.7589 -0.3989
vn 0.1686 0.9770 -0.1307
vn 0.0286 0.9993 -0.0222
vn -0.0903 0.9934 0.0700
vn -0.2885 0.9310 0.2236
vn -0.7904 -0.0000 0.6126
vn -0.2885 -0.9310 0.2236
vn -0.0903 -0.9934 0.0700
vn 0.0286 -0.9993 -0.0222
vn 0.1686 -0.9770 -0.1307
vn 0.5147 -0.7589 -0.3989
vn 0.4559 0.7560 -0.4696
vn 0.1498 0.9766 -0.1543
vn 0.0254 0.9993 -0.0262
vn -0.0803 0.9933 0.0827
vn -0.2562 0.9299 0.2639
vn -0.6965 -0.0000 0.7175
vn -0.2562 -0.9299 0.2639
vn -0.0803 -0.9933 0.0827
vn 0.0254 -0.9993 -0.0262
vn 0.1498 -0.9766 -0.1543
vn 0.4559 -0.7560 -0.4696
vn 0.3887 0.7532 -0.5307
vn 0.1282 0.9762 -0.1750
vn 0.0218 0.9993 -0.0297
vn -0.0687 0.9932 0.0939
vn -0.2190 0.9288 0.2990
vn -0.5909 -0.0000 0.8068
vn -0.2190 -0.9288 0.2990
vn -0.0687 -0.9932 0.0939
vn 0.0218 -0.9993 -0.0297
vn 0.1282 -0.9762 -0.1750
vn 0.3887 -0.7532 -0.5307
vn 0.3145 0.7505 -0.5812
vn 0.1041 0.9758 -0.1923
vn 0.0177 0.9993 -0.0327
vn -0.0558 0.9931 0.1031
vn -0.1777 0.9277 0.3283
vn -0.4760 -0.0000 0.8795
vn -0.1777 -0.9277 0.3283
vn -0.0558 -0.9931 0.1031
vn 0.0177 -0.9993 -0.0327
vn 0.1041 -0.9758 -0.1923
vn 0.3145 -0.7505 -0.5812
vn 0.2350 0.7483 -0.6204
vn 0.0779 0.9755 -0.2058
vn 0.0132 0.9993 -0.0350
vn -0.0418 0.9930 0.1104
vn -0.1330 0.9268 0.3511
vn -0.3542 -0.0000 0.9352
vn -0.1330 -0.9268 0.3511
vn -0.0418 -0.9930 0.1104
vn 0.0132 -0.9993 -0.0350
vn 0.0779 -0.9755 -0.2058
vn 0.2350 -0.7483 -0.6204
vn 0.1514 0.7466 -0.6478
vn 0.0503 0.9753 -0.2153
vn 0.0086 0.9993 -0.0366
vn -0.0270 0.9929 0.1155
vn -0.0858 0.9262 0.3672
vn -0.2276 -0.0000 0.9738
vn -0.0858 -0.9262 0.3672
vn -0.0270 -0.9929 0.1155
vn 0.0086 -0.9993 -0.0366
vn 0.0503 -0.9753 -0.2153
vn 0.1514 -0.7466 -0.6478
vn 0.0653 0.7456 -0.6631
vn 0.0217 0.9751 -0.2206
vn 0.0037 0.9993 -0.0375
vn -0.0117 0.9929 0.1184
vn -0.0371 0.9258 0.3762
vn -0.0980 -0.0000 0.9952
vn -0.0371 -0.9258 0.3762
vn -0.0117 -0.9929 0.1184
vn 0.0037 -0.9993 -0.0375
vn 0.0217 -0.9751 -0.2206
vn 0.0653 -0.7456 -0.6631
vn 1.0000 -0.0000 -0.0000
vn -0.0000 -0.0000 1.0000
vn -1.0000 -0.0000 -0.0000
vn -0.0000 -0.0000 -1.0000
vn -0.0000 -1.0000 -0.0000
vn -0.0000 1.0000 -0.0000
vn 0.0075 -0.0000 -1.0000
vn 1.0000 -0.0000 0.0075
vn -0.0075 -0.0000 1.0000
vn -1.0000 -0.0000 -0.0075
vt 0.511111 0.545455
vt 0.533333 0.545455
vt 0.533333 0.636364
vt 0.511111 0.636364
vt 0.533333 0.727273
vt 0.511111 0.727273
vt 0.533333 0.818182
vt 0.511111 0.818182
vt 0.533333 0.909091
vt 0.511111 0.909091
vt 0.533333 1.000000
vt 0.511111 1.000000
vt 0.511111 0.000000
vt 0.533333 0.000000
vt 0.533333 0.090909
vt 0.511111 0.090909
vt 0.533333 0.181818
vt 0.511111 0.181818
vt 0.533333 0.272727
vt 0.511111 0.272727
vt 0.533333 0.363636
vt 0.511111 0.363636
vt 0.533333 0.454545
vt 0.511111 0.454545
vt 0.555556 0.545455
vt 0.555556 0.636364
vt 0.555556 0.727273
vt 0.555556 0.818182
vt 0.555556 0.909091
vt 0.555556 1.000000
vt 0.555556 0.000000
vt 0.555556 0.090909
vt 0.555556 0.181818
vt 0.555556 0.272727
vt 0.555556 0.363636
vt 0.555556 0.454545
vt 0.577778 0.545455
vt 0.577778 0.636364
vt 0.577778 0.727273
vt 0.577778 0.818182
vt 0.577778 0.909091
vt 0.577778 1.000000
vt 0.577778 0.000000
vt 0.577778 0.090909
vt 0.577778 0.181818
vt 0.577778 0.272727
vt 0.577778 0.363636
vt 0.577778 0.454545
vt 0.600000 0.545455
vt 0.600000 0.636364
vt 0.600000 0.727273
vt 0.600000 0.818182
vt 0.600000 0.909091
vt 0.600000 1.000000
vt 0.600000 0.000000
vt 0.600000 0.090909
vt 0.600000 0.181818
vt 0.600000 0.272727
vt 0.600000 0.363636
vt 0.600000 0.454545
vt 0.622222 0.545455
vt 0.622222 0.636364
vt 0.622222 0.727273
vt 0.622222 0.818182
vt 0.622222 0.909091
vt 0.622222 1.000000
vt 0.622222 0.000000
vt 0.622222 0.090909
vt 0.622222 0.181818
vt 0.622222 0.272727
vt 0.622222 0.363636
vt 0.622222 0.454545
vt 0.644444 0.545455
vt 0.644444 0.636364
vt 0.644444 0.727273
vt 0.644444 0.818182
vt 0.644444 0.909091
vt 0.644444 1.000000
vt 0.644444 0.000000
vt 0.644444 0.090909
vt 0.644444 0.181818
vt 0.644444 0.272727
vt 0.644444 0.363636
vt 0.644444 0.454545
vt 0.666667 0.545455
vt 0.666667 0.636364
vt 0.666667 0.727273
vt 0.666667 0.818182
vt 0.666667 0.909091
vt 0.666667 1.000000
vt 0.666667 0.000000
vt 0.666667 0.090909
vt 0.666667 0.181818
vt 0.666667 0.272727
vt 0.666667 0.363636
vt 0.666667 0.454545
vt 0.688889 0.545455
vt 0.688889 0.636364
vt 0.688889 0.727273
vt 0.688889 0.818182
vt 0.688889 0.909091
vt 0.688889 1.000000
vt 0.688889 0.000000
vt 0.688889 0.090909
vt 0.688889 0.181818
vt 0.688889 0.272727
vt 0.688889 0.363636
vt 0.688889 0.454545
vt 0.711111 0.545455
vt 0.711111 0.636364
vt 0.711111 0.727273
vt 0.711111 0.818182
vt 0.711111 0.909091
vt 0.711111 1.000000
vt 0.711111 0.000000
vt 0.711111 0.090909
vt 0.711111 0.181818
vt 0.711111 0.272727
vt 0.711111 0.363636
vt 0.711111 0.454545
vt 0.733333 0.545455
vt 0.733333 0.636364
vt 0.733333 0.727273
vt 0.733333 0.818182
vt 0.733333 0.909091
vt 0.733333 1.000000
vt 0.733333 0.000000
vt 0.733333 0.090909
vt 0.733333 0.181818
vt 0.733333 0.272727
vt 0.733333 0.363636
vt 0.733333 0.454545
vt 0.755556 0.545455
vt 0.755556 0.636364
vt 0.755556 0.727273
vt 0.755556 0.818182
vt 0.755556 0.909091
vt 0.755556 1.000000
vt 0.755556 0.000000
vt 0.755556 0.090909
vt 0.755556 0.181818
vt 0.755556 0.272727
vt 0.755556 0.363636
vt 0.755556 0.454545
vt 0.375000 0.000000
vt 0.625000 0.000000
vt 0.625000 0.250000
vt 0.375000 0.250000
vt 0.625000 0.500000
vt 0.375000 0.500000
vt 0.625000 0.750000
vt 0.375000 0.750000
vt 0.625000 1.000000
vt 0.375000 1.000000
vt 0.125000 0.500000
vt 0.125000 0.750000
vt 0.875000 0.500000
vt 0.875000 0.750000
s 0
usemtl 
f 1/1/1 12/2/1 13/3/1 2/4/1
f 2/4/2 13/3/2 14/5/2 3/6/2
f 3/6/3 14/5/3 15/7/3 4/8/3
f 4/8/4 15/7/4 16/9/4 5/10/4
f 5/10/5 16/9/5 17/11/5 6/12/5
f 6/13/6 17/14/6 18/15/6 7/16/6
f 7/16/7 18/15/7 19/17/7 8/18/7
f 8/18/8 19/17/8 20/19/8 9/20/8
f 9/20/9 20/19/9 21/21/9 10/22/9
f 10/22/10 21/21/10 22/23/10 11/24/10
f 11/24/11 22/23/11 12/2/11 1/1/11
f 12/2/12 23/25/12 24/26/12 13/3/12
f 13/3/13 24/26/13 25/27/13 14/5/13
f 14/5/14 25/27/14 26/28/14 15/7/14
f 15/7/15 26/28/15 27/29/15 16/9/15
f 16/9/16 27/29/16 28/30/16 17/11/16
f 17/14/17 28/31/17 29/32/17 18/15/17
f 18/15/18 29/32/18 30/33/18 19/17/18
f 19/17/19 30/33/19 31/34/19 20/19/19
f 20/19/20 31/34/20 32/35/20 21/21/20
f 21/21/21 32/35/21 33/36/21 22/23/21
f 22/23/22 33/36/22 23/25/22 12/2/22
f 23/25/23 34/37/23 35/38/23 24/26/23
f 24/26/24 35/38/24 36/39/24 25/27/24
f 25/27/25 36/39/25 37/40/25 26/28/25
f 26/28/26 37/40/26 38/41/26 27/29/26
f 27/29/27 38/41/27 39/42/27 28/30/27
f 28/31/28 39/43/28 40/44/28 29/32/28
f 29/32/29 40/44/29 41/45/29 30/33/29
f 30/33/30 41/45/30 42/46/30 31/34/30
f 31/34/31 42/46/31 43/47/31 32/35/31
f 32/35/32 43/47/32 44/48/32 33/36/32
f 33/36/33 44/48/33 34/37/33 23/25/33
f 34/37/34 45/49/34 46/50/34 35/38/34
f 35/38/35 46/50/35 47/51/35 36/39/35
f 36/39/36 47/51/36 48/52/36 37/40/36
f 37/40/37 48/52/37 49/53/37 38/41/37
f 38/41/38 49/53/38 50/54/38 39/42/38
f 39/43/39 50/55/39 51/56/39 40/44/39
f 40/44/40 51/56/40 52/57/40 41/45/40
f 41/45/41 52/57/41 53/58/41 42/46/41
f 42/46/42 53/58/42 54/59/42 43/47/42
f 43/47/43 54/59/43 55/60/43 44/48/43
f 44/48/44 55/60/44 45/49/44 34/37/44
f 45/49/45 56/61/45 57/62/45 46/50/45
f 46/50/46 57/62/46 58/63/46 47/51/46
f 47/51/47 58/63/47 59/64/47 48/52/47
f 48/52/48 59/64/48 60/65/48 49/53/48
f 49/53/49 60/65/49 61/66/49 50/54/49
f 50/55/50 61/67/50 62/68/50 51/56/50
f 51/56/51 62/68/51 63/69/51 52/57/51
f 52/57/52 63/69/52 64/70/52 53/58/52
f 53/58/53 64/70/53 65/71/53 54/59/53
f 54/59/54 65/71/54 66/72/54 55/60/54
f 55/60/55 66/72/55 56/61/55 45/49/55
f 56/61/56 67/73/56 68/74/56 57/62/56
f 57/62/57 68/74/57 69/75/57 58/63/57
f 58/63/58 69/75/58 70/76/58 59/64/58
f 59/64/59 70/76/59 71/77/59 60/65/59
f 60/65/60 71/77/60 72/78/60 61/66/60
f 61/67/61 72/79/61 73/80/61 62/68/61
f 62/68/62 73/80/62 74/81/62 63/69/62
f 63/69/63 74/81/63 75/82/63 64/70/63
f 64/70/64 75/82/64 76/83/64 65/71/64
f 65/71/65 76/83/65 77/84/65 66/72/65
f 66/72/66 77/84/66 67/73/66 56/61/66
f 67/73/67 78/85/67 79/86/67 68/74/67
f 68/74/68 79/86/68 80/87/68 69/75/68
f 69/75/69 80/87/69 81/88/69 70/76/69
f 70/76/70 81/88/70 82/89/70 71/77/70
f 71/77/71 82/89/71 83/90/71 72/78/71
f 72/79/72 83/91/72 84/92/72 73/80/72
f 73/80/73 84/92/73 85/93/73 74/81/73
f 74/81/74 85/93/74 86/94/74 75/82/74
f 75/82/75 86/94/75 87/95/75 76/83/75
f 76/83/76 87/95/76 88/96/76 77/84/76
f 77/84/77 88/96/77 78/85/77 67/73/77
f 78/85/78 89/97/78 90/98/78 79/86/78
f 79/86/79 90/98/79 91/99/79 80/87/79
f 80/87/80 91/99/80 92/100/80 81/88/80
f 81/88/81 92/100/81 93/101/81 82/89/81
f 82/89/82 93/101/82 94/102/82 83/90/82
f 83/91/83 94/103/83 95/104/83 84/92/83
f 84/92/84 95/104/84 96/105/84 85/93/84
f 85/93/85 96/105/85 97/106/85 86/94/85
f 86/94/86 97/106/86 98/107/86 87/95/86
f 87/95/87 98/107/87 99/108/87 88/96/87
f 88/96/88 99/108/88 89/97/88 78/85/88
f 89/97/89 100/109/89 101/110/89 90/98/89
f 90/98/90 101/110/90 102/111/90 91/99/90
f 91/99/91 102/111/91 103/112/91 92/100/91
f 92/100/92 103/112/92 104/113/92 93/101/92
f 93/101/93 104/113/93 105/114/93 94/102/93
f 94/103/94 105/115/94 106/116/94 95/104/94
f 95/104/95 106/116/95 107/117/95 96/105/95
f 96/105/96 107/117/96 108/118/96 97/106/96
f 97/106/97 108/118/97 109/119/97 98/107/97
f 98/107/98 109/119/98 110/120/98 99/108/98
f 99/108/99 110/120/99 100/109/99 89/97/99
f 100/109/100 111/121/100 112/122/100 101/110/100
f 101/110/101 112/122/101 113/123/101 102/111/101
f 102/111/102 113/123/102 114/124/102 103/112/102
f 103/112/103 114/124/103 115/125/103 104/113/103
f 104/113/104 115/125/104 116/126/104 105/114/104
f 105/115/105 116/127/105 117/128/105 106/116/105
f 106/116/106 117/128/106 118/129/106 107/117/106
f 107/117/107 118/129/107 119/130/107 108/118/107
f 108/118/108 119/130/108 120/131/108 109/119/108
f 109/119/109 120/131/109 121/132/109 110/120/109
f 110/120/110 121/132/110 111/121/110 100/109/110
f 111/121/111 122/133/111 123/134/111 112/122/111
f 112/122/112 123/134/112 124/135/112 113/123/112
f 113/123/113 124/135/113 125/136/113 114/124/113
f 114/124/114 125/136/114 126/137/114 115/125/114
f 115/125/115 126/137/115 127/138/115 116/126/115
f 116/127/116 127/139/116 128/140/116 117/128/116
f 117/128/117 128/140/117 129/141/117 118/129/117
f 118/129/118 129/141/118 130/142/118 119/130/118
f 119/130/119 130/142/119 131/143/119 120/131/119
f 120/131/120 131/143/120 132/144/120 121/132/120
f 121/132/121 132/144/121 122/133/121 111/121/121
f 133/145/122 134/146/122 136/147/122 135/148/122
f 135/148/123 136/147/123 140/149/123 139/150/123
f 139/150/124 140/149/124 138/151/124 137/152/124
f 137/152/125 138/151/125 134/153/125 133/154/125
f 135/155/126 139/150/126 137/152/126 133/156/126
f 140/149/127 136/157/127 134/158/127 138/151/127
usemtl Material.031
f 141/145/122 142/146/122 144/147/122 143/148/122
f 143/148/123 144/147/123 148/149/123 147/150/123
f 147/150/124 148/149/124 146/151/124 145/152/124
f 145/152/125 146/151/125 142/153/125 141/154/125
f 143/155/126 147/150/126 145/152/126 141/156/126
f 148/149/127 144/157/127 142/158/127 146/151/127
usemtl Material.035
f 149/145/122 150/146/122 152/147/122 151/148/122
f 151/148/123 152/147/123 156/149/123 155/150/123
f 155/150/124 156/149/124 154/151/124 153/152/124
f 153/152/125 154/151/125 150/153/125 149/154/125
f 151/155/126 155/150/126 153/152/126 149/156/126
f 156/149/127 152/157/127 150/158/127 154/151/127
usemtl Material.036
f 157/145/128 158/146/128 160/147/128 159/148/128
f 159/148/129 160/147/129 164/149/129 163/150/129
f 163/150/130 164/149/130 162/151/130 161/152/130
f 161/152/131 162/151/131 158/153/131 157/154/131
f 159/155/126 163/150/126 161/152/126 157/156/126
f 164/149/127 160/157/127 158/158/127 162/151/127
