# Blender 4.4.0
# www.blender.org
mtllib road3  big 3 - ramp.mtl
o Cube.001
v -5.167343 0.028232 1.000347
v -5.192097 0.133480 1.000347
v -5.167343 0.028232 -1.000347
v -5.192097 0.133480 -1.000347
v 2.969669 1.941940 1.000347
v 2.944916 2.047188 1.000347
v 2.969669 1.941940 -1.000347
v 2.944916 2.047188 -1.000347
v -5.143565 -0.072874 1.000347
v -5.168318 0.032375 1.000347
v -5.143565 -0.072874 -1.000347
v -5.168318 0.032375 -1.000347
v 2.993448 1.840834 1.000347
v 2.968694 1.946083 1.000347
v 2.993448 1.840834 -1.000347
v 2.968694 1.946083 -1.000347
v -2.475680 0.774245 0.049339
v -2.472764 0.761849 0.049339
v -2.475680 0.774245 -0.049339
v -2.472764 0.761849 -0.049339
v 0.227651 1.410030 0.049339
v 0.230567 1.397633 0.049339
v 0.227651 1.410030 -0.049339
v 0.230567 1.397633 -0.049339
vn -0.9734 -0.2289 -0.0000
vn -0.0000 -0.0000 -1.0000
vn 0.9734 0.2289 -0.0000
vn -0.0000 -0.0000 1.0000
vn 0.2289 -0.9734 -0.0000
vn -0.2289 0.9734 -0.0000
vt 0.375000 0.000000
vt 0.625000 0.000000
vt 0.625000 0.250000
vt 0.375000 0.250000
vt 0.625000 0.500000
vt 0.375000 0.500000
vt 0.625000 0.750000
vt 0.375000 0.750000
vt 0.625000 1.000000
vt 0.375000 1.000000
vt 0.125000 0.500000
vt 0.125000 0.750000
vt 0.875000 0.500000
vt 0.875000 0.750000
s 0
usemtl Material
f 1/1/1 2/2/1 4/3/1 3/4/1
f 3/4/2 4/3/2 8/5/2 7/6/2
f 7/6/3 8/5/3 6/7/3 5/8/3
f 5/8/4 6/7/4 2/9/4 1/10/4
f 3/11/5 7/6/5 5/8/5 1/12/5
f 8/5/6 4/13/6 2/14/6 6/7/6
usemtl 
f 9/1/1 10/2/1 12/3/1 11/4/1
f 11/4/2 12/3/2 16/5/2 15/6/2
f 15/6/3 16/5/3 14/7/3 13/8/3
f 13/8/4 14/7/4 10/9/4 9/10/4
f 11/11/5 15/6/5 13/8/5 9/12/5
f 16/5/6 12/13/6 10/14/6 14/7/6
usemtl Material.001
f 17/1/1 19/4/1 20/3/1 18/2/1
f 19/4/2 23/6/2 24/5/2 20/3/2
f 23/6/3 21/8/3 22/7/3 24/5/3
f 21/8/4 17/10/4 18/9/4 22/7/4
f 19/11/6 17/12/6 21/8/6 23/6/6
f 24/5/5 22/7/5 18/14/5 20/13/5
