# Blender 4.4.0
# www.blender.org
mtllib roadbarriers0.mtl
o Cube.001
v -1.000000 0.092775 1.000000
v -1.000000 0.197850 1.000000
v -1.000000 0.092775 -1.000000
v -1.000000 0.197850 -1.000000
v 1.000000 0.092775 1.000000
v 1.000000 0.197850 1.000000
v 1.000000 0.092775 -1.000000
v 1.000000 0.197850 -1.000000
v -1.000000 -0.008163 1.000000
v -1.000000 0.096912 1.000000
v -1.000000 -0.008163 -1.000000
v -1.000000 0.096912 -1.000000
v 1.000000 -0.008163 1.000000
v 1.000000 0.096912 1.000000
v 1.000000 -0.008163 -1.000000
v 1.000000 0.096912 -1.000000
v -0.013097 0.184787 0.029888
v -0.013097 0.794475 0.029888
v -0.013097 0.184787 -0.004804
v -0.013097 0.794475 -0.004804
v 0.013097 0.184787 0.029888
v 0.013097 0.794475 0.029888
v 0.013097 0.184787 -0.004804
v 0.013097 0.794475 -0.004804
v -0.010000 0.466205 0.029992
v -0.010000 0.777377 0.029992
v -0.010000 0.466205 -0.005252
v -0.010000 0.777377 -0.005252
v 0.010000 0.466205 0.029992
v 0.010000 0.777377 0.029992
v 0.010000 0.466205 -0.005252
v 0.010000 0.777377 -0.005252
v 0.000000 0.770000 -1.000000
v 0.000000 0.770000 1.000000
v 0.003247 0.769458 -1.000000
v 0.003247 0.769458 1.000000
v 0.006142 0.767891 -1.000000
v 0.006142 0.767891 1.000000
v 0.008372 0.765470 -1.000000
v 0.008372 0.765469 1.000000
v 0.009694 0.762455 -1.000000
v 0.009694 0.762455 1.000000
v 0.009966 0.759174 -1.000000
v 0.009966 0.759174 1.000000
v 0.009158 0.755983 -1.000000
v 0.009158 0.755983 1.000000
v 0.007357 0.753227 -1.000000
v 0.007357 0.753227 1.000000
v 0.004759 0.751205 -1.000000
v 0.004759 0.751205 1.000000
v 0.001646 0.750136 -1.000000
v 0.001646 0.750136 1.000000
v -0.001646 0.750136 -1.000000
v -0.001646 0.750136 1.000000
v -0.004759 0.751205 -1.000000
v -0.004759 0.751205 1.000000
v -0.007357 0.753227 -1.000000
v -0.007357 0.753227 1.000000
v -0.009158 0.755983 -1.000000
v -0.009158 0.755983 1.000000
v -0.009966 0.759174 -1.000000
v -0.009966 0.759174 1.000000
v -0.009694 0.762455 -1.000000
v -0.009694 0.762455 1.000000
v -0.008372 0.765470 -1.000000
v -0.008372 0.765469 1.000000
v -0.006142 0.767891 -1.000000
v -0.006142 0.767891 1.000000
v -0.003247 0.769458 -1.000000
v -0.003247 0.769458 1.000000
v 0.000000 0.683838 -1.000000
v 0.000000 0.683838 1.000000
v 0.003247 0.683297 -1.000000
v 0.003247 0.683297 1.000000
v 0.006142 0.681730 -1.000000
v 0.006142 0.681730 1.000000
v 0.008372 0.679308 -1.000000
v 0.008372 0.679308 1.000000
v 0.009694 0.676293 -1.000000
v 0.009694 0.676293 1.000000
v 0.009966 0.673013 -1.000000
v 0.009966 0.673013 1.000000
v 0.009158 0.669822 -1.000000
v 0.009158 0.669821 1.000000
v 0.007357 0.667066 -1.000000
v 0.007357 0.667066 1.000000
v 0.004759 0.665044 -1.000000
v 0.004759 0.665044 1.000000
v 0.001646 0.663975 -1.000000
v 0.001646 0.663975 1.000000
v -0.001646 0.663975 -1.000000
v -0.001646 0.663975 1.000000
v -0.004759 0.665044 -1.000000
v -0.004759 0.665044 1.000000
v -0.007357 0.667066 -1.000000
v -0.007357 0.667066 1.000000
v -0.009158 0.669822 -1.000000
v -0.009158 0.669821 1.000000
v -0.009966 0.673013 -1.000000
v -0.009966 0.673013 1.000000
v -0.009694 0.676293 -1.000000
v -0.009694 0.676293 1.000000
v -0.008372 0.679308 -1.000000
v -0.008372 0.679308 1.000000
v -0.006142 0.681730 -1.000000
v -0.006142 0.681730 1.000000
v -0.003247 0.683297 -1.000000
v -0.003247 0.683297 1.000000
v 0.000000 0.590137 -1.000000
v 0.000000 0.590137 1.000000
v 0.003247 0.589595 -1.000000
v 0.003247 0.589595 1.000000
v 0.006142 0.588028 -1.000000
v 0.006142 0.588028 1.000000
v 0.008372 0.585606 -1.000000
v 0.008372 0.585606 1.000000
v 0.009694 0.582592 -1.000000
v 0.009694 0.582592 1.000000
v 0.009966 0.579311 -1.000000
v 0.009966 0.579311 1.000000
v 0.009158 0.576120 -1.000000
v 0.009158 0.576120 1.000000
v 0.007357 0.573364 -1.000000
v 0.007357 0.573364 1.000000
v 0.004759 0.571342 -1.000000
v 0.004759 0.571342 1.000000
v 0.001646 0.570273 -1.000000
v 0.001646 0.570273 1.000000
v -0.001646 0.570273 -1.000000
v -0.001646 0.570273 1.000000
v -0.004759 0.571342 -1.000000
v -0.004759 0.571342 1.000000
v -0.007357 0.573364 -1.000000
v -0.007357 0.573364 1.000000
v -0.009158 0.576120 -1.000000
v -0.009158 0.576120 1.000000
v -0.009966 0.579311 -1.000000
v -0.009966 0.579311 1.000000
v -0.009694 0.582592 -1.000000
v -0.009694 0.582592 1.000000
v -0.008372 0.585606 -1.000000
v -0.008372 0.585606 1.000000
v -0.006142 0.588028 -1.000000
v -0.006142 0.588028 1.000000
v -0.003247 0.589595 -1.000000
v -0.003247 0.589595 1.000000
v 0.000000 0.493600 -1.000000
v 0.000000 0.493600 1.000000
v 0.003247 0.493059 -1.000000
v 0.003247 0.493059 1.000000
v 0.006142 0.491492 -1.000000
v 0.006142 0.491492 1.000000
v 0.008372 0.489070 -1.000000
v 0.008372 0.489070 1.000000
v 0.009694 0.486055 -1.000000
v 0.009694 0.486055 1.000000
v 0.009966 0.482775 -1.000000
v 0.009966 0.482775 1.000000
v 0.009158 0.479584 -1.000000
v 0.009158 0.479583 1.000000
v 0.007357 0.476828 -1.000000
v 0.007357 0.476828 1.000000
v 0.004759 0.474806 -1.000000
v 0.004759 0.474806 1.000000
v 0.001646 0.473737 -1.000000
v 0.001646 0.473737 1.000000
v -0.001646 0.473737 -1.000000
v -0.001646 0.473737 1.000000
v -0.004759 0.474806 -1.000000
v -0.004759 0.474806 1.000000
v -0.007357 0.476828 -1.000000
v -0.007357 0.476828 1.000000
v -0.009158 0.479584 -1.000000
v -0.009158 0.479583 1.000000
v -0.009966 0.482775 -1.000000
v -0.009966 0.482775 1.000000
v -0.009694 0.486055 -1.000000
v -0.009694 0.486055 1.000000
v -0.008372 0.489070 -1.000000
v -0.008372 0.489070 1.000000
v -0.006142 0.491492 -1.000000
v -0.006142 0.491492 1.000000
v -0.003247 0.493059 -1.000000
v -0.003247 0.493059 1.000000
vn -1.0000 -0.0000 -0.0000
vn -0.0000 -0.0000 -1.0000
vn 1.0000 -0.0000 -0.0000
vn -0.0000 -0.0000 1.0000
vn -0.0000 -1.0000 -0.0000
vn -0.0000 1.0000 -0.0000
vn 0.1646 0.9864 -0.0000
vn 0.4760 0.8795 -0.0000
vn 0.7357 0.6773 -0.0000
vn 0.9158 0.4017 -0.0000
vn 0.9966 0.0826 -0.0000
vn 0.9694 -0.2455 -0.0000
vn 0.8372 -0.5469 -0.0000
vn 0.6142 -0.7891 -0.0000
vn 0.3247 -0.9458 -0.0000
vn -0.3247 -0.9458 -0.0000
vn -0.6142 -0.7891 -0.0000
vn -0.8372 -0.5469 -0.0000
vn -0.9694 -0.2455 -0.0000
vn -0.9966 0.0826 -0.0000
vn -0.9158 0.4017 -0.0000
vn -0.7357 0.6773 -0.0000
vn -0.4760 0.8795 -0.0000
vn -0.1646 0.9864 -0.0000
vn 0.4759 0.8795 -0.0000
vn 0.8372 -0.5470 -0.0000
vn -0.8372 -0.5470 -0.0000
vn -0.4759 0.8795 -0.0000
vt 0.375000 0.000000
vt 0.625000 0.000000
vt 0.625000 0.250000
vt 0.375000 0.250000
vt 0.625000 0.500000
vt 0.375000 0.500000
vt 0.625000 0.750000
vt 0.375000 0.750000
vt 0.625000 1.000000
vt 0.375000 1.000000
vt 0.125000 0.500000
vt 0.125000 0.750000
vt 0.875000 0.500000
vt 0.875000 0.750000
vt 1.000000 0.500000
vt 1.000000 1.000000
vt 0.947368 1.000000
vt 0.947368 0.500000
vt 0.894737 1.000000
vt 0.894737 0.500000
vt 0.842105 1.000000
vt 0.842105 0.500000
vt 0.789474 1.000000
vt 0.789474 0.500000
vt 0.736842 1.000000
vt 0.736842 0.500000
vt 0.684211 1.000000
vt 0.684211 0.500000
vt 0.631579 1.000000
vt 0.631579 0.500000
vt 0.578948 1.000000
vt 0.578948 0.500000
vt 0.526316 1.000000
vt 0.526316 0.500000
vt 0.473684 1.000000
vt 0.473684 0.500000
vt 0.421053 1.000000
vt 0.421053 0.500000
vt 0.368421 1.000000
vt 0.368421 0.500000
vt 0.315790 1.000000
vt 0.315790 0.500000
vt 0.263158 1.000000
vt 0.263158 0.500000
vt 0.210526 1.000000
vt 0.210526 0.500000
vt 0.157895 1.000000
vt 0.157895 0.500000
vt 0.105263 1.000000
vt 0.105263 0.500000
vt 0.327928 0.476996
vt 0.250000 0.490000
vt 0.172072 0.476996
vt 0.102589 0.439394
vt 0.049080 0.381268
vt 0.017344 0.308917
vt 0.010820 0.230181
vt 0.030214 0.153593
vt 0.073426 0.087452
vt 0.135773 0.038926
vt 0.210497 0.013273
vt 0.289503 0.013273
vt 0.364227 0.038926
vt 0.426574 0.087452
vt 0.469786 0.153593
vt 0.489180 0.230181
vt 0.482656 0.308917
vt 0.450920 0.381268
vt 0.397411 0.439394
vt 0.052632 1.000000
vt 0.052632 0.500000
vt 0.000000 1.000000
vt 0.000000 0.500000
vt 0.750000 0.490000
vt 0.827928 0.476996
vt 0.897411 0.439394
vt 0.950920 0.381268
vt 0.982656 0.308917
vt 0.989180 0.230181
vt 0.969786 0.153593
vt 0.926574 0.087452
vt 0.864227 0.038926
vt 0.789503 0.013273
vt 0.710497 0.013273
vt 0.635773 0.038926
vt 0.573426 0.087452
vt 0.530214 0.153593
vt 0.510820 0.230181
vt 0.517344 0.308917
vt 0.549080 0.381268
vt 0.602589 0.439394
vt 0.672072 0.476996
s 0
usemtl Material
f 1/1/1 2/2/1 4/3/1 3/4/1
f 3/4/2 4/3/2 8/5/2 7/6/2
f 7/6/3 8/5/3 6/7/3 5/8/3
f 5/8/4 6/7/4 2/9/4 1/10/4
f 3/11/5 7/6/5 5/8/5 1/12/5
f 8/5/6 4/13/6 2/14/6 6/7/6
usemtl 
f 9/1/1 10/2/1 12/3/1 11/4/1
f 11/4/2 12/3/2 16/5/2 15/6/2
f 15/6/3 16/5/3 14/7/3 13/8/3
f 13/8/4 14/7/4 10/9/4 9/10/4
f 11/11/5 15/6/5 13/8/5 9/12/5
f 16/5/6 12/13/6 10/14/6 14/7/6
f 33/15/7 34/16/7 36/17/7 35/18/7
f 35/18/8 36/17/8 38/19/8 37/20/8
f 37/20/9 38/19/9 40/21/9 39/22/9
f 39/22/10 40/21/10 42/23/10 41/24/10
f 41/24/11 42/23/11 44/25/11 43/26/11
f 43/26/12 44/25/12 46/27/12 45/28/12
f 45/28/13 46/27/13 48/29/13 47/30/13
f 47/30/14 48/29/14 50/31/14 49/32/14
f 49/32/15 50/31/15 52/33/15 51/34/15
f 51/34/5 52/33/5 54/35/5 53/36/5
f 53/36/16 54/35/16 56/37/16 55/38/16
f 55/38/17 56/37/17 58/39/17 57/40/17
f 57/40/18 58/39/18 60/41/18 59/42/18
f 59/42/19 60/41/19 62/43/19 61/44/19
f 61/44/20 62/43/20 64/45/20 63/46/20
f 63/46/21 64/45/21 66/47/21 65/48/21
f 65/48/22 66/47/22 68/49/22 67/50/22
f 36/51/4 34/52/4 70/53/4 68/54/4 66/55/4 64/56/4 62/57/4 60/58/4 58/59/4 56/60/4 54/61/4 52/62/4 50/63/4 48/64/4 46/65/4 44/66/4 42/67/4 40/68/4 38/69/4
f 67/50/23 68/49/23 70/70/23 69/71/23
f 69/71/24 70/70/24 34/72/24 33/73/24
f 33/74/2 35/75/2 37/76/2 39/77/2 41/78/2 43/79/2 45/80/2 47/81/2 49/82/2 51/83/2 53/84/2 55/85/2 57/86/2 59/87/2 61/88/2 63/89/2 65/90/2 67/91/2 69/92/2
f 71/15/7 72/16/7 74/17/7 73/18/7
f 73/18/8 74/17/8 76/19/8 75/20/8
f 75/20/9 76/19/9 78/21/9 77/22/9
f 77/22/10 78/21/10 80/23/10 79/24/10
f 79/24/11 80/23/11 82/25/11 81/26/11
f 81/26/12 82/25/12 84/27/12 83/28/12
f 83/28/13 84/27/13 86/29/13 85/30/13
f 85/30/14 86/29/14 88/31/14 87/32/14
f 87/32/15 88/31/15 90/33/15 89/34/15
f 89/34/5 90/33/5 92/35/5 91/36/5
f 91/36/16 92/35/16 94/37/16 93/38/16
f 93/38/17 94/37/17 96/39/17 95/40/17
f 95/40/18 96/39/18 98/41/18 97/42/18
f 97/42/19 98/41/19 100/43/19 99/44/19
f 99/44/20 100/43/20 102/45/20 101/46/20
f 101/46/21 102/45/21 104/47/21 103/48/21
f 103/48/22 104/47/22 106/49/22 105/50/22
f 74/51/4 72/52/4 108/53/4 106/54/4 104/55/4 102/56/4 100/57/4 98/58/4 96/59/4 94/60/4 92/61/4 90/62/4 88/63/4 86/64/4 84/65/4 82/66/4 80/67/4 78/68/4 76/69/4
f 105/50/23 106/49/23 108/70/23 107/71/23
f 107/71/24 108/70/24 72/72/24 71/73/24
f 71/74/2 73/75/2 75/76/2 77/77/2 79/78/2 81/79/2 83/80/2 85/81/2 87/82/2 89/83/2 91/84/2 93/85/2 95/86/2 97/87/2 99/88/2 101/89/2 103/90/2 105/91/2 107/92/2
f 109/15/7 110/16/7 112/17/7 111/18/7
f 111/18/8 112/17/8 114/19/8 113/20/8
f 113/20/9 114/19/9 116/21/9 115/22/9
f 115/22/10 116/21/10 118/23/10 117/24/10
f 117/24/11 118/23/11 120/25/11 119/26/11
f 119/26/12 120/25/12 122/27/12 121/28/12
f 121/28/13 122/27/13 124/29/13 123/30/13
f 123/30/14 124/29/14 126/31/14 125/32/14
f 125/32/15 126/31/15 128/33/15 127/34/15
f 127/34/5 128/33/5 130/35/5 129/36/5
f 129/36/16 130/35/16 132/37/16 131/38/16
f 131/38/17 132/37/17 134/39/17 133/40/17
f 133/40/18 134/39/18 136/41/18 135/42/18
f 135/42/19 136/41/19 138/43/19 137/44/19
f 137/44/20 138/43/20 140/45/20 139/46/20
f 139/46/21 140/45/21 142/47/21 141/48/21
f 141/48/22 142/47/22 144/49/22 143/50/22
f 112/51/4 110/52/4 146/53/4 144/54/4 142/55/4 140/56/4 138/57/4 136/58/4 134/59/4 132/60/4 130/61/4 128/62/4 126/63/4 124/64/4 122/65/4 120/66/4 118/67/4 116/68/4 114/69/4
f 143/50/23 144/49/23 146/70/23 145/71/23
f 145/71/24 146/70/24 110/72/24 109/73/24
f 109/74/2 111/75/2 113/76/2 115/77/2 117/78/2 119/79/2 121/80/2 123/81/2 125/82/2 127/83/2 129/84/2 131/85/2 133/86/2 135/87/2 137/88/2 139/89/2 141/90/2 143/91/2 145/92/2
f 147/15/7 148/16/7 150/17/7 149/18/7
f 149/18/25 150/17/25 152/19/25 151/20/25
f 151/20/9 152/19/9 154/21/9 153/22/9
f 153/22/10 154/21/10 156/23/10 155/24/10
f 155/24/11 156/23/11 158/25/11 157/26/11
f 157/26/12 158/25/12 160/27/12 159/28/12
f 159/28/26 160/27/26 162/29/26 161/30/26
f 161/30/14 162/29/14 164/31/14 163/32/14
f 163/32/15 164/31/15 166/33/15 165/34/15
f 165/34/5 166/33/5 168/35/5 167/36/5
f 167/36/16 168/35/16 170/37/16 169/38/16
f 169/38/17 170/37/17 172/39/17 171/40/17
f 171/40/27 172/39/27 174/41/27 173/42/27
f 173/42/19 174/41/19 176/43/19 175/44/19
f 175/44/20 176/43/20 178/45/20 177/46/20
f 177/46/21 178/45/21 180/47/21 179/48/21
f 179/48/22 180/47/22 182/49/22 181/50/22
f 150/51/4 148/52/4 184/53/4 182/54/4 180/55/4 178/56/4 176/57/4 174/58/4 172/59/4 170/60/4 168/61/4 166/62/4 164/63/4 162/64/4 160/65/4 158/66/4 156/67/4 154/68/4 152/69/4
f 181/50/28 182/49/28 184/70/28 183/71/28
f 183/71/24 184/70/24 148/72/24 147/73/24
f 147/74/2 149/75/2 151/76/2 153/77/2 155/78/2 157/79/2 159/80/2 161/81/2 163/82/2 165/83/2 167/84/2 169/85/2 171/86/2 173/87/2 175/88/2 177/89/2 179/90/2 181/91/2 183/92/2
usemtl Material.003
f 17/1/1 18/2/1 20/3/1 19/4/1
f 19/4/2 20/3/2 24/5/2 23/6/2
f 23/6/3 24/5/3 22/7/3 21/8/3
f 21/8/4 22/7/4 18/9/4 17/10/4
f 19/11/5 23/6/5 21/8/5 17/12/5
f 24/5/6 20/13/6 18/14/6 22/7/6
usemtl Material.001
f 25/1/1 26/2/1 28/3/1 27/4/1
f 27/4/2 28/3/2 32/5/2 31/6/2
f 31/6/3 32/5/3 30/7/3 29/8/3
f 29/8/4 30/7/4 26/9/4 25/10/4
f 27/11/5 31/6/5 29/8/5 25/12/5
f 32/5/6 28/13/6 26/14/6 30/7/6
