# Blender 4.4.0
# www.blender.org
mtllib LAMP.mtl
o Cylinder
v 0.000000 -1.089947 -0.200000
v 0.000000 3.528178 -0.200000
v 0.117557 -1.089947 -0.161803
v 0.117557 3.528178 -0.161803
v 0.190211 -1.089947 -0.061803
v 0.190211 3.528178 -0.061803
v 0.190211 -1.089947 0.061803
v 0.190211 3.528178 0.061803
v 0.117557 -1.089947 0.161803
v 0.117557 3.528178 0.161803
v 0.000000 -1.089947 0.200000
v 0.000000 3.528178 0.200000
v -0.117557 -1.089947 0.161803
v -0.117557 3.528178 0.161803
v -0.190211 -1.089947 0.061803
v -0.190211 3.528178 0.061803
v -0.190211 -1.089947 -0.061803
v -0.190211 3.528178 -0.061803
v -0.117557 -1.089947 -0.161803
v -0.117557 3.528178 -0.161803
v -0.807564 3.900071 0.157307
v -0.894815 3.695920 0.157307
v -0.807564 3.900071 -0.157307
v -0.894815 3.695920 -0.157307
v 0.030852 3.541745 0.157307
v -0.056399 3.337593 0.157307
v 0.030852 3.541745 -0.157307
v -0.056399 3.337593 -0.157307
v -0.011167 3.524585 -0.223981
v 0.060267 3.524585 -0.212061
v 0.123960 3.524585 -0.177592
v 0.173009 3.524585 -0.124309
v 0.202101 3.524585 -0.057988
v 0.208081 3.524585 0.014187
v 0.190303 3.524585 0.084392
v 0.150692 3.524585 0.145021
v 0.093541 3.524585 0.189503
v 0.025044 3.524585 0.213019
v -0.047378 3.524585 0.213019
v -0.115876 3.524585 0.189503
v -0.173026 3.524585 0.145021
v -0.212637 3.524585 0.084392
v -0.230416 3.524585 0.014187
v -0.224435 3.524585 -0.057988
v -0.195344 3.524585 -0.124309
v -0.146294 3.524585 -0.177592
v -0.082601 3.524585 -0.212061
v -0.011167 3.744585 -0.003981
v -0.855335 3.674144 0.110683
v -0.822909 3.750015 0.110683
v -0.855335 3.674144 -0.103864
v -0.822909 3.750015 -0.103864
v -0.231699 3.407612 0.110683
v -0.199273 3.483482 0.110683
v -0.231699 3.407612 -0.103864
v -0.199273 3.483482 -0.103864
v -0.156658 3.621883 -0.141459
v -0.152065 3.632630 -0.141459
v -0.156658 3.621883 0.121551
v -0.152065 3.632630 0.121551
v -0.777608 3.887269 -0.141459
v -0.773015 3.898015 -0.141459
v -0.777608 3.887269 0.121551
v -0.773015 3.898015 0.121551
v -0.549012 3.541954 -0.092096
v -0.543440 3.554990 -0.092096
v -0.549012 3.541954 0.096567
v -0.543440 3.554990 0.096567
v -0.843832 3.667955 -0.092096
v -0.838261 3.680992 -0.092096
v -0.843832 3.667955 0.096567
v -0.838261 3.680992 0.096567
v -0.244882 3.411908 -0.093939
v -0.236885 3.430620 -0.093939
v -0.244882 3.411908 0.098551
v -0.236885 3.430620 0.098551
v -0.534342 3.535618 -0.093939
v -0.526345 3.554331 -0.093939
v -0.534342 3.535618 0.098551
v -0.526345 3.554331 0.098551
vn 0.3090 -0.0000 -0.9511
vn 0.8090 -0.0000 -0.5878
vn 1.0000 -0.0000 -0.0000
vn 0.8090 -0.0000 0.5878
vn 0.3090 -0.0000 0.9511
vn -0.3090 -0.0000 0.9511
vn -0.8090 -0.0000 0.5878
vn -1.0000 -0.0000 -0.0000
vn -0.0000 1.0000 -0.0000
vn -0.8090 -0.0000 -0.5878
vn -0.3090 -0.0000 -0.9511
vn -0.0000 -1.0000 -0.0000
vn 0.9195 -0.3930 -0.0000
vn -0.0000 -0.0000 1.0000
vn -0.9195 0.3930 -0.0000
vn -0.0000 -0.0000 -1.0000
vn -0.3930 -0.9195 -0.0000
vn 0.3930 0.9195 -0.0000
vn 0.1172 0.7022 -0.7022
vn 0.3388 0.7022 -0.6261
vn 0.5238 0.7022 -0.4822
vn 0.6520 0.7022 -0.2860
vn 0.7095 0.7022 -0.0588
vn 0.6902 0.7022 0.1748
vn 0.5960 0.7022 0.3894
vn 0.4373 0.7022 0.5618
vn 0.2312 0.7022 0.6734
vn -0.0000 0.7022 0.7119
vn -0.2312 0.7022 0.6734
vn -0.4373 0.7022 0.5618
vn -0.5960 0.7022 0.3894
vn -0.6902 0.7022 0.1748
vn -0.7095 0.7022 -0.0588
vn -0.6520 0.7022 -0.2860
vn -0.5238 0.7022 -0.4822
vn -0.3388 0.7022 -0.6261
vn -0.1172 0.7022 -0.7022
vt 1.000000 0.500000
vt 1.000000 1.000000
vt 0.900000 1.000000
vt 0.900000 0.500000
vt 0.800000 1.000000
vt 0.800000 0.500000
vt 0.700000 1.000000
vt 0.700000 0.500000
vt 0.600000 1.000000
vt 0.600000 0.500000
vt 0.500000 1.000000
vt 0.500000 0.500000
vt 0.400000 1.000000
vt 0.400000 0.500000
vt 0.300000 1.000000
vt 0.300000 0.500000
vt 0.200000 1.000000
vt 0.200000 0.500000
vt 0.391068 0.444164
vt 0.250000 0.490000
vt 0.108932 0.444164
vt 0.021746 0.324164
vt 0.021746 0.175836
vt 0.108932 0.055836
vt 0.250000 0.010000
vt 0.391068 0.055836
vt 0.478254 0.175836
vt 0.478254 0.324164
vt 0.100000 1.000000
vt 0.100000 0.500000
vt -0.000000 1.000000
vt -0.000000 0.500000
vt 0.750000 0.490000
vt 0.891068 0.444164
vt 0.978254 0.324164
vt 0.978254 0.175836
vt 0.891068 0.055836
vt 0.750000 0.010000
vt 0.608932 0.055836
vt 0.521746 0.175836
vt 0.521746 0.324164
vt 0.608932 0.444164
vt 0.375000 0.000000
vt 0.625000 0.000000
vt 0.625000 0.250000
vt 0.375000 0.250000
vt 0.625000 0.500000
vt 0.375000 0.500000
vt 0.625000 0.750000
vt 0.375000 0.750000
vt 0.625000 1.000000
vt 0.375000 1.000000
vt 0.125000 0.500000
vt 0.125000 0.750000
vt 0.875000 0.500000
vt 0.875000 0.750000
vt 0.250000 0.250000
vt 0.327928 0.476996
vt 0.397411 0.439394
vt 0.450920 0.381268
vt 0.482656 0.308917
vt 0.489180 0.230181
vt 0.469786 0.153593
vt 0.426574 0.087452
vt 0.364227 0.038926
vt 0.289503 0.013273
vt 0.210497 0.013273
vt 0.135773 0.038926
vt 0.073426 0.087452
vt 0.030214 0.153593
vt 0.010820 0.230181
vt 0.017344 0.308917
vt 0.049080 0.381268
vt 0.102589 0.439394
vt 0.827928 0.476996
vt 0.897411 0.439394
vt 0.950920 0.381268
vt 0.982656 0.308917
vt 0.989180 0.230181
vt 0.969786 0.153593
vt 0.926574 0.087452
vt 0.864227 0.038926
vt 0.789503 0.013273
vt 0.710497 0.013273
vt 0.635773 0.038926
vt 0.573426 0.087452
vt 0.530214 0.153593
vt 0.510820 0.230181
vt 0.517344 0.308917
vt 0.549080 0.381268
vt 0.602589 0.439394
vt 0.672072 0.476996
vt 0.172072 0.476996
s 1
usemtl Material.003
f 1/1/1 2/2/1 4/3/1 3/4/1
f 3/4/2 4/3/2 6/5/2 5/6/2
f 5/6/3 6/5/3 8/7/3 7/8/3
f 7/8/4 8/7/4 10/9/4 9/10/4
f 9/10/5 10/9/5 12/11/5 11/12/5
f 11/12/6 12/11/6 14/13/6 13/14/6
f 13/14/7 14/13/7 16/15/7 15/16/7
f 15/16/8 16/15/8 18/17/8 17/18/8
f 4/19/9 2/20/9 20/21/9 18/22/9 16/23/9 14/24/9 12/25/9 10/26/9 8/27/9 6/28/9
f 17/18/10 18/17/10 20/29/10 19/30/10
f 19/30/11 20/29/11 2/31/11 1/32/11
f 1/33/12 3/34/12 5/35/12 7/36/12 9/37/12 11/38/12 13/39/12 15/40/12 17/41/12 19/42/12
usemtl Material.005
f 21/43/13 22/44/13 24/45/13 23/46/13
f 23/46/14 24/45/14 28/47/14 27/48/14
f 27/48/15 28/47/15 26/49/15 25/50/15
f 25/50/16 26/49/16 22/51/16 21/52/16
f 23/53/17 27/48/17 25/50/17 21/54/17
f 28/47/18 24/55/18 22/56/18 26/49/18
usemtl Material.004
f 29/20/19 48/57/19 30/58/19
f 30/58/20 48/57/20 31/59/20
f 31/59/21 48/57/21 32/60/21
f 32/60/22 48/57/22 33/61/22
f 33/61/23 48/57/23 34/62/23
f 34/62/24 48/57/24 35/63/24
f 35/63/25 48/57/25 36/64/25
f 36/64/26 48/57/26 37/65/26
f 37/65/27 48/57/27 38/66/27
f 38/66/28 48/57/28 39/67/28
f 39/67/29 48/57/29 40/68/29
f 40/68/30 48/57/30 41/69/30
f 41/69/31 48/57/31 42/70/31
f 42/70/32 48/57/32 43/71/32
f 43/71/33 48/57/33 44/72/33
f 44/72/34 48/57/34 45/73/34
f 45/73/35 48/57/35 46/74/35
f 29/33/12 30/75/12 31/76/12 32/77/12 33/78/12 34/79/12 35/80/12 36/81/12 37/82/12 38/83/12 39/84/12 40/85/12 41/86/12 42/87/12 43/88/12 44/89/12 45/90/12 46/91/12 47/92/12
f 46/74/36 48/57/36 47/93/36
f 47/93/37 48/57/37 29/20/37
usemtl Material.009
f 49/43/15 50/44/15 52/45/15 51/46/15
f 51/46/16 52/45/16 56/47/16 55/48/16
f 55/48/13 56/47/13 54/49/13 53/50/13
f 53/50/14 54/49/14 50/51/14 49/52/14
f 51/53/17 55/48/17 53/50/17 49/54/17
f 56/47/18 52/55/18 50/56/18 54/49/18
usemtl Material.006
f 57/43/13 58/44/13 60/45/13 59/46/13
f 59/46/14 60/45/14 64/47/14 63/48/14
f 63/48/15 64/47/15 62/49/15 61/50/15
f 61/50/16 62/49/16 58/51/16 57/52/16
f 59/53/17 63/48/17 61/50/17 57/54/17
f 64/47/18 60/55/18 58/56/18 62/49/18
usemtl Material.007
f 65/43/13 66/44/13 68/45/13 67/46/13
f 67/46/14 68/45/14 72/47/14 71/48/14
f 71/48/15 72/47/15 70/49/15 69/50/15
f 69/50/16 70/49/16 66/51/16 65/52/16
f 67/53/17 71/48/17 69/50/17 65/54/17
f 72/47/18 68/55/18 66/56/18 70/49/18
usemtl Material.008
f 73/43/13 74/44/13 76/45/13 75/46/13
f 75/46/14 76/45/14 80/47/14 79/48/14
f 79/48/15 80/47/15 78/49/15 77/50/15
f 77/50/16 78/49/16 74/51/16 73/52/16
f 75/53/17 79/48/17 77/50/17 73/54/17
f 80/47/18 76/55/18 74/56/18 78/49/18
