# Blender 4.4.0
# www.blender.org
mtllib roadbarriers1 - 2.mtl
o Cube.005
v -0.015864 0.508345 0.962295
v -0.015864 0.486117 0.962295
v -0.015864 0.508345 0.958879
v -0.015864 0.486117 0.958879
v 0.014603 0.508345 0.962295
v 0.014603 0.486117 0.962295
v 0.014603 0.508345 0.958879
v 0.014603 0.486117 0.958879
v -1.000000 -0.008163 1.000000
v -1.000000 0.096912 1.000000
v -1.000000 -0.008163 -1.000000
v -1.000000 0.096912 -1.000000
v 1.000000 -0.008163 1.000000
v 1.000000 0.096912 1.000000
v 1.000000 -0.008163 -1.000000
v 1.000000 0.096912 -1.000000
v -1.000000 0.092775 1.000000
v -1.000000 0.197850 1.000000
v -1.000000 0.092775 -1.000000
v -1.000000 0.197850 -1.000000
v 1.000000 0.092775 1.000000
v 1.000000 0.197850 1.000000
v 1.000000 0.092775 -1.000000
v 1.000000 0.197850 -1.000000
v 0.013299 0.140376 0.961379
v 0.013299 0.496631 0.961379
v 0.013299 0.140376 0.996071
v 0.013299 0.496631 0.996071
v -0.012895 0.140376 0.961379
v -0.012895 0.496631 0.961379
v -0.012895 0.140376 0.996071
v -0.012895 0.496631 0.996071
v -0.018332 0.510146 0.959693
v -0.018332 0.484317 0.959693
v -0.018332 0.510146 0.999508
v -0.018332 0.484317 0.999508
v 0.017071 0.510146 0.959693
v 0.017071 0.484317 0.959693
v 0.017071 0.510146 0.999508
v 0.017071 0.484317 0.999508
v 0.013656 0.445285 0.957075
v 0.013656 0.456971 0.957075
v 0.013656 0.445285 0.977075
v 0.013656 0.456971 0.977075
v -0.013858 0.445285 0.957075
v -0.013858 0.456971 0.957075
v -0.013858 0.445285 0.977075
v -0.013858 0.456971 0.977075
v -0.000000 0.174679 0.993448
v 0.000000 0.324176 -1.000957
v 0.002393 0.174968 0.993470
v 0.002393 0.324466 -1.000935
v 0.004647 0.175821 0.993534
v 0.004647 0.325318 -1.000871
v 0.006631 0.177186 0.993636
v 0.006631 0.326684 -1.000769
v 0.008230 0.178986 0.993771
v 0.008230 0.328483 -1.000634
v 0.009350 0.181114 0.993931
v 0.009350 0.330612 -1.000474
v 0.009927 0.183449 0.994106
v 0.009927 0.332946 -1.000299
v 0.009927 0.185853 0.994286
v 0.009927 0.335350 -1.000119
v 0.009350 0.188187 0.994461
v 0.009350 0.337684 -0.999944
v 0.008230 0.190315 0.994620
v 0.008230 0.339813 -0.999784
v 0.006631 0.192115 0.994755
v 0.006631 0.341612 -0.999650
v 0.004647 0.193480 0.994858
v 0.004647 0.342978 -0.999547
v 0.002393 0.194333 0.994922
v 0.002393 0.343830 -0.999483
v 0.000000 0.194623 0.994943
v 0.000000 0.344120 -0.999462
v -0.002393 0.194333 0.994922
v -0.002393 0.343830 -0.999483
v -0.004647 0.193480 0.994858
v -0.004647 0.342978 -0.999547
v -0.006631 0.192115 0.994755
v -0.006631 0.341612 -0.999650
v -0.008230 0.190315 0.994620
v -0.008230 0.339813 -0.999784
v -0.009350 0.188187 0.994461
v -0.009350 0.337684 -0.999944
v -0.009927 0.185853 0.994286
v -0.009927 0.335350 -1.000119
v -0.009927 0.183449 0.994106
v -0.009927 0.332946 -1.000299
v -0.009350 0.181114 0.993931
v -0.009350 0.330612 -1.000474
v -0.008230 0.178986 0.993771
v -0.008230 0.328483 -1.000634
v -0.006631 0.177186 0.993636
v -0.006631 0.326684 -1.000769
v -0.004647 0.175821 0.993534
v -0.004647 0.325318 -1.000871
v -0.002393 0.174968 0.993470
v -0.002393 0.324466 -1.000935
v -0.000000 0.271356 0.993448
v 0.000000 0.420854 -1.000957
v 0.002393 0.271646 0.993470
v 0.002393 0.421143 -1.000935
v 0.004647 0.272499 0.993534
v 0.004647 0.421996 -1.000871
v 0.006631 0.273864 0.993636
v 0.006631 0.423362 -1.000769
v 0.008230 0.275664 0.993771
v 0.008230 0.425161 -1.000634
v 0.009350 0.277792 0.993931
v 0.009350 0.427290 -1.000474
v 0.009927 0.280126 0.994106
v 0.009927 0.429624 -1.000299
v 0.009927 0.282530 0.994286
v 0.009927 0.432028 -1.000119
v 0.009350 0.284865 0.994461
v 0.009350 0.434362 -0.999944
v 0.008230 0.286993 0.994620
v 0.008230 0.436491 -0.999784
v 0.006631 0.288793 0.994755
v 0.006631 0.438290 -0.999650
v 0.004647 0.290158 0.994858
v 0.004647 0.439656 -0.999547
v 0.002393 0.291011 0.994922
v 0.002393 0.440508 -0.999483
v 0.000000 0.291300 0.994943
v 0.000000 0.440798 -0.999462
v -0.002393 0.291011 0.994922
v -0.002393 0.440508 -0.999483
v -0.004647 0.290158 0.994858
v -0.004647 0.439656 -0.999547
v -0.006631 0.288793 0.994755
v -0.006631 0.438290 -0.999650
v -0.008230 0.286993 0.994620
v -0.008230 0.436491 -0.999784
v -0.009350 0.284865 0.994461
v -0.009350 0.434362 -0.999944
v -0.009927 0.282530 0.994286
v -0.009927 0.432028 -1.000119
v -0.009927 0.280126 0.994106
v -0.009927 0.429624 -1.000299
v -0.009350 0.277792 0.993931
v -0.009350 0.427290 -1.000474
v -0.008230 0.275664 0.993771
v -0.008230 0.425161 -1.000634
v -0.006631 0.273864 0.993636
v -0.006631 0.423362 -1.000769
v -0.004647 0.272499 0.993534
v -0.004647 0.421996 -1.000871
v -0.002393 0.271646 0.993470
v -0.002393 0.421143 -1.000935
v -0.000000 0.366094 0.993448
v 0.000000 0.515592 -1.000957
v 0.002393 0.366384 0.993470
v 0.002393 0.515882 -1.000935
v 0.004647 0.367237 0.993534
v 0.004647 0.516734 -1.000871
v 0.006631 0.368602 0.993636
v 0.006631 0.518100 -1.000769
v 0.008230 0.370402 0.993771
v 0.008230 0.519899 -1.000634
v 0.009350 0.372530 0.993931
v 0.009350 0.522028 -1.000474
v 0.009927 0.374864 0.994106
v 0.009927 0.524362 -1.000299
v 0.009927 0.377268 0.994286
v 0.009927 0.526766 -1.000119
v 0.009350 0.379603 0.994461
v 0.009350 0.529100 -0.999944
v 0.008230 0.381731 0.994620
v 0.008230 0.531229 -0.999784
v 0.006631 0.383531 0.994755
v 0.006631 0.533028 -0.999650
v 0.004647 0.384896 0.994858
v 0.004647 0.534394 -0.999547
v 0.002393 0.385749 0.994922
v 0.002393 0.535246 -0.999483
v 0.000000 0.386039 0.994943
v 0.000000 0.535536 -0.999462
v -0.002393 0.385749 0.994922
v -0.002393 0.535246 -0.999483
v -0.004647 0.384896 0.994858
v -0.004647 0.534394 -0.999547
v -0.006631 0.383531 0.994755
v -0.006631 0.533028 -0.999650
v -0.008230 0.381731 0.994620
v -0.008230 0.531229 -0.999784
v -0.009350 0.379603 0.994461
v -0.009350 0.529100 -0.999944
v -0.009927 0.377268 0.994286
v -0.009927 0.526766 -1.000119
v -0.009927 0.374864 0.994106
v -0.009927 0.524362 -1.000299
v -0.009350 0.372530 0.993931
v -0.009350 0.522028 -1.000474
v -0.008230 0.370402 0.993771
v -0.008230 0.519899 -1.000634
v -0.006631 0.368602 0.993636
v -0.006631 0.518100 -1.000769
v -0.004647 0.367237 0.993534
v -0.004647 0.516734 -1.000871
v -0.002393 0.366384 0.993470
v -0.002393 0.515882 -1.000935
v -0.000000 0.453525 0.993448
v 0.000000 0.603022 -1.000957
v 0.002393 0.453815 0.993470
v 0.002393 0.603312 -1.000935
v 0.004647 0.454667 0.993534
v 0.004647 0.604164 -1.000871
v 0.006631 0.456033 0.993636
v 0.006631 0.605530 -1.000769
v 0.008230 0.457832 0.993771
v 0.008230 0.607329 -1.000634
v 0.009350 0.459961 0.993931
v 0.009350 0.609458 -1.000474
v 0.009927 0.462295 0.994106
v 0.009927 0.611792 -1.000299
v 0.009927 0.464699 0.994286
v 0.009927 0.614196 -1.000119
v 0.009350 0.467033 0.994461
v 0.009350 0.616530 -0.999944
v 0.008230 0.469162 0.994620
v 0.008230 0.618659 -0.999784
v 0.006631 0.470961 0.994755
v 0.006631 0.620458 -0.999650
v 0.004647 0.472327 0.994858
v 0.004647 0.621824 -0.999547
v 0.002393 0.473179 0.994922
v 0.002393 0.622676 -0.999483
v 0.000000 0.473469 0.994943
v 0.000000 0.622966 -0.999462
v -0.002393 0.473179 0.994922
v -0.002393 0.622676 -0.999483
v -0.004647 0.472327 0.994858
v -0.004647 0.621824 -0.999547
v -0.006631 0.470961 0.994755
v -0.006631 0.620458 -0.999650
v -0.008230 0.469162 0.994620
v -0.008230 0.618659 -0.999784
v -0.009350 0.467033 0.994461
v -0.009350 0.616530 -0.999944
v -0.009927 0.464699 0.994286
v -0.009927 0.614196 -1.000119
v -0.009927 0.462295 0.994106
v -0.009927 0.611792 -1.000299
v -0.009350 0.459961 0.993931
v -0.009350 0.609458 -1.000474
v -0.008230 0.457832 0.993771
v -0.008230 0.607329 -1.000634
v -0.006631 0.456033 0.993636
v -0.006631 0.605530 -1.000769
v -0.004647 0.454667 0.993534
v -0.004647 0.604164 -1.000871
v -0.002393 0.453815 0.993470
v -0.002393 0.603312 -1.000935
vn -1.0000 -0.0000 -0.0000
vn -0.0000 -0.0000 -1.0000
vn 1.0000 -0.0000 -0.0000
vn -0.0000 -0.0000 1.0000
vn -0.0000 1.0000 -0.0000
vn -0.0000 -1.0000 -0.0000
vn 0.1205 -0.9899 -0.0742
vn 0.3546 -0.9324 -0.0699
vn 0.5681 -0.8207 -0.0615
vn 0.7485 -0.6613 -0.0496
vn 0.8855 -0.4634 -0.0347
vn 0.9709 -0.2386 -0.0179
vn 0.9709 0.2386 0.0179
vn 0.8855 0.4634 0.0347
vn 0.7485 0.6613 0.0496
vn 0.5681 0.8207 0.0615
vn 0.3546 0.9324 0.0699
vn 0.1205 0.9899 0.0742
vn -0.1205 0.9899 0.0742
vn -0.3546 0.9324 0.0699
vn -0.5681 0.8207 0.0615
vn -0.7485 0.6613 0.0496
vn -0.8855 0.4634 0.0347
vn -0.9709 0.2386 0.0179
vn -0.9709 -0.2386 -0.0179
vn -0.8855 -0.4634 -0.0347
vn -0.7485 -0.6613 -0.0496
vn -0.5681 -0.8207 -0.0615
vn -0.0000 0.0747 -0.9972
vn -0.3546 -0.9324 -0.0699
vn -0.1205 -0.9899 -0.0742
vn -0.0000 -0.0748 0.9972
vn 0.1206 -0.9899 -0.0742
vn -0.1206 -0.9899 -0.0742
vn 0.5680 -0.8207 -0.0615
vn -0.5680 -0.8207 -0.0615
vt 0.375000 0.000000
vt 0.625000 0.000000
vt 0.625000 0.250000
vt 0.375000 0.250000
vt 0.625000 0.500000
vt 0.375000 0.500000
vt 0.625000 0.750000
vt 0.375000 0.750000
vt 0.625000 1.000000
vt 0.375000 1.000000
vt 0.125000 0.500000
vt 0.125000 0.750000
vt 0.875000 0.500000
vt 0.875000 0.750000
vt 1.000000 0.500000
vt 0.961538 0.500000
vt 0.961538 1.000000
vt 1.000000 1.000000
vt 0.923077 0.500000
vt 0.923077 1.000000
vt 0.884615 0.500000
vt 0.884615 1.000000
vt 0.846154 0.500000
vt 0.846154 1.000000
vt 0.807692 0.500000
vt 0.807692 1.000000
vt 0.769231 0.500000
vt 0.769231 1.000000
vt 0.730769 0.500000
vt 0.730769 1.000000
vt 0.692307 0.500000
vt 0.692307 1.000000
vt 0.653846 0.500000
vt 0.653846 1.000000
vt 0.615384 0.500000
vt 0.615384 1.000000
vt 0.576923 0.500000
vt 0.576923 1.000000
vt 0.538461 0.500000
vt 0.538461 1.000000
vt 0.500000 0.500000
vt 0.500000 1.000000
vt 0.461538 0.500000
vt 0.461538 1.000000
vt 0.423077 0.500000
vt 0.423077 1.000000
vt 0.384615 0.500000
vt 0.384615 1.000000
vt 0.346154 0.500000
vt 0.346154 1.000000
vt 0.307692 0.500000
vt 0.307692 1.000000
vt 0.269230 0.500000
vt 0.269230 1.000000
vt 0.230769 0.500000
vt 0.230769 1.000000
vt 0.192307 0.500000
vt 0.192307 1.000000
vt 0.153846 0.500000
vt 0.153846 1.000000
vt 0.115384 0.500000
vt 0.115384 1.000000
vt 0.076923 0.500000
vt 0.076923 1.000000
vt 0.307436 0.483026
vt 0.361534 0.462509
vt 0.409149 0.429643
vt 0.447516 0.386336
vt 0.474404 0.335105
vt 0.488250 0.278929
vt 0.488250 0.221071
vt 0.474404 0.164895
vt 0.447516 0.113664
vt 0.409149 0.070357
vt 0.361534 0.037491
vt 0.307436 0.016974
vt 0.250000 0.010000
vt 0.192564 0.016974
vt 0.138466 0.037491
vt 0.090851 0.070357
vt 0.052484 0.113664
vt 0.025596 0.164895
vt 0.011750 0.221071
vt 0.011750 0.278929
vt 0.025596 0.335105
vt 0.052484 0.386336
vt 0.090851 0.429643
vt 0.138466 0.462509
vt 0.192564 0.483026
vt 0.250000 0.490000
vt 0.038461 0.500000
vt 0.038461 1.000000
vt -0.000000 0.500000
vt -0.000000 1.000000
vt 0.750000 0.490000
vt 0.692564 0.483026
vt 0.638466 0.462509
vt 0.590851 0.429643
vt 0.552484 0.386336
vt 0.525596 0.335105
vt 0.511750 0.278929
vt 0.511750 0.221071
vt 0.525596 0.164895
vt 0.552484 0.113664
vt 0.590851 0.070357
vt 0.638466 0.037491
vt 0.692564 0.016974
vt 0.750000 0.010000
vt 0.807436 0.016974
vt 0.861534 0.037491
vt 0.909149 0.070357
vt 0.947516 0.113664
vt 0.974404 0.164895
vt 0.988250 0.221071
vt 0.988250 0.278929
vt 0.974404 0.335105
vt 0.947516 0.386336
vt 0.909149 0.429643
vt 0.861534 0.462509
vt 0.807436 0.483026
s 0
usemtl Material.012
f 1/1/1 3/4/1 4/3/1 2/2/1
f 3/4/2 7/6/2 8/5/2 4/3/2
f 7/6/3 5/8/3 6/7/3 8/5/3
f 5/8/4 1/10/4 2/9/4 6/7/4
f 3/11/5 1/12/5 5/8/5 7/6/5
f 8/5/6 6/7/6 2/14/6 4/13/6
usemtl 
f 9/1/1 10/2/1 12/3/1 11/4/1
f 11/4/2 12/3/2 16/5/2 15/6/2
f 15/6/3 16/5/3 14/7/3 13/8/3
f 13/8/4 14/7/4 10/9/4 9/10/4
f 11/11/6 15/6/6 13/8/6 9/12/6
f 16/5/5 12/13/5 10/14/5 14/7/5
usemtl Material
f 17/1/1 18/2/1 20/3/1 19/4/1
f 19/4/2 20/3/2 24/5/2 23/6/2
f 23/6/3 24/5/3 22/7/3 21/8/3
f 21/8/4 22/7/4 18/9/4 17/10/4
f 19/11/6 23/6/6 21/8/6 17/12/6
f 24/5/5 20/13/5 18/14/5 22/7/5
usemtl Material.003
f 25/1/3 26/2/3 28/3/3 27/4/3
f 27/4/4 28/3/4 32/5/4 31/6/4
f 31/6/1 32/5/1 30/7/1 29/8/1
f 29/8/2 30/7/2 26/9/2 25/10/2
f 27/11/6 31/6/6 29/8/6 25/12/6
f 32/5/5 28/13/5 26/14/5 30/7/5
usemtl Material.001
f 33/1/1 34/2/1 36/3/1 35/4/1
f 35/4/4 36/3/4 40/5/4 39/6/4
f 39/6/3 40/5/3 38/7/3 37/8/3
f 37/8/2 38/7/2 34/9/2 33/10/2
f 35/11/5 39/6/5 37/8/5 33/12/5
f 40/5/6 36/13/6 34/14/6 38/7/6
usemtl Material.006
f 41/1/3 42/2/3 44/3/3 43/4/3
f 43/4/4 44/3/4 48/5/4 47/6/4
f 47/6/1 48/5/1 46/7/1 45/8/1
f 45/8/2 46/7/2 42/9/2 41/10/2
f 43/11/6 47/6/6 45/8/6 41/12/6
f 48/5/5 44/13/5 42/14/5 46/7/5
usemtl Material.002
f 49/15/7 50/18/7 52/17/7 51/16/7
f 51/16/8 52/17/8 54/20/8 53/19/8
f 53/19/9 54/20/9 56/22/9 55/21/9
f 55/21/10 56/22/10 58/24/10 57/23/10
f 57/23/11 58/24/11 60/26/11 59/25/11
f 59/25/12 60/26/12 62/28/12 61/27/12
f 61/27/3 62/28/3 64/30/3 63/29/3
f 63/29/13 64/30/13 66/32/13 65/31/13
f 65/31/14 66/32/14 68/34/14 67/33/14
f 67/33/15 68/34/15 70/36/15 69/35/15
f 69/35/16 70/36/16 72/38/16 71/37/16
f 71/37/17 72/38/17 74/40/17 73/39/17
f 73/39/18 74/40/18 76/42/18 75/41/18
f 75/41/19 76/42/19 78/44/19 77/43/19
f 77/43/20 78/44/20 80/46/20 79/45/20
f 79/45/21 80/46/21 82/48/21 81/47/21
f 81/47/22 82/48/22 84/50/22 83/49/22
f 83/49/23 84/50/23 86/52/23 85/51/23
f 85/51/24 86/52/24 88/54/24 87/53/24
f 87/53/1 88/54/1 90/56/1 89/55/1
f 89/55/25 90/56/25 92/58/25 91/57/25
f 91/57/26 92/58/26 94/60/26 93/59/26
f 93/59/27 94/60/27 96/62/27 95/61/27
f 95/61/28 96/62/28 98/64/28 97/63/28
f 52/65/29 50/90/29 100/89/29 98/88/29 96/87/29 94/86/29 92/85/29 90/84/29 88/83/29 86/82/29 84/81/29 82/80/29 80/79/29 78/78/29 76/77/29 74/76/29 72/75/29 70/74/29 68/73/29 66/72/29 64/71/29 62/70/29 60/69/29 58/68/29 56/67/29 54/66/29
f 97/63/30 98/64/30 100/92/30 99/91/30
f 99/91/31 100/92/31 50/94/31 49/93/31
f 49/95/32 51/120/32 53/119/32 55/118/32 57/117/32 59/116/32 61/115/32 63/114/32 65/113/32 67/112/32 69/111/32 71/110/32 73/109/32 75/108/32 77/107/32 79/106/32 81/105/32 83/104/32 85/103/32 87/102/32 89/101/32 91/100/32 93/99/32 95/98/32 97/97/32 99/96/32
usemtl Material.009
f 101/15/7 102/18/7 104/17/7 103/16/7
f 103/16/8 104/17/8 106/20/8 105/19/8
f 105/19/9 106/20/9 108/22/9 107/21/9
f 107/21/10 108/22/10 110/24/10 109/23/10
f 109/23/11 110/24/11 112/26/11 111/25/11
f 111/25/12 112/26/12 114/28/12 113/27/12
f 113/27/3 114/28/3 116/30/3 115/29/3
f 115/29/13 116/30/13 118/32/13 117/31/13
f 117/31/14 118/32/14 120/34/14 119/33/14
f 119/33/15 120/34/15 122/36/15 121/35/15
f 121/35/16 122/36/16 124/38/16 123/37/16
f 123/37/17 124/38/17 126/40/17 125/39/17
f 125/39/18 126/40/18 128/42/18 127/41/18
f 127/41/19 128/42/19 130/44/19 129/43/19
f 129/43/20 130/44/20 132/46/20 131/45/20
f 131/45/21 132/46/21 134/48/21 133/47/21
f 133/47/22 134/48/22 136/50/22 135/49/22
f 135/49/23 136/50/23 138/52/23 137/51/23
f 137/51/24 138/52/24 140/54/24 139/53/24
f 139/53/1 140/54/1 142/56/1 141/55/1
f 141/55/25 142/56/25 144/58/25 143/57/25
f 143/57/26 144/58/26 146/60/26 145/59/26
f 145/59/27 146/60/27 148/62/27 147/61/27
f 147/61/28 148/62/28 150/64/28 149/63/28
f 104/65/29 102/90/29 152/89/29 150/88/29 148/87/29 146/86/29 144/85/29 142/84/29 140/83/29 138/82/29 136/81/29 134/80/29 132/79/29 130/78/29 128/77/29 126/76/29 124/75/29 122/74/29 120/73/29 118/72/29 116/71/29 114/70/29 112/69/29 110/68/29 108/67/29 106/66/29
f 149/63/30 150/64/30 152/92/30 151/91/30
f 151/91/31 152/92/31 102/94/31 101/93/31
f 101/95/32 103/120/32 105/119/32 107/118/32 109/117/32 111/116/32 113/115/32 115/114/32 117/113/32 119/112/32 121/111/32 123/110/32 125/109/32 127/108/32 129/107/32 131/106/32 133/105/32 135/104/32 137/103/32 139/102/32 141/101/32 143/100/32 145/99/32 147/98/32 149/97/32 151/96/32
usemtl Material.010
f 153/15/33 154/18/33 156/17/33 155/16/33
f 155/16/8 156/17/8 158/20/8 157/19/8
f 157/19/9 158/20/9 160/22/9 159/21/9
f 159/21/10 160/22/10 162/24/10 161/23/10
f 161/23/11 162/24/11 164/26/11 163/25/11
f 163/25/12 164/26/12 166/28/12 165/27/12
f 165/27/3 166/28/3 168/30/3 167/29/3
f 167/29/13 168/30/13 170/32/13 169/31/13
f 169/31/14 170/32/14 172/34/14 171/33/14
f 171/33/15 172/34/15 174/36/15 173/35/15
f 173/35/16 174/36/16 176/38/16 175/37/16
f 175/37/17 176/38/17 178/40/17 177/39/17
f 177/39/18 178/40/18 180/42/18 179/41/18
f 179/41/19 180/42/19 182/44/19 181/43/19
f 181/43/20 182/44/20 184/46/20 183/45/20
f 183/45/21 184/46/21 186/48/21 185/47/21
f 185/47/22 186/48/22 188/50/22 187/49/22
f 187/49/23 188/50/23 190/52/23 189/51/23
f 189/51/24 190/52/24 192/54/24 191/53/24
f 191/53/1 192/54/1 194/56/1 193/55/1
f 193/55/25 194/56/25 196/58/25 195/57/25
f 195/57/26 196/58/26 198/60/26 197/59/26
f 197/59/27 198/60/27 200/62/27 199/61/27
f 199/61/28 200/62/28 202/64/28 201/63/28
f 156/65/29 154/90/29 204/89/29 202/88/29 200/87/29 198/86/29 196/85/29 194/84/29 192/83/29 190/82/29 188/81/29 186/80/29 184/79/29 182/78/29 180/77/29 178/76/29 176/75/29 174/74/29 172/73/29 170/72/29 168/71/29 166/70/29 164/69/29 162/68/29 160/67/29 158/66/29
f 201/63/30 202/64/30 204/92/30 203/91/30
f 203/91/34 204/92/34 154/94/34 153/93/34
f 153/95/32 155/120/32 157/119/32 159/118/32 161/117/32 163/116/32 165/115/32 167/114/32 169/113/32 171/112/32 173/111/32 175/110/32 177/109/32 179/108/32 181/107/32 183/106/32 185/105/32 187/104/32 189/103/32 191/102/32 193/101/32 195/100/32 197/99/32 199/98/32 201/97/32 203/96/32
usemtl Material.011
f 205/15/33 206/18/33 208/17/33 207/16/33
f 207/16/8 208/17/8 210/20/8 209/19/8
f 209/19/35 210/20/35 212/22/35 211/21/35
f 211/21/10 212/22/10 214/24/10 213/23/10
f 213/23/11 214/24/11 216/26/11 215/25/11
f 215/25/12 216/26/12 218/28/12 217/27/12
f 217/27/3 218/28/3 220/30/3 219/29/3
f 219/29/13 220/30/13 222/32/13 221/31/13
f 221/31/14 222/32/14 224/34/14 223/33/14
f 223/33/15 224/34/15 226/36/15 225/35/15
f 225/35/16 226/36/16 228/38/16 227/37/16
f 227/37/17 228/38/17 230/40/17 229/39/17
f 229/39/18 230/40/18 232/42/18 231/41/18
f 231/41/19 232/42/19 234/44/19 233/43/19
f 233/43/20 234/44/20 236/46/20 235/45/20
f 235/45/21 236/46/21 238/48/21 237/47/21
f 237/47/22 238/48/22 240/50/22 239/49/22
f 239/49/23 240/50/23 242/52/23 241/51/23
f 241/51/24 242/52/24 244/54/24 243/53/24
f 243/53/1 244/54/1 246/56/1 245/55/1
f 245/55/25 246/56/25 248/58/25 247/57/25
f 247/57/26 248/58/26 250/60/26 249/59/26
f 249/59/27 250/60/27 252/62/27 251/61/27
f 251/61/36 252/62/36 254/64/36 253/63/36
f 208/65/29 206/90/29 256/89/29 254/88/29 252/87/29 250/86/29 248/85/29 246/84/29 244/83/29 242/82/29 240/81/29 238/80/29 236/79/29 234/78/29 232/77/29 230/76/29 228/75/29 226/74/29 224/73/29 222/72/29 220/71/29 218/70/29 216/69/29 214/68/29 212/67/29 210/66/29
f 253/63/30 254/64/30 256/92/30 255/91/30
f 255/91/34 256/92/34 206/94/34 205/93/34
f 205/95/32 207/120/32 209/119/32 211/118/32 213/117/32 215/116/32 217/115/32 219/114/32 221/113/32 223/112/32 225/111/32 227/110/32 229/109/32 231/108/32 233/107/32 235/106/32 237/105/32 239/104/32 241/103/32 243/102/32 245/101/32 247/100/32 249/99/32 251/98/32 253/97/32 255/96/32
