# Blender 4.4.0
# www.blender.org
mtllib roadbarriers1.mtl
o Cube
v -1.000000 -0.008163 1.000000
v -1.000000 0.096912 1.000000
v -1.000000 -0.008163 -1.000000
v -1.000000 0.096912 -1.000000
v 1.000000 -0.008163 1.000000
v 1.000000 0.096912 1.000000
v 1.000000 -0.008163 -1.000000
v 1.000000 0.096912 -1.000000
v -1.000000 0.092775 1.000000
v -1.000000 0.197850 1.000000
v -1.000000 0.092775 -1.000000
v -1.000000 0.197850 -1.000000
v 1.000000 0.092775 1.000000
v 1.000000 0.197850 1.000000
v 1.000000 0.092775 -1.000000
v 1.000000 0.197850 -1.000000
v -0.013097 0.184787 -0.961263
v -0.013097 0.794475 -0.961263
v -0.013097 0.184787 -0.995954
v -0.013097 0.794475 -0.995954
v 0.013097 0.184787 -0.961263
v 0.013097 0.794475 -0.961263
v 0.013097 0.184787 -0.995954
v 0.013097 0.794475 -0.995954
v 0.000000 0.602684 1.008638
v 0.000000 0.752182 -0.985767
v 0.002393 0.602974 1.008659
v 0.002393 0.752472 -0.985745
v 0.004647 0.603827 1.008723
v 0.004647 0.753324 -0.985681
v 0.006631 0.605192 1.008826
v 0.006631 0.754690 -0.985579
v 0.008230 0.606992 1.008961
v 0.008230 0.756489 -0.985444
v 0.009350 0.609120 1.009120
v 0.009350 0.758618 -0.985285
v 0.009927 0.611455 1.009295
v 0.009927 0.760952 -0.985110
v 0.009927 0.613859 1.009475
v 0.009927 0.763356 -0.984929
v 0.009350 0.616193 1.009650
v 0.009350 0.765690 -0.984755
v 0.008230 0.618321 1.009810
v 0.008230 0.767819 -0.984595
v 0.006631 0.620121 1.009945
v 0.006631 0.769618 -0.984460
v 0.004647 0.621486 1.010047
v 0.004647 0.770984 -0.984358
v 0.002393 0.622339 1.010111
v 0.002393 0.771836 -0.984294
v 0.000000 0.622629 1.010133
v 0.000000 0.772126 -0.984272
v -0.002393 0.622339 1.010111
v -0.002393 0.771836 -0.984294
v -0.004647 0.621486 1.010047
v -0.004647 0.770984 -0.984358
v -0.006631 0.620121 1.009945
v -0.006631 0.769618 -0.984460
v -0.008230 0.618321 1.009810
v -0.008230 0.767819 -0.984595
v -0.009350 0.616193 1.009650
v -0.009350 0.765690 -0.984755
v -0.009927 0.613859 1.009475
v -0.009927 0.763356 -0.984929
v -0.009927 0.611455 1.009295
v -0.009927 0.760952 -0.985110
v -0.009350 0.609120 1.009120
v -0.009350 0.758618 -0.985285
v -0.008230 0.606992 1.008961
v -0.008230 0.756489 -0.985444
v -0.006631 0.605192 1.008826
v -0.006631 0.754690 -0.985579
v -0.004647 0.603827 1.008723
v -0.004647 0.753324 -0.985681
v -0.002393 0.602974 1.008659
v -0.002393 0.752472 -0.985745
v 0.000000 0.515254 1.008638
v 0.000000 0.664751 -0.985767
v 0.002393 0.515544 1.008659
v 0.002393 0.665041 -0.985745
v 0.004647 0.516396 1.008723
v 0.004647 0.665894 -0.985681
v 0.006631 0.517762 1.008826
v 0.006631 0.667259 -0.985579
v 0.008230 0.519561 1.008961
v 0.008230 0.669059 -0.985444
v 0.009350 0.521690 1.009120
v 0.009350 0.671187 -0.985285
v 0.009927 0.524024 1.009295
v 0.009927 0.673522 -0.985110
v 0.009927 0.526428 1.009475
v 0.009927 0.675925 -0.984929
v 0.009350 0.528762 1.009650
v 0.009350 0.678260 -0.984755
v 0.008230 0.530891 1.009810
v 0.008230 0.680388 -0.984595
v 0.006631 0.532690 1.009945
v 0.006631 0.682188 -0.984460
v 0.004647 0.534056 1.010047
v 0.004647 0.683553 -0.984358
v 0.002393 0.534908 1.010111
v 0.002393 0.684406 -0.984294
v 0.000000 0.535198 1.010133
v 0.000000 0.684696 -0.984272
v -0.002393 0.534908 1.010111
v -0.002393 0.684406 -0.984294
v -0.004647 0.534056 1.010047
v -0.004647 0.683553 -0.984358
v -0.006631 0.532690 1.009945
v -0.006631 0.682188 -0.984460
v -0.008230 0.530891 1.009810
v -0.008230 0.680388 -0.984595
v -0.009350 0.528762 1.009650
v -0.009350 0.678260 -0.984755
v -0.009927 0.526428 1.009475
v -0.009927 0.675925 -0.984929
v -0.009927 0.524024 1.009295
v -0.009927 0.673522 -0.985110
v -0.009350 0.521690 1.009120
v -0.009350 0.671187 -0.985285
v -0.008230 0.519561 1.008961
v -0.008230 0.669059 -0.985444
v -0.006631 0.517762 1.008826
v -0.006631 0.667259 -0.985579
v -0.004647 0.516396 1.008723
v -0.004647 0.665894 -0.985681
v -0.002393 0.515544 1.008659
v -0.002393 0.665041 -0.985745
v 0.000000 0.420516 1.008638
v 0.000000 0.570013 -0.985767
v 0.002393 0.420806 1.008659
v 0.002393 0.570303 -0.985745
v 0.004647 0.421658 1.008723
v 0.004647 0.571156 -0.985681
v 0.006631 0.423024 1.008826
v 0.006631 0.572521 -0.985579
v 0.008230 0.424823 1.008961
v 0.008230 0.574321 -0.985444
v 0.009350 0.426952 1.009120
v 0.009350 0.576449 -0.985285
v 0.009927 0.429286 1.009295
v 0.009927 0.578783 -0.985110
v 0.009927 0.431690 1.009475
v 0.009927 0.581187 -0.984929
v 0.009350 0.434024 1.009650
v 0.009350 0.583522 -0.984755
v 0.008230 0.436153 1.009810
v 0.008230 0.585650 -0.984595
v 0.006631 0.437952 1.009945
v 0.006631 0.587450 -0.984460
v 0.004647 0.439318 1.010047
v 0.004647 0.588815 -0.984358
v 0.002393 0.440170 1.010111
v 0.002393 0.589668 -0.984294
v 0.000000 0.440460 1.010133
v 0.000000 0.589958 -0.984272
v -0.002393 0.440170 1.010111
v -0.002393 0.589668 -0.984294
v -0.004647 0.439318 1.010047
v -0.004647 0.588815 -0.984358
v -0.006631 0.437952 1.009945
v -0.006631 0.587450 -0.984460
v -0.008230 0.436153 1.009810
v -0.008230 0.585650 -0.984595
v -0.009350 0.434024 1.009650
v -0.009350 0.583522 -0.984755
v -0.009927 0.431690 1.009475
v -0.009927 0.581187 -0.984929
v -0.009927 0.429286 1.009295
v -0.009927 0.578783 -0.985110
v -0.009350 0.426952 1.009120
v -0.009350 0.576449 -0.985285
v -0.008230 0.424823 1.008961
v -0.008230 0.574321 -0.985444
v -0.006631 0.423024 1.008826
v -0.006631 0.572521 -0.985579
v -0.004647 0.421658 1.008723
v -0.004647 0.571156 -0.985681
v -0.002393 0.420806 1.008659
v -0.002393 0.570303 -0.985745
v 0.000000 0.323838 1.008638
v 0.000000 0.473336 -0.985767
v 0.002393 0.324128 1.008659
v 0.002393 0.473625 -0.985745
v 0.004647 0.324980 1.008723
v 0.004647 0.474478 -0.985681
v 0.006631 0.326346 1.008826
v 0.006631 0.475843 -0.985579
v 0.008230 0.328146 1.008961
v 0.008230 0.477643 -0.985444
v 0.009350 0.330274 1.009120
v 0.009350 0.479771 -0.985285
v 0.009927 0.332608 1.009295
v 0.009927 0.482106 -0.985110
v 0.009927 0.335012 1.009475
v 0.009927 0.484510 -0.984929
v 0.009350 0.337346 1.009650
v 0.009350 0.486844 -0.984755
v 0.008230 0.339475 1.009810
v 0.008230 0.488972 -0.984595
v 0.006631 0.341274 1.009945
v 0.006631 0.490772 -0.984460
v 0.004647 0.342640 1.010047
v 0.004647 0.492137 -0.984358
v 0.002393 0.343493 1.010111
v 0.002393 0.492990 -0.984294
v 0.000000 0.343782 1.010133
v 0.000000 0.493280 -0.984272
v -0.002393 0.343493 1.010111
v -0.002393 0.492990 -0.984294
v -0.004647 0.342640 1.010047
v -0.004647 0.492137 -0.984358
v -0.006631 0.341274 1.009945
v -0.006631 0.490772 -0.984460
v -0.008230 0.339475 1.009810
v -0.008230 0.488972 -0.984595
v -0.009350 0.337346 1.009650
v -0.009350 0.486844 -0.984755
v -0.009927 0.335012 1.009475
v -0.009927 0.484510 -0.984929
v -0.009927 0.332608 1.009295
v -0.009927 0.482106 -0.985110
v -0.009350 0.330274 1.009120
v -0.009350 0.479771 -0.985285
v -0.008230 0.328146 1.008961
v -0.008230 0.477643 -0.985444
v -0.006631 0.326346 1.008826
v -0.006631 0.475843 -0.985579
v -0.004647 0.324980 1.008723
v -0.004647 0.474478 -0.985681
v -0.002393 0.324128 1.008659
v -0.002393 0.473625 -0.985745
v -0.010000 0.466205 -0.957442
v -0.010000 0.777376 -0.957442
v -0.010000 0.466205 -0.962557
v -0.010000 0.777376 -0.962557
v 0.010000 0.466205 -0.957442
v 0.010000 0.777376 -0.957442
v 0.010000 0.466205 -0.962557
v 0.010000 0.777376 -0.962557
v -0.013453 0.706602 -0.956959
v -0.013453 0.726602 -0.956959
v -0.013453 0.706602 -0.976959
v -0.013453 0.726602 -0.976959
v 0.014060 0.706602 -0.956959
v 0.014060 0.726602 -0.956959
v 0.014060 0.706602 -0.976959
v 0.014060 0.726602 -0.976959
vn -1.0000 -0.0000 -0.0000
vn -0.0000 -0.0000 -1.0000
vn 1.0000 -0.0000 -0.0000
vn -0.0000 -0.0000 1.0000
vn -0.0000 -1.0000 -0.0000
vn -0.0000 1.0000 -0.0000
vn 0.1205 -0.9899 -0.0742
vn 0.3546 -0.9324 -0.0699
vn 0.5681 -0.8207 -0.0615
vn 0.7485 -0.6613 -0.0496
vn 0.8855 -0.4634 -0.0347
vn 0.9709 -0.2386 -0.0179
vn 0.9709 0.2386 0.0179
vn 0.8855 0.4634 0.0347
vn 0.7485 0.6613 0.0496
vn 0.5680 0.8207 0.0615
vn 0.3546 0.9324 0.0699
vn 0.1206 0.9899 0.0742
vn -0.1206 0.9899 0.0742
vn -0.3546 0.9324 0.0699
vn -0.5680 0.8207 0.0615
vn -0.7485 0.6613 0.0496
vn -0.8855 0.4634 0.0347
vn -0.9709 0.2386 0.0179
vn -0.9709 -0.2386 -0.0179
vn -0.8855 -0.4634 -0.0347
vn -0.7485 -0.6613 -0.0496
vn -0.5681 -0.8207 -0.0615
vn -0.0000 0.0747 -0.9972
vn -0.3546 -0.9324 -0.0699
vn -0.1205 -0.9899 -0.0742
vn -0.0000 -0.0747 0.9972
vn 0.9709 -0.2387 -0.0179
vn 0.5681 0.8207 0.0615
vn 0.1205 0.9899 0.0742
vn -0.1205 0.9899 0.0742
vn -0.5681 0.8207 0.0615
vn -0.9709 -0.2387 -0.0179
vt 0.375000 0.000000
vt 0.625000 0.000000
vt 0.625000 0.250000
vt 0.375000 0.250000
vt 0.625000 0.500000
vt 0.375000 0.500000
vt 0.625000 0.750000
vt 0.375000 0.750000
vt 0.625000 1.000000
vt 0.375000 1.000000
vt 0.125000 0.500000
vt 0.125000 0.750000
vt 0.875000 0.500000
vt 0.875000 0.750000
vt 1.000000 0.500000
vt 1.000000 1.000000
vt 0.961538 1.000000
vt 0.961538 0.500000
vt 0.923077 1.000000
vt 0.923077 0.500000
vt 0.884615 1.000000
vt 0.884615 0.500000
vt 0.846154 1.000000
vt 0.846154 0.500000
vt 0.807692 1.000000
vt 0.807692 0.500000
vt 0.769231 1.000000
vt 0.769231 0.500000
vt 0.730769 1.000000
vt 0.730769 0.500000
vt 0.692307 1.000000
vt 0.692307 0.500000
vt 0.653846 1.000000
vt 0.653846 0.500000
vt 0.615384 1.000000
vt 0.615384 0.500000
vt 0.576923 1.000000
vt 0.576923 0.500000
vt 0.538461 1.000000
vt 0.538461 0.500000
vt 0.500000 1.000000
vt 0.500000 0.500000
vt 0.461538 1.000000
vt 0.461538 0.500000
vt 0.423077 1.000000
vt 0.423077 0.500000
vt 0.384615 1.000000
vt 0.384615 0.500000
vt 0.346154 1.000000
vt 0.346154 0.500000
vt 0.307692 1.000000
vt 0.307692 0.500000
vt 0.269230 1.000000
vt 0.269230 0.500000
vt 0.230769 1.000000
vt 0.230769 0.500000
vt 0.192307 1.000000
vt 0.192307 0.500000
vt 0.153846 1.000000
vt 0.153846 0.500000
vt 0.115384 1.000000
vt 0.115384 0.500000
vt 0.076923 1.000000
vt 0.076923 0.500000
vt 0.307436 0.483026
vt 0.250000 0.490000
vt 0.192564 0.483026
vt 0.138466 0.462509
vt 0.090851 0.429643
vt 0.052484 0.386336
vt 0.025596 0.335105
vt 0.011750 0.278929
vt 0.011750 0.221071
vt 0.025596 0.164895
vt 0.052484 0.113664
vt 0.090851 0.070357
vt 0.138466 0.037491
vt 0.192564 0.016974
vt 0.250000 0.010000
vt 0.307436 0.016974
vt 0.361534 0.037491
vt 0.409149 0.070357
vt 0.447516 0.113664
vt 0.474404 0.164895
vt 0.488250 0.221071
vt 0.488250 0.278929
vt 0.474404 0.335105
vt 0.447516 0.386336
vt 0.409149 0.429643
vt 0.361534 0.462509
vt 0.038461 1.000000
vt 0.038461 0.500000
vt -0.000000 1.000000
vt -0.000000 0.500000
vt 0.750000 0.490000
vt 0.807436 0.483026
vt 0.861534 0.462509
vt 0.909149 0.429643
vt 0.947516 0.386336
vt 0.974404 0.335105
vt 0.988250 0.278929
vt 0.988250 0.221071
vt 0.974404 0.164895
vt 0.947516 0.113664
vt 0.909149 0.070357
vt 0.861534 0.037491
vt 0.807436 0.016974
vt 0.750000 0.010000
vt 0.692564 0.016974
vt 0.638466 0.037491
vt 0.590851 0.070357
vt 0.552484 0.113664
vt 0.525596 0.164895
vt 0.511750 0.221071
vt 0.511750 0.278929
vt 0.525596 0.335105
vt 0.552484 0.386336
vt 0.590851 0.429643
vt 0.638466 0.462509
vt 0.692564 0.483026
s 0
usemtl 
f 1/1/1 2/2/1 4/3/1 3/4/1
f 3/4/2 4/3/2 8/5/2 7/6/2
f 7/6/3 8/5/3 6/7/3 5/8/3
f 5/8/4 6/7/4 2/9/4 1/10/4
f 3/11/5 7/6/5 5/8/5 1/12/5
f 8/5/6 4/13/6 2/14/6 6/7/6
usemtl Material
f 9/1/1 10/2/1 12/3/1 11/4/1
f 11/4/2 12/3/2 16/5/2 15/6/2
f 15/6/3 16/5/3 14/7/3 13/8/3
f 13/8/4 14/7/4 10/9/4 9/10/4
f 11/11/5 15/6/5 13/8/5 9/12/5
f 16/5/6 12/13/6 10/14/6 14/7/6
usemtl Material.003
f 17/1/1 18/2/1 20/3/1 19/4/1
f 19/4/2 20/3/2 24/5/2 23/6/2
f 23/6/3 24/5/3 22/7/3 21/8/3
f 21/8/4 22/7/4 18/9/4 17/10/4
f 19/11/5 23/6/5 21/8/5 17/12/5
f 24/5/6 20/13/6 18/14/6 22/7/6
usemtl Material.005
f 25/15/7 26/16/7 28/17/7 27/18/7
f 27/18/8 28/17/8 30/19/8 29/20/8
f 29/20/9 30/19/9 32/21/9 31/22/9
f 31/22/10 32/21/10 34/23/10 33/24/10
f 33/24/11 34/23/11 36/25/11 35/26/11
f 35/26/12 36/25/12 38/27/12 37/28/12
f 37/28/3 38/27/3 40/29/3 39/30/3
f 39/30/13 40/29/13 42/31/13 41/32/13
f 41/32/14 42/31/14 44/33/14 43/34/14
f 43/34/15 44/33/15 46/35/15 45/36/15
f 45/36/16 46/35/16 48/37/16 47/38/16
f 47/38/17 48/37/17 50/39/17 49/40/17
f 49/40/18 50/39/18 52/41/18 51/42/18
f 51/42/19 52/41/19 54/43/19 53/44/19
f 53/44/20 54/43/20 56/45/20 55/46/20
f 55/46/21 56/45/21 58/47/21 57/48/21
f 57/48/22 58/47/22 60/49/22 59/50/22
f 59/50/23 60/49/23 62/51/23 61/52/23
f 61/52/24 62/51/24 64/53/24 63/54/24
f 63/54/1 64/53/1 66/55/1 65/56/1
f 65/56/25 66/55/25 68/57/25 67/58/25
f 67/58/26 68/57/26 70/59/26 69/60/26
f 69/60/27 70/59/27 72/61/27 71/62/27
f 71/62/28 72/61/28 74/63/28 73/64/28
f 28/65/29 26/66/29 76/67/29 74/68/29 72/69/29 70/70/29 68/71/29 66/72/29 64/73/29 62/74/29 60/75/29 58/76/29 56/77/29 54/78/29 52/79/29 50/80/29 48/81/29 46/82/29 44/83/29 42/84/29 40/85/29 38/86/29 36/87/29 34/88/29 32/89/29 30/90/29
f 73/64/30 74/63/30 76/91/30 75/92/30
f 75/92/31 76/91/31 26/93/31 25/94/31
f 25/95/32 27/96/32 29/97/32 31/98/32 33/99/32 35/100/32 37/101/32 39/102/32 41/103/32 43/104/32 45/105/32 47/106/32 49/107/32 51/108/32 53/109/32 55/110/32 57/111/32 59/112/32 61/113/32 63/114/32 65/115/32 67/116/32 69/117/32 71/118/32 73/119/32 75/120/32
usemtl Material.007
f 77/15/7 78/16/7 80/17/7 79/18/7
f 79/18/8 80/17/8 82/19/8 81/20/8
f 81/20/9 82/19/9 84/21/9 83/22/9
f 83/22/10 84/21/10 86/23/10 85/24/10
f 85/24/11 86/23/11 88/25/11 87/26/11
f 87/26/33 88/25/33 90/27/33 89/28/33
f 89/28/3 90/27/3 92/29/3 91/30/3
f 91/30/13 92/29/13 94/31/13 93/32/13
f 93/32/14 94/31/14 96/33/14 95/34/14
f 95/34/15 96/33/15 98/35/15 97/36/15
f 97/36/34 98/35/34 100/37/34 99/38/34
f 99/38/17 100/37/17 102/39/17 101/40/17
f 101/40/35 102/39/35 104/41/35 103/42/35
f 103/42/36 104/41/36 106/43/36 105/44/36
f 105/44/20 106/43/20 108/45/20 107/46/20
f 107/46/37 108/45/37 110/47/37 109/48/37
f 109/48/22 110/47/22 112/49/22 111/50/22
f 111/50/23 112/49/23 114/51/23 113/52/23
f 113/52/24 114/51/24 116/53/24 115/54/24
f 115/54/1 116/53/1 118/55/1 117/56/1
f 117/56/38 118/55/38 120/57/38 119/58/38
f 119/58/26 120/57/26 122/59/26 121/60/26
f 121/60/27 122/59/27 124/61/27 123/62/27
f 123/62/28 124/61/28 126/63/28 125/64/28
f 80/65/29 78/66/29 128/67/29 126/68/29 124/69/29 122/70/29 120/71/29 118/72/29 116/73/29 114/74/29 112/75/29 110/76/29 108/77/29 106/78/29 104/79/29 102/80/29 100/81/29 98/82/29 96/83/29 94/84/29 92/85/29 90/86/29 88/87/29 86/88/29 84/89/29 82/90/29
f 125/64/30 126/63/30 128/91/30 127/92/30
f 127/92/31 128/91/31 78/93/31 77/94/31
f 77/95/32 79/96/32 81/97/32 83/98/32 85/99/32 87/100/32 89/101/32 91/102/32 93/103/32 95/104/32 97/105/32 99/106/32 101/107/32 103/108/32 105/109/32 107/110/32 109/111/32 111/112/32 113/113/32 115/114/32 117/115/32 119/116/32 121/117/32 123/118/32 125/119/32 127/120/32
usemtl Material.008
f 129/15/7 130/16/7 132/17/7 131/18/7
f 131/18/8 132/17/8 134/19/8 133/20/8
f 133/20/9 134/19/9 136/21/9 135/22/9
f 135/22/10 136/21/10 138/23/10 137/24/10
f 137/24/11 138/23/11 140/25/11 139/26/11
f 139/26/12 140/25/12 142/27/12 141/28/12
f 141/28/3 142/27/3 144/29/3 143/30/3
f 143/30/13 144/29/13 146/31/13 145/32/13
f 145/32/14 146/31/14 148/33/14 147/34/14
f 147/34/15 148/33/15 150/35/15 149/36/15
f 149/36/34 150/35/34 152/37/34 151/38/34
f 151/38/17 152/37/17 154/39/17 153/40/17
f 153/40/18 154/39/18 156/41/18 155/42/18
f 155/42/19 156/41/19 158/43/19 157/44/19
f 157/44/20 158/43/20 160/45/20 159/46/20
f 159/46/37 160/45/37 162/47/37 161/48/37
f 161/48/22 162/47/22 164/49/22 163/50/22
f 163/50/23 164/49/23 166/51/23 165/52/23
f 165/52/24 166/51/24 168/53/24 167/54/24
f 167/54/1 168/53/1 170/55/1 169/56/1
f 169/56/25 170/55/25 172/57/25 171/58/25
f 171/58/26 172/57/26 174/59/26 173/60/26
f 173/60/27 174/59/27 176/61/27 175/62/27
f 175/62/28 176/61/28 178/63/28 177/64/28
f 132/65/29 130/66/29 180/67/29 178/68/29 176/69/29 174/70/29 172/71/29 170/72/29 168/73/29 166/74/29 164/75/29 162/76/29 160/77/29 158/78/29 156/79/29 154/80/29 152/81/29 150/82/29 148/83/29 146/84/29 144/85/29 142/86/29 140/87/29 138/88/29 136/89/29 134/90/29
f 177/64/30 178/63/30 180/91/30 179/92/30
f 179/92/31 180/91/31 130/93/31 129/94/31
f 129/95/32 131/96/32 133/97/32 135/98/32 137/99/32 139/100/32 141/101/32 143/102/32 145/103/32 147/104/32 149/105/32 151/106/32 153/107/32 155/108/32 157/109/32 159/110/32 161/111/32 163/112/32 165/113/32 167/114/32 169/115/32 171/116/32 173/117/32 175/118/32 177/119/32 179/120/32
usemtl Material.004
f 181/15/7 182/16/7 184/17/7 183/18/7
f 183/18/8 184/17/8 186/19/8 185/20/8
f 185/20/9 186/19/9 188/21/9 187/22/9
f 187/22/10 188/21/10 190/23/10 189/24/10
f 189/24/11 190/23/11 192/25/11 191/26/11
f 191/26/12 192/25/12 194/27/12 193/28/12
f 193/28/3 194/27/3 196/29/3 195/30/3
f 195/30/13 196/29/13 198/31/13 197/32/13
f 197/32/14 198/31/14 200/33/14 199/34/14
f 199/34/15 200/33/15 202/35/15 201/36/15
f 201/36/34 202/35/34 204/37/34 203/38/34
f 203/38/17 204/37/17 206/39/17 205/40/17
f 205/40/35 206/39/35 208/41/35 207/42/35
f 207/42/36 208/41/36 210/43/36 209/44/36
f 209/44/20 210/43/20 212/45/20 211/46/20
f 211/46/37 212/45/37 214/47/37 213/48/37
f 213/48/22 214/47/22 216/49/22 215/50/22
f 215/50/23 216/49/23 218/51/23 217/52/23
f 217/52/24 218/51/24 220/53/24 219/54/24
f 219/54/1 220/53/1 222/55/1 221/56/1
f 221/56/25 222/55/25 224/57/25 223/58/25
f 223/58/26 224/57/26 226/59/26 225/60/26
f 225/60/27 226/59/27 228/61/27 227/62/27
f 227/62/28 228/61/28 230/63/28 229/64/28
f 184/65/29 182/66/29 232/67/29 230/68/29 228/69/29 226/70/29 224/71/29 222/72/29 220/73/29 218/74/29 216/75/29 214/76/29 212/77/29 210/78/29 208/79/29 206/80/29 204/81/29 202/82/29 200/83/29 198/84/29 196/85/29 194/86/29 192/87/29 190/88/29 188/89/29 186/90/29
f 229/64/30 230/63/30 232/91/30 231/92/30
f 231/92/31 232/91/31 182/93/31 181/94/31
f 181/95/32 183/96/32 185/97/32 187/98/32 189/99/32 191/100/32 193/101/32 195/102/32 197/103/32 199/104/32 201/105/32 203/106/32 205/107/32 207/108/32 209/109/32 211/110/32 213/111/32 215/112/32 217/113/32 219/114/32 221/115/32 223/116/32 225/117/32 227/118/32 229/119/32 231/120/32
usemtl Material.001
f 233/1/1 234/2/1 236/3/1 235/4/1
f 235/4/2 236/3/2 240/5/2 239/6/2
f 239/6/3 240/5/3 238/7/3 237/8/3
f 237/8/4 238/7/4 234/9/4 233/10/4
f 235/11/5 239/6/5 237/8/5 233/12/5
f 240/5/6 236/13/6 234/14/6 238/7/6
usemtl Material.006
f 241/1/1 242/2/1 244/3/1 243/4/1
f 243/4/2 244/3/2 248/5/2 247/6/2
f 247/6/3 248/5/3 246/7/3 245/8/3
f 245/8/4 246/7/4 242/9/4 241/10/4
f 243/11/5 247/6/5 245/8/5 241/12/5
f 248/5/6 244/13/6 242/14/6 246/7/6
