# Blender 4.4.0
# www.blender.org
mtllib Skyscraper-1.mtl
o Cube.001
v -1.707654 26.884922 1.533590
v -1.707654 27.277790 1.533590
v -1.707654 26.884922 0.378274
v -1.707654 27.277790 0.378274
v -0.880893 26.884922 1.533590
v -0.880893 27.277790 1.533590
v -0.880893 26.884922 0.378274
v -0.880893 27.277790 0.378274
v -2.420000 -0.049183 2.420000
v -2.420000 26.835634 2.420000
v -2.420000 -0.049183 -2.420000
v -2.420000 26.835634 -2.420000
v 2.420000 -0.049183 2.420000
v 2.420000 26.835634 2.420000
v 2.420000 -0.049183 -2.420000
v 2.420000 26.835634 -2.420000
v -0.704072 26.884922 1.533590
v -0.704072 27.277790 1.533590
v -0.704072 26.884922 0.378274
v -0.704072 27.277790 0.378274
v 0.122689 26.884922 1.533590
v 0.122689 27.277790 1.533590
v 0.122689 26.884922 0.378274
v 0.122689 27.277790 0.378274
v -0.000000 26.718693 -0.179414
v -0.000000 28.593897 -0.179414
v 0.035002 26.718693 -0.175966
v 0.035002 28.593897 -0.175966
v 0.068659 26.718693 -0.165756
v 0.068659 28.593897 -0.165756
v 0.099677 26.718693 -0.149177
v 0.099677 28.593897 -0.149177
v 0.126864 26.718693 -0.126865
v 0.126864 28.593897 -0.126865
v 0.149177 26.718693 -0.099677
v 0.149177 28.593897 -0.099677
v 0.165756 26.718693 -0.068659
v 0.165756 28.593897 -0.068659
v 0.175966 26.718693 -0.035002
v 0.175966 28.593897 -0.035002
v 0.179413 26.718693 -0.000000
v 0.179413 28.593897 -0.000000
v 0.175966 26.718693 0.035002
v 0.175966 28.593897 0.035002
v 0.165756 26.718693 0.068659
v 0.165756 28.593897 0.068659
v 0.149177 26.718693 0.099677
v 0.149177 28.593897 0.099677
v 0.126864 26.718693 0.126865
v 0.126864 28.593897 0.126865
v 0.099677 26.718693 0.149177
v 0.099677 28.593897 0.149177
v 0.068659 26.718693 0.165756
v 0.068659 28.593897 0.165756
v 0.035002 26.718693 0.175966
v 0.035002 28.593897 0.175966
v -0.000000 26.718693 0.179413
v -0.000000 28.593897 0.179413
v -0.035002 26.718693 0.175966
v -0.035002 28.593897 0.175966
v -0.068659 26.718693 0.165756
v -0.068659 28.593897 0.165756
v -0.099677 26.718693 0.149177
v -0.099677 28.593897 0.149177
v -0.126865 26.718693 0.126865
v -0.126865 28.593897 0.126865
v -0.149177 26.718693 0.099677
v -0.149177 28.593897 0.099677
v -0.165757 26.718693 0.068659
v -0.165757 28.593897 0.068659
v -0.175966 26.718693 0.035002
v -0.175966 28.593897 0.035002
v -0.179414 26.718693 -0.000000
v -0.179414 28.593897 -0.000000
v -0.175966 26.718693 -0.035002
v -0.175966 28.593897 -0.035002
v -0.165757 26.718693 -0.068659
v -0.165757 28.593897 -0.068659
v -0.149177 26.718693 -0.099677
v -0.149177 28.593897 -0.099677
v -0.126865 26.718693 -0.126865
v -0.126865 28.593897 -0.126865
v -0.099677 26.718693 -0.149177
v -0.099677 28.593897 -0.149177
v -0.068659 26.718693 -0.165756
v -0.068659 28.593897 -0.165756
v -0.035002 26.718693 -0.175966
v -0.035002 28.593897 -0.175966
v -0.000000 28.565001 -0.180000
v -0.000000 32.215000 -0.080000
v 0.043077 28.565001 -0.174770
v 0.019145 32.215000 -0.077675
v 0.083650 28.565001 -0.159382
v 0.037178 32.215000 -0.070836
v 0.119362 28.565001 -0.134732
v 0.053050 32.215000 -0.059881
v 0.148137 28.565001 -0.102252
v 0.065839 32.215000 -0.045445
v 0.168303 28.565001 -0.063829
v 0.074801 32.215000 -0.028368
v 0.178688 28.565001 -0.021697
v 0.079417 32.215000 -0.009643
v 0.178688 28.565001 0.021697
v 0.079417 32.215000 0.009643
v 0.168303 28.565001 0.063829
v 0.074801 32.215000 0.028368
v 0.148137 28.565001 0.102252
v 0.065839 32.215000 0.045445
v 0.119362 28.565001 0.134732
v 0.053050 32.215000 0.059881
v 0.083650 28.565001 0.159382
v 0.037178 32.215000 0.070836
v 0.043077 28.565001 0.174770
v 0.019145 32.215000 0.077675
v -0.000000 28.565001 0.180000
v -0.000000 32.215000 0.080000
v -0.043077 28.565001 0.174770
v -0.019145 32.215000 0.077675
v -0.083650 28.565001 0.159382
v -0.037178 32.215000 0.070836
v -0.119362 28.565001 0.134732
v -0.053050 32.215000 0.059881
v -0.148137 28.565001 0.102252
v -0.065839 32.215000 0.045445
v -0.168303 28.565001 0.063829
v -0.074801 32.215000 0.028368
v -0.178688 28.565001 0.021697
v -0.079417 32.215000 0.009643
v -0.178688 28.565001 -0.021697
v -0.079417 32.215000 -0.009643
v -0.168303 28.565001 -0.063829
v -0.074801 32.215000 -0.028368
v -0.148137 28.565001 -0.102252
v -0.065839 32.215000 -0.045445
v -0.119362 28.565001 -0.134732
v -0.053050 32.215000 -0.059881
v -0.083650 28.565001 -0.159382
v -0.037178 32.215000 -0.070836
v -0.043077 28.565001 -0.174770
v -0.019145 32.215000 -0.077675
v 2.526830 1.986209 2.420000
v 2.526830 26.510826 2.420000
v 2.526830 1.986209 -2.420000
v 2.526830 26.510826 -2.420000
v 2.417887 1.986209 2.420000
v 2.417887 26.510826 2.420000
v 2.417887 1.986209 -2.420000
v 2.417887 26.510826 -2.420000
v 2.580583 1.986209 0.046713
v 2.580583 26.510824 0.046713
v 2.580583 1.986209 -0.046714
v 2.580583 26.510824 -0.046714
v 2.471639 1.986209 0.046713
v 2.471639 26.510824 0.046713
v 2.471639 1.986209 -0.046714
v 2.471639 26.510824 -0.046714
v 2.580583 1.986209 -1.244328
v 2.580583 26.510824 -1.244328
v 2.580583 1.986209 -1.337755
v 2.580583 26.510824 -1.337755
v 2.471639 1.986209 -1.244328
v 2.471639 26.510824 -1.244328
v 2.471639 1.986209 -1.337755
v 2.471639 26.510824 -1.337755
v 2.580583 1.986209 1.370279
v 2.580583 26.510824 1.370279
v 2.580583 1.986209 1.276852
v 2.580583 26.510824 1.276852
v 2.471639 1.986209 1.370279
v 2.471639 26.510824 1.370279
v 2.471639 1.986209 1.276852
v 2.471639 26.510824 1.276852
v 2.580583 1.986209 -1.850450
v 2.580583 26.510824 -1.850450
v 2.580583 1.986209 -1.943877
v 2.580583 26.510824 -1.943877
v 2.471639 1.986209 -1.850450
v 2.471639 26.510824 -1.850450
v 2.471639 1.986209 -1.943877
v 2.471639 26.510824 -1.943877
v 2.580583 1.986209 1.879347
v 2.580583 26.510824 1.879347
v 2.580583 1.986209 1.785920
v 2.580583 26.510824 1.785920
v 2.471639 1.986209 1.879347
v 2.471639 26.510824 1.879347
v 2.471639 1.986209 1.785920
v 2.471639 26.510824 1.785920
v 2.580583 1.986209 0.755304
v 2.580583 26.510824 0.755304
v 2.580583 1.986209 0.661877
v 2.580583 26.510824 0.661877
v 2.471639 1.986209 0.755304
v 2.471639 26.510824 0.755304
v 2.471639 1.986209 0.661877
v 2.471639 26.510824 0.661877
v 2.580583 1.986209 -0.581089
v 2.580583 26.510824 -0.581089
v 2.580583 1.986209 -0.674516
v 2.580583 26.510824 -0.674516
v 2.471639 1.986209 -0.581089
v 2.471639 26.510824 -0.581089
v 2.471639 1.986209 -0.674516
v 2.471639 26.510824 -0.674516
v 2.580583 14.201804 -2.431922
v 2.580583 14.201803 2.429797
v 2.580583 14.295231 -2.431922
v 2.580583 14.295230 2.429797
v 2.471639 14.201804 -2.431922
v 2.471639 14.201803 2.429797
v 2.471639 14.295231 -2.431922
v 2.471639 14.295230 2.429797
v 2.580583 20.841105 -2.431922
v 2.580583 20.841105 2.429797
v 2.580583 20.934532 -2.431922
v 2.580583 20.934532 2.429797
v 2.471639 20.841105 -2.431922
v 2.471639 20.841105 2.429797
v 2.471639 20.934532 -2.431922
v 2.471639 20.934532 2.429797
v 2.580583 7.483314 -2.431922
v 2.580583 7.483313 2.429797
v 2.580583 7.576741 -2.431922
v 2.580583 7.576739 2.429797
v 2.471639 7.483314 -2.431922
v 2.471639 7.483313 2.429797
v 2.471639 7.576741 -2.431922
v 2.471639 7.576739 2.429797
v 2.580583 10.972321 -2.431922
v 2.580583 10.972320 2.429797
v 2.580583 11.065747 -2.431922
v 2.580583 11.065746 2.429797
v 2.471639 10.972321 -2.431922
v 2.471639 10.972320 2.429797
v 2.471639 11.065747 -2.431922
v 2.471639 11.065746 2.429797
v 2.580583 17.665024 -2.431922
v 2.580583 17.665024 2.429797
v 2.580583 17.758451 -2.431922
v 2.580583 17.758451 2.429797
v 2.471639 17.665024 -2.431922
v 2.471639 17.665024 2.429797
v 2.471639 17.758451 -2.431922
v 2.471639 17.758451 2.429797
v 2.580583 23.762138 -2.431922
v 2.580583 23.762138 2.429797
v 2.580583 23.855562 -2.431922
v 2.580583 23.855562 2.429797
v 2.471639 23.762138 -2.431922
v 2.471639 23.762138 2.429797
v 2.471639 23.855562 -2.431922
v 2.471639 23.855562 2.429797
v 2.580583 4.638513 -2.431922
v 2.580583 4.638513 2.429797
v 2.580583 4.731941 -2.431922
v 2.580583 4.731941 2.429797
v 2.471639 4.638513 -2.431922
v 2.471639 4.638513 2.429797
v 2.471639 4.731941 -2.431922
v 2.471639 4.731941 2.429797
v 2.580583 5.980896 -2.431922
v 2.580583 5.980896 2.429797
v 2.580583 6.074324 -2.431922
v 2.580583 6.074324 2.429797
v 2.471639 5.980896 -2.431922
v 2.471639 5.980896 2.429797
v 2.471639 6.074324 -2.431922
v 2.471639 6.074324 2.429797
v 2.580583 3.229772 -2.431922
v 2.580583 3.229772 2.429797
v 2.580583 3.323199 -2.431922
v 2.580583 3.323199 2.429797
v 2.471639 3.229772 -2.431922
v 2.471639 3.229772 2.429797
v 2.471639 3.323199 -2.431922
v 2.471639 3.323199 2.429797
v 2.580583 9.231322 -2.431922
v 2.580583 9.231321 2.429797
v 2.580583 9.324749 -2.431922
v 2.580583 9.324748 2.429797
v 2.471639 9.231322 -2.431922
v 2.471639 9.231321 2.429797
v 2.471639 9.324749 -2.431922
v 2.471639 9.324748 2.429797
v 2.580583 12.607656 -2.431922
v 2.580583 12.607656 2.429797
v 2.580583 12.701083 -2.431922
v 2.580583 12.701082 2.429797
v 2.471639 12.607656 -2.431922
v 2.471639 12.607656 2.429797
v 2.471639 12.701083 -2.431922
v 2.471639 12.701082 2.429797
v 2.580583 16.035696 -2.431922
v 2.580583 16.035694 2.429797
v 2.580583 16.129122 -2.431922
v 2.580583 16.129122 2.429797
v 2.471639 16.035696 -2.431922
v 2.471639 16.035694 2.429797
v 2.471639 16.129122 -2.431922
v 2.471639 16.129122 2.429797
v 2.580583 19.276424 -2.431922
v 2.580583 19.276424 2.429797
v 2.580583 19.369852 -2.431922
v 2.580583 19.369852 2.429797
v 2.471639 19.276424 -2.431922
v 2.471639 19.276424 2.429797
v 2.471639 19.369852 -2.431922
v 2.471639 19.369852 2.429797
v 2.580583 22.245375 -2.431922
v 2.580583 22.245375 2.429797
v 2.580583 22.338802 -2.431922
v 2.580583 22.338802 2.429797
v 2.471639 22.245375 -2.431922
v 2.471639 22.245375 2.429797
v 2.471639 22.338802 -2.431922
v 2.471639 22.338802 2.429797
v 2.443846 22.245375 2.562573
v -2.417873 22.245375 2.562573
v 2.443846 22.338802 2.562573
v -2.417873 22.338802 2.562573
v 2.443846 22.245375 2.453630
v -2.417873 22.245375 2.453630
v 2.443846 22.338802 2.453630
v -2.417873 22.338802 2.453630
v 2.443846 19.276424 2.562573
v -2.417873 19.276424 2.562573
v 2.443846 19.369852 2.562573
v -2.417873 19.369852 2.562573
v 2.443846 19.276424 2.453630
v -2.417873 19.276424 2.453630
v 2.443846 19.369852 2.453630
v -2.417873 19.369852 2.453630
v 2.443846 16.035696 2.562573
v -2.417873 16.035694 2.562573
v 2.443846 16.129122 2.562573
v -2.417873 16.129122 2.562573
v 2.443846 16.035696 2.453630
v -2.417873 16.035694 2.453630
v 2.443846 16.129122 2.453630
v -2.417873 16.129122 2.453630
v 2.443846 12.607656 2.562573
v -2.417873 12.607656 2.562573
v 2.443846 12.701083 2.562573
v -2.417873 12.701082 2.562573
v 2.443846 12.607656 2.453630
v -2.417873 12.607656 2.453630
v 2.443846 12.701083 2.453630
v -2.417873 12.701082 2.453630
v 2.443846 9.231322 2.562573
v -2.417873 9.231321 2.562573
v 2.443846 9.324749 2.562573
v -2.417873 9.324748 2.562573
v 2.443846 9.231322 2.453630
v -2.417873 9.231321 2.453630
v 2.443846 9.324749 2.453630
v -2.417873 9.324748 2.453630
v 2.443846 3.229774 2.562573
v -2.417873 3.229774 2.562573
v 2.443846 3.323202 2.562573
v -2.417873 3.323202 2.562573
v 2.443846 3.229774 2.453630
v -2.417873 3.229774 2.453630
v 2.443846 3.323202 2.453630
v -2.417873 3.323202 2.453630
v 2.443846 5.980896 2.562573
v -2.417873 5.980896 2.562573
v 2.443846 6.074324 2.562573
v -2.417873 6.074324 2.562573
v 2.443846 5.980896 2.453630
v -2.417873 5.980896 2.453630
v 2.443846 6.074324 2.453630
v -2.417873 6.074324 2.453630
v 2.443846 4.638515 2.562573
v -2.417873 4.638515 2.562573
v 2.443846 4.731943 2.562573
v -2.417873 4.731943 2.562573
v 2.443846 4.638515 2.453630
v -2.417873 4.638515 2.453630
v 2.443846 4.731943 2.453630
v -2.417873 4.731943 2.453630
v 2.443846 23.762138 2.562573
v -2.417873 23.762138 2.562573
v 2.443846 23.855562 2.562573
v -2.417873 23.855562 2.562573
v 2.443846 23.762138 2.453630
v -2.417873 23.762138 2.453630
v 2.443846 23.855562 2.453630
v -2.417873 23.855562 2.453630
v 2.443846 17.665024 2.562573
v -2.417873 17.665024 2.562573
v 2.443846 17.758451 2.562573
v -2.417873 17.758451 2.562573
v 2.443846 17.665024 2.453630
v -2.417873 17.665024 2.453630
v 2.443846 17.758451 2.453630
v -2.417873 17.758451 2.453630
v 2.443846 10.972321 2.562573
v -2.417873 10.972320 2.562573
v 2.443846 11.065747 2.562573
v -2.417873 11.065746 2.562573
v 2.443846 10.972321 2.453630
v -2.417873 10.972320 2.453630
v 2.443846 11.065747 2.453630
v -2.417873 11.065746 2.453630
v 2.443846 7.483314 2.562573
v -2.417873 7.483313 2.562573
v 2.443846 7.576741 2.562573
v -2.417873 7.576739 2.562573
v 2.443846 7.483314 2.453630
v -2.417873 7.483313 2.453630
v 2.443846 7.576741 2.453630
v -2.417873 7.576739 2.453630
v 2.443846 20.841105 2.562573
v -2.417873 20.841105 2.562573
v 2.443846 20.934532 2.562573
v -2.417873 20.934532 2.562573
v 2.443846 20.841105 2.453630
v -2.417873 20.841105 2.453630
v 2.443846 20.934532 2.453630
v -2.417873 20.934532 2.453630
v 2.443846 14.201804 2.562573
v -2.417873 14.201803 2.562573
v 2.443846 14.295231 2.562573
v -2.417873 14.295230 2.562573
v 2.443846 14.201804 2.453630
v -2.417873 14.201803 2.453630
v 2.443846 14.295231 2.453630
v -2.417873 14.295230 2.453630
v 0.593014 1.986209 2.562573
v 0.593014 26.510824 2.562573
v 0.686440 1.986209 2.562573
v 0.686440 26.510824 2.562573
v 0.593014 1.986209 2.453630
v 0.593014 26.510824 2.453630
v 0.686440 1.986209 2.453630
v 0.686440 26.510824 2.453630
v -0.743380 1.986209 2.562573
v -0.743380 26.510824 2.562573
v -0.649953 1.986209 2.562573
v -0.649953 26.510824 2.562573
v -0.743380 1.986209 2.453630
v -0.743380 26.510824 2.453630
v -0.649953 1.986209 2.453630
v -0.649953 26.510824 2.453630
v -1.867423 1.986209 2.562573
v -1.867423 26.510824 2.562573
v -1.773996 1.986209 2.562573
v -1.773996 26.510824 2.562573
v -1.867423 1.986209 2.453630
v -1.867423 26.510824 2.453630
v -1.773996 1.986209 2.453630
v -1.773996 26.510824 2.453630
v 1.862374 1.986209 2.562573
v 1.862374 26.510824 2.562573
v 1.955801 1.986209 2.562573
v 1.955801 26.510824 2.562573
v 1.862374 1.986209 2.453630
v 1.862374 26.510824 2.453630
v 1.955801 1.986209 2.453630
v 1.955801 26.510824 2.453630
v -1.358355 1.986209 2.562573
v -1.358355 26.510824 2.562573
v -1.264928 1.986209 2.562573
v -1.264928 26.510824 2.562573
v -1.358355 1.986209 2.453630
v -1.358355 26.510824 2.453630
v -1.264928 1.986209 2.453630
v -1.264928 26.510824 2.453630
v 1.256253 1.986209 2.562573
v 1.256253 26.510824 2.562573
v 1.349680 1.986209 2.562573
v 1.349680 26.510824 2.562573
v 1.256253 1.986209 2.453630
v 1.256253 26.510824 2.453630
v 1.349680 1.986209 2.453630
v 1.349680 26.510824 2.453630
v -0.034789 1.986209 2.562573
v -0.034789 26.510824 2.562573
v 0.058638 1.986209 2.562573
v 0.058638 26.510824 2.562573
v -0.034789 1.986209 2.453630
v -0.034789 26.510824 2.453630
v 0.058638 1.986209 2.453630
v 0.058638 26.510824 2.453630
v -2.408075 1.986209 2.508821
v -2.408075 26.510826 2.508821
v 2.431924 1.986209 2.508821
v 2.431924 26.510826 2.508821
v -2.408075 1.986209 2.399878
v -2.408075 26.510826 2.399878
v 2.431924 1.986209 2.399879
v 2.431924 26.510826 2.399879
v -2.476223 1.986209 -2.466773
v -2.476223 26.510826 -2.466773
v -2.476224 1.986209 2.373226
v -2.476224 26.510826 2.373226
v -2.367280 1.986209 -2.466773
v -2.367280 26.510826 -2.466773
v -2.367281 1.986209 2.373226
v -2.367281 26.510826 2.373226
v -2.529975 1.986209 -0.093487
v -2.529975 26.510824 -0.093487
v -2.529975 1.986209 -0.000060
v -2.529975 26.510824 -0.000060
v -2.421032 1.986209 -0.093487
v -2.421032 26.510824 -0.093487
v -2.421032 1.986209 -0.000060
v -2.421032 26.510824 -0.000060
v -2.529975 1.986209 1.197555
v -2.529975 26.510824 1.197555
v -2.529975 1.986209 1.290982
v -2.529975 26.510824 1.290982
v -2.421032 1.986209 1.197555
v -2.421032 26.510824 1.197555
v -2.421032 1.986209 1.290982
v -2.421032 26.510824 1.290982
v -2.529975 1.986209 -1.417052
v -2.529975 26.510824 -1.417052
v -2.529975 1.986209 -1.323626
v -2.529975 26.510824 -1.323626
v -2.421032 1.986209 -1.417052
v -2.421032 26.510824 -1.417052
v -2.421032 1.986209 -1.323626
v -2.421032 26.510824 -1.323626
v -2.529975 1.986209 1.803677
v -2.529975 26.510824 1.803677
v -2.529975 1.986209 1.897104
v -2.529975 26.510824 1.897104
v -2.421032 1.986209 1.803677
v -2.421032 26.510824 1.803677
v -2.421032 1.986209 1.897104
v -2.421032 26.510824 1.897104
v -2.529975 1.986209 -1.926121
v -2.529975 26.510824 -1.926121
v -2.529975 1.986209 -1.832694
v -2.529975 26.510824 -1.832694
v -2.421032 1.986209 -1.926121
v -2.421032 26.510824 -1.926121
v -2.421032 1.986209 -1.832694
v -2.421032 26.510824 -1.832694
v -2.529975 1.986209 -0.802078
v -2.529975 26.510824 -0.802078
v -2.529975 1.986209 -0.708651
v -2.529975 26.510824 -0.708651
v -2.421032 1.986209 -0.802078
v -2.421032 26.510824 -0.802078
v -2.421032 1.986209 -0.708651
v -2.421032 26.510824 -0.708651
v -2.529975 1.986209 0.534315
v -2.529975 26.510824 0.534315
v -2.529975 1.986209 0.627742
v -2.529975 26.510824 0.627742
v -2.421032 1.986209 0.534315
v -2.421032 26.510824 0.534315
v -2.421032 1.986209 0.627742
v -2.421032 26.510824 0.627742
v -2.529976 14.201804 2.385149
v -2.529974 14.201803 -2.476571
v -2.529976 14.295231 2.385149
v -2.529974 14.295230 -2.476571
v -2.421033 14.201804 2.385149
v -2.421031 14.201803 -2.476571
v -2.421033 14.295231 2.385149
v -2.421031 14.295230 -2.476571
v -2.529976 20.841105 2.385149
v -2.529974 20.841105 -2.476571
v -2.529976 20.934532 2.385149
v -2.529974 20.934532 -2.476571
v -2.421033 20.841105 2.385149
v -2.421031 20.841105 -2.476571
v -2.421033 20.934532 2.385149
v -2.421031 20.934532 -2.476571
v -2.529976 7.483314 2.385149
v -2.529974 7.483313 -2.476571
v -2.529976 7.576741 2.385149
v -2.529974 7.576739 -2.476571
v -2.421033 7.483314 2.385149
v -2.421031 7.483313 -2.476571
v -2.421033 7.576741 2.385149
v -2.421031 7.576739 -2.476571
v -2.529976 10.972321 2.385149
v -2.529974 10.972320 -2.476571
v -2.529976 11.065747 2.385149
v -2.529974 11.065746 -2.476571
v -2.421033 10.972321 2.385149
v -2.421031 10.972320 -2.476571
v -2.421033 11.065747 2.385149
v -2.421031 11.065746 -2.476571
v -2.529976 17.665024 2.385149
v -2.529974 17.665024 -2.476571
v -2.529976 17.758451 2.385149
v -2.529974 17.758451 -2.476571
v -2.421033 17.665024 2.385149
v -2.421031 17.665024 -2.476571
v -2.421033 17.758451 2.385149
v -2.421031 17.758451 -2.476571
v -2.529976 23.762138 2.385149
v -2.529974 23.762138 -2.476571
v -2.529976 23.855562 2.385149
v -2.529974 23.855562 -2.476571
v -2.421033 23.762138 2.385149
v -2.421031 23.762138 -2.476571
v -2.421033 23.855562 2.385149
v -2.421031 23.855562 -2.476571
v -2.529976 4.638515 2.385149
v -2.529974 4.638515 -2.476571
v -2.529976 4.731943 2.385149
v -2.529974 4.731943 -2.476571
v -2.421033 4.638515 2.385149
v -2.421031 4.638515 -2.476571
v -2.421033 4.731943 2.385149
v -2.421031 4.731943 -2.476571
v -2.529976 5.980898 2.385149
v -2.529974 5.980898 -2.476571
v -2.529976 6.074327 2.385149
v -2.529974 6.074327 -2.476571
v -2.421033 5.980898 2.385149
v -2.421031 5.980898 -2.476571
v -2.421033 6.074327 2.385149
v -2.421031 6.074327 -2.476571
v -2.529976 3.229774 2.385149
v -2.529974 3.229774 -2.476571
v -2.529976 3.323202 2.385149
v -2.529974 3.323202 -2.476571
v -2.421033 3.229774 2.385149
v -2.421031 3.229774 -2.476571
v -2.421033 3.323202 2.385149
v -2.421031 3.323202 -2.476571
v -2.529976 9.231322 2.385149
v -2.529974 9.231321 -2.476571
v -2.529976 9.324749 2.385149
v -2.529974 9.324748 -2.476571
v -2.421033 9.231322 2.385149
v -2.421031 9.231321 -2.476571
v -2.421033 9.324749 2.385149
v -2.421031 9.324748 -2.476571
v -2.529976 12.607656 2.385149
v -2.529974 12.607656 -2.476571
v -2.529976 12.701083 2.385149
v -2.529974 12.701082 -2.476571
v -2.421033 12.607656 2.385149
v -2.421031 12.607656 -2.476571
v -2.421033 12.701083 2.385149
v -2.421031 12.701082 -2.476571
v -2.529976 16.035696 2.385149
v -2.529974 16.035694 -2.476571
v -2.529976 16.129122 2.385149
v -2.529974 16.129122 -2.476571
v -2.421033 16.035696 2.385149
v -2.421031 16.035694 -2.476571
v -2.421033 16.129122 2.385149
v -2.421031 16.129122 -2.476571
v -2.529976 19.276424 2.385149
v -2.529974 19.276424 -2.476571
v -2.529976 19.369852 2.385149
v -2.529974 19.369852 -2.476571
v -2.421033 19.276424 2.385149
v -2.421031 19.276424 -2.476571
v -2.421033 19.369852 2.385149
v -2.421031 19.369852 -2.476571
v -2.529976 22.245375 2.385149
v -2.529974 22.245375 -2.476571
v -2.529976 22.338802 2.385149
v -2.529974 22.338802 -2.476571
v -2.421033 22.245375 2.385149
v -2.421031 22.245375 -2.476571
v -2.421033 22.338802 2.385149
v -2.421031 22.338802 -2.476571
v -2.397683 22.245375 -2.596440
v 2.464037 22.245375 -2.596438
v -2.397683 22.338802 -2.596440
v 2.464037 22.338802 -2.596438
v -2.397683 22.245375 -2.487497
v 2.464037 22.245375 -2.487495
v -2.397683 22.338802 -2.487497
v 2.464037 22.338802 -2.487495
v -2.397683 19.276424 -2.596440
v 2.464037 19.276424 -2.596438
v -2.397683 19.369852 -2.596440
v 2.464037 19.369852 -2.596438
v -2.397683 19.276424 -2.487497
v 2.464037 19.276424 -2.487495
v -2.397683 19.369852 -2.487497
v 2.464037 19.369852 -2.487495
v -2.397683 16.035696 -2.596440
v 2.464037 16.035694 -2.596438
v -2.397683 16.129122 -2.596440
v 2.464037 16.129122 -2.596438
v -2.397683 16.035696 -2.487497
v 2.464037 16.035694 -2.487495
v -2.397683 16.129122 -2.487497
v 2.464037 16.129122 -2.487495
v -2.397683 12.607656 -2.596440
v 2.464037 12.607656 -2.596438
v -2.397683 12.701083 -2.596440
v 2.464037 12.701082 -2.596438
v -2.397683 12.607656 -2.487497
v 2.464037 12.607656 -2.487495
v -2.397683 12.701083 -2.487497
v 2.464037 12.701082 -2.487495
v -2.397683 9.231322 -2.596440
v 2.464037 9.231321 -2.596438
v -2.397683 9.324749 -2.596440
v 2.464037 9.324748 -2.596438
v -2.397683 9.231322 -2.487497
v 2.464037 9.231321 -2.487495
v -2.397683 9.324749 -2.487497
v 2.464037 9.324748 -2.487495
v -2.397683 3.229774 -2.596440
v 2.464037 3.229774 -2.596438
v -2.397683 3.323202 -2.596440
v 2.464037 3.323202 -2.596438
v -2.397683 3.229774 -2.487497
v 2.464037 3.229774 -2.487495
v -2.397683 3.323202 -2.487497
v 2.464037 3.323202 -2.487495
v -2.397683 5.980898 -2.596440
v 2.464037 5.980898 -2.596438
v -2.397683 6.074327 -2.596440
v 2.464037 6.074327 -2.596438
v -2.397683 5.980898 -2.487497
v 2.464037 5.980898 -2.487495
v -2.397683 6.074327 -2.487497
v 2.464037 6.074327 -2.487495
v -2.397683 4.638515 -2.596440
v 2.464037 4.638515 -2.596438
v -2.397683 4.731943 -2.596440
v 2.464037 4.731943 -2.596438
v -2.397683 4.638515 -2.487497
v 2.464037 4.638515 -2.487495
v -2.397683 4.731943 -2.487497
v 2.464037 4.731943 -2.487495
v -2.397683 23.762138 -2.596440
v 2.464037 23.762138 -2.596438
v -2.397683 23.855562 -2.596440
v 2.464037 23.855562 -2.596438
v -2.397683 23.762138 -2.487497
v 2.464037 23.762138 -2.487495
v -2.397683 23.855562 -2.487497
v 2.464037 23.855562 -2.487495
v -2.397683 17.665024 -2.596440
v 2.464037 17.665024 -2.596438
v -2.397683 17.758451 -2.596440
v 2.464037 17.758451 -2.596438
v -2.397683 17.665024 -2.487497
v 2.464037 17.665024 -2.487495
v -2.397683 17.758451 -2.487497
v 2.464037 17.758451 -2.487495
v -2.397683 10.972321 -2.596440
v 2.464037 10.972320 -2.596438
v -2.397683 11.065747 -2.596440
v 2.464037 11.065746 -2.596438
v -2.397683 10.972321 -2.487497
v 2.464037 10.972320 -2.487495
v -2.397683 11.065747 -2.487497
v 2.464037 11.065746 -2.487495
v -2.397683 7.483315 -2.596440
v 2.464037 7.483314 -2.596438
v -2.397683 7.576742 -2.596440
v 2.464037 7.576741 -2.596438
v -2.397683 7.483315 -2.487497
v 2.464037 7.483314 -2.487495
v -2.397683 7.576742 -2.487497
v 2.464037 7.576741 -2.487495
v -2.397683 20.841105 -2.596440
v 2.464037 20.841105 -2.596438
v -2.397683 20.934532 -2.596440
v 2.464037 20.934532 -2.596438
v -2.397683 20.841105 -2.487497
v 2.464037 20.841105 -2.487495
v -2.397683 20.934532 -2.487497
v 2.464037 20.934532 -2.487495
v -2.397683 14.201804 -2.596440
v 2.464037 14.201803 -2.596438
v -2.397683 14.295231 -2.596440
v 2.464037 14.295230 -2.596438
v -2.397683 14.201804 -2.487497
v 2.464037 14.201803 -2.487495
v -2.397683 14.295231 -2.487497
v 2.464037 14.295230 -2.487495
v -0.546849 1.986209 -2.596439
v -0.546849 26.510824 -2.596439
v -0.640276 1.986209 -2.596439
v -0.640276 26.510824 -2.596439
v -0.546850 1.986209 -2.487496
v -0.546850 26.510824 -2.487496
v -0.640276 1.986209 -2.487496
v -0.640276 26.510824 -2.487496
v 0.789544 1.986209 -2.596439
v 0.789544 26.510824 -2.596439
v 0.696117 1.986209 -2.596439
v 0.696117 26.510824 -2.596439
v 0.789544 1.986209 -2.487496
v 0.789544 26.510824 -2.487496
v 0.696117 1.986209 -2.487496
v 0.696117 26.510824 -2.487496
v 1.913587 1.986209 -2.596439
v 1.913587 26.510824 -2.596439
v 1.820160 1.986209 -2.596439
v 1.820160 26.510824 -2.596439
v 1.913587 1.986209 -2.487496
v 1.913587 26.510824 -2.487496
v 1.820160 1.986209 -2.487496
v 1.820160 26.510824 -2.487496
v -1.816211 1.986209 -2.596439
v -1.816211 26.510824 -2.596439
v -1.909638 1.986209 -2.596439
v -1.909638 26.510824 -2.596439
v -1.816211 1.986209 -2.487496
v -1.816211 26.510824 -2.487496
v -1.909638 1.986209 -2.487496
v -1.909638 26.510824 -2.487496
v 1.404518 1.986209 -2.596439
v 1.404518 26.510824 -2.596439
v 1.311092 1.986209 -2.596439
v 1.311092 26.510824 -2.596439
v 1.404518 1.986209 -2.487496
v 1.404518 26.510824 -2.487496
v 1.311091 1.986209 -2.487496
v 1.311091 26.510824 -2.487496
v -1.210089 1.986209 -2.596439
v -1.210089 26.510824 -2.596439
v -1.303516 1.986209 -2.596439
v -1.303516 26.510824 -2.596439
v -1.210089 1.986209 -2.487496
v -1.210089 26.510824 -2.487496
v -1.303516 1.986209 -2.487496
v -1.303516 26.510824 -2.487496
v 0.080953 1.986209 -2.596439
v 0.080953 26.510824 -2.596439
v -0.012474 1.986209 -2.596439
v -0.012474 26.510824 -2.596439
v 0.080953 1.986209 -2.487496
v 0.080953 26.510824 -2.487496
v -0.012474 1.986209 -2.487496
v -0.012474 26.510824 -2.487496
v 2.454239 1.986209 -2.542686
v 2.454239 26.510826 -2.542686
v -2.385760 1.986209 -2.542688
v -2.385760 26.510826 -2.542688
v 2.454239 1.986209 -2.433743
v 2.454239 26.510826 -2.433743
v -2.385760 1.986209 -2.433745
v -2.385760 26.510826 -2.433745
v 2.467250 1.420439 -2.477922
v 2.467250 -0.018125 -2.477922
v -2.532600 1.420439 -2.477924
v -2.532600 -0.018125 -2.477924
v 2.467247 1.420439 2.482296
v 2.467247 -0.018125 2.482296
v -2.532602 1.420439 2.482293
v -2.532602 -0.018125 2.482293
v 2.095377 -0.015070 2.499551
v 2.095377 1.998984 2.499551
v 2.095377 -0.015070 2.137492
v 2.095377 1.998984 2.137492
v 2.482547 -0.015070 2.499551
v 2.482547 1.998984 2.499551
v 2.482547 -0.015070 2.137492
v 2.482547 1.998984 2.137492
v 2.095377 -0.015070 -2.118606
v 2.095377 1.998984 -2.118606
v 2.095377 -0.015070 -2.480665
v 2.095377 1.998984 -2.480665
v 2.482547 -0.015070 -2.118606
v 2.482547 1.998984 -2.118606
v 2.482547 -0.015070 -2.480665
v 2.482547 1.998984 -2.480665
v -2.548931 -0.015070 -2.118606
v -2.548931 1.998984 -2.118606
v -2.548931 -0.015070 -2.480665
v -2.548931 1.998984 -2.480665
v -2.161761 -0.015070 -2.118606
v -2.161761 1.998984 -2.118606
v -2.161761 -0.015070 -2.480665
v -2.161761 1.998984 -2.480665
v -2.546312 -0.015070 2.496122
v -2.546312 1.998984 2.496122
v -2.546312 -0.015070 2.134063
v -2.546312 1.998984 2.134063
v -2.159143 -0.015070 2.496122
v -2.159143 1.998984 2.496122
v -2.159143 -0.015070 2.134063
v -2.159143 1.998984 2.134063
v -1.033351 -0.016343 2.561271
v -1.033351 0.991940 2.561271
v -1.033351 -0.016343 2.467006
v -1.033351 0.991940 2.467006
v 0.966649 -0.016343 2.561271
v 0.966649 0.991940 2.561271
v 0.966649 -0.016343 2.467006
v 0.966649 0.991940 2.467006
v -1.033351 -0.016343 2.514139
v -1.033351 0.487798 2.561271
v -1.033351 0.991940 2.514139
v -1.033351 0.487798 2.467006
v -0.033351 -0.016343 2.467006
v -0.033351 0.991940 2.467006
v 0.966649 0.487798 2.467006
v 0.966649 -0.016343 2.514139
v 0.966649 0.991940 2.514139
v 0.966649 0.487798 2.561271
v -0.033351 -0.016343 2.482887
v -0.033351 0.991940 2.561271
v -0.033351 0.991940 2.514139
v -0.033351 -0.016343 2.435755
v -0.033351 0.487798 2.482887
v 0.966649 0.487798 2.514139
v -0.033351 0.487798 2.467006
v -1.033351 0.487798 2.514139
v -1.033351 -0.016343 2.537705
v -1.033351 0.739870 2.561271
v -1.033351 0.991940 2.490572
v -1.033351 0.235726 2.467006
v -0.533351 -0.016343 2.467006
v 0.466649 0.991940 2.467006
v 0.966649 0.235726 2.467006
v 0.966649 -0.016343 2.490572
v 0.966649 0.991940 2.537705
v 0.966649 0.235726 2.561271
v 0.466649 -0.016343 2.482887
v -0.533351 0.991940 2.561271
v -1.033351 -0.016343 2.490572
v -1.033351 0.235726 2.561271
v -1.033351 0.991940 2.537705
v -1.033351 0.739870 2.467006
v 0.466649 -0.016343 2.467006
v -0.533351 0.991940 2.467006
v 0.966649 0.739870 2.467006
v 0.966649 -0.016343 2.537705
v 0.966649 0.991940 2.490572
v 0.966649 0.739870 2.561271
v -0.533351 -0.016343 2.482887
v 0.466649 0.991940 2.561271
v -0.033351 0.991940 2.537705
v -0.033351 0.991940 2.490572
v 0.466649 0.991940 2.514139
v -0.533351 0.991940 2.514139
v -0.033351 -0.016343 2.459321
v -0.033351 -0.016343 2.490572
v -0.533351 -0.016343 2.514139
v 0.466649 -0.016343 2.435755
v -0.533351 0.487798 2.482887
v 0.466649 0.487798 2.482887
v -0.033351 0.235726 2.482887
v -0.033351 0.739870 2.482887
v 0.966649 0.487798 2.537705
v 0.966649 0.487798 2.490572
v 0.966649 0.235726 2.514139
v 0.966649 0.739870 2.514139
v 0.466649 0.487798 2.467006
v -0.533351 0.487798 2.467006
v -0.033351 0.235726 2.467006
v -0.033351 0.739870 2.467006
v -1.033351 0.487798 2.490572
v -1.033351 0.487798 2.537705
v -1.033351 0.235726 2.514139
v -1.033351 0.739870 2.514139
v -1.033351 0.739870 2.537705
v -1.033351 0.235726 2.537705
v -1.033351 0.235726 2.490572
v -0.533351 0.739870 2.467006
v -0.533351 0.235726 2.467006
v 0.466649 0.235726 2.467006
v 0.966649 0.739870 2.490572
v 0.966649 0.235726 2.490572
v 0.966649 0.235726 2.537705
v 0.466649 0.739870 2.482887
v 0.466649 0.235726 2.482887
v -0.533351 0.235726 2.482887
v 0.466649 -0.016343 2.490572
v -0.533351 -0.016343 2.490572
v -0.533351 -0.016343 2.459321
v -0.533351 0.991940 2.490572
v 0.466649 0.991940 2.490572
v 0.466649 0.991940 2.537705
v -0.533351 0.991940 2.537705
v 0.466649 -0.016343 2.459321
v -0.533351 0.739870 2.482887
v 0.966649 0.739870 2.537705
v 0.466649 0.739870 2.467006
v -1.033351 0.739870 2.490572
v -1.033351 -0.016343 2.549488
v -1.033351 0.865905 2.561271
v -1.033351 0.991940 2.478789
v -1.033351 0.109692 2.467006
v -0.783351 -0.016343 2.467006
v 0.716649 0.991940 2.467006
v 0.966649 0.109692 2.467006
v 0.966649 -0.016343 2.478789
v 0.966649 0.991940 2.549488
v 0.966649 0.109692 2.561271
v 0.716649 -0.016343 2.561271
v -0.783351 0.991940 2.561271
v -1.033351 -0.016343 2.502356
v -1.033351 0.361763 2.561271
v -1.033351 0.991940 2.525922
v -1.033351 0.613832 2.467006
v 0.216649 -0.016343 2.467006
v -0.283351 0.991940 2.467006
v 0.966649 0.613832 2.467006
v 0.966649 -0.016343 2.525922
v 0.966649 0.991940 2.502356
v 0.966649 0.613832 2.561271
v -0.283351 -0.016343 2.482887
v 0.216649 0.991940 2.561271
v -0.033351 0.991940 2.549488
v -0.033351 0.991940 2.502356
v 0.716649 0.991940 2.514139
v -0.283351 0.991940 2.514139
v -0.033351 -0.016343 2.549488
v -0.033351 -0.016343 2.502356
v -0.783351 -0.016343 2.514139
v 0.216649 -0.016343 2.514139
v -0.783351 0.487798 2.561271
v 0.216649 0.487798 2.482887
v -0.033351 0.109692 2.482887
v -0.033351 0.613832 2.482887
v 0.966649 0.487798 2.549488
v 0.966649 0.487798 2.502356
v 0.966649 0.109692 2.514139
v 0.966649 0.613832 2.514139
v 0.716649 0.487798 2.467006
v -0.283351 0.487798 2.467006
v -0.033351 0.109692 2.467006
v -0.033351 0.613832 2.467006
v -1.033351 0.487798 2.478789
v -1.033351 0.487798 2.525922
v -1.033351 0.109692 2.514139
v -1.033351 0.613832 2.514139
v -1.033351 -0.016343 2.525922
v -1.033351 0.613832 2.561271
v -1.033351 0.991940 2.502356
v -1.033351 0.361763 2.467006
v -0.283351 -0.016343 2.467006
v 0.216649 0.991940 2.467006
v 0.966649 0.361763 2.467006
v 0.966649 -0.016343 2.502356
v 0.966649 0.991940 2.525922
v 0.966649 0.361763 2.561271
v 0.216649 -0.016343 2.482887
v -0.283351 0.991940 2.561271
v -1.033351 -0.016343 2.478789
v -1.033351 0.109692 2.561271
v -1.033351 0.991940 2.549488
v -1.033351 0.865905 2.467006
v 0.716649 -0.016343 2.467006
v -0.783351 0.991940 2.467006
v 0.966649 0.865905 2.467006
v 0.966649 -0.016343 2.549488
v 0.966649 0.991940 2.478789
v 0.966649 0.865905 2.561271
v -0.783351 -0.016343 2.561271
v 0.716649 0.991940 2.561271
v -0.033351 0.991940 2.525922
v -0.033351 0.991940 2.478789
v 0.216649 0.991940 2.514139
v -0.783351 0.991940 2.514139
v -0.033351 -0.016343 2.525922
v -0.033351 -0.016343 2.478789
v -0.283351 -0.016343 2.514139
v 0.716649 -0.016343 2.514139
v -0.283351 0.487798 2.482887
v 0.716649 0.487798 2.561271
v -0.033351 0.361763 2.482887
v -0.033351 0.865905 2.561271
v 0.966649 0.487798 2.525922
v 0.966649 0.487798 2.478789
v 0.966649 0.361763 2.514139
v 0.966649 0.865905 2.514139
v 0.216649 0.487798 2.467006
v -0.783351 0.487798 2.467006
v -0.033351 0.361763 2.467006
v -0.033351 0.865905 2.467006
v -1.033351 0.487798 2.502356
v -1.033351 0.487798 2.549488
v -1.033351 0.361763 2.514139
v -1.033351 0.865905 2.514139
v -1.033351 0.739870 2.525922
v -1.033351 0.739870 2.549488
v -1.033351 0.613832 2.537705
v -1.033351 0.865905 2.537705
v -1.033351 0.235726 2.525922
v -1.033351 0.235726 2.549488
v -1.033351 0.109692 2.537705
v -1.033351 0.361763 2.537705
v -1.033351 0.235726 2.478789
v -1.033351 0.235726 2.502356
v -1.033351 0.109692 2.490572
v -1.033351 0.361763 2.490572
v -0.283351 0.739870 2.467006
v -0.783351 0.739870 2.467006
v -0.533351 0.613832 2.467006
v -0.533351 0.865905 2.467006
v -0.283351 0.235726 2.467006
v -0.783351 0.235726 2.467006
v -0.533351 0.109692 2.467006
v -0.533351 0.361763 2.467006
v 0.716649 0.235726 2.467006
v 0.216649 0.235726 2.467006
v 0.466649 0.109692 2.467006
v 0.466649 0.361763 2.467006
v 0.966649 0.739870 2.502356
v 0.966649 0.739870 2.478789
v 0.966649 0.613832 2.490572
v 0.966649 0.865905 2.490572
v 0.966649 0.235726 2.502356
v 0.966649 0.235726 2.478789
v 0.966649 0.109692 2.490572
v 0.966649 0.361763 2.490572
v 0.966649 0.235726 2.549488
v 0.966649 0.235726 2.525922
v 0.966649 0.109692 2.537705
v 0.966649 0.361763 2.537705
v 0.216649 0.739870 2.482887
v 0.716649 0.739870 2.561271
v 0.466649 0.613832 2.482887
v 0.466649 0.865905 2.561271
v 0.216649 0.235726 2.482887
v 0.716649 0.235726 2.561271
v 0.466649 0.109692 2.482887
v 0.466649 0.361763 2.482887
v -0.783351 0.235726 2.561271
v -0.283351 0.235726 2.482887
v -0.533351 0.109692 2.482887
v -0.533351 0.361763 2.482887
v 0.466649 -0.016343 2.502356
v 0.466649 -0.016343 2.478789
v 0.216649 -0.016343 2.490572
v 0.716649 -0.016343 2.490572
v -0.533351 -0.016343 2.502356
v -0.533351 -0.016343 2.478789
v -0.783351 -0.016343 2.490572
v -0.283351 -0.016343 2.490572
v -0.533351 -0.016343 2.549488
v -0.533351 -0.016343 2.525922
v -0.783351 -0.016343 2.537705
v -0.283351 -0.016343 2.537705
v -0.533351 0.991940 2.502356
v -0.533351 0.991940 2.478789
v -0.283351 0.991940 2.490572
v -0.783351 0.991940 2.490572
v 0.466649 0.991940 2.502356
v 0.466649 0.991940 2.478789
v 0.716649 0.991940 2.490572
v 0.216649 0.991940 2.490572
v 0.466649 0.991940 2.549488
v 0.466649 0.991940 2.525922
v 0.716649 0.991940 2.537705
v 0.216649 0.991940 2.537705
v -0.533351 0.991940 2.549488
v -0.533351 0.991940 2.525922
v -0.283351 0.991940 2.537705
v -0.783351 0.991940 2.537705
v 0.466649 -0.016343 2.549488
v 0.466649 -0.016343 2.525922
v 0.216649 -0.016343 2.459321
v 0.716649 -0.016343 2.537705
v -0.783351 0.739870 2.561271
v -0.283351 0.739870 2.482887
v -0.533351 0.613832 2.482887
v -0.533351 0.865905 2.561271
v 0.966649 0.739870 2.549488
v 0.966649 0.739870 2.525922
v 0.966649 0.613832 2.537705
v 0.966649 0.865905 2.537705
v 0.716649 0.739870 2.467006
v 0.216649 0.739870 2.467006
v 0.466649 0.613832 2.467006
v 0.466649 0.865905 2.467006
v -1.033351 0.739870 2.478789
v -1.033351 0.739870 2.502356
v -1.033351 0.613832 2.490572
v -1.033351 0.865905 2.490572
v -1.033351 0.865905 2.502356
v -1.033351 0.613832 2.502356
v -1.033351 0.613832 2.478789
v 0.216649 0.865905 2.467006
v 0.216649 0.613832 2.467006
v 0.716649 0.613832 2.467006
v 0.966649 0.865905 2.525922
v 0.966649 0.613832 2.525922
v 0.966649 0.613832 2.549488
v -0.283351 0.865905 2.561271
v -0.283351 0.613832 2.482887
v -0.783351 0.613832 2.561271
v 0.716649 -0.016343 2.525922
v 0.216649 -0.016343 2.525922
v 0.216649 -0.016343 2.549488
v -0.783351 0.991940 2.525922
v -0.283351 0.991940 2.525922
v -0.283351 0.991940 2.549488
v 0.216649 0.991940 2.525922
v 0.716649 0.991940 2.525922
v 0.716649 0.991940 2.549488
v 0.216649 0.991940 2.478789
v 0.716649 0.991940 2.478789
v 0.716649 0.991940 2.502356
v -0.783351 0.991940 2.478789
v -0.283351 0.991940 2.478789
v -0.283351 0.991940 2.502356
v -0.283351 -0.016343 2.525922
v -0.783351 -0.016343 2.525922
v -0.783351 -0.016343 2.549488
v -0.283351 -0.016343 2.478789
v -0.783351 -0.016343 2.478789
v -0.783351 -0.016343 2.502356
v 0.716649 -0.016343 2.478789
v 0.216649 -0.016343 2.478789
v 0.216649 -0.016343 2.502356
v -0.283351 0.361763 2.482887
v -0.283351 0.109692 2.482887
v -0.783351 0.109692 2.561271
v 0.716649 0.361763 2.561271
v 0.716649 0.109692 2.561271
v 0.216649 0.109692 2.482887
v 0.716649 0.865905 2.561271
v 0.716649 0.613832 2.561271
v 0.216649 0.613832 2.482887
v 0.966649 0.361763 2.525922
v 0.966649 0.109692 2.525922
v 0.966649 0.109692 2.549488
v 0.966649 0.361763 2.478789
v 0.966649 0.109692 2.478789
v 0.966649 0.109692 2.502356
v 0.966649 0.865905 2.478789
v 0.966649 0.613832 2.478789
v 0.966649 0.613832 2.502356
v 0.216649 0.361763 2.467006
v 0.216649 0.109692 2.467006
v 0.716649 0.109692 2.467006
v -0.783351 0.361763 2.467006
v -0.783351 0.109692 2.467006
v -0.283351 0.109692 2.467006
v -0.783351 0.865905 2.467006
v -0.783351 0.613832 2.467006
v -0.283351 0.613832 2.467006
v -1.033351 0.361763 2.502356
v -1.033351 0.109692 2.502356
v -1.033351 0.109692 2.478789
v -1.033351 0.361763 2.549488
v -1.033351 0.109692 2.549488
v -1.033351 0.109692 2.525922
v -1.033351 0.865905 2.549488
v -1.033351 0.613832 2.549488
v -1.033351 0.613832 2.525922
v -1.033351 0.865905 2.525922
v -1.033351 0.361763 2.525922
v -1.033351 0.361763 2.478789
v -0.283351 0.865905 2.467006
v -0.283351 0.361763 2.467006
v 0.716649 0.361763 2.467006
v 0.966649 0.865905 2.502356
v 0.966649 0.361763 2.502356
v 0.966649 0.361763 2.549488
v 0.216649 0.865905 2.561271
v 0.216649 0.361763 2.482887
v -0.783351 0.361763 2.561271
v 0.716649 -0.016343 2.502356
v -0.283351 -0.016343 2.502356
v -0.283351 -0.016343 2.471104
v -0.783351 0.991940 2.502356
v 0.216649 0.991940 2.502356
v 0.216649 0.991940 2.549488
v -0.783351 0.991940 2.549488
v 0.716649 -0.016343 2.549488
v -0.783351 0.865905 2.561271
v 0.966649 0.865905 2.549488
v 0.716649 0.865905 2.467006
v -1.033351 0.865905 2.478789
vn -1.0000 -0.0000 -0.0000
vn -0.0000 -0.0000 -1.0000
vn 1.0000 -0.0000 -0.0000
vn -0.0000 -0.0000 1.0000
vn -0.0000 -1.0000 -0.0000
vn -0.0000 1.0000 -0.0000
vn 0.0980 -0.0000 -0.9952
vn 0.2903 -0.0000 -0.9569
vn 0.4714 -0.0000 -0.8819
vn 0.6344 -0.0000 -0.7730
vn 0.7730 -0.0000 -0.6344
vn 0.8819 -0.0000 -0.4714
vn 0.9569 -0.0000 -0.2903
vn 0.9952 -0.0000 -0.0980
vn 0.9952 -0.0000 0.0980
vn 0.9569 -0.0000 0.2903
vn 0.8819 -0.0000 0.4714
vn 0.7730 -0.0000 0.6344
vn 0.6344 -0.0000 0.7730
vn 0.4714 -0.0000 0.8819
vn 0.2903 -0.0000 0.9569
vn 0.0980 -0.0000 0.9952
vn -0.0980 -0.0000 0.9952
vn -0.2903 -0.0000 0.9569
vn -0.4714 -0.0000 0.8819
vn -0.6344 -0.0000 0.7730
vn -0.7730 -0.0000 0.6344
vn -0.8819 -0.0000 0.4714
vn -0.9569 -0.0000 0.2903
vn -0.9952 -0.0000 0.0980
vn -0.9952 -0.0000 -0.0980
vn -0.9569 -0.0000 -0.2903
vn -0.8819 -0.0000 -0.4714
vn -0.7730 -0.0000 -0.6344
vn -0.6344 -0.0000 -0.7730
vn -0.4714 -0.0000 -0.8819
vn -0.2903 -0.0000 -0.9569
vn -0.0980 -0.0000 -0.9952
vn 0.1205 0.0272 -0.9923
vn 0.3545 0.0272 -0.9347
vn 0.5679 0.0272 -0.8227
vn 0.7482 0.0272 -0.6629
vn 0.8851 0.0272 -0.4646
vn 0.9706 0.0272 -0.2392
vn 0.9996 0.0272 -0.0000
vn 0.9706 0.0272 0.2392
vn 0.8851 0.0272 0.4646
vn 0.7482 0.0272 0.6629
vn 0.5679 0.0272 0.8227
vn 0.3545 0.0272 0.9347
vn 0.1205 0.0272 0.9923
vn -0.1205 0.0272 0.9923
vn -0.3545 0.0272 0.9347
vn -0.5679 0.0272 0.8227
vn -0.7482 0.0272 0.6629
vn -0.8851 0.0272 0.4645
vn -0.9706 0.0272 0.2392
vn -0.9996 0.0272 -0.0000
vn -0.9706 0.0272 -0.2392
vn -0.8851 0.0272 -0.4645
vn -0.7482 0.0272 -0.6629
vn -0.5679 0.0272 -0.8227
vn -0.3545 0.0272 -0.9347
vn -0.1205 0.0272 -0.9923
vn -0.2992 -0.0000 0.9542
vn -0.0000 -0.5281 0.8492
vn 0.2992 -0.0000 0.9542
vn -0.1480 -0.2937 0.9444
vn 0.0001 -1.0000 -0.0000
vn -0.0001 -1.0000 -0.0000
vn 0.1480 -0.2937 0.9444
vt 0.375000 0.000000
vt 0.625000 0.000000
vt 0.625000 0.250000
vt 0.375000 0.250000
vt 0.625000 0.500000
vt 0.375000 0.500000
vt 0.625000 0.750000
vt 0.375000 0.750000
vt 0.625000 1.000000
vt 0.375000 1.000000
vt 0.125000 0.500000
vt 0.125000 0.750000
vt 0.875000 0.500000
vt 0.875000 0.750000
vt 1.000000 0.500000
vt 1.000000 1.000000
vt 0.968750 1.000000
vt 0.968750 0.500000
vt 0.937500 1.000000
vt 0.937500 0.500000
vt 0.906250 1.000000
vt 0.906250 0.500000
vt 0.875000 1.000000
vt 0.843750 1.000000
vt 0.843750 0.500000
vt 0.812500 1.000000
vt 0.812500 0.500000
vt 0.781250 1.000000
vt 0.781250 0.500000
vt 0.750000 1.000000
vt 0.750000 0.500000
vt 0.718750 1.000000
vt 0.718750 0.500000
vt 0.687500 1.000000
vt 0.687500 0.500000
vt 0.656250 1.000000
vt 0.656250 0.500000
vt 0.593750 1.000000
vt 0.593750 0.500000
vt 0.562500 1.000000
vt 0.562500 0.500000
vt 0.531250 1.000000
vt 0.531250 0.500000
vt 0.500000 1.000000
vt 0.500000 0.500000
vt 0.468750 1.000000
vt 0.468750 0.500000
vt 0.437500 1.000000
vt 0.437500 0.500000
vt 0.406250 1.000000
vt 0.406250 0.500000
vt 0.343750 1.000000
vt 0.343750 0.500000
vt 0.312500 1.000000
vt 0.312500 0.500000
vt 0.281250 1.000000
vt 0.281250 0.500000
vt 0.250000 1.000000
vt 0.250000 0.500000
vt 0.218750 1.000000
vt 0.218750 0.500000
vt 0.187500 1.000000
vt 0.187500 0.500000
vt 0.156250 1.000000
vt 0.156250 0.500000
vt 0.125000 1.000000
vt 0.093750 1.000000
vt 0.093750 0.500000
vt 0.062500 1.000000
vt 0.062500 0.500000
vt 0.296822 0.485388
vt 0.250000 0.490000
vt 0.203178 0.485388
vt 0.158156 0.471731
vt 0.116663 0.449553
vt 0.080294 0.419706
vt 0.050447 0.383337
vt 0.028269 0.341844
vt 0.014612 0.296822
vt 0.010000 0.250000
vt 0.014612 0.203178
vt 0.028269 0.158156
vt 0.050447 0.116663
vt 0.080294 0.080294
vt 0.116663 0.050447
vt 0.158156 0.028269
vt 0.203178 0.014612
vt 0.250000 0.010000
vt 0.296822 0.014612
vt 0.341844 0.028269
vt 0.383337 0.050447
vt 0.419706 0.080294
vt 0.449553 0.116663
vt 0.471731 0.158156
vt 0.485388 0.203178
vt 0.490000 0.250000
vt 0.485388 0.296822
vt 0.471731 0.341844
vt 0.449553 0.383337
vt 0.419706 0.419706
vt 0.383337 0.449553
vt 0.341844 0.471731
vt 0.031250 1.000000
vt 0.031250 0.500000
vt 0.000000 1.000000
vt 0.000000 0.500000
vt 0.750000 0.490000
vt 0.796822 0.485388
vt 0.841844 0.471731
vt 0.883337 0.449553
vt 0.919706 0.419706
vt 0.949553 0.383337
vt 0.971731 0.341844
vt 0.985388 0.296822
vt 0.990000 0.250000
vt 0.985388 0.203178
vt 0.971731 0.158156
vt 0.949553 0.116663
vt 0.919706 0.080294
vt 0.883337 0.050447
vt 0.841844 0.028269
vt 0.796822 0.014612
vt 0.750000 0.010000
vt 0.703178 0.014612
vt 0.658156 0.028269
vt 0.616663 0.050447
vt 0.580294 0.080294
vt 0.550447 0.116663
vt 0.528269 0.158156
vt 0.514612 0.203178
vt 0.510000 0.250000
vt 0.514612 0.296822
vt 0.528269 0.341844
vt 0.550447 0.383337
vt 0.580294 0.419706
vt 0.616663 0.449553
vt 0.658156 0.471731
vt 0.703178 0.485388
vt 0.961538 1.000000
vt 0.961538 0.500000
vt 0.923077 1.000000
vt 0.923077 0.500000
vt 0.884615 1.000000
vt 0.884615 0.500000
vt 0.846154 1.000000
vt 0.846154 0.500000
vt 0.807692 1.000000
vt 0.807692 0.500000
vt 0.769231 1.000000
vt 0.769231 0.500000
vt 0.730769 1.000000
vt 0.730769 0.500000
vt 0.692307 1.000000
vt 0.692307 0.500000
vt 0.653846 1.000000
vt 0.653846 0.500000
vt 0.615384 1.000000
vt 0.615384 0.500000
vt 0.576923 1.000000
vt 0.576923 0.500000
vt 0.538461 1.000000
vt 0.538461 0.500000
vt 0.500000 1.000000
vt 0.500000 0.500000
vt 0.461538 1.000000
vt 0.461538 0.500000
vt 0.423077 1.000000
vt 0.423077 0.500000
vt 0.384615 1.000000
vt 0.384615 0.500000
vt 0.346154 1.000000
vt 0.346154 0.500000
vt 0.307692 1.000000
vt 0.307692 0.500000
vt 0.269230 1.000000
vt 0.269230 0.500000
vt 0.230769 1.000000
vt 0.230769 0.500000
vt 0.192307 1.000000
vt 0.192307 0.500000
vt 0.153846 1.000000
vt 0.153846 0.500000
vt 0.115384 1.000000
vt 0.115384 0.500000
vt 0.076923 1.000000
vt 0.076923 0.500000
vt 0.307436 0.483026
vt 0.192564 0.483026
vt 0.138466 0.462509
vt 0.090851 0.429643
vt 0.052484 0.386336
vt 0.025596 0.335105
vt 0.011750 0.278929
vt 0.011750 0.221071
vt 0.025596 0.164895
vt 0.052484 0.113664
vt 0.090851 0.070357
vt 0.138466 0.037491
vt 0.192564 0.016974
vt 0.307436 0.016974
vt 0.361534 0.037491
vt 0.409149 0.070357
vt 0.447516 0.113664
vt 0.474404 0.164895
vt 0.488250 0.221071
vt 0.488250 0.278929
vt 0.474404 0.335105
vt 0.447516 0.386336
vt 0.409149 0.429643
vt 0.361534 0.462509
vt 0.038461 1.000000
vt 0.038461 0.500000
vt -0.000000 1.000000
vt -0.000000 0.500000
vt 0.807436 0.483026
vt 0.861534 0.462509
vt 0.909149 0.429643
vt 0.947516 0.386336
vt 0.974404 0.335105
vt 0.988250 0.278929
vt 0.988250 0.221071
vt 0.974404 0.164895
vt 0.947516 0.113664
vt 0.909149 0.070357
vt 0.861534 0.037491
vt 0.807436 0.016974
vt 0.692564 0.016974
vt 0.638466 0.037491
vt 0.590851 0.070357
vt 0.552484 0.113664
vt 0.525596 0.164895
vt 0.511750 0.221071
vt 0.511750 0.278929
vt 0.525596 0.335105
vt 0.552484 0.386336
vt 0.590851 0.429643
vt 0.638466 0.462509
vt 0.692564 0.483026
vt 0.593750 0.218750
vt 0.625000 0.218750
vt 0.593750 0.250000
vt 0.593750 0.468750
vt 0.625000 0.468750
vt 0.593750 0.718750
vt 0.625000 0.718750
vt 0.593750 0.750000
vt 0.593750 0.968750
vt 0.625000 0.968750
vt 0.343750 0.718750
vt 0.375000 0.718750
vt 0.343750 0.750000
vt 0.843750 0.718750
vt 0.875000 0.718750
vt 0.843750 0.750000
vt 0.718750 0.718750
vt 0.750000 0.718750
vt 0.750000 0.750000
vt 0.718750 0.750000
vt 0.718750 0.593750
vt 0.750000 0.593750
vt 0.750000 0.625000
vt 0.718750 0.625000
vt 0.843750 0.593750
vt 0.875000 0.593750
vt 0.875000 0.625000
vt 0.843750 0.625000
vt 0.218750 0.718750
vt 0.250000 0.718750
vt 0.250000 0.750000
vt 0.218750 0.750000
vt 0.218750 0.593750
vt 0.250000 0.593750
vt 0.250000 0.625000
vt 0.218750 0.625000
vt 0.343750 0.593750
vt 0.375000 0.593750
vt 0.375000 0.625000
vt 0.343750 0.625000
vt 0.468750 0.968750
vt 0.500000 0.968750
vt 0.468750 0.843750
vt 0.500000 0.843750
vt 0.500000 0.875000
vt 0.468750 0.875000
vt 0.593750 0.843750
vt 0.625000 0.843750
vt 0.625000 0.875000
vt 0.593750 0.875000
vt 0.468750 0.718750
vt 0.500000 0.718750
vt 0.500000 0.750000
vt 0.468750 0.750000
vt 0.468750 0.593750
vt 0.500000 0.593750
vt 0.500000 0.625000
vt 0.468750 0.625000
vt 0.593750 0.593750
vt 0.625000 0.593750
vt 0.625000 0.625000
vt 0.593750 0.625000
vt 0.468750 0.468750
vt 0.500000 0.468750
vt 0.468750 0.343750
vt 0.500000 0.343750
vt 0.500000 0.375000
vt 0.468750 0.375000
vt 0.593750 0.343750
vt 0.625000 0.343750
vt 0.625000 0.375000
vt 0.593750 0.375000
vt 0.468750 0.218750
vt 0.500000 0.218750
vt 0.500000 0.250000
vt 0.468750 0.250000
vt 0.468750 0.093750
vt 0.500000 0.093750
vt 0.500000 0.125000
vt 0.468750 0.125000
vt 0.593750 0.093750
vt 0.625000 0.093750
vt 0.625000 0.125000
vt 0.593750 0.125000
vt 0.531250 0.093750
vt 0.562500 0.093750
vt 0.562500 0.125000
vt 0.531250 0.125000
vt 0.531250 0.031250
vt 0.562500 0.031250
vt 0.562500 0.062500
vt 0.531250 0.062500
vt 0.593750 0.031250
vt 0.625000 0.031250
vt 0.625000 0.062500
vt 0.593750 0.062500
vt 0.406250 0.093750
vt 0.437500 0.093750
vt 0.437500 0.125000
vt 0.406250 0.125000
vt 0.406250 0.031250
vt 0.437500 0.031250
vt 0.437500 0.062500
vt 0.406250 0.062500
vt 0.468750 0.031250
vt 0.500000 0.031250
vt 0.500000 0.062500
vt 0.468750 0.062500
vt 0.406250 0.218750
vt 0.437500 0.218750
vt 0.437500 0.250000
vt 0.406250 0.250000
vt 0.406250 0.156250
vt 0.437500 0.156250
vt 0.437500 0.187500
vt 0.406250 0.187500
vt 0.468750 0.156250
vt 0.500000 0.156250
vt 0.500000 0.187500
vt 0.468750 0.187500
vt 0.531250 0.343750
vt 0.562500 0.343750
vt 0.562500 0.375000
vt 0.531250 0.375000
vt 0.531250 0.281250
vt 0.562500 0.281250
vt 0.562500 0.312500
vt 0.531250 0.312500
vt 0.593750 0.281250
vt 0.625000 0.281250
vt 0.625000 0.312500
vt 0.593750 0.312500
vt 0.406250 0.343750
vt 0.437500 0.343750
vt 0.437500 0.375000
vt 0.406250 0.375000
vt 0.406250 0.281250
vt 0.437500 0.281250
vt 0.437500 0.312500
vt 0.406250 0.312500
vt 0.468750 0.281250
vt 0.500000 0.281250
vt 0.500000 0.312500
vt 0.468750 0.312500
vt 0.406250 0.468750
vt 0.437500 0.468750
vt 0.406250 0.406250
vt 0.437500 0.406250
vt 0.437500 0.437500
vt 0.406250 0.437500
vt 0.468750 0.406250
vt 0.500000 0.406250
vt 0.500000 0.437500
vt 0.468750 0.437500
vt 0.531250 0.593750
vt 0.562500 0.593750
vt 0.562500 0.625000
vt 0.531250 0.625000
vt 0.531250 0.531250
vt 0.562500 0.531250
vt 0.562500 0.562500
vt 0.531250 0.562500
vt 0.593750 0.531250
vt 0.625000 0.531250
vt 0.625000 0.562500
vt 0.593750 0.562500
vt 0.406250 0.593750
vt 0.437500 0.593750
vt 0.437500 0.625000
vt 0.406250 0.625000
vt 0.406250 0.531250
vt 0.437500 0.531250
vt 0.437500 0.562500
vt 0.406250 0.562500
vt 0.468750 0.531250
vt 0.500000 0.531250
vt 0.500000 0.562500
vt 0.468750 0.562500
vt 0.406250 0.718750
vt 0.437500 0.718750
vt 0.437500 0.750000
vt 0.406250 0.750000
vt 0.406250 0.656250
vt 0.437500 0.656250
vt 0.437500 0.687500
vt 0.406250 0.687500
vt 0.468750 0.656250
vt 0.500000 0.656250
vt 0.500000 0.687500
vt 0.468750 0.687500
vt 0.531250 0.843750
vt 0.562500 0.843750
vt 0.562500 0.875000
vt 0.531250 0.875000
vt 0.531250 0.781250
vt 0.562500 0.781250
vt 0.562500 0.812500
vt 0.531250 0.812500
vt 0.593750 0.781250
vt 0.625000 0.781250
vt 0.625000 0.812500
vt 0.593750 0.812500
vt 0.406250 0.843750
vt 0.437500 0.843750
vt 0.437500 0.875000
vt 0.406250 0.875000
vt 0.406250 0.781250
vt 0.437500 0.781250
vt 0.437500 0.812500
vt 0.406250 0.812500
vt 0.468750 0.781250
vt 0.500000 0.781250
vt 0.500000 0.812500
vt 0.468750 0.812500
vt 0.406250 0.968750
vt 0.437500 0.968750
vt 0.406250 0.906250
vt 0.437500 0.906250
vt 0.437500 0.937500
vt 0.406250 0.937500
vt 0.468750 0.906250
vt 0.500000 0.906250
vt 0.500000 0.937500
vt 0.468750 0.937500
vt 0.281250 0.593750
vt 0.312500 0.593750
vt 0.312500 0.625000
vt 0.281250 0.625000
vt 0.281250 0.531250
vt 0.312500 0.531250
vt 0.312500 0.562500
vt 0.281250 0.562500
vt 0.343750 0.531250
vt 0.375000 0.531250
vt 0.375000 0.562500
vt 0.343750 0.562500
vt 0.156250 0.593750
vt 0.187500 0.593750
vt 0.187500 0.625000
vt 0.156250 0.625000
vt 0.156250 0.531250
vt 0.187500 0.531250
vt 0.187500 0.562500
vt 0.156250 0.562500
vt 0.218750 0.531250
vt 0.250000 0.531250
vt 0.250000 0.562500
vt 0.218750 0.562500
vt 0.156250 0.718750
vt 0.187500 0.718750
vt 0.187500 0.750000
vt 0.156250 0.750000
vt 0.156250 0.656250
vt 0.187500 0.656250
vt 0.187500 0.687500
vt 0.156250 0.687500
vt 0.218750 0.656250
vt 0.250000 0.656250
vt 0.250000 0.687500
vt 0.218750 0.687500
vt 0.781250 0.593750
vt 0.812500 0.593750
vt 0.812500 0.625000
vt 0.781250 0.625000
vt 0.781250 0.531250
vt 0.812500 0.531250
vt 0.812500 0.562500
vt 0.781250 0.562500
vt 0.843750 0.531250
vt 0.875000 0.531250
vt 0.875000 0.562500
vt 0.843750 0.562500
vt 0.656250 0.593750
vt 0.687500 0.593750
vt 0.687500 0.625000
vt 0.656250 0.625000
vt 0.656250 0.531250
vt 0.687500 0.531250
vt 0.687500 0.562500
vt 0.656250 0.562500
vt 0.718750 0.531250
vt 0.750000 0.531250
vt 0.750000 0.562500
vt 0.718750 0.562500
vt 0.656250 0.718750
vt 0.687500 0.718750
vt 0.687500 0.750000
vt 0.656250 0.750000
vt 0.656250 0.656250
vt 0.687500 0.656250
vt 0.687500 0.687500
vt 0.656250 0.687500
vt 0.718750 0.656250
vt 0.750000 0.656250
vt 0.750000 0.687500
vt 0.718750 0.687500
vt 0.781250 0.718750
vt 0.812500 0.718750
vt 0.812500 0.750000
vt 0.781250 0.750000
vt 0.781250 0.656250
vt 0.812500 0.656250
vt 0.812500 0.687500
vt 0.781250 0.687500
vt 0.843750 0.656250
vt 0.875000 0.656250
vt 0.875000 0.687500
vt 0.843750 0.687500
vt 0.281250 0.718750
vt 0.312500 0.718750
vt 0.312500 0.750000
vt 0.281250 0.750000
vt 0.281250 0.656250
vt 0.312500 0.656250
vt 0.312500 0.687500
vt 0.281250 0.687500
vt 0.343750 0.656250
vt 0.375000 0.656250
vt 0.375000 0.687500
vt 0.343750 0.687500
vt 0.531250 0.968750
vt 0.562500 0.968750
vt 0.531250 0.906250
vt 0.562500 0.906250
vt 0.562500 0.937500
vt 0.531250 0.937500
vt 0.593750 0.906250
vt 0.625000 0.906250
vt 0.625000 0.937500
vt 0.593750 0.937500
vt 0.531250 0.718750
vt 0.562500 0.718750
vt 0.562500 0.750000
vt 0.531250 0.750000
vt 0.531250 0.656250
vt 0.562500 0.656250
vt 0.562500 0.687500
vt 0.531250 0.687500
vt 0.593750 0.656250
vt 0.625000 0.656250
vt 0.625000 0.687500
vt 0.593750 0.687500
vt 0.531250 0.468750
vt 0.562500 0.468750
vt 0.531250 0.406250
vt 0.562500 0.406250
vt 0.562500 0.437500
vt 0.531250 0.437500
vt 0.593750 0.406250
vt 0.625000 0.406250
vt 0.625000 0.437500
vt 0.593750 0.437500
vt 0.531250 0.218750
vt 0.562500 0.218750
vt 0.562500 0.250000
vt 0.531250 0.250000
vt 0.531250 0.156250
vt 0.562500 0.156250
vt 0.562500 0.187500
vt 0.531250 0.187500
vt 0.593750 0.156250
vt 0.625000 0.156250
vt 0.625000 0.187500
vt 0.593750 0.187500
vt 0.125000 0.656250
vt 0.125000 0.687500
vt 0.125000 0.625000
vt 0.125000 0.718750
vt 0.125000 0.531250
vt 0.125000 0.562500
vt 0.125000 0.593750
vt 0.375000 0.906250
vt 0.375000 0.937500
vt 0.375000 0.875000
vt 0.375000 0.968750
vt 0.375000 0.781250
vt 0.375000 0.812500
vt 0.375000 0.843750
vt 0.375000 0.406250
vt 0.375000 0.437500
vt 0.375000 0.375000
vt 0.375000 0.468750
vt 0.375000 0.281250
vt 0.375000 0.312500
vt 0.375000 0.343750
vt 0.375000 0.156250
vt 0.375000 0.187500
vt 0.375000 0.125000
vt 0.375000 0.218750
vt 0.437500 0.000000
vt 0.468750 0.000000
vt 0.500000 0.000000
vt 0.375000 0.031250
vt 0.375000 0.062500
vt 0.406250 0.000000
vt 0.375000 0.093750
vt 0.562500 0.000000
vt 0.593750 0.000000
vt 0.531250 0.000000
s 0
usemtl 
f 1/1/1 2/2/1 4/3/1 3/4/1
f 3/4/2 4/3/2 8/5/2 7/6/2
f 7/6/3 8/5/3 6/7/3 5/8/3
f 5/8/4 6/7/4 2/9/4 1/10/4
f 3/11/5 7/6/5 5/8/5 1/12/5
f 8/5/6 4/13/6 2/14/6 6/7/6
f 17/1/1 18/2/1 20/3/1 19/4/1
f 19/4/2 20/3/2 24/5/2 23/6/2
f 23/6/3 24/5/3 22/7/3 21/8/3
f 21/8/4 22/7/4 18/9/4 17/10/4
f 19/11/5 23/6/5 21/8/5 17/12/5
f 24/5/6 20/13/6 18/14/6 22/7/6
f 25/15/7 26/16/7 28/17/7 27/18/7
f 27/18/8 28/17/8 30/19/8 29/20/8
f 29/20/9 30/19/9 32/21/9 31/22/9
f 31/22/10 32/21/10 34/23/10 33/13/10
f 33/13/11 34/23/11 36/24/11 35/25/11
f 35/25/12 36/24/12 38/26/12 37/27/12
f 37/27/13 38/26/13 40/28/13 39/29/13
f 39/29/14 40/28/14 42/30/14 41/31/14
f 41/31/15 42/30/15 44/32/15 43/33/15
f 43/33/16 44/32/16 46/34/16 45/35/16
f 45/35/17 46/34/17 48/36/17 47/37/17
f 47/37/18 48/36/18 50/9/18 49/5/18
f 49/5/19 50/9/19 52/38/19 51/39/19
f 51/39/20 52/38/20 54/40/20 53/41/20
f 53/41/21 54/40/21 56/42/21 55/43/21
f 55/43/22 56/42/22 58/44/22 57/45/22
f 57/45/23 58/44/23 60/46/23 59/47/23
f 59/47/24 60/46/24 62/48/24 61/49/24
f 61/49/25 62/48/25 64/50/25 63/51/25
f 63/51/26 64/50/26 66/10/26 65/6/26
f 65/6/27 66/10/27 68/52/27 67/53/27
f 67/53/28 68/52/28 70/54/28 69/55/28
f 69/55/29 70/54/29 72/56/29 71/57/29
f 71/57/30 72/56/30 74/58/30 73/59/30
f 73/59/31 74/58/31 76/60/31 75/61/31
f 75/61/32 76/60/32 78/62/32 77/63/32
f 77/63/33 78/62/33 80/64/33 79/65/33
f 79/65/34 80/64/34 82/66/34 81/11/34
f 81/11/35 82/66/35 84/67/35 83/68/35
f 83/68/36 84/67/36 86/69/36 85/70/36
f 28/71/6 26/72/6 88/73/6 86/74/6 84/75/6 82/76/6 80/77/6 78/78/6 76/79/6 74/80/6 72/81/6 70/82/6 68/83/6 66/84/6 64/85/6 62/86/6 60/87/6 58/88/6 56/89/6 54/90/6 52/91/6 50/92/6 48/93/6 46/94/6 44/95/6 42/96/6 40/97/6 38/98/6 36/99/6 34/100/6 32/101/6 30/102/6
f 85/70/37 86/69/37 88/103/37 87/104/37
f 87/104/38 88/103/38 26/105/38 25/106/38
f 25/107/5 27/108/5 29/109/5 31/110/5 33/111/5 35/112/5 37/113/5 39/114/5 41/115/5 43/116/5 45/117/5 47/118/5 49/119/5 51/120/5 53/121/5 55/122/5 57/123/5 59/124/5 61/125/5 63/126/5 65/127/5 67/128/5 69/129/5 71/130/5 73/131/5 75/132/5 77/133/5 79/134/5 81/135/5 83/136/5 85/137/5 87/138/5
f 89/15/39 90/16/39 92/139/39 91/140/39
f 91/140/40 92/139/40 94/141/40 93/142/40
f 93/142/41 94/141/41 96/143/41 95/144/41
f 95/144/42 96/143/42 98/145/42 97/146/42
f 97/146/43 98/145/43 100/147/43 99/148/43
f 99/148/44 100/147/44 102/149/44 101/150/44
f 101/150/45 102/149/45 104/151/45 103/152/45
f 103/152/46 104/151/46 106/153/46 105/154/46
f 105/154/47 106/153/47 108/155/47 107/156/47
f 107/156/48 108/155/48 110/157/48 109/158/48
f 109/158/49 110/157/49 112/159/49 111/160/49
f 111/160/50 112/159/50 114/161/50 113/162/50
f 113/162/51 114/161/51 116/163/51 115/164/51
f 115/164/52 116/163/52 118/165/52 117/166/52
f 117/166/53 118/165/53 120/167/53 119/168/53
f 119/168/54 120/167/54 122/169/54 121/170/54
f 121/170/55 122/169/55 124/171/55 123/172/55
f 123/172/56 124/171/56 126/173/56 125/174/56
f 125/174/57 126/173/57 128/175/57 127/176/57
f 127/176/58 128/175/58 130/177/58 129/178/58
f 129/178/59 130/177/59 132/179/59 131/180/59
f 131/180/60 132/179/60 134/181/60 133/182/60
f 133/182/61 134/181/61 136/183/61 135/184/61
f 135/184/62 136/183/62 138/185/62 137/186/62
f 92/187/6 90/72/6 140/188/6 138/189/6 136/190/6 134/191/6 132/192/6 130/193/6 128/194/6 126/195/6 124/196/6 122/197/6 120/198/6 118/199/6 116/88/6 114/200/6 112/201/6 110/202/6 108/203/6 106/204/6 104/205/6 102/206/6 100/207/6 98/208/6 96/209/6 94/210/6
f 137/186/63 138/185/63 140/211/63 139/212/63
f 139/212/64 140/211/64 90/213/64 89/214/64
f 89/107/5 91/215/5 93/216/5 95/217/5 97/218/5 99/219/5 101/220/5 103/221/5 105/222/5 107/223/5 109/224/5 111/225/5 113/226/5 115/123/5 117/227/5 119/228/5 121/229/5 123/230/5 125/231/5 127/232/5 129/233/5 131/234/5 133/235/5 135/236/5 137/237/5 139/238/5
usemtl Material.001
f 9/1/1 10/2/1 12/3/1 11/4/1
f 11/4/2 12/3/2 16/5/2 15/6/2
f 15/6/3 16/5/3 14/7/3 13/8/3
f 13/8/4 14/7/4 10/9/4 9/10/4
f 11/11/5 15/6/5 13/8/5 9/12/5
f 16/5/6 12/13/6 10/14/6 14/7/6
usemtl Material.002
f 141/1/1 142/2/1 144/3/1 143/4/1
f 143/4/4 144/3/4 148/5/4 147/6/4
f 147/6/3 148/5/3 146/7/3 145/8/3
f 145/8/2 146/7/2 142/9/2 141/10/2
f 143/11/6 147/6/6 145/8/6 141/12/6
f 148/5/5 144/13/5 142/14/5 146/7/5
usemtl Material.003
f 149/1/1 150/2/1 152/3/1 151/4/1
f 151/4/4 152/3/4 156/5/4 155/6/4
f 155/6/3 156/5/3 154/7/3 153/8/3
f 153/8/2 154/7/2 150/9/2 149/10/2
f 151/11/6 155/6/6 153/8/6 149/12/6
f 156/5/5 152/13/5 150/14/5 154/7/5
usemtl Material.004
f 157/1/1 158/2/1 160/3/1 159/4/1
f 159/4/4 160/3/4 164/5/4 163/6/4
f 163/6/3 164/5/3 162/7/3 161/8/3
f 161/8/2 162/7/2 158/9/2 157/10/2
f 159/11/6 163/6/6 161/8/6 157/12/6
f 164/5/5 160/13/5 158/14/5 162/7/5
usemtl Material.005
f 165/1/1 166/2/1 168/3/1 167/4/1
f 167/4/4 168/3/4 172/5/4 171/6/4
f 171/6/3 172/5/3 170/7/3 169/8/3
f 169/8/2 170/7/2 166/9/2 165/10/2
f 167/11/6 171/6/6 169/8/6 165/12/6
f 172/5/5 168/13/5 166/14/5 170/7/5
usemtl Material.006
f 173/1/1 174/2/1 176/3/1 175/4/1
f 175/4/4 176/3/4 180/5/4 179/6/4
f 179/6/3 180/5/3 178/7/3 177/8/3
f 177/8/2 178/7/2 174/9/2 173/10/2
f 175/11/6 179/6/6 177/8/6 173/12/6
f 180/5/5 176/13/5 174/14/5 178/7/5
usemtl Material.007
f 181/1/1 182/2/1 184/3/1 183/4/1
f 183/4/4 184/3/4 188/5/4 187/6/4
f 187/6/3 188/5/3 186/7/3 185/8/3
f 185/8/2 186/7/2 182/9/2 181/10/2
f 183/11/6 187/6/6 185/8/6 181/12/6
f 188/5/5 184/13/5 182/14/5 186/7/5
usemtl Material.008
f 189/1/1 190/2/1 192/3/1 191/4/1
f 191/4/4 192/3/4 196/5/4 195/6/4
f 195/6/3 196/5/3 194/7/3 193/8/3
f 193/8/2 194/7/2 190/9/2 189/10/2
f 191/11/6 195/6/6 193/8/6 189/12/6
f 196/5/5 192/13/5 190/14/5 194/7/5
usemtl Material.009
f 197/1/1 198/2/1 200/3/1 199/4/1
f 199/4/4 200/3/4 204/5/4 203/6/4
f 203/6/3 204/5/3 202/7/3 201/8/3
f 201/8/2 202/7/2 198/9/2 197/10/2
f 199/11/6 203/6/6 201/8/6 197/12/6
f 204/5/5 200/13/5 198/14/5 202/7/5
usemtl Material.010
f 205/1/1 206/2/1 208/3/1 207/4/1
f 207/4/5 208/3/5 212/5/5 211/6/5
f 211/6/3 212/5/3 210/7/3 209/8/3
f 209/8/6 210/7/6 206/9/6 205/10/6
f 207/11/4 211/6/4 209/8/4 205/12/4
f 212/5/2 208/13/2 206/14/2 210/7/2
usemtl Material.011
f 213/1/1 214/2/1 216/3/1 215/4/1
f 215/4/5 216/3/5 220/5/5 219/6/5
f 219/6/3 220/5/3 218/7/3 217/8/3
f 217/8/6 218/7/6 214/9/6 213/10/6
f 215/11/4 219/6/4 217/8/4 213/12/4
f 220/5/2 216/13/2 214/14/2 218/7/2
usemtl Material.012
f 221/1/1 222/2/1 224/3/1 223/4/1
f 223/4/5 224/3/5 228/5/5 227/6/5
f 227/6/3 228/5/3 226/7/3 225/8/3
f 225/8/6 226/7/6 222/9/6 221/10/6
f 223/11/4 227/6/4 225/8/4 221/12/4
f 228/5/2 224/13/2 222/14/2 226/7/2
usemtl Material.013
f 229/1/1 230/2/1 232/3/1 231/4/1
f 231/4/5 232/3/5 236/5/5 235/6/5
f 235/6/3 236/5/3 234/7/3 233/8/3
f 233/8/6 234/7/6 230/9/6 229/10/6
f 231/11/4 235/6/4 233/8/4 229/12/4
f 236/5/2 232/13/2 230/14/2 234/7/2
usemtl Material.014
f 237/1/1 238/2/1 240/3/1 239/4/1
f 239/4/5 240/3/5 244/5/5 243/6/5
f 243/6/3 244/5/3 242/7/3 241/8/3
f 241/8/6 242/7/6 238/9/6 237/10/6
f 239/11/4 243/6/4 241/8/4 237/12/4
f 244/5/2 240/13/2 238/14/2 242/7/2
usemtl Material.015
f 245/1/1 246/2/1 248/3/1 247/4/1
f 247/4/5 248/3/5 252/5/5 251/6/5
f 251/6/3 252/5/3 250/7/3 249/8/3
f 249/8/6 250/7/6 246/9/6 245/10/6
f 247/11/4 251/6/4 249/8/4 245/12/4
f 252/5/2 248/13/2 246/14/2 250/7/2
usemtl Material.016
f 253/1/1 254/2/1 256/3/1 255/4/1
f 255/4/5 256/3/5 260/5/5 259/6/5
f 259/6/3 260/5/3 258/7/3 257/8/3
f 257/8/6 258/7/6 254/9/6 253/10/6
f 255/11/4 259/6/4 257/8/4 253/12/4
f 260/5/2 256/13/2 254/14/2 258/7/2
usemtl Material.017
f 261/1/1 262/2/1 264/3/1 263/4/1
f 263/4/5 264/3/5 268/5/5 267/6/5
f 267/6/3 268/5/3 266/7/3 265/8/3
f 265/8/6 266/7/6 262/9/6 261/10/6
f 263/11/4 267/6/4 265/8/4 261/12/4
f 268/5/2 264/13/2 262/14/2 266/7/2
usemtl Material.018
f 269/1/1 270/2/1 272/3/1 271/4/1
f 271/4/5 272/3/5 276/5/5 275/6/5
f 275/6/3 276/5/3 274/7/3 273/8/3
f 273/8/6 274/7/6 270/9/6 269/10/6
f 271/11/4 275/6/4 273/8/4 269/12/4
f 276/5/2 272/13/2 270/14/2 274/7/2
usemtl Material.019
f 277/1/1 278/2/1 280/3/1 279/4/1
f 279/4/5 280/3/5 284/5/5 283/6/5
f 283/6/3 284/5/3 282/7/3 281/8/3
f 281/8/6 282/7/6 278/9/6 277/10/6
f 279/11/4 283/6/4 281/8/4 277/12/4
f 284/5/2 280/13/2 278/14/2 282/7/2
usemtl Material.020
f 285/1/1 286/2/1 288/3/1 287/4/1
f 287/4/5 288/3/5 292/5/5 291/6/5
f 291/6/3 292/5/3 290/7/3 289/8/3
f 289/8/6 290/7/6 286/9/6 285/10/6
f 287/11/4 291/6/4 289/8/4 285/12/4
f 292/5/2 288/13/2 286/14/2 290/7/2
usemtl Material.021
f 293/1/1 294/2/1 296/3/1 295/4/1
f 295/4/5 296/3/5 300/5/5 299/6/5
f 299/6/3 300/5/3 298/7/3 297/8/3
f 297/8/6 298/7/6 294/9/6 293/10/6
f 295/11/4 299/6/4 297/8/4 293/12/4
f 300/5/2 296/13/2 294/14/2 298/7/2
usemtl Material.022
f 301/1/1 302/2/1 304/3/1 303/4/1
f 303/4/5 304/3/5 308/5/5 307/6/5
f 307/6/3 308/5/3 306/7/3 305/8/3
f 305/8/6 306/7/6 302/9/6 301/10/6
f 303/11/4 307/6/4 305/8/4 301/12/4
f 308/5/2 304/13/2 302/14/2 306/7/2
usemtl Material.023
f 309/1/1 310/2/1 312/3/1 311/4/1
f 311/4/5 312/3/5 316/5/5 315/6/5
f 315/6/3 316/5/3 314/7/3 313/8/3
f 313/8/6 314/7/6 310/9/6 309/10/6
f 311/11/4 315/6/4 313/8/4 309/12/4
f 316/5/2 312/13/2 310/14/2 314/7/2
usemtl Material.024
f 317/1/2 318/2/2 320/3/2 319/4/2
f 319/4/5 320/3/5 324/5/5 323/6/5
f 323/6/4 324/5/4 322/7/4 321/8/4
f 321/8/6 322/7/6 318/9/6 317/10/6
f 319/11/1 323/6/1 321/8/1 317/12/1
f 324/5/3 320/13/3 318/14/3 322/7/3
usemtl Material.025
f 325/1/2 326/2/2 328/3/2 327/4/2
f 327/4/5 328/3/5 332/5/5 331/6/5
f 331/6/4 332/5/4 330/7/4 329/8/4
f 329/8/6 330/7/6 326/9/6 325/10/6
f 327/11/1 331/6/1 329/8/1 325/12/1
f 332/5/3 328/13/3 326/14/3 330/7/3
usemtl Material.026
f 333/1/2 334/2/2 336/3/2 335/4/2
f 335/4/5 336/3/5 340/5/5 339/6/5
f 339/6/4 340/5/4 338/7/4 337/8/4
f 337/8/6 338/7/6 334/9/6 333/10/6
f 335/11/1 339/6/1 337/8/1 333/12/1
f 340/5/3 336/13/3 334/14/3 338/7/3
usemtl Material.027
f 341/1/2 342/2/2 344/3/2 343/4/2
f 343/4/5 344/3/5 348/5/5 347/6/5
f 347/6/4 348/5/4 346/7/4 345/8/4
f 345/8/6 346/7/6 342/9/6 341/10/6
f 343/11/1 347/6/1 345/8/1 341/12/1
f 348/5/3 344/13/3 342/14/3 346/7/3
usemtl Material.028
f 349/1/2 350/2/2 352/3/2 351/4/2
f 351/4/5 352/3/5 356/5/5 355/6/5
f 355/6/4 356/5/4 354/7/4 353/8/4
f 353/8/6 354/7/6 350/9/6 349/10/6
f 351/11/1 355/6/1 353/8/1 349/12/1
f 356/5/3 352/13/3 350/14/3 354/7/3
usemtl Material.029
f 357/1/2 358/2/2 360/3/2 359/4/2
f 359/4/5 360/3/5 364/5/5 363/6/5
f 363/6/4 364/5/4 362/7/4 361/8/4
f 361/8/6 362/7/6 358/9/6 357/10/6
f 359/11/1 363/6/1 361/8/1 357/12/1
f 364/5/3 360/13/3 358/14/3 362/7/3
usemtl Material.030
f 365/1/2 366/2/2 368/3/2 367/4/2
f 367/4/5 368/3/5 372/5/5 371/6/5
f 371/6/4 372/5/4 370/7/4 369/8/4
f 369/8/6 370/7/6 366/9/6 365/10/6
f 367/11/1 371/6/1 369/8/1 365/12/1
f 372/5/3 368/13/3 366/14/3 370/7/3
usemtl Material.031
f 373/1/2 374/2/2 376/3/2 375/4/2
f 375/4/5 376/3/5 380/5/5 379/6/5
f 379/6/4 380/5/4 378/7/4 377/8/4
f 377/8/6 378/7/6 374/9/6 373/10/6
f 375/11/1 379/6/1 377/8/1 373/12/1
f 380/5/3 376/13/3 374/14/3 378/7/3
usemtl Material.032
f 381/1/2 382/2/2 384/3/2 383/4/2
f 383/4/5 384/3/5 388/5/5 387/6/5
f 387/6/4 388/5/4 386/7/4 385/8/4
f 385/8/6 386/7/6 382/9/6 381/10/6
f 383/11/1 387/6/1 385/8/1 381/12/1
f 388/5/3 384/13/3 382/14/3 386/7/3
usemtl Material.033
f 389/1/2 390/2/2 392/3/2 391/4/2
f 391/4/5 392/3/5 396/5/5 395/6/5
f 395/6/4 396/5/4 394/7/4 393/8/4
f 393/8/6 394/7/6 390/9/6 389/10/6
f 391/11/1 395/6/1 393/8/1 389/12/1
f 396/5/3 392/13/3 390/14/3 394/7/3
usemtl Material.034
f 397/1/2 398/2/2 400/3/2 399/4/2
f 399/4/5 400/3/5 404/5/5 403/6/5
f 403/6/4 404/5/4 402/7/4 401/8/4
f 401/8/6 402/7/6 398/9/6 397/10/6
f 399/11/1 403/6/1 401/8/1 397/12/1
f 404/5/3 400/13/3 398/14/3 402/7/3
usemtl Material.035
f 405/1/2 406/2/2 408/3/2 407/4/2
f 407/4/5 408/3/5 412/5/5 411/6/5
f 411/6/4 412/5/4 410/7/4 409/8/4
f 409/8/6 410/7/6 406/9/6 405/10/6
f 407/11/1 411/6/1 409/8/1 405/12/1
f 412/5/3 408/13/3 406/14/3 410/7/3
usemtl Material.036
f 413/1/2 414/2/2 416/3/2 415/4/2
f 415/4/5 416/3/5 420/5/5 419/6/5
f 419/6/4 420/5/4 418/7/4 417/8/4
f 417/8/6 418/7/6 414/9/6 413/10/6
f 415/11/1 419/6/1 417/8/1 413/12/1
f 420/5/3 416/13/3 414/14/3 418/7/3
usemtl Material.037
f 421/1/2 422/2/2 424/3/2 423/4/2
f 423/4/5 424/3/5 428/5/5 427/6/5
f 427/6/4 428/5/4 426/7/4 425/8/4
f 425/8/6 426/7/6 422/9/6 421/10/6
f 423/11/1 427/6/1 425/8/1 421/12/1
f 428/5/3 424/13/3 422/14/3 426/7/3
usemtl Material.038
f 429/1/2 430/2/2 432/3/2 431/4/2
f 431/4/1 432/3/1 436/5/1 435/6/1
f 435/6/4 436/5/4 434/7/4 433/8/4
f 433/8/3 434/7/3 430/9/3 429/10/3
f 431/11/6 435/6/6 433/8/6 429/12/6
f 436/5/5 432/13/5 430/14/5 434/7/5
usemtl Material.039
f 437/1/2 438/2/2 440/3/2 439/4/2
f 439/4/1 440/3/1 444/5/1 443/6/1
f 443/6/4 444/5/4 442/7/4 441/8/4
f 441/8/3 442/7/3 438/9/3 437/10/3
f 439/11/6 443/6/6 441/8/6 437/12/6
f 444/5/5 440/13/5 438/14/5 442/7/5
usemtl Material.040
f 445/1/2 446/2/2 448/3/2 447/4/2
f 447/4/1 448/3/1 452/5/1 451/6/1
f 451/6/4 452/5/4 450/7/4 449/8/4
f 449/8/3 450/7/3 446/9/3 445/10/3
f 447/11/6 451/6/6 449/8/6 445/12/6
f 452/5/5 448/13/5 446/14/5 450/7/5
usemtl Material.041
f 453/1/2 454/2/2 456/3/2 455/4/2
f 455/4/1 456/3/1 460/5/1 459/6/1
f 459/6/4 460/5/4 458/7/4 457/8/4
f 457/8/3 458/7/3 454/9/3 453/10/3
f 455/11/6 459/6/6 457/8/6 453/12/6
f 460/5/5 456/13/5 454/14/5 458/7/5
usemtl Material.042
f 461/1/2 462/2/2 464/3/2 463/4/2
f 463/4/1 464/3/1 468/5/1 467/6/1
f 467/6/4 468/5/4 466/7/4 465/8/4
f 465/8/3 466/7/3 462/9/3 461/10/3
f 463/11/6 467/6/6 465/8/6 461/12/6
f 468/5/5 464/13/5 462/14/5 466/7/5
usemtl Material.043
f 469/1/2 470/2/2 472/3/2 471/4/2
f 471/4/1 472/3/1 476/5/1 475/6/1
f 475/6/4 476/5/4 474/7/4 473/8/4
f 473/8/3 474/7/3 470/9/3 469/10/3
f 471/11/6 475/6/6 473/8/6 469/12/6
f 476/5/5 472/13/5 470/14/5 474/7/5
usemtl Material.044
f 477/1/2 478/2/2 480/3/2 479/4/2
f 479/4/1 480/3/1 484/5/1 483/6/1
f 483/6/4 484/5/4 482/7/4 481/8/4
f 481/8/3 482/7/3 478/9/3 477/10/3
f 479/11/6 483/6/6 481/8/6 477/12/6
f 484/5/5 480/13/5 478/14/5 482/7/5
usemtl Material.045
f 485/1/2 486/2/2 488/3/2 487/4/2
f 487/4/1 488/3/1 492/5/1 491/6/1
f 491/6/4 492/5/4 490/7/4 489/8/4
f 489/8/3 490/7/3 486/9/3 485/10/3
f 487/11/6 491/6/6 489/8/6 485/12/6
f 492/5/5 488/13/5 486/14/5 490/7/5
usemtl Material.046
f 493/1/3 494/2/3 496/3/3 495/4/3
f 495/4/2 496/3/2 500/5/2 499/6/2
f 499/6/1 500/5/1 498/7/1 497/8/1
f 497/8/4 498/7/4 494/9/4 493/10/4
f 495/11/6 499/6/6 497/8/6 493/12/6
f 500/5/5 496/13/5 494/14/5 498/7/5
usemtl Material.047
f 501/1/3 502/2/3 504/3/3 503/4/3
f 503/4/2 504/3/2 508/5/2 507/6/2
f 507/6/1 508/5/1 506/7/1 505/8/1
f 505/8/4 506/7/4 502/9/4 501/10/4
f 503/11/6 507/6/6 505/8/6 501/12/6
f 508/5/5 504/13/5 502/14/5 506/7/5
usemtl Material.048
f 509/1/3 510/2/3 512/3/3 511/4/3
f 511/4/2 512/3/2 516/5/2 515/6/2
f 515/6/1 516/5/1 514/7/1 513/8/1
f 513/8/4 514/7/4 510/9/4 509/10/4
f 511/11/6 515/6/6 513/8/6 509/12/6
f 516/5/5 512/13/5 510/14/5 514/7/5
usemtl Material.049
f 517/1/3 518/2/3 520/3/3 519/4/3
f 519/4/2 520/3/2 524/5/2 523/6/2
f 523/6/1 524/5/1 522/7/1 521/8/1
f 521/8/4 522/7/4 518/9/4 517/10/4
f 519/11/6 523/6/6 521/8/6 517/12/6
f 524/5/5 520/13/5 518/14/5 522/7/5
usemtl Material.050
f 525/1/3 526/2/3 528/3/3 527/4/3
f 527/4/2 528/3/2 532/5/2 531/6/2
f 531/6/1 532/5/1 530/7/1 529/8/1
f 529/8/4 530/7/4 526/9/4 525/10/4
f 527/11/6 531/6/6 529/8/6 525/12/6
f 532/5/5 528/13/5 526/14/5 530/7/5
usemtl Material.051
f 533/1/3 534/2/3 536/3/3 535/4/3
f 535/4/2 536/3/2 540/5/2 539/6/2
f 539/6/1 540/5/1 538/7/1 537/8/1
f 537/8/4 538/7/4 534/9/4 533/10/4
f 535/11/6 539/6/6 537/8/6 533/12/6
f 540/5/5 536/13/5 534/14/5 538/7/5
usemtl Material.052
f 541/1/3 542/2/3 544/3/3 543/4/3
f 543/4/2 544/3/2 548/5/2 547/6/2
f 547/6/1 548/5/1 546/7/1 545/8/1
f 545/8/4 546/7/4 542/9/4 541/10/4
f 543/11/6 547/6/6 545/8/6 541/12/6
f 548/5/5 544/13/5 542/14/5 546/7/5
usemtl Material.053
f 549/1/3 550/2/3 552/3/3 551/4/3
f 551/4/2 552/3/2 556/5/2 555/6/2
f 555/6/1 556/5/1 554/7/1 553/8/1
f 553/8/4 554/7/4 550/9/4 549/10/4
f 551/11/6 555/6/6 553/8/6 549/12/6
f 556/5/5 552/13/5 550/14/5 554/7/5
usemtl Material.054
f 557/1/3 558/2/3 560/3/3 559/4/3
f 559/4/5 560/3/5 564/5/5 563/6/5
f 563/6/1 564/5/1 562/7/1 561/8/1
f 561/8/6 562/7/6 558/9/6 557/10/6
f 559/11/2 563/6/2 561/8/2 557/12/2
f 564/5/4 560/13/4 558/14/4 562/7/4
usemtl Material.055
f 565/1/3 566/2/3 568/3/3 567/4/3
f 567/4/5 568/3/5 572/5/5 571/6/5
f 571/6/1 572/5/1 570/7/1 569/8/1
f 569/8/6 570/7/6 566/9/6 565/10/6
f 567/11/2 571/6/2 569/8/2 565/12/2
f 572/5/4 568/13/4 566/14/4 570/7/4
usemtl Material.056
f 573/1/3 574/2/3 576/3/3 575/4/3
f 575/4/5 576/3/5 580/5/5 579/6/5
f 579/6/1 580/5/1 578/7/1 577/8/1
f 577/8/6 578/7/6 574/9/6 573/10/6
f 575/11/2 579/6/2 577/8/2 573/12/2
f 580/5/4 576/13/4 574/14/4 578/7/4
usemtl Material.057
f 581/1/3 582/2/3 584/3/3 583/4/3
f 583/4/5 584/3/5 588/5/5 587/6/5
f 587/6/1 588/5/1 586/7/1 585/8/1
f 585/8/6 586/7/6 582/9/6 581/10/6
f 583/11/2 587/6/2 585/8/2 581/12/2
f 588/5/4 584/13/4 582/14/4 586/7/4
usemtl Material.058
f 589/1/3 590/2/3 592/3/3 591/4/3
f 591/4/5 592/3/5 596/5/5 595/6/5
f 595/6/1 596/5/1 594/7/1 593/8/1
f 593/8/6 594/7/6 590/9/6 589/10/6
f 591/11/2 595/6/2 593/8/2 589/12/2
f 596/5/4 592/13/4 590/14/4 594/7/4
usemtl Material.059
f 597/1/3 598/2/3 600/3/3 599/4/3
f 599/4/5 600/3/5 604/5/5 603/6/5
f 603/6/1 604/5/1 602/7/1 601/8/1
f 601/8/6 602/7/6 598/9/6 597/10/6
f 599/11/2 603/6/2 601/8/2 597/12/2
f 604/5/4 600/13/4 598/14/4 602/7/4
usemtl Material.060
f 605/1/3 606/2/3 608/3/3 607/4/3
f 607/4/5 608/3/5 612/5/5 611/6/5
f 611/6/1 612/5/1 610/7/1 609/8/1
f 609/8/6 610/7/6 606/9/6 605/10/6
f 607/11/2 611/6/2 609/8/2 605/12/2
f 612/5/4 608/13/4 606/14/4 610/7/4
usemtl Material.061
f 613/1/3 614/2/3 616/3/3 615/4/3
f 615/4/5 616/3/5 620/5/5 619/6/5
f 619/6/1 620/5/1 618/7/1 617/8/1
f 617/8/6 618/7/6 614/9/6 613/10/6
f 615/11/2 619/6/2 617/8/2 613/12/2
f 620/5/4 616/13/4 614/14/4 618/7/4
usemtl Material.062
f 621/1/3 622/2/3 624/3/3 623/4/3
f 623/4/5 624/3/5 628/5/5 627/6/5
f 627/6/1 628/5/1 626/7/1 625/8/1
f 625/8/6 626/7/6 622/9/6 621/10/6
f 623/11/2 627/6/2 625/8/2 621/12/2
f 628/5/4 624/13/4 622/14/4 626/7/4
usemtl Material.063
f 629/1/3 630/2/3 632/3/3 631/4/3
f 631/4/5 632/3/5 636/5/5 635/6/5
f 635/6/1 636/5/1 634/7/1 633/8/1
f 633/8/6 634/7/6 630/9/6 629/10/6
f 631/11/2 635/6/2 633/8/2 629/12/2
f 636/5/4 632/13/4 630/14/4 634/7/4
usemtl Material.064
f 637/1/3 638/2/3 640/3/3 639/4/3
f 639/4/5 640/3/5 644/5/5 643/6/5
f 643/6/1 644/5/1 642/7/1 641/8/1
f 641/8/6 642/7/6 638/9/6 637/10/6
f 639/11/2 643/6/2 641/8/2 637/12/2
f 644/5/4 640/13/4 638/14/4 642/7/4
usemtl Material.065
f 645/1/3 646/2/3 648/3/3 647/4/3
f 647/4/5 648/3/5 652/5/5 651/6/5
f 651/6/1 652/5/1 650/7/1 649/8/1
f 649/8/6 650/7/6 646/9/6 645/10/6
f 647/11/2 651/6/2 649/8/2 645/12/2
f 652/5/4 648/13/4 646/14/4 650/7/4
usemtl Material.066
f 653/1/3 654/2/3 656/3/3 655/4/3
f 655/4/5 656/3/5 660/5/5 659/6/5
f 659/6/1 660/5/1 658/7/1 657/8/1
f 657/8/6 658/7/6 654/9/6 653/10/6
f 655/11/2 659/6/2 657/8/2 653/12/2
f 660/5/4 656/13/4 654/14/4 658/7/4
usemtl Material.067
f 661/1/3 662/2/3 664/3/3 663/4/3
f 663/4/5 664/3/5 668/5/5 667/6/5
f 667/6/1 668/5/1 666/7/1 665/8/1
f 665/8/6 666/7/6 662/9/6 661/10/6
f 663/11/2 667/6/2 665/8/2 661/12/2
f 668/5/4 664/13/4 662/14/4 666/7/4
usemtl Material.068
f 669/1/4 670/2/4 672/3/4 671/4/4
f 671/4/5 672/3/5 676/5/5 675/6/5
f 675/6/2 676/5/2 674/7/2 673/8/2
f 673/8/6 674/7/6 670/9/6 669/10/6
f 671/11/3 675/6/3 673/8/3 669/12/3
f 676/5/1 672/13/1 670/14/1 674/7/1
usemtl Material.069
f 677/1/4 678/2/4 680/3/4 679/4/4
f 679/4/5 680/3/5 684/5/5 683/6/5
f 683/6/2 684/5/2 682/7/2 681/8/2
f 681/8/6 682/7/6 678/9/6 677/10/6
f 679/11/3 683/6/3 681/8/3 677/12/3
f 684/5/1 680/13/1 678/14/1 682/7/1
usemtl Material.070
f 685/1/4 686/2/4 688/3/4 687/4/4
f 687/4/5 688/3/5 692/5/5 691/6/5
f 691/6/2 692/5/2 690/7/2 689/8/2
f 689/8/6 690/7/6 686/9/6 685/10/6
f 687/11/3 691/6/3 689/8/3 685/12/3
f 692/5/1 688/13/1 686/14/1 690/7/1
usemtl Material.071
f 693/1/4 694/2/4 696/3/4 695/4/4
f 695/4/5 696/3/5 700/5/5 699/6/5
f 699/6/2 700/5/2 698/7/2 697/8/2
f 697/8/6 698/7/6 694/9/6 693/10/6
f 695/11/3 699/6/3 697/8/3 693/12/3
f 700/5/1 696/13/1 694/14/1 698/7/1
usemtl Material.072
f 701/1/4 702/2/4 704/3/4 703/4/4
f 703/4/5 704/3/5 708/5/5 707/6/5
f 707/6/2 708/5/2 706/7/2 705/8/2
f 705/8/6 706/7/6 702/9/6 701/10/6
f 703/11/3 707/6/3 705/8/3 701/12/3
f 708/5/1 704/13/1 702/14/1 706/7/1
usemtl Material.073
f 709/1/4 710/2/4 712/3/4 711/4/4
f 711/4/5 712/3/5 716/5/5 715/6/5
f 715/6/2 716/5/2 714/7/2 713/8/2
f 713/8/6 714/7/6 710/9/6 709/10/6
f 711/11/3 715/6/3 713/8/3 709/12/3
f 716/5/1 712/13/1 710/14/1 714/7/1
usemtl Material.074
f 717/1/4 718/2/4 720/3/4 719/4/4
f 719/4/5 720/3/5 724/5/5 723/6/5
f 723/6/2 724/5/2 722/7/2 721/8/2
f 721/8/6 722/7/6 718/9/6 717/10/6
f 719/11/3 723/6/3 721/8/3 717/12/3
f 724/5/1 720/13/1 718/14/1 722/7/1
usemtl Material.075
f 725/1/4 726/2/4 728/3/4 727/4/4
f 727/4/5 728/3/5 732/5/5 731/6/5
f 731/6/2 732/5/2 730/7/2 729/8/2
f 729/8/6 730/7/6 726/9/6 725/10/6
f 727/11/3 731/6/3 729/8/3 725/12/3
f 732/5/1 728/13/1 726/14/1 730/7/1
usemtl Material.076
f 733/1/4 734/2/4 736/3/4 735/4/4
f 735/4/5 736/3/5 740/5/5 739/6/5
f 739/6/2 740/5/2 738/7/2 737/8/2
f 737/8/6 738/7/6 734/9/6 733/10/6
f 735/11/3 739/6/3 737/8/3 733/12/3
f 740/5/1 736/13/1 734/14/1 738/7/1
usemtl Material.077
f 741/1/4 742/2/4 744/3/4 743/4/4
f 743/4/5 744/3/5 748/5/5 747/6/5
f 747/6/2 748/5/2 746/7/2 745/8/2
f 745/8/6 746/7/6 742/9/6 741/10/6
f 743/11/3 747/6/3 745/8/3 741/12/3
f 748/5/1 744/13/1 742/14/1 746/7/1
usemtl Material.078
f 749/1/4 750/2/4 752/3/4 751/4/4
f 751/4/5 752/3/5 756/5/5 755/6/5
f 755/6/2 756/5/2 754/7/2 753/8/2
f 753/8/6 754/7/6 750/9/6 749/10/6
f 751/11/3 755/6/3 753/8/3 749/12/3
f 756/5/1 752/13/1 750/14/1 754/7/1
usemtl Material.079
f 757/1/4 758/2/4 760/3/4 759/4/4
f 759/4/5 760/3/5 764/5/5 763/6/5
f 763/6/2 764/5/2 762/7/2 761/8/2
f 761/8/6 762/7/6 758/9/6 757/10/6
f 759/11/3 763/6/3 761/8/3 757/12/3
f 764/5/1 760/13/1 758/14/1 762/7/1
usemtl Material.080
f 765/1/4 766/2/4 768/3/4 767/4/4
f 767/4/5 768/3/5 772/5/5 771/6/5
f 771/6/2 772/5/2 770/7/2 769/8/2
f 769/8/6 770/7/6 766/9/6 765/10/6
f 767/11/3 771/6/3 769/8/3 765/12/3
f 772/5/1 768/13/1 766/14/1 770/7/1
usemtl Material.081
f 773/1/4 774/2/4 776/3/4 775/4/4
f 775/4/5 776/3/5 780/5/5 779/6/5
f 779/6/2 780/5/2 778/7/2 777/8/2
f 777/8/6 778/7/6 774/9/6 773/10/6
f 775/11/3 779/6/3 777/8/3 773/12/3
f 780/5/1 776/13/1 774/14/1 778/7/1
usemtl Material.082
f 781/1/4 782/2/4 784/3/4 783/4/4
f 783/4/3 784/3/3 788/5/3 787/6/3
f 787/6/2 788/5/2 786/7/2 785/8/2
f 785/8/1 786/7/1 782/9/1 781/10/1
f 783/11/6 787/6/6 785/8/6 781/12/6
f 788/5/5 784/13/5 782/14/5 786/7/5
usemtl Material.083
f 789/1/4 790/2/4 792/3/4 791/4/4
f 791/4/3 792/3/3 796/5/3 795/6/3
f 795/6/2 796/5/2 794/7/2 793/8/2
f 793/8/1 794/7/1 790/9/1 789/10/1
f 791/11/6 795/6/6 793/8/6 789/12/6
f 796/5/5 792/13/5 790/14/5 794/7/5
usemtl Material.084
f 797/1/4 798/2/4 800/3/4 799/4/4
f 799/4/3 800/3/3 804/5/3 803/6/3
f 803/6/2 804/5/2 802/7/2 801/8/2
f 801/8/1 802/7/1 798/9/1 797/10/1
f 799/11/6 803/6/6 801/8/6 797/12/6
f 804/5/5 800/13/5 798/14/5 802/7/5
usemtl Material.085
f 805/1/4 806/2/4 808/3/4 807/4/4
f 807/4/3 808/3/3 812/5/3 811/6/3
f 811/6/2 812/5/2 810/7/2 809/8/2
f 809/8/1 810/7/1 806/9/1 805/10/1
f 807/11/6 811/6/6 809/8/6 805/12/6
f 812/5/5 808/13/5 806/14/5 810/7/5
usemtl Material.086
f 813/1/4 814/2/4 816/3/4 815/4/4
f 815/4/3 816/3/3 820/5/3 819/6/3
f 819/6/2 820/5/2 818/7/2 817/8/2
f 817/8/1 818/7/1 814/9/1 813/10/1
f 815/11/6 819/6/6 817/8/6 813/12/6
f 820/5/5 816/13/5 814/14/5 818/7/5
usemtl Material.087
f 821/1/4 822/2/4 824/3/4 823/4/4
f 823/4/3 824/3/3 828/5/3 827/6/3
f 827/6/2 828/5/2 826/7/2 825/8/2
f 825/8/1 826/7/1 822/9/1 821/10/1
f 823/11/6 827/6/6 825/8/6 821/12/6
f 828/5/5 824/13/5 822/14/5 826/7/5
usemtl Material.088
f 829/1/4 830/2/4 832/3/4 831/4/4
f 831/4/3 832/3/3 836/5/3 835/6/3
f 835/6/2 836/5/2 834/7/2 833/8/2
f 833/8/1 834/7/1 830/9/1 829/10/1
f 831/11/6 835/6/6 833/8/6 829/12/6
f 836/5/5 832/13/5 830/14/5 834/7/5
usemtl Material.089
f 837/1/4 838/2/4 840/3/4 839/4/4
f 839/4/3 840/3/3 844/5/3 843/6/3
f 843/6/2 844/5/2 842/7/2 841/8/2
f 841/8/1 842/7/1 838/9/1 837/10/1
f 839/11/6 843/6/6 841/8/6 837/12/6
f 844/5/5 840/13/5 838/14/5 842/7/5
usemtl Material.090
f 845/1/2 846/2/2 848/3/2 847/4/2
f 847/4/1 848/3/1 852/5/1 851/6/1
f 851/6/4 852/5/4 850/7/4 849/8/4
f 849/8/3 850/7/3 846/9/3 845/10/3
f 847/11/6 851/6/6 849/8/6 845/12/6
f 852/5/5 848/13/5 846/14/5 850/7/5
usemtl Material.091
f 853/1/1 854/2/1 856/3/1 855/4/1
f 855/4/2 856/3/2 860/5/2 859/6/2
f 859/6/3 860/5/3 858/7/3 857/8/3
f 857/8/4 858/7/4 854/9/4 853/10/4
f 855/11/5 859/6/5 857/8/5 853/12/5
f 860/5/6 856/13/6 854/14/6 858/7/6
usemtl Material.092
f 861/1/1 862/2/1 864/3/1 863/4/1
f 863/4/2 864/3/2 868/5/2 867/6/2
f 867/6/3 868/5/3 866/7/3 865/8/3
f 865/8/4 866/7/4 862/9/4 861/10/4
f 863/11/5 867/6/5 865/8/5 861/12/5
f 868/5/6 864/13/6 862/14/6 866/7/6
usemtl Material.093
f 869/1/1 870/2/1 872/3/1 871/4/1
f 871/4/2 872/3/2 876/5/2 875/6/2
f 875/6/3 876/5/3 874/7/3 873/8/3
f 873/8/4 874/7/4 870/9/4 869/10/4
f 871/11/5 875/6/5 873/8/5 869/12/5
f 876/5/6 872/13/6 870/14/6 874/7/6
usemtl Material.094
f 877/1/1 878/2/1 880/3/1 879/4/1
f 879/4/2 880/3/2 884/5/2 883/6/2
f 883/6/3 884/5/3 882/7/3 881/8/3
f 881/8/4 882/7/4 878/9/4 877/10/4
f 879/11/5 883/6/5 881/8/5 877/12/5
f 884/5/6 880/13/6 878/14/6 882/7/6
usemtl Material.095
f 1270/239/1 985/240/1 888/3/1 1046/241/1
f 1269/242/2 988/243/2 892/5/2 1049/39/2
f 1268/244/3 991/245/3 890/7/3 1052/246/3
f 1267/247/4 994/248/4 886/9/4 984/38/4
f 1266/249/5 1050/250/5 889/8/5 993/251/5
f 1265/252/6 1045/253/6 886/14/6 994/254/6
f 1264/255/6 1007/256/6 904/257/6 1006/258/6
f 1263/259/6 1008/260/6 905/261/6 1057/262/6
f 1262/263/6 1033/264/6 895/265/6 1058/266/6
f 1261/267/6 1011/268/6 903/269/6 1005/270/6
f 1260/271/6 1012/272/6 906/273/6 1061/274/6
f 1259/275/5 1038/276/5 900/277/5 1062/278/5
f 1258/279/4 1015/280/4 894/44/4 996/46/4
f 1257/281/4 1016/282/4 907/283/4 1065/284/4
f 1256/285/4 1006/286/4 904/287/4 1066/288/4
f 1255/289/3 1019/290/3 902/291/3 1040/292/3
f 1254/293/3 1020/294/3 908/295/3 1069/296/3
f 1253/297/3 1003/298/3 901/299/3 1070/300/3
f 1252/301/2 1023/302/2 899/45/2 1037/47/2
f 1251/303/2 1024/304/2 909/305/2 1073/306/2
f 1250/307/2 1000/308/2 898/309/2 1074/310/2
f 1249/311/1 1027/312/1 896/313/1 1034/314/1
f 1248/315/1 1028/316/1 910/317/1 1077/318/1
f 1247/319/1 997/320/1 895/321/1 1078/322/1
f 1246/323/1 1079/324/1 958/325/1 1030/326/1
f 1245/327/1 1080/328/1 959/329/1 1081/330/1
f 1244/331/1 1045/332/1 925/333/1 1082/334/1
f 1243/335/1 1083/336/1 957/337/1 1029/338/1
f 1242/339/1 1084/340/1 960/341/1 1085/342/1
f 1241/343/1 1076/344/1 956/345/1 1086/346/1
f 1240/347/1 1087/348/1 914/349/1 986/350/1
f 1239/351/1 1088/352/1 961/353/1 1089/354/1
f 1238/355/1 1075/356/1 955/357/1 1090/358/1
f 1237/359/2 1091/360/2 954/361/2 1026/362/2
f 1236/363/2 1092/364/2 962/365/2 1093/366/2
f 1235/367/2 1048/368/2 928/369/2 1094/370/2
f 1234/371/2 1095/372/2 953/373/2 1025/374/2
f 1233/375/2 1096/376/2 963/377/2 1097/378/2
f 1232/379/2 1072/380/2 952/381/2 1098/382/2
f 1231/383/2 1099/384/2 917/49/2 989/51/2
f 1230/385/2 1100/386/2 964/387/2 1101/388/2
f 1229/389/2 1071/390/2 951/391/2 1102/392/2
f 1228/393/3 1103/394/3 950/395/3 1022/396/3
f 1227/397/3 1104/398/3 965/399/3 1105/400/3
f 1226/401/3 1051/402/3 931/403/3 1106/404/3
f 1225/405/3 1107/406/3 949/407/3 1021/408/3
f 1224/409/3 1108/410/3 966/411/3 1109/412/3
f 1223/413/3 1068/414/3 948/415/3 1110/416/3
f 1222/417/3 1111/418/3 920/419/3 992/420/3
f 1221/421/3 1112/422/3 967/423/3 1113/424/3
f 1220/425/3 1067/426/3 947/427/3 1114/428/3
f 1219/429/4 1115/430/4 946/431/4 1018/432/4
f 1218/433/65 1116/434/65 968/435/65 1117/436/65
f 1217/437/4 1054/438/4 934/439/4 1118/440/4
f 1216/441/4 1119/442/4 945/443/4 1017/444/4
f 1215/445/65 1120/446/65 969/447/65 1121/448/65
f 1214/449/65 1064/450/65 944/451/65 1122/452/65
f 1213/453/4 1123/454/4 924/48/4 1044/50/4
f 1212/455/4 1124/456/4 970/457/4 1125/458/4
f 1211/459/4 1063/460/4 943/461/4 1126/462/4
f 1210/463/6 1127/464/6 942/465/6 1014/466/6
f 1209/467/5 1128/468/5 971/469/5 1129/470/5
f 1208/471/5 990/472/5 918/473/5 1130/474/5
f 1207/475/5 1131/476/5 941/477/5 1013/478/5
f 1206/479/5 1132/480/5 972/481/5 1133/482/5
f 1205/483/5 1060/484/5 940/485/5 1134/486/5
f 1204/487/6 1135/488/6 933/489/6 1053/490/6
f 1203/491/6 1136/492/6 973/493/6 1137/494/6
f 1202/495/6 1059/496/6 939/497/6 1138/498/6
f 1201/499/6 1139/500/6 938/501/6 1010/502/6
f 1200/503/6 1140/504/6 974/505/6 1141/506/6
f 1199/507/6 985/508/6 913/509/6 1142/510/6
f 1198/511/6 1143/512/6 937/513/6 1009/514/6
f 1197/515/6 1144/516/6 975/517/6 1145/518/6
f 1196/519/6 1056/520/6 936/521/6 1146/522/6
f 1195/523/6 1147/524/6 934/525/6 1054/526/6
f 1194/527/6 1148/528/6 976/529/6 1149/530/6
f 1193/531/6 1055/532/6 935/533/6 1150/534/6
f 1192/535/6 1151/536/6 922/537/6 1042/538/6
f 1191/539/6 1152/540/6 977/541/6 1153/542/6
f 1190/543/6 997/544/6 925/545/6 1154/546/6
f 1189/547/6 1155/548/6 921/549/6 1041/550/6
f 1188/551/6 1156/552/6 978/553/6 1157/554/6
f 1187/555/5 1002/556/5 930/557/5 1158/558/5
f 1186/559/4 1159/560/4 912/40/4 1032/42/4
f 1185/561/4 1160/562/4 979/563/4 1161/564/4
f 1184/565/4 1042/566/4 922/567/4 1162/568/4
f 1183/569/3 1163/570/3 932/571/3 1004/572/3
f 1182/573/3 1164/574/3 980/575/3 1165/576/3
f 1181/577/3 1039/578/3 919/579/3 1166/580/3
f 1180/581/2 1167/582/2 929/41/2 1001/43/2
f 1179/583/2 1168/584/2 981/585/2 1169/586/2
f 1178/587/2 1036/588/2 916/589/2 1170/590/2
f 1177/591/1 1171/592/1 926/593/1 998/594/1
f 1176/595/1 1172/596/1 982/597/1 1173/598/1
f 1175/599/1 1033/600/1 913/601/1 1174/602/1
f 1172/596/1 1175/599/1 1174/602/1 982/597/1
f 958/325/1 1078/322/1 1175/599/1 1172/596/1
f 1078/322/1 895/321/1 1033/600/1 1175/599/1
f 1075/356/1 1176/595/1 1173/598/1 955/357/1
f 910/317/1 1030/326/1 1176/595/1 1075/356/1
f 1030/326/1 958/325/1 1172/596/1 1176/595/1
f 1027/312/1 1177/591/1 998/594/1 896/313/1
f 955/357/1 1173/598/1 1177/591/1 1027/312/1
f 1173/598/1 982/597/1 1171/592/1 1177/591/1
f 1168/584/2 1178/587/2 1170/590/2 981/585/2
f 954/361/2 1074/310/2 1178/587/2 1168/584/2
f 1074/310/2 898/309/2 1036/588/2 1178/587/2
f 1071/390/2 1179/583/2 1169/586/2 951/391/2
f 909/305/2 1026/362/2 1179/583/2 1071/390/2
f 1026/362/2 954/361/2 1168/584/2 1179/583/2
f 1023/302/2 1180/581/2 1001/43/2 899/45/2
f 951/391/2 1169/586/2 1180/581/2 1023/302/2
f 1169/586/2 981/585/2 1167/582/2 1180/581/2
f 1164/574/3 1181/577/3 1166/580/3 980/575/3
f 950/395/3 1070/300/3 1181/577/3 1164/574/3
f 1070/300/3 901/299/3 1039/578/3 1181/577/3
f 1067/426/3 1182/573/3 1165/576/3 947/427/3
f 908/295/3 1022/396/3 1182/573/3 1067/426/3
f 1022/396/3 950/395/3 1164/574/3 1182/573/3
f 1019/290/3 1183/569/3 1004/572/3 902/291/3
f 947/427/3 1165/576/3 1183/569/3 1019/290/3
f 1165/576/3 980/575/3 1163/570/3 1183/569/3
f 1160/562/66 1184/565/66 1162/568/66 979/563/66
f 946/431/66 1066/288/66 1184/565/66 1160/562/66
f 1066/288/4 904/287/4 1042/566/4 1184/565/4
f 1063/460/4 1185/561/4 1161/564/4 943/461/4
f 907/283/4 1018/432/4 1185/561/4 1063/460/4
f 1018/432/4 946/431/4 1160/562/4 1185/561/4
f 1015/280/4 1186/559/4 1032/42/4 894/44/4
f 943/461/67 1161/564/67 1186/559/67 1015/280/67
f 1161/564/67 979/563/67 1159/560/67 1186/559/67
f 1156/552/6 1187/555/6 1158/558/6 978/553/6
f 942/465/5 1062/278/5 1187/555/5 1156/552/5
f 1062/278/5 900/277/5 1002/556/5 1187/555/5
f 1059/496/6 1188/551/6 1157/554/6 939/497/6
f 906/273/5 1014/466/5 1188/551/5 1059/496/5
f 1014/466/5 942/465/5 1156/552/5 1188/551/5
f 1011/268/6 1189/547/6 1041/550/6 903/269/6
f 939/497/5 1157/554/5 1189/547/5 1011/268/5
f 1157/554/5 978/553/5 1155/548/5 1189/547/5
f 1152/540/6 1190/543/6 1154/546/6 977/541/6
f 938/501/6 1058/266/6 1190/543/6 1152/540/6
f 1058/266/6 895/265/6 997/544/6 1190/543/6
f 1055/532/6 1191/539/6 1153/542/6 935/533/6
f 905/261/6 1010/502/6 1191/539/6 1055/532/6
f 1010/502/6 938/501/6 1152/540/6 1191/539/6
f 1007/256/6 1192/535/6 1042/538/6 904/257/6
f 935/533/6 1153/542/6 1192/535/6 1007/256/6
f 1153/542/6 977/541/6 1151/536/6 1192/535/6
f 1148/528/6 1193/531/6 1150/534/6 976/529/6
f 937/513/6 1057/262/6 1193/531/6 1148/528/6
f 1057/262/6 905/261/6 1055/532/6 1193/531/6
f 1039/578/6 1194/527/6 1149/530/6 919/579/6
f 901/299/6 1009/514/6 1194/527/6 1039/578/6
f 1009/514/6 937/513/6 1148/528/6 1194/527/6
f 991/245/6 1195/523/6 1054/526/6 890/7/6
f 919/579/6 1149/530/6 1195/523/6 991/245/6
f 1149/530/6 976/529/6 1147/524/6 1195/523/6
f 1144/516/6 1196/519/6 1146/522/6 975/517/6
f 916/35/6 1036/33/6 1196/519/6 1144/516/6
f 1036/33/6 898/31/6 1056/520/6 1196/519/6
f 1051/402/6 1197/515/6 1145/518/6 931/403/6
f 892/5/6 988/37/6 1197/515/6 1051/402/6
f 988/37/6 916/35/6 1144/516/6 1197/515/6
f 1003/298/6 1198/511/6 1009/514/6 901/299/6
f 931/403/6 1145/518/6 1198/511/6 1003/298/6
f 1145/518/6 975/517/6 1143/512/6 1198/511/6
f 1140/504/6 1199/507/6 1142/510/6 974/505/6
f 928/27/6 1048/25/6 1199/507/6 1140/504/6
f 1048/25/6 888/13/6 985/508/6 1199/507/6
f 1056/520/6 1200/503/6 1141/506/6 936/521/6
f 898/31/6 1000/29/6 1200/503/6 1056/520/6
f 1000/29/6 928/27/6 1140/504/6 1200/503/6
f 1008/260/6 1201/499/6 1010/502/6 905/261/6
f 936/521/6 1141/506/6 1201/499/6 1008/260/6
f 1141/506/6 974/505/6 1139/500/6 1201/499/6
f 1136/492/6 1202/495/6 1138/498/6 973/493/6
f 941/477/5 1061/274/5 1202/495/5 1136/492/5
f 1061/274/5 906/273/5 1059/496/5 1202/495/5
f 1031/603/5 1203/491/5 1137/494/5 911/604/5
f 893/605/5 1013/478/5 1203/491/5 1031/603/5
f 1013/478/5 941/477/5 1136/492/5 1203/491/5
f 983/606/5 1204/487/5 1053/490/5 885/12/5
f 911/604/5 1137/494/5 1204/487/5 983/606/5
f 1137/494/5 973/493/5 1135/488/5 1204/487/5
f 1132/480/5 1205/483/5 1134/486/5 972/481/5
f 915/63/5 1035/61/5 1205/483/5 1132/480/5
f 1035/61/5 897/59/5 1060/484/5 1205/483/5
f 1043/607/5 1206/479/5 1133/482/5 923/608/5
f 887/11/5 987/65/5 1206/479/5 1043/607/5
f 987/65/5 915/63/5 1132/480/5 1206/479/5
f 995/609/5 1207/475/5 1013/478/5 893/605/5
f 923/608/5 1133/482/5 1207/475/5 995/609/5
f 1133/482/5 972/481/5 1131/476/5 1207/475/5
f 1128/468/5 1208/471/5 1130/474/5 971/469/5
f 927/55/5 1047/53/5 1208/471/5 1128/468/5
f 1047/53/5 891/6/5 990/472/5 1208/471/5
f 1060/484/5 1209/467/5 1129/470/5 940/485/5
f 897/59/5 999/57/5 1209/467/5 1060/484/5
f 999/57/5 927/55/5 1128/468/5 1209/467/5
f 1012/272/6 1210/463/6 1014/466/6 906/273/6
f 940/485/5 1129/470/5 1210/463/5 1012/272/5
f 1129/470/5 971/469/5 1127/464/5 1210/463/5
f 1124/456/4 1211/459/4 1126/462/4 970/457/4
f 945/443/4 1065/284/4 1211/459/4 1124/456/4
f 1065/284/4 907/283/4 1063/460/4 1211/459/4
f 1005/610/4 1212/455/4 1125/458/4 933/611/4
f 903/612/4 1017/444/4 1212/455/4 1005/610/4
f 1017/444/4 945/443/4 1124/456/4 1212/455/4
f 1053/613/4 1213/453/4 1044/50/4 885/10/4
f 933/611/67 1125/458/67 1213/453/67 1053/613/67
f 1125/458/67 970/457/67 1123/454/67 1213/453/67
f 1120/446/65 1214/449/65 1122/452/65 969/447/65
f 920/419/4 1040/292/4 1214/449/4 1120/446/4
f 1040/292/4 902/291/4 1064/450/4 1214/449/4
f 993/614/65 1215/445/65 1121/448/65 921/615/65
f 889/8/4 992/420/4 1215/445/4 993/614/4
f 992/420/4 920/419/4 1120/446/4 1215/445/4
f 1041/616/4 1216/441/4 1017/444/4 903/612/4
f 921/615/4 1121/448/4 1216/441/4 1041/616/4
f 1121/448/4 969/447/4 1119/442/4 1216/441/4
f 1116/434/68 1217/437/68 1118/440/68 968/435/68
f 932/571/4 1052/246/4 1217/437/4 1116/434/4
f 1052/246/4 890/7/4 1054/438/4 1217/437/4
f 1064/450/65 1218/433/65 1117/436/65 944/451/65
f 902/291/4 1004/572/4 1218/433/4 1064/450/4
f 1004/572/4 932/571/4 1116/434/4 1218/433/4
f 1016/282/4 1219/429/4 1018/432/4 907/283/4
f 944/451/4 1117/436/4 1219/429/4 1016/282/4
f 1117/436/4 968/435/4 1115/430/4 1219/429/4
f 1112/422/3 1220/425/3 1114/428/3 967/423/3
f 949/407/3 1069/296/3 1220/425/3 1112/422/3
f 1069/296/3 908/295/3 1067/426/3 1220/425/3
f 1002/556/3 1221/421/3 1113/424/3 930/557/3
f 900/277/3 1021/408/3 1221/421/3 1002/556/3
f 1021/408/3 949/407/3 1112/422/3 1221/421/3
f 1050/250/3 1222/417/3 992/420/3 889/8/3
f 930/557/3 1113/424/3 1222/417/3 1050/250/3
f 1113/424/3 967/423/3 1111/418/3 1222/417/3
f 1108/410/3 1223/413/3 1110/416/3 966/411/3
f 917/49/3 1037/47/3 1223/413/3 1108/410/3
f 1037/47/3 899/45/3 1068/414/3 1223/413/3
f 990/472/3 1224/409/3 1109/412/3 918/473/3
f 891/6/3 989/51/3 1224/409/3 990/472/3
f 989/51/3 917/49/3 1108/410/3 1224/409/3
f 1038/276/3 1225/405/3 1021/408/3 900/277/3
f 918/473/3 1109/412/3 1225/405/3 1038/276/3
f 1109/412/3 966/411/3 1107/406/3 1225/405/3
f 1104/398/3 1226/401/3 1106/404/3 965/399/3
f 929/41/3 1049/39/3 1226/401/3 1104/398/3
f 1049/39/3 892/5/3 1051/402/3 1226/401/3
f 1068/414/3 1227/397/3 1105/400/3 948/415/3
f 899/45/3 1001/43/3 1227/397/3 1068/414/3
f 1001/43/3 929/41/3 1104/398/3 1227/397/3
f 1020/294/3 1228/393/3 1022/396/3 908/295/3
f 948/415/3 1105/400/3 1228/393/3 1020/294/3
f 1105/400/3 965/399/3 1103/394/3 1228/393/3
f 1100/386/2 1229/389/2 1102/392/2 964/387/2
f 953/373/2 1073/306/2 1229/389/2 1100/386/2
f 1073/306/2 909/305/2 1071/390/2 1229/389/2
f 999/617/2 1230/385/2 1101/388/2 927/618/2
f 897/619/2 1025/374/2 1230/385/2 999/617/2
f 1025/374/2 953/373/2 1100/386/2 1230/385/2
f 1047/620/2 1231/383/2 989/51/2 891/6/2
f 927/618/2 1101/388/2 1231/383/2 1047/620/2
f 1101/388/2 964/387/2 1099/384/2 1231/383/2
f 1096/376/2 1232/379/2 1098/382/2 963/377/2
f 914/349/2 1034/314/2 1232/379/2 1096/376/2
f 1034/314/2 896/313/2 1072/380/2 1232/379/2
f 987/621/2 1233/375/2 1097/378/2 915/622/2
f 887/4/2 986/350/2 1233/375/2 987/621/2
f 986/350/2 914/349/2 1096/376/2 1233/375/2
f 1035/623/2 1234/371/2 1025/374/2 897/619/2
f 915/622/2 1097/378/2 1234/371/2 1035/623/2
f 1097/378/2 963/377/2 1095/372/2 1234/371/2
f 1092/364/2 1235/367/2 1094/370/2 962/365/2
f 926/593/2 1046/241/2 1235/367/2 1092/364/2
f 1046/241/2 888/3/2 1048/368/2 1235/367/2
f 1072/380/2 1236/363/2 1093/366/2 952/381/2
f 896/313/2 998/594/2 1236/363/2 1072/380/2
f 998/594/2 926/593/2 1092/364/2 1236/363/2
f 1024/304/2 1237/359/2 1026/362/2 909/305/2
f 952/381/2 1093/366/2 1237/359/2 1024/304/2
f 1093/366/2 962/365/2 1091/360/2 1237/359/2
f 1088/352/1 1238/355/1 1090/358/1 961/353/1
f 957/337/1 1077/318/1 1238/355/1 1088/352/1
f 1077/318/1 910/317/1 1075/356/1 1238/355/1
f 995/624/1 1239/351/1 1089/354/1 923/625/1
f 893/626/1 1029/338/1 1239/351/1 995/624/1
f 1029/338/1 957/337/1 1088/352/1 1239/351/1
f 1043/627/1 1240/347/1 986/350/1 887/4/1
f 923/625/1 1089/354/1 1240/347/1 1043/627/1
f 1089/354/1 961/353/1 1087/348/1 1240/347/1
f 1084/340/1 1241/343/1 1086/346/1 960/341/1
f 924/628/1 996/629/1 1241/343/1 1084/340/1
f 996/629/1 894/630/1 1076/344/1 1241/343/1
f 983/631/1 1242/339/1 1085/342/1 911/632/1
f 885/1/1 1044/633/1 1242/339/1 983/631/1
f 1044/633/1 924/628/1 1084/340/1 1242/339/1
f 1031/634/1 1243/335/1 1029/338/1 893/626/1
f 911/632/1 1085/342/1 1243/335/1 1031/634/1
f 1085/342/1 960/341/1 1083/336/1 1243/335/1
f 1080/328/1 1244/331/1 1082/334/1 959/329/1
f 912/635/1 984/636/1 1244/331/1 1080/328/1
f 984/636/1 886/2/1 1045/332/1 1244/331/1
f 1076/344/1 1245/327/1 1081/330/1 956/345/1
f 894/630/1 1032/637/1 1245/327/1 1076/344/1
f 1032/637/1 912/635/1 1080/328/1 1245/327/1
f 1028/316/1 1246/323/1 1030/326/1 910/317/1
f 956/345/1 1081/330/1 1246/323/1 1028/316/1
f 1081/330/1 959/329/1 1079/324/1 1246/323/1
f 1079/324/1 1247/319/1 1078/322/1 958/325/1
f 959/329/1 1082/334/1 1247/319/1 1079/324/1
f 1082/334/1 925/333/1 997/320/1 1247/319/1
f 1083/336/1 1248/315/1 1077/318/1 957/337/1
f 960/341/1 1086/346/1 1248/315/1 1083/336/1
f 1086/346/1 956/345/1 1028/316/1 1248/315/1
f 1087/348/1 1249/311/1 1034/314/1 914/349/1
f 961/353/1 1090/358/1 1249/311/1 1087/348/1
f 1090/358/1 955/357/1 1027/312/1 1249/311/1
f 1091/360/2 1250/307/2 1074/310/2 954/361/2
f 962/365/2 1094/370/2 1250/307/2 1091/360/2
f 1094/370/2 928/369/2 1000/308/2 1250/307/2
f 1095/372/2 1251/303/2 1073/306/2 953/373/2
f 963/377/2 1098/382/2 1251/303/2 1095/372/2
f 1098/382/2 952/381/2 1024/304/2 1251/303/2
f 1099/384/2 1252/301/2 1037/47/2 917/49/2
f 964/387/2 1102/392/2 1252/301/2 1099/384/2
f 1102/392/2 951/391/2 1023/302/2 1252/301/2
f 1103/394/3 1253/297/3 1070/300/3 950/395/3
f 965/399/3 1106/404/3 1253/297/3 1103/394/3
f 1106/404/3 931/403/3 1003/298/3 1253/297/3
f 1107/406/3 1254/293/3 1069/296/3 949/407/3
f 966/411/3 1110/416/3 1254/293/3 1107/406/3
f 1110/416/3 948/415/3 1020/294/3 1254/293/3
f 1111/418/3 1255/289/3 1040/292/3 920/419/3
f 967/423/3 1114/428/3 1255/289/3 1111/418/3
f 1114/428/3 947/427/3 1019/290/3 1255/289/3
f 1115/430/66 1256/285/66 1066/288/66 946/431/66
f 968/435/66 1118/440/66 1256/285/66 1115/430/66
f 1118/440/4 934/439/4 1006/286/4 1256/285/4
f 1119/442/4 1257/281/4 1065/284/4 945/443/4
f 969/447/4 1122/452/4 1257/281/4 1119/442/4
f 1122/452/4 944/451/4 1016/282/4 1257/281/4
f 1123/454/4 1258/279/4 996/46/4 924/48/4
f 970/457/67 1126/462/67 1258/279/67 1123/454/67
f 1126/462/67 943/461/67 1015/280/67 1258/279/67
f 1127/464/6 1259/275/6 1062/278/6 942/465/6
f 971/469/5 1130/474/5 1259/275/5 1127/464/5
f 1130/474/5 918/473/5 1038/276/5 1259/275/5
f 1131/476/5 1260/271/5 1061/274/5 941/477/5
f 972/481/5 1134/486/5 1260/271/5 1131/476/5
f 1134/486/5 940/485/5 1012/272/5 1260/271/5
f 1135/488/6 1261/267/6 1005/270/6 933/489/6
f 973/493/69 1138/498/69 1261/267/69 1135/488/69
f 1138/498/70 939/497/70 1011/268/70 1261/267/70
f 1139/500/6 1262/263/6 1058/266/6 938/501/6
f 974/505/6 1142/510/6 1262/263/6 1139/500/6
f 1142/510/6 913/509/6 1033/264/6 1262/263/6
f 1143/512/6 1263/259/6 1057/262/6 937/513/6
f 975/517/6 1146/522/6 1263/259/6 1143/512/6
f 1146/522/6 936/521/6 1008/260/6 1263/259/6
f 1147/524/6 1264/255/6 1006/258/6 934/525/6
f 976/529/6 1150/534/6 1264/255/6 1147/524/6
f 1150/534/6 935/533/6 1007/256/6 1264/255/6
f 1151/536/6 1265/252/6 994/254/6 922/537/6
f 977/541/6 1154/546/6 1265/252/6 1151/536/6
f 1154/546/6 925/545/6 1045/253/6 1265/252/6
f 1155/548/6 1266/249/6 993/251/6 921/549/6
f 978/553/5 1158/558/5 1266/249/5 1155/548/5
f 1158/558/5 930/557/5 1050/250/5 1266/249/5
f 1159/560/4 1267/247/4 984/38/4 912/40/4
f 979/563/71 1162/568/71 1267/247/71 1159/560/71
f 1162/568/4 922/567/4 994/248/4 1267/247/4
f 1163/570/3 1268/244/3 1052/246/3 932/571/3
f 980/575/3 1166/580/3 1268/244/3 1163/570/3
f 1166/580/3 919/579/3 991/245/3 1268/244/3
f 1167/582/2 1269/242/2 1049/39/2 929/41/2
f 981/585/2 1170/590/2 1269/242/2 1167/582/2
f 1170/590/2 916/589/2 988/243/2 1269/242/2
f 1171/592/1 1270/239/1 1046/241/1 926/593/1
f 982/597/1 1174/602/1 1270/239/1 1171/592/1
f 1174/602/1 913/601/1 985/240/1 1270/239/1
