# Blender 4.4.0
# www.blender.org
mtllib Stop_sign.mtl
o Cylinder.002
v 0.031833 2.000441 -0.216427
v 0.049742 2.000441 -0.216427
v 0.031833 1.822355 -0.213510
v 0.049742 1.822355 -0.213510
v 0.031833 1.698493 -0.085521
v 0.049742 1.698493 -0.085521
v 0.031833 1.701410 0.092565
v 0.049742 1.701410 0.092565
v 0.031833 1.829399 0.216427
v 0.049742 1.829399 0.216427
v 0.031833 2.007485 0.213510
v 0.049742 2.007485 0.213510
v 0.031833 2.131348 0.085521
v 0.049742 2.131348 0.085521
v 0.031833 2.128430 -0.092565
v 0.049742 2.128430 -0.092565
v 0.030125 2.010469 -0.241806
v 0.049409 2.010469 -0.241806
v 0.030125 1.811501 -0.238546
v 0.049409 1.811501 -0.238546
v 0.030125 1.673114 -0.095549
v 0.049409 1.673114 -0.095549
v 0.030125 1.676374 0.103419
v 0.049409 1.676374 0.103419
v 0.030125 1.819371 0.241806
v 0.049409 1.819371 0.241806
v 0.030125 2.018339 0.238547
v 0.049409 2.018339 0.238547
v 0.030125 2.156726 0.095549
v 0.049409 2.156726 0.095549
v 0.030125 2.153467 -0.103419
v 0.049409 2.153467 -0.103419
v -0.006074 0.006084 -0.030655
v -0.006074 2.106084 -0.030655
v 0.008425 0.006084 -0.027620
v 0.008425 2.106084 -0.027620
v 0.020052 0.006084 -0.019113
v 0.020052 2.106084 -0.019113
v 0.026504 0.006084 -0.006822
v 0.026504 2.106084 -0.006821
v 0.026504 0.006084 0.006821
v 0.026504 2.106084 0.006821
v 0.020052 0.006084 0.019113
v 0.020052 2.106084 0.019113
v 0.008425 0.006084 0.027620
v 0.008425 2.106084 0.027620
v -0.006074 0.006084 0.030655
v -0.006074 2.106083 0.030655
v -0.020573 0.006084 0.027620
v -0.020573 2.106084 0.027620
v -0.032200 0.006084 0.019113
v -0.032200 2.106084 0.019113
v -0.038653 0.006084 0.006821
v -0.038653 2.106084 0.006821
v -0.038653 0.006084 -0.006822
v -0.038653 2.106084 -0.006821
v -0.032200 0.006084 -0.019113
v -0.032200 2.106084 -0.019113
v -0.020573 0.006084 -0.027620
v -0.020573 2.106084 -0.027620
v 0.031506 2.017577 -0.066387
v 0.031506 2.029333 -0.063404
v 0.031506 2.036598 -0.055594
v 0.031506 2.036598 -0.045940
v 0.032687 2.029577 -0.034231
v 0.032687 2.017821 -0.031248
v 0.032687 2.006065 -0.034231
v 0.031506 1.998555 -0.045940
v 0.031506 1.998555 -0.055594
v 0.031506 2.005821 -0.063404
v -0.011878 2.017577 -0.057493
v -0.009928 2.029333 -0.054910
v -0.004824 2.036598 -0.048146
v 0.001484 2.036598 -0.039785
v 0.007770 2.029577 -0.029123
v 0.008538 2.017577 -0.030438
v 0.007770 2.006065 -0.029123
v 0.001484 1.998555 -0.039785
v -0.004824 1.998555 -0.048146
v -0.009928 2.005821 -0.054909
v -0.043637 2.017577 -0.033194
v -0.040260 2.029333 -0.031702
v -0.031420 2.036598 -0.027797
v -0.020493 2.036598 -0.022970
v -0.011652 2.029333 -0.019065
v -0.008276 2.017577 -0.017573
v -0.011652 2.005821 -0.019065
v -0.020493 1.998555 -0.022970
v -0.031420 1.998555 -0.027797
v -0.040260 2.005821 -0.031702
v -0.055261 2.017577 -0.000000
v -0.051362 2.029333 -0.000000
v -0.041154 2.036598 -0.000000
v -0.028537 2.036598 -0.000000
v -0.018329 2.029333 -0.000000
v -0.014430 2.017577 -0.000000
v -0.018329 2.005821 -0.000000
v -0.028537 1.998555 -0.000000
v -0.041154 1.998555 -0.000000
v -0.051362 2.005821 -0.000000
v -0.043637 2.017577 0.033194
v -0.040260 2.029333 0.031702
v -0.031420 2.036598 0.027797
v -0.020493 2.036598 0.022970
v -0.011652 2.029333 0.019065
v -0.008276 2.017577 0.017573
v -0.011652 2.005821 0.019065
v -0.020493 1.998555 0.022970
v -0.031420 1.998555 0.027797
v -0.040260 2.005821 0.031702
v -0.011878 2.017577 0.057493
v -0.009928 2.029333 0.054909
v -0.004824 2.036598 0.048146
v 0.001484 2.036598 0.039785
v 0.006588 2.029333 0.033021
v 0.008538 2.017577 0.030437
v 0.006588 2.005821 0.033021
v 0.001484 1.998555 0.039785
v -0.004824 1.998555 0.048146
v -0.009928 2.005821 0.054909
v 0.031506 2.017577 0.066387
v 0.031506 2.029333 0.063404
v 0.031506 2.036598 0.055594
v 0.031506 2.036598 0.045940
v 0.031506 2.029333 0.038129
v 0.031506 2.017577 0.035146
v 0.031506 2.005821 0.038129
v 0.031506 1.998555 0.045940
v 0.031506 1.998555 0.055594
v 0.031506 2.005821 0.063404
v 0.023319 2.003999 -0.040735
v 0.023319 2.034299 -0.040735
v 0.023319 2.003999 -0.146854
v 0.023319 2.034298 -0.146854
v 0.032051 2.003999 -0.040735
v 0.032051 2.034299 -0.040735
v 0.032051 2.003999 -0.146854
v 0.032051 2.034298 -0.146854
v 0.023319 2.003999 0.160593
v 0.023319 2.034299 0.160593
v 0.023319 2.003999 0.054474
v 0.023319 2.034299 0.054474
v 0.032051 2.003999 0.160593
v 0.032051 2.034299 0.160593
v 0.032051 2.003999 0.054474
v 0.032051 2.034299 0.054474
v 0.031506 1.814947 -0.066387
v 0.031506 1.826703 -0.063404
v 0.031506 1.833969 -0.055594
v 0.031506 1.833969 -0.045940
v 0.032687 1.826947 -0.034231
v 0.032687 1.815192 -0.031248
v 0.032687 1.803435 -0.034231
v 0.031506 1.795925 -0.045940
v 0.031506 1.795925 -0.055594
v 0.031506 1.803191 -0.063404
v -0.011878 1.814947 -0.057493
v -0.009928 1.826703 -0.054909
v -0.004824 1.833969 -0.048146
v 0.001484 1.833969 -0.039785
v 0.007770 1.826947 -0.029123
v 0.008538 1.814947 -0.030437
v 0.007770 1.803435 -0.029123
v 0.001484 1.795925 -0.039785
v -0.004824 1.795925 -0.048146
v -0.009928 1.803191 -0.054910
v -0.043637 1.814947 -0.033194
v -0.040260 1.826703 -0.031702
v -0.031420 1.833969 -0.027797
v -0.020493 1.833969 -0.022970
v -0.011652 1.826703 -0.019065
v -0.008276 1.814947 -0.017573
v -0.011652 1.803191 -0.019065
v -0.020493 1.795925 -0.022970
v -0.031420 1.795925 -0.027797
v -0.040260 1.803191 -0.031702
v -0.055261 1.814947 0.000000
v -0.051362 1.826703 0.000000
v -0.041154 1.833969 0.000000
v -0.028537 1.833969 0.000000
v -0.018329 1.826703 0.000000
v -0.014430 1.814947 0.000000
v -0.018329 1.803191 0.000000
v -0.028537 1.795925 0.000000
v -0.041154 1.795925 0.000000
v -0.051362 1.803191 0.000000
v -0.043637 1.814947 0.033194
v -0.040260 1.826703 0.031702
v -0.031420 1.833969 0.027797
v -0.020493 1.833969 0.022970
v -0.011652 1.826703 0.019065
v -0.008276 1.814947 0.017573
v -0.011652 1.803191 0.019065
v -0.020493 1.795925 0.022970
v -0.031420 1.795925 0.027797
v -0.040260 1.803191 0.031702
v -0.011878 1.814947 0.057493
v -0.009928 1.826703 0.054910
v -0.004824 1.833969 0.048146
v 0.001484 1.833969 0.039785
v 0.006588 1.826703 0.033021
v 0.008538 1.814947 0.030438
v 0.006588 1.803191 0.033021
v 0.001484 1.795925 0.039785
v -0.004824 1.795925 0.048146
v -0.009928 1.803191 0.054910
v 0.031506 1.814947 0.066387
v 0.031506 1.826703 0.063404
v 0.031506 1.833969 0.055594
v 0.031506 1.833969 0.045940
v 0.031506 1.826703 0.038129
v 0.031506 1.814947 0.035146
v 0.031506 1.803191 0.038129
v 0.031506 1.795925 0.045940
v 0.031506 1.795925 0.055594
v 0.031506 1.803191 0.063404
v 0.023319 1.801369 0.160593
v 0.023319 1.831669 0.160593
v 0.023319 1.801369 0.054474
v 0.023319 1.831669 0.054474
v 0.032051 1.801369 0.160593
v 0.032051 1.831669 0.160593
v 0.032051 1.801369 0.054474
v 0.032051 1.831669 0.054474
v 0.023319 1.801369 -0.040735
v 0.023319 1.831669 -0.040735
v 0.023319 1.801369 -0.146854
v 0.023319 1.831669 -0.146854
v 0.032051 1.801369 -0.040735
v 0.032051 1.831669 -0.040735
v 0.032051 1.801369 -0.146854
v 0.032051 1.831669 -0.146854
vn -0.0000 -0.0164 -0.9999
vn -0.0000 -0.7186 -0.6954
vn -0.0000 -0.9999 0.0164
vn -0.0000 -0.6954 0.7186
vn -0.0000 0.0164 0.9999
vn -0.0000 0.7186 0.6954
vn 1.0000 -0.0000 -0.0000
vn -0.0000 0.9999 -0.0164
vn -0.0000 0.6954 -0.7186
vn -1.0000 -0.0000 -0.0000
vn 0.2049 -0.0000 -0.9788
vn 0.5904 -0.0000 -0.8071
vn 0.8854 -0.0000 -0.4648
vn 0.8854 -0.0000 0.4648
vn 0.5904 -0.0000 0.8071
vn 0.2049 -0.0000 0.9788
vn -0.2049 -0.0000 0.9788
vn -0.5904 -0.0000 0.8071
vn -0.8854 -0.0000 0.4648
vn -0.8854 -0.0000 -0.4648
vn -0.0000 1.0000 -0.0000
vn -0.5904 -0.0000 -0.8071
vn -0.2049 -0.0000 -0.9788
vn -0.0000 -1.0000 -0.0000
vn -0.1949 0.2413 -0.9507
vn -0.1383 0.7251 -0.6746
vn 0.1033 0.8576 0.5038
vn 0.1191 0.0734 0.9902
vn 0.1198 -0.0749 0.9900
vn 0.1084 -0.8417 0.5289
vn -0.1383 -0.7251 -0.6746
vn -0.1949 -0.2413 -0.9507
vn -0.5859 0.2654 -0.7657
vn -0.3955 0.7591 -0.5170
vn 0.3087 0.8194 0.4830
vn 0.5315 0.0990 0.8413
vn 0.5323 -0.1012 0.8405
vn 0.3219 -0.8111 0.4885
vn -0.3955 -0.7591 -0.5170
vn -0.5859 -0.2654 -0.7657
vn -0.9007 0.2987 -0.3154
vn -0.5683 0.7984 -0.1990
vn 0.5683 0.7984 0.1990
vn 0.9007 0.2987 0.3154
vn 0.9007 -0.2987 0.3154
vn 0.5683 -0.7984 0.1990
vn -0.5683 -0.7984 -0.1990
vn -0.9007 -0.2987 -0.3154
vn -0.9007 0.2987 0.3154
vn -0.5683 0.7984 0.1990
vn 0.5683 0.7984 -0.1990
vn 0.9007 0.2987 -0.3154
vn 0.9007 -0.2987 -0.3154
vn 0.5683 -0.7984 -0.1990
vn -0.5683 -0.7984 0.1990
vn -0.9007 -0.2987 0.3154
vn -0.5859 0.2654 0.7657
vn -0.3955 0.7591 0.5170
vn 0.3955 0.7591 -0.5170
vn 0.5859 0.2654 -0.7657
vn 0.5859 -0.2654 -0.7657
vn 0.3955 -0.7591 -0.5170
vn -0.3955 -0.7591 0.5170
vn -0.5859 -0.2654 0.7657
vn -0.1949 0.2413 0.9507
vn -0.1383 0.7251 0.6746
vn 0.1383 0.7251 -0.6746
vn 0.1949 0.2413 -0.9507
vn 0.1949 -0.2413 -0.9507
vn 0.1383 -0.7251 -0.6746
vn -0.1383 -0.7251 0.6746
vn -0.1949 -0.2412 0.9507
vn -0.0000 -0.0000 -1.0000
vn -0.0000 -0.0000 1.0000
vn 0.1949 -0.2412 -0.9507
vn -0.1949 -0.2413 0.9507
vt 1.000000 0.500000
vt 1.000000 1.000000
vt 0.875000 1.000000
vt 0.875000 0.500000
vt 0.750000 1.000000
vt 0.750000 0.500000
vt 0.625000 1.000000
vt 0.625000 0.500000
vt 0.500000 1.000000
vt 0.500000 0.500000
vt 0.375000 1.000000
vt 0.375000 0.500000
vt 0.250000 1.000000
vt 0.250000 0.500000
vt 0.419706 0.419706
vt 0.250000 0.490000
vt 0.080294 0.419706
vt 0.010000 0.250000
vt 0.080294 0.080294
vt 0.250000 0.010000
vt 0.419706 0.080294
vt 0.490000 0.250000
vt 0.125000 1.000000
vt 0.125000 0.500000
vt 0.000000 1.000000
vt 0.000000 0.500000
vt 0.750000 0.490000
vt 0.919706 0.419706
vt 0.990000 0.250000
vt 0.919706 0.080294
vt 0.750000 0.010000
vt 0.580294 0.080294
vt 0.510000 0.250000
vt 0.580294 0.419706
vt 0.928571 1.000000
vt 0.928571 0.500000
vt 0.857143 1.000000
vt 0.857143 0.500000
vt 0.785714 1.000000
vt 0.785714 0.500000
vt 0.714286 1.000000
vt 0.714286 0.500000
vt 0.642857 1.000000
vt 0.642857 0.500000
vt 0.571428 1.000000
vt 0.571428 0.500000
vt 0.500000 1.000000
vt 0.500000 0.500000
vt 0.428571 1.000000
vt 0.428571 0.500000
vt 0.357143 1.000000
vt 0.357143 0.500000
vt 0.285714 1.000000
vt 0.285714 0.500000
vt 0.214286 1.000000
vt 0.214286 0.500000
vt 0.142857 1.000000
vt 0.142857 0.500000
vt 0.354132 0.466233
vt 0.145868 0.466233
vt 0.062360 0.399638
vt 0.016017 0.303405
vt 0.016017 0.196595
vt 0.062360 0.100362
vt 0.145868 0.033767
vt 0.354132 0.033767
vt 0.437640 0.100362
vt 0.483983 0.196595
vt 0.483983 0.303405
vt 0.437640 0.399638
vt 0.071428 1.000000
vt 0.071428 0.500000
vt -0.000000 1.000000
vt -0.000000 0.500000
vt 0.854132 0.466233
vt 0.937640 0.399638
vt 0.983983 0.303405
vt 0.983983 0.196595
vt 0.937640 0.100362
vt 0.854132 0.033767
vt 0.645868 0.033767
vt 0.562360 0.100362
vt 0.516017 0.196595
vt 0.516017 0.303405
vt 0.562360 0.399638
vt 0.645868 0.466233
vt 0.750000 0.600000
vt 0.833333 0.600000
vt 0.833333 0.700000
vt 0.750000 0.700000
vt 0.833333 0.800000
vt 0.750000 0.800000
vt 0.833333 0.900000
vt 0.750000 0.900000
vt 0.833333 1.000000
vt 0.750000 -0.000000
vt 0.833333 -0.000000
vt 0.833333 0.100000
vt 0.750000 0.100000
vt 0.833333 0.200000
vt 0.750000 0.200000
vt 0.833333 0.300000
vt 0.750000 0.300000
vt 0.833333 0.400000
vt 0.750000 0.400000
vt 0.833333 0.500000
vt 0.916667 0.600000
vt 0.916667 0.700000
vt 0.916667 0.800000
vt 0.916667 0.900000
vt 0.916667 1.000000
vt 0.916667 -0.000000
vt 0.916667 0.100000
vt 0.916667 0.200000
vt 0.916667 0.300000
vt 0.916667 0.400000
vt 0.916667 0.500000
vt 1.000000 0.600000
vt 1.000000 0.700000
vt 1.000000 0.800000
vt 1.000000 0.900000
vt 1.000000 -0.000000
vt 1.000000 0.100000
vt 1.000000 0.200000
vt 1.000000 0.300000
vt 1.000000 0.400000
vt 0.000000 0.600000
vt 0.083333 0.600000
vt 0.083333 0.700000
vt 0.000000 0.700000
vt 0.083333 0.800000
vt 0.000000 0.800000
vt 0.083333 0.900000
vt 0.000000 0.900000
vt 0.083333 1.000000
vt 0.000000 1.000000
vt 0.000000 -0.000000
vt 0.083333 -0.000000
vt 0.083333 0.100000
vt 0.000000 0.100000
vt 0.083333 0.200000
vt 0.000000 0.200000
vt 0.083333 0.300000
vt 0.000000 0.300000
vt 0.083333 0.400000
vt 0.000000 0.400000
vt 0.083333 0.500000
vt 0.000000 0.500000
vt 0.166667 0.600000
vt 0.166667 0.700000
vt 0.166667 0.800000
vt 0.166667 0.900000
vt 0.166667 1.000000
vt 0.166667 -0.000000
vt 0.166667 0.100000
vt 0.166667 0.200000
vt 0.166667 0.300000
vt 0.166667 0.400000
vt 0.166667 0.500000
vt 0.250000 0.600000
vt 0.250000 0.700000
vt 0.250000 0.800000
vt 0.250000 0.900000
vt 0.250000 -0.000000
vt 0.250000 0.100000
vt 0.250000 0.200000
vt 0.250000 0.300000
vt 0.250000 0.400000
vt 0.375000 0.000000
vt 0.625000 0.000000
vt 0.625000 0.250000
vt 0.375000 0.250000
vt 0.625000 0.750000
vt 0.375000 0.750000
vt 0.125000 0.750000
vt 0.875000 0.750000
s 0
usemtl Material.002
f 1/1/1 2/2/1 4/3/1 3/4/1
f 3/4/2 4/3/2 6/5/2 5/6/2
f 5/6/3 6/5/3 8/7/3 7/8/3
f 7/8/4 8/7/4 10/9/4 9/10/4
f 9/10/5 10/9/5 12/11/5 11/12/5
f 11/12/6 12/11/6 14/13/6 13/14/6
f 4/15/7 2/16/7 16/17/7 14/18/7 12/19/7 10/20/7 8/21/7 6/22/7
f 13/14/8 14/13/8 16/23/8 15/24/8
f 15/24/9 16/23/9 2/25/9 1/26/9
f 1/27/10 3/28/10 5/29/10 7/30/10 9/31/10 11/32/10 13/33/10 15/34/10
usemtl Material.001
f 17/1/1 18/2/1 20/3/1 19/4/1
f 19/4/2 20/3/2 22/5/2 21/6/2
f 21/6/3 22/5/3 24/7/3 23/8/3
f 23/8/4 24/7/4 26/9/4 25/10/4
f 25/10/5 26/9/5 28/11/5 27/12/5
f 27/12/6 28/11/6 30/13/6 29/14/6
f 20/15/7 18/16/7 32/17/7 30/18/7 28/19/7 26/20/7 24/21/7 22/22/7
f 29/14/8 30/13/8 32/23/8 31/24/8
f 31/24/9 32/23/9 18/25/9 17/26/9
f 17/27/10 19/28/10 21/29/10 23/30/10 25/31/10 27/32/10 29/33/10 31/34/10
usemtl 
f 33/1/11 34/2/11 36/35/11 35/36/11
f 35/36/12 36/35/12 38/37/12 37/38/12
f 37/38/13 38/37/13 40/39/13 39/40/13
f 39/40/7 40/39/7 42/41/7 41/42/7
f 41/42/14 42/41/14 44/43/14 43/44/14
f 43/44/15 44/43/15 46/45/15 45/46/15
f 45/46/16 46/45/16 48/47/16 47/48/16
f 47/48/17 48/47/17 50/49/17 49/50/17
f 49/50/18 50/49/18 52/51/18 51/52/18
f 51/52/19 52/51/19 54/53/19 53/54/19
f 53/54/10 54/53/10 56/55/10 55/56/10
f 55/56/20 56/55/20 58/57/20 57/58/20
f 36/59/21 34/16/21 60/60/21 58/61/21 56/62/21 54/63/21 52/64/21 50/65/21 48/20/21 46/66/21 44/67/21 42/68/21 40/69/21 38/70/21
f 57/58/22 58/57/22 60/71/22 59/72/22
f 59/72/23 60/71/23 34/73/23 33/74/23
f 33/27/24 35/75/24 37/76/24 39/77/24 41/78/24 43/79/24 45/80/24 47/31/24 49/81/24 51/82/24 53/83/24 55/84/24 57/85/24 59/86/24
usemtl Material.008
f 61/87/25 71/88/25 72/89/25 62/90/25
f 62/90/26 72/89/26 73/91/26 63/92/26
f 63/92/21 73/91/21 74/93/21 64/94/21
f 64/94/27 74/93/27 75/95/27 65/5/27
f 65/96/28 75/97/28 76/98/28 66/99/28
f 66/99/29 76/98/29 77/100/29 67/101/29
f 67/101/30 77/100/30 78/102/30 68/103/30
f 68/103/24 78/102/24 79/104/24 69/105/24
f 69/105/31 79/104/31 80/106/31 70/6/31
f 70/6/32 80/106/32 71/88/32 61/87/32
f 71/88/33 81/107/33 82/108/33 72/89/33
f 72/89/34 82/108/34 83/109/34 73/91/34
f 73/91/21 83/109/21 84/110/21 74/93/21
f 74/93/35 84/110/35 85/111/35 75/95/35
f 75/97/36 85/112/36 86/113/36 76/98/36
f 76/98/37 86/113/37 87/114/37 77/100/37
f 77/100/38 87/114/38 88/115/38 78/102/38
f 78/102/24 88/115/24 89/116/24 79/104/24
f 79/104/39 89/116/39 90/117/39 80/106/39
f 80/106/40 90/117/40 81/107/40 71/88/40
f 81/107/41 91/118/41 92/119/41 82/108/41
f 82/108/42 92/119/42 93/120/42 83/109/42
f 83/109/21 93/120/21 94/121/21 84/110/21
f 84/110/43 94/121/43 95/2/43 85/111/43
f 85/112/44 95/122/44 96/123/44 86/113/44
f 86/113/45 96/123/45 97/124/45 87/114/45
f 87/114/46 97/124/46 98/125/46 88/115/46
f 88/115/24 98/125/24 99/126/24 89/116/24
f 89/116/47 99/126/47 100/1/47 90/117/47
f 90/117/48 100/1/48 91/118/48 81/107/48
f 91/127/49 101/128/49 102/129/49 92/130/49
f 92/130/50 102/129/50 103/131/50 93/132/50
f 93/132/21 103/131/21 104/133/21 94/134/21
f 94/134/51 104/133/51 105/135/51 95/136/51
f 95/137/52 105/138/52 106/139/52 96/140/52
f 96/140/53 106/139/53 107/141/53 97/142/53
f 97/142/54 107/141/54 108/143/54 98/144/54
f 98/144/24 108/143/24 109/145/24 99/146/24
f 99/146/55 109/145/55 110/147/55 100/148/55
f 100/148/56 110/147/56 101/128/56 91/127/56
f 101/128/57 111/149/57 112/150/57 102/129/57
f 102/129/58 112/150/58 113/151/58 103/131/58
f 103/131/21 113/151/21 114/152/21 104/133/21
f 104/133/59 114/152/59 115/153/59 105/135/59
f 105/138/60 115/154/60 116/155/60 106/139/60
f 106/139/61 116/155/61 117/156/61 107/141/61
f 107/141/62 117/156/62 118/157/62 108/143/62
f 108/143/24 118/157/24 119/158/24 109/145/24
f 109/145/63 119/158/63 120/159/63 110/147/63
f 110/147/64 120/159/64 111/149/64 101/128/64
f 111/149/65 121/160/65 122/161/65 112/150/65
f 112/150/66 122/161/66 123/162/66 113/151/66
f 113/151/21 123/162/21 124/163/21 114/152/21
f 114/152/67 124/163/67 125/13/67 115/153/67
f 115/154/68 125/164/68 126/165/68 116/155/68
f 116/155/69 126/165/69 127/166/69 117/156/69
f 117/156/70 127/166/70 128/167/70 118/157/70
f 118/157/24 128/167/24 129/168/24 119/158/24
f 119/158/71 129/168/71 130/14/71 120/159/71
f 120/159/72 130/14/72 121/160/72 111/149/72
usemtl Material.010
f 131/169/10 132/170/10 134/171/10 133/172/10
f 133/172/73 134/171/73 138/8/73 137/12/73
f 137/12/7 138/8/7 136/173/7 135/174/7
f 135/174/74 136/173/74 132/7/74 131/11/74
f 133/24/24 137/12/24 135/174/24 131/175/24
f 138/8/21 134/4/21 132/176/21 136/173/21
usemtl Material.009
f 139/169/10 140/170/10 142/171/10 141/172/10
f 141/172/73 142/171/73 146/8/73 145/12/73
f 145/12/7 146/8/7 144/173/7 143/174/7
f 143/174/74 144/173/74 140/7/74 139/11/74
f 141/24/24 145/12/24 143/174/24 139/175/24
f 146/8/21 142/4/21 140/176/21 144/173/21
usemtl Material.005
f 147/87/25 157/88/25 158/89/25 148/90/25
f 148/90/26 158/89/26 159/91/26 149/92/26
f 149/92/21 159/91/21 160/93/21 150/94/21
f 150/94/27 160/93/27 161/95/27 151/5/27
f 151/96/28 161/97/28 162/98/28 152/99/28
f 152/99/29 162/98/29 163/100/29 153/101/29
f 153/101/30 163/100/30 164/102/30 154/103/30
f 154/103/24 164/102/24 165/104/24 155/105/24
f 155/105/31 165/104/31 166/106/31 156/6/31
f 156/6/32 166/106/32 157/88/32 147/87/32
f 157/88/33 167/107/33 168/108/33 158/89/33
f 158/89/34 168/108/34 169/109/34 159/91/34
f 159/91/21 169/109/21 170/110/21 160/93/21
f 160/93/35 170/110/35 171/111/35 161/95/35
f 161/97/36 171/112/36 172/113/36 162/98/36
f 162/98/37 172/113/37 173/114/37 163/100/37
f 163/100/38 173/114/38 174/115/38 164/102/38
f 164/102/24 174/115/24 175/116/24 165/104/24
f 165/104/39 175/116/39 176/117/39 166/106/39
f 166/106/40 176/117/40 167/107/40 157/88/40
f 167/107/41 177/118/41 178/119/41 168/108/41
f 168/108/42 178/119/42 179/120/42 169/109/42
f 169/109/21 179/120/21 180/121/21 170/110/21
f 170/110/43 180/121/43 181/2/43 171/111/43
f 171/112/44 181/122/44 182/123/44 172/113/44
f 172/113/45 182/123/45 183/124/45 173/114/45
f 173/114/46 183/124/46 184/125/46 174/115/46
f 174/115/24 184/125/24 185/126/24 175/116/24
f 175/116/47 185/126/47 186/1/47 176/117/47
f 176/117/48 186/1/48 177/118/48 167/107/48
f 177/127/49 187/128/49 188/129/49 178/130/49
f 178/130/50 188/129/50 189/131/50 179/132/50
f 179/132/21 189/131/21 190/133/21 180/134/21
f 180/134/51 190/133/51 191/135/51 181/136/51
f 181/137/52 191/138/52 192/139/52 182/140/52
f 182/140/53 192/139/53 193/141/53 183/142/53
f 183/142/54 193/141/54 194/143/54 184/144/54
f 184/144/24 194/143/24 195/145/24 185/146/24
f 185/146/55 195/145/55 196/147/55 186/148/55
f 186/148/56 196/147/56 187/128/56 177/127/56
f 187/128/57 197/149/57 198/150/57 188/129/57
f 188/129/58 198/150/58 199/151/58 189/131/58
f 189/131/21 199/151/21 200/152/21 190/133/21
f 190/133/59 200/152/59 201/153/59 191/135/59
f 191/138/60 201/154/60 202/155/60 192/139/60
f 192/139/61 202/155/61 203/156/61 193/141/61
f 193/141/62 203/156/62 204/157/62 194/143/62
f 194/143/24 204/157/24 205/158/24 195/145/24
f 195/145/63 205/158/63 206/159/63 196/147/63
f 196/147/64 206/159/64 197/149/64 187/128/64
f 197/149/65 207/160/65 208/161/65 198/150/65
f 198/150/66 208/161/66 209/162/66 199/151/66
f 199/151/21 209/162/21 210/163/21 200/152/21
f 200/152/67 210/163/67 211/13/67 201/153/67
f 201/154/68 211/164/68 212/165/68 202/155/68
f 202/155/75 212/165/75 213/166/75 203/156/75
f 203/156/70 213/166/70 214/167/70 204/157/70
f 204/157/24 214/167/24 215/168/24 205/158/24
f 205/158/71 215/168/71 216/14/71 206/159/71
f 206/159/76 216/14/76 207/160/76 197/149/76
usemtl Material.006
f 217/169/10 218/170/10 220/171/10 219/172/10
f 219/172/73 220/171/73 224/8/73 223/12/73
f 223/12/7 224/8/7 222/173/7 221/174/7
f 221/174/74 222/173/74 218/7/74 217/11/74
f 219/24/24 223/12/24 221/174/24 217/175/24
f 224/8/21 220/4/21 218/176/21 222/173/21
usemtl Material.007
f 225/169/10 226/170/10 228/171/10 227/172/10
f 227/172/73 228/171/73 232/8/73 231/12/73
f 231/12/7 232/8/7 230/173/7 229/174/7
f 229/174/74 230/173/74 226/7/74 225/11/74
f 227/24/24 231/12/24 229/174/24 225/175/24
f 232/8/21 228/4/21 226/176/21 230/173/21
o STOP
v 0.050066 1.906983 -0.157079
v 0.050066 1.907266 -0.162688
v 0.050066 1.908108 -0.167863
v 0.050066 1.909504 -0.172593
v 0.050066 1.911447 -0.176869
v 0.050066 1.913930 -0.180680
v 0.050066 1.916947 -0.184016
v 0.050066 1.920491 -0.186867
v 0.050066 1.924556 -0.189223
v 0.050066 1.929134 -0.191073
v 0.050066 1.934219 -0.192407
v 0.050066 1.939805 -0.193215
v 0.050066 1.945885 -0.193486
v 0.050066 1.951544 -0.193187
v 0.050066 1.956855 -0.192307
v 0.050066 1.961792 -0.190871
v 0.050066 1.966326 -0.188903
v 0.050066 1.970431 -0.186430
v 0.050066 1.974079 -0.183477
v 0.050066 1.977241 -0.180068
v 0.050066 1.979890 -0.176230
v 0.050066 1.981999 -0.171986
v 0.050066 1.983539 -0.167363
v 0.050066 1.984484 -0.162386
v 0.050066 1.984805 -0.157079
v 0.050066 1.984805 -0.115821
v 0.050066 1.846178 -0.115821
v 0.050066 1.846178 -0.135713
v 0.050066 1.906983 -0.135713
v 0.050066 1.965345 -0.135713
v 0.050066 1.965345 -0.156109
v 0.050066 1.965185 -0.158690
v 0.050066 1.964715 -0.161121
v 0.050066 1.963947 -0.163388
v 0.050066 1.962896 -0.165477
v 0.050066 1.961574 -0.167373
v 0.050066 1.959995 -0.169062
v 0.050066 1.958173 -0.170530
v 0.050066 1.956121 -0.171764
v 0.050066 1.953853 -0.172747
v 0.050066 1.951382 -0.173468
v 0.050066 1.948722 -0.173910
v 0.050066 1.945885 -0.174061
v 0.050066 1.942836 -0.173930
v 0.050066 1.940017 -0.173539
v 0.050066 1.937435 -0.172891
v 0.050066 1.935097 -0.171990
v 0.050066 1.933009 -0.170840
v 0.050066 1.931178 -0.169443
v 0.050066 1.929610 -0.167804
v 0.050066 1.928313 -0.165926
v 0.050066 1.927293 -0.163812
v 0.050066 1.926556 -0.161466
v 0.050066 1.926108 -0.158891
v 0.050066 1.925958 -0.156092
v 0.050066 1.925958 -0.135713
v 0.050066 1.843769 -0.047408
v 0.050066 1.843789 -0.049778
v 0.050066 1.844023 -0.053015
v 0.050066 1.844733 -0.056916
v 0.050066 1.846181 -0.061276
v 0.050066 1.848628 -0.065890
v 0.050066 1.852336 -0.070552
v 0.050066 1.857568 -0.075059
v 0.050066 1.864584 -0.079206
v 0.050066 1.873647 -0.082788
v 0.050066 1.885018 -0.085600
v 0.050066 1.898960 -0.087437
v 0.050066 1.915734 -0.088095
v 0.050066 1.932389 -0.087437
v 0.050066 1.946233 -0.085600
v 0.050066 1.957526 -0.082788
v 0.050066 1.966527 -0.079206
v 0.050066 1.973497 -0.075059
v 0.050066 1.978695 -0.070552
v 0.050066 1.982380 -0.065890
v 0.050066 1.984813 -0.061276
v 0.050066 1.986253 -0.056916
v 0.050066 1.986960 -0.053015
v 0.050066 1.987193 -0.049778
v 0.050066 1.987214 -0.047408
v 0.050066 1.987194 -0.045030
v 0.050066 1.986964 -0.041768
v 0.050066 1.986261 -0.037830
v 0.050066 1.984826 -0.033423
v 0.050066 1.982399 -0.028757
v 0.050066 1.978721 -0.024039
v 0.050066 1.973529 -0.019476
v 0.050066 1.966566 -0.015276
v 0.050066 1.957570 -0.011648
v 0.050066 1.946281 -0.008799
v 0.050066 1.932440 -0.006937
v 0.050066 1.915786 -0.006271
v 0.050066 1.899000 -0.006937
v 0.050066 1.885049 -0.008799
v 0.050066 1.873669 -0.011648
v 0.050066 1.864599 -0.015276
v 0.050066 1.857578 -0.019476
v 0.050066 1.852343 -0.024039
v 0.050066 1.848631 -0.028757
v 0.050066 1.846182 -0.033423
v 0.050066 1.844734 -0.037830
v 0.050066 1.844023 -0.041768
v 0.050066 1.843789 -0.045030
v 0.050066 1.915682 -0.068982
v 0.050066 1.903456 -0.068628
v 0.050066 1.893294 -0.067642
v 0.050066 1.885004 -0.066131
v 0.050066 1.878397 -0.064208
v 0.050066 1.873281 -0.061982
v 0.050066 1.869465 -0.059564
v 0.050066 1.866760 -0.057063
v 0.050066 1.864974 -0.054590
v 0.050066 1.863917 -0.052256
v 0.050066 1.863398 -0.050169
v 0.050066 1.863227 -0.048442
v 0.050066 1.863212 -0.047183
v 0.050066 1.863227 -0.045924
v 0.050066 1.863398 -0.044195
v 0.050066 1.863917 -0.042107
v 0.050066 1.864974 -0.039771
v 0.050066 1.866760 -0.037296
v 0.050066 1.869465 -0.034793
v 0.050066 1.873281 -0.032372
v 0.050066 1.878397 -0.030145
v 0.050066 1.885004 -0.028220
v 0.050066 1.893294 -0.026708
v 0.050066 1.903456 -0.025720
v 0.050066 1.915682 -0.025366
v 0.050066 1.927820 -0.025720
v 0.050066 1.937910 -0.026708
v 0.050066 1.946140 -0.028220
v 0.050066 1.952699 -0.030145
v 0.050066 1.957778 -0.032372
v 0.050066 1.961565 -0.034793
v 0.050066 1.964251 -0.037296
v 0.050066 1.966023 -0.039771
v 0.050066 1.967072 -0.042107
v 0.050066 1.967587 -0.044195
v 0.050066 1.967757 -0.045924
v 0.050066 1.967771 -0.047183
v 0.050066 1.967757 -0.048442
v 0.050066 1.967587 -0.050169
v 0.050066 1.967072 -0.052256
v 0.050066 1.966023 -0.054590
v 0.050066 1.964251 -0.057063
v 0.050066 1.961565 -0.059564
v 0.050066 1.957778 -0.061982
v 0.050066 1.952699 -0.064208
v 0.050066 1.946140 -0.066131
v 0.050066 1.937910 -0.067642
v 0.050066 1.927820 -0.068628
v 0.050066 1.966316 0.035733
v 0.050066 1.966316 0.010365
v 0.050066 1.984805 0.010365
v 0.050066 1.984805 0.081099
v 0.050066 1.966316 0.081099
v 0.050066 1.966316 0.055730
v 0.050066 1.846178 0.055730
v 0.050066 1.846178 0.035733
v 0.050066 1.863212 0.132166
v 0.050066 1.863194 0.132166
v 0.050066 1.863439 0.135422
v 0.050066 1.864142 0.138358
v 0.050066 1.865263 0.140982
v 0.050066 1.866758 0.143301
v 0.050066 1.868585 0.145321
v 0.050066 1.870700 0.147049
v 0.050066 1.873061 0.148492
v 0.050066 1.875625 0.149657
v 0.050066 1.878349 0.150552
v 0.050066 1.881191 0.151182
v 0.050066 1.884107 0.151555
v 0.050066 1.887056 0.151678
v 0.050066 1.887056 0.171241
v 0.050066 1.881442 0.170939
v 0.050066 1.875977 0.170044
v 0.050066 1.870725 0.168572
v 0.050066 1.865751 0.166541
v 0.050066 1.861119 0.163967
v 0.050066 1.856896 0.160868
v 0.050066 1.853144 0.157260
v 0.050066 1.849929 0.153161
v 0.050066 1.847316 0.148586
v 0.050066 1.845370 0.143554
v 0.050066 1.844154 0.138081
v 0.050066 1.843735 0.132183
v 0.050066 1.844101 0.126910
v 0.050066 1.845167 0.121864
v 0.050066 1.846888 0.117089
v 0.050066 1.849216 0.112628
v 0.050066 1.852104 0.108528
v 0.050066 1.855507 0.104830
v 0.050066 1.859378 0.101581
v 0.050066 1.863669 0.098823
v 0.050066 1.868334 0.096601
v 0.050066 1.873327 0.094959
v 0.050066 1.878601 0.093942
v 0.050066 1.884110 0.093593
v 0.050066 1.890284 0.094007
v 0.050066 1.896018 0.095199
v 0.050066 1.901341 0.097092
v 0.050066 1.906281 0.099612
v 0.050066 1.910864 0.102681
v 0.050066 1.915119 0.106225
v 0.050066 1.919074 0.110168
v 0.050066 1.922756 0.114433
v 0.050066 1.926193 0.118945
v 0.050066 1.929414 0.123629
v 0.050066 1.932445 0.128407
v 0.050066 1.935315 0.133206
v 0.050066 1.936583 0.135207
v 0.050066 1.937778 0.137019
v 0.050066 1.938925 0.138645
v 0.050066 1.940050 0.140087
v 0.050066 1.941177 0.141349
v 0.050066 1.942333 0.142433
v 0.050066 1.943542 0.143342
v 0.050066 1.944830 0.144080
v 0.050066 1.946222 0.144649
v 0.050066 1.947743 0.145051
v 0.050066 1.949419 0.145291
v 0.050066 1.951275 0.145370
v 0.050066 1.953530 0.145221
v 0.050066 1.955669 0.144785
v 0.050066 1.957676 0.144082
v 0.050066 1.959535 0.143130
v 0.050066 1.961232 0.141948
v 0.050066 1.962752 0.140553
v 0.050066 1.964080 0.138965
v 0.050066 1.965200 0.137201
v 0.050066 1.966098 0.135282
v 0.050066 1.966757 0.133224
v 0.050066 1.967164 0.131047
v 0.050066 1.967303 0.128769
v 0.050066 1.967173 0.126616
v 0.050066 1.966790 0.124559
v 0.050066 1.966163 0.122613
v 0.050066 1.965304 0.120795
v 0.050066 1.964221 0.119118
v 0.050066 1.962926 0.117599
v 0.050066 1.961428 0.116253
v 0.050066 1.959738 0.115095
v 0.050066 1.957866 0.114141
v 0.050066 1.955821 0.113406
v 0.050066 1.953615 0.112905
v 0.050066 1.951257 0.112654
v 0.050066 1.951257 0.093576
v 0.050066 1.956363 0.093987
v 0.050066 1.961192 0.094960
v 0.050066 1.965712 0.096462
v 0.050066 1.969892 0.098463
v 0.050066 1.973699 0.100933
v 0.050066 1.977103 0.103840
v 0.050066 1.980070 0.107155
v 0.050066 1.982569 0.110845
v 0.050066 1.984568 0.114881
v 0.050066 1.986036 0.119231
v 0.050066 1.986940 0.123865
v 0.050066 1.987248 0.128752
v 0.050066 1.986917 0.133658
v 0.050066 1.985952 0.138342
v 0.050066 1.984397 0.142765
v 0.050066 1.982296 0.146889
v 0.050066 1.979692 0.150673
v 0.050066 1.976628 0.154080
v 0.050066 1.973149 0.157069
v 0.050066 1.969299 0.159603
v 0.050066 1.965120 0.161642
v 0.050066 1.960656 0.163146
v 0.050066 1.955951 0.164078
v 0.050066 1.951049 0.164397
v 0.050066 1.942405 0.163379
v 0.050066 1.935099 0.160564
v 0.050066 1.928899 0.156312
v 0.050066 1.923568 0.150981
v 0.050066 1.918874 0.144932
v 0.050066 1.914582 0.138523
v 0.050066 1.910457 0.132114
v 0.050066 1.906265 0.126064
v 0.050066 1.901772 0.120732
v 0.050066 1.896744 0.116477
v 0.050066 1.890946 0.113659
v 0.050066 1.884144 0.112637
v 0.050066 1.881381 0.112816
v 0.050066 1.878707 0.113337
v 0.050066 1.876151 0.114177
v 0.050066 1.873742 0.115312
v 0.050066 1.871509 0.116719
v 0.050066 1.869480 0.118372
v 0.050066 1.867685 0.120250
v 0.050066 1.866151 0.122328
v 0.050066 1.864908 0.124582
v 0.050066 1.863985 0.126989
v 0.050066 1.863410 0.129525
vn 1.0000 -0.0000 -0.0000
vt 0.472727 0.000000
vt 0.527273 0.000000
vt 0.454545 0.000000
vt 0.436364 0.000000
vt 0.418182 0.000000
vt 0.400000 0.000000
vt 0.381818 0.000000
vt 0.363636 0.000000
vt 0.345455 0.000000
vt 0.327273 0.000000
vt 0.309091 0.000000
vt 0.290909 0.000000
vt 0.545455 0.000000
vt 0.563636 0.000000
vt 0.272727 0.000000
vt 1.000000 0.000000
vt 0.581818 0.000000
vt 0.600000 0.000000
vt 0.618182 0.000000
vt 0.636364 0.000000
vt 0.254545 0.000000
vt 0.654545 0.000000
vt 0.672727 0.000000
vt 0.690909 0.000000
vt 0.236364 0.000000
vt 0.709091 0.000000
vt 0.727273 0.000000
vt 0.218182 0.000000
vt 0.745455 0.000000
vt 0.763636 0.000000
vt 0.781818 0.000000
vt 0.200000 0.000000
vt 0.800000 0.000000
vt 0.818182 0.000000
vt 0.181818 0.000000
vt 0.836364 0.000000
vt 0.854545 0.000000
vt 0.163636 0.000000
vt 0.872727 0.000000
vt 0.890909 0.000000
vt 0.909091 0.000000
vt 0.145455 0.000000
vt 0.927273 0.000000
vt 0.945455 0.000000
vt 0.963636 0.000000
vt 0.981818 0.000000
vt 0.509091 0.000000
vt 0.127273 0.000000
vt 0.109091 0.000000
vt 0.090909 0.000000
vt 0.072727 0.000000
vt 0.054545 0.000000
vt 0.036364 0.000000
vt 0.018182 0.000000
vt 0.000000 0.000000
vt 0.490909 0.000000
vt 0.263158 0.000000
vt 0.242105 0.000000
vt 0.252632 0.000000
vt 0.273684 0.000000
vt 0.231579 0.000000
vt 0.284211 0.000000
vt 0.221053 0.000000
vt 0.294737 0.000000
vt 0.210526 0.000000
vt 0.305263 0.000000
vt 0.315789 0.000000
vt 0.189474 0.000000
vt 0.326316 0.000000
vt 0.178947 0.000000
vt 0.336842 0.000000
vt 0.873684 0.000000
vt 0.884211 0.000000
vt 0.894737 0.000000
vt 0.168421 0.000000
vt 0.863158 0.000000
vt 0.905263 0.000000
vt 0.852632 0.000000
vt 0.915789 0.000000
vt 0.842105 0.000000
vt 0.926316 0.000000
vt 0.347368 0.000000
vt 0.157895 0.000000
vt 0.831579 0.000000
vt 0.936842 0.000000
vt 0.821053 0.000000
vt 0.947368 0.000000
vt 0.810526 0.000000
vt 0.957895 0.000000
vt 0.968421 0.000000
vt 0.357895 0.000000
vt 0.147368 0.000000
vt 0.789474 0.000000
vt 0.978947 0.000000
vt 0.368421 0.000000
vt 0.136842 0.000000
vt 0.778947 0.000000
vt 0.989474 0.000000
vt 0.768421 0.000000
vt 0.378947 0.000000
vt 0.126316 0.000000
vt 0.757895 0.000000
vt 0.505263 0.000000
vt 0.389474 0.000000
vt 0.115789 0.000000
vt 0.747368 0.000000
vt 0.515789 0.000000
vt 0.526316 0.000000
vt 0.736842 0.000000
vt 0.105263 0.000000
vt 0.536842 0.000000
vt 0.726316 0.000000
vt 0.410526 0.000000
vt 0.094737 0.000000
vt 0.547368 0.000000
vt 0.715789 0.000000
vt 0.557895 0.000000
vt 0.705263 0.000000
vt 0.421053 0.000000
vt 0.084211 0.000000
vt 0.568421 0.000000
vt 0.694737 0.000000
vt 0.578947 0.000000
vt 0.684211 0.000000
vt 0.589474 0.000000
vt 0.673684 0.000000
vt 0.663158 0.000000
vt 0.431579 0.000000
vt 0.073684 0.000000
vt 0.610526 0.000000
vt 0.652632 0.000000
vt 0.621053 0.000000
vt 0.642105 0.000000
vt 0.631579 0.000000
vt 0.442105 0.000000
vt 0.063158 0.000000
vt 0.452632 0.000000
vt 0.052632 0.000000
vt 0.463158 0.000000
vt 0.042105 0.000000
vt 0.473684 0.000000
vt 0.031579 0.000000
vt 0.484211 0.000000
vt 0.021053 0.000000
vt 0.494737 0.000000
vt 0.010526 0.000000
vt 0.571429 0.000000
vt 0.285714 0.000000
vt 0.428571 0.000000
vt 0.142857 0.000000
vt 0.714286 0.000000
vt 0.857143 0.000000
vt 0.746269 0.000000
vt 0.731343 0.000000
vt 0.738806 0.000000
vt 0.723881 0.000000
vt 0.753731 0.000000
vt 0.716418 0.000000
vt 0.761194 0.000000
vt 0.708955 0.000000
vt 0.768657 0.000000
vt 0.701493 0.000000
vt 0.776119 0.000000
vt 0.694030 0.000000
vt 0.783582 0.000000
vt 0.686567 0.000000
vt 0.791045 0.000000
vt 0.679105 0.000000
vt 0.798507 0.000000
vt 0.671642 0.000000
vt 0.805970 0.000000
vt 0.544776 0.000000
vt 0.552239 0.000000
vt 0.559702 0.000000
vt 0.567164 0.000000
vt 0.537313 0.000000
vt 0.574627 0.000000
vt 0.529851 0.000000
vt 0.582090 0.000000
vt 0.522388 0.000000
vt 0.664179 0.000000
vt 0.589552 0.000000
vt 0.514925 0.000000
vt 0.813433 0.000000
vt 0.597015 0.000000
vt 0.507463 0.000000
vt 0.604478 0.000000
vt 0.500000 0.000000
vt 0.611940 0.000000
vt 0.492537 0.000000
vt 0.656716 0.000000
vt 0.820895 0.000000
vt 0.619403 0.000000
vt 0.485075 0.000000
vt 0.626866 0.000000
vt 0.477612 0.000000
vt 0.649254 0.000000
vt 0.828358 0.000000
vt 0.634328 0.000000
vt 0.470149 0.000000
vt 0.641791 0.000000
vt 0.462687 0.000000
vt 0.455224 0.000000
vt 0.835821 0.000000
vt 0.447761 0.000000
vt 0.440298 0.000000
vt 0.432836 0.000000
vt 0.425373 0.000000
vt 0.417910 0.000000
vt 0.843284 0.000000
vt 0.410448 0.000000
vt 0.402985 0.000000
vt 0.395522 0.000000
vt 0.388060 0.000000
vt 0.380597 0.000000
vt 0.373134 0.000000
vt 0.365672 0.000000
vt 0.850746 0.000000
vt 0.358209 0.000000
vt 0.350746 0.000000
vt 0.858209 0.000000
vt 0.343284 0.000000
vt 0.865672 0.000000
vt 0.335821 0.000000
vt 0.328358 0.000000
vt 0.873134 0.000000
vt 0.320896 0.000000
vt 0.880597 0.000000
vt 0.313433 0.000000
vt 0.888060 0.000000
vt 0.305970 0.000000
vt 0.895522 0.000000
vt 0.902985 0.000000
vt 0.298507 0.000000
vt 0.910448 0.000000
vt 0.291045 0.000000
vt 0.917910 0.000000
vt 0.283582 0.000000
vt 0.111940 0.000000
vt 0.097015 0.000000
vt 0.104478 0.000000
vt 0.089552 0.000000
vt 0.925373 0.000000
vt 0.276119 0.000000
vt 0.082090 0.000000
vt 0.119403 0.000000
vt 0.932836 0.000000
vt 0.074627 0.000000
vt 0.940298 0.000000
vt 0.268657 0.000000
vt 0.067164 0.000000
vt 0.947761 0.000000
vt 0.126866 0.000000
vt 0.059701 0.000000
vt 0.955224 0.000000
vt 0.261194 0.000000
vt 0.052239 0.000000
vt 0.962687 0.000000
vt 0.134328 0.000000
vt 0.044776 0.000000
vt 0.970149 0.000000
vt 0.037313 0.000000
vt 0.253731 0.000000
vt 0.977612 0.000000
vt 0.029851 0.000000
vt 0.985075 0.000000
vt 0.141791 0.000000
vt 0.022388 0.000000
vt 0.992537 0.000000
vt 0.014925 0.000000
vt 0.246269 0.000000
vt 0.007463 0.000000
vt 0.149254 0.000000
vt 0.238806 0.000000
vt 0.156716 0.000000
vt 0.231343 0.000000
vt 0.164179 0.000000
vt 0.223881 0.000000
vt 0.171642 0.000000
vt 0.216418 0.000000
vt 0.179104 0.000000
vt 0.208955 0.000000
vt 0.186567 0.000000
vt 0.201493 0.000000
vt 0.194030 0.000000
s 0
usemtl Material.004
f 259/177/77 262/178/77 258/179/77
f 262/178/77 257/180/77 258/179/77
f 262/178/77 256/181/77 257/180/77
f 262/178/77 255/182/77 256/181/77
f 262/178/77 254/183/77 255/182/77
f 262/178/77 253/184/77 254/183/77
f 262/178/77 252/185/77 253/184/77
f 262/178/77 251/186/77 252/185/77
f 262/178/77 250/187/77 251/186/77
f 262/178/77 249/188/77 250/187/77
f 262/178/77 263/189/77 249/188/77
f 263/189/77 264/190/77 249/188/77
f 264/190/77 248/191/77 249/188/77
f 259/177/77 288/192/77 262/178/77
f 265/193/77 248/191/77 264/190/77
f 266/194/77 248/191/77 265/193/77
f 267/195/77 248/191/77 266/194/77
f 268/196/77 248/191/77 267/195/77
f 268/196/77 247/197/77 248/191/77
f 269/198/77 247/197/77 268/196/77
f 270/199/77 247/197/77 269/198/77
f 271/200/77 247/197/77 270/199/77
f 271/200/77 246/201/77 247/197/77
f 272/202/77 246/201/77 271/200/77
f 273/203/77 246/201/77 272/202/77
f 273/203/77 245/204/77 246/201/77
f 274/205/77 245/204/77 273/203/77
f 275/206/77 245/204/77 274/205/77
f 276/207/77 245/204/77 275/206/77
f 276/207/77 244/208/77 245/204/77
f 277/209/77 244/208/77 276/207/77
f 278/210/77 244/208/77 277/209/77
f 278/210/77 243/211/77 244/208/77
f 279/212/77 243/211/77 278/210/77
f 280/213/77 243/211/77 279/212/77
f 280/213/77 242/214/77 243/211/77
f 281/215/77 242/214/77 280/213/77
f 282/216/77 242/214/77 281/215/77
f 283/217/77 242/214/77 282/216/77
f 283/217/77 241/218/77 242/214/77
f 284/219/77 241/218/77 283/217/77
f 285/220/77 241/218/77 284/219/77
f 286/221/77 241/218/77 285/220/77
f 287/222/77 241/218/77 286/221/77
f 259/177/77 261/223/77 288/192/77
f 261/223/77 287/222/77 288/192/77
f 261/223/77 241/218/77 287/222/77
f 261/223/77 240/224/77 241/218/77
f 261/223/77 239/225/77 240/224/77
f 261/223/77 238/226/77 239/225/77
f 261/223/77 237/227/77 238/226/77
f 261/223/77 236/228/77 237/227/77
f 261/223/77 235/229/77 236/228/77
f 261/223/77 234/230/77 235/229/77
f 261/223/77 233/231/77 234/230/77
f 259/177/77 260/232/77 261/223/77
f 314/233/77 312/234/77 313/235/77
f 315/236/77 312/234/77 314/233/77
f 315/236/77 311/237/77 312/234/77
f 316/238/77 311/237/77 315/236/77
f 316/238/77 310/239/77 311/237/77
f 317/240/77 310/239/77 316/238/77
f 317/240/77 309/241/77 310/239/77
f 318/242/77 309/241/77 317/240/77
f 318/242/77 308/208/77 309/241/77
f 319/243/77 308/208/77 318/242/77
f 319/243/77 307/244/77 308/208/77
f 320/245/77 307/244/77 319/243/77
f 320/245/77 306/246/77 307/244/77
f 321/247/77 306/246/77 320/245/77
f 321/247/77 372/248/77 306/246/77
f 372/248/77 373/249/77 306/246/77
f 373/249/77 374/250/77 306/246/77
f 374/250/77 305/251/77 306/246/77
f 321/247/77 371/252/77 372/248/77
f 375/253/77 305/251/77 374/250/77
f 321/247/77 370/254/77 371/252/77
f 376/255/77 305/251/77 375/253/77
f 321/247/77 369/256/77 370/254/77
f 377/257/77 305/251/77 376/255/77
f 322/258/77 369/256/77 321/247/77
f 377/257/77 304/259/77 305/251/77
f 322/258/77 368/260/77 369/256/77
f 378/261/77 304/259/77 377/257/77
f 322/258/77 367/262/77 368/260/77
f 379/263/77 304/259/77 378/261/77
f 322/258/77 366/264/77 367/262/77
f 380/265/77 304/259/77 379/263/77
f 322/258/77 365/209/77 366/264/77
f 381/266/77 304/259/77 380/265/77
f 323/267/77 365/209/77 322/258/77
f 381/266/77 303/268/77 304/259/77
f 323/267/77 364/269/77 365/209/77
f 382/270/77 303/268/77 381/266/77
f 324/271/77 364/269/77 323/267/77
f 382/270/77 302/272/77 303/268/77
f 324/271/77 363/273/77 364/269/77
f 383/274/77 302/272/77 382/270/77
f 324/271/77 362/275/77 363/273/77
f 384/192/77 302/272/77 383/274/77
f 325/276/77 362/275/77 324/271/77
f 384/192/77 301/277/77 302/272/77
f 325/276/77 361/278/77 362/275/77
f 337/279/77 301/277/77 384/192/77
f 326/280/77 361/278/77 325/276/77
f 337/279/77 300/281/77 301/277/77
f 326/280/77 360/282/77 361/278/77
f 338/283/77 300/281/77 337/279/77
f 339/284/77 300/281/77 338/283/77
f 326/280/77 359/285/77 360/282/77
f 327/182/77 359/285/77 326/280/77
f 339/284/77 299/286/77 300/281/77
f 340/287/77 299/286/77 339/284/77
f 327/182/77 358/288/77 359/285/77
f 328/289/77 358/288/77 327/182/77
f 340/287/77 298/290/77 299/286/77
f 341/291/77 298/290/77 340/287/77
f 328/289/77 357/292/77 358/288/77
f 342/293/77 298/290/77 341/291/77
f 328/289/77 356/294/77 357/292/77
f 329/295/77 356/294/77 328/289/77
f 342/293/77 297/296/77 298/290/77
f 343/297/77 297/296/77 342/293/77
f 329/295/77 355/298/77 356/294/77
f 344/299/77 297/296/77 343/297/77
f 329/295/77 354/300/77 355/298/77
f 345/301/77 297/296/77 344/299/77
f 329/295/77 353/302/77 354/300/77
f 346/194/77 297/296/77 345/301/77
f 329/295/77 352/303/77 353/302/77
f 330/304/77 352/303/77 329/295/77
f 346/194/77 296/305/77 297/296/77
f 347/306/77 296/305/77 346/194/77
f 330/304/77 351/307/77 352/303/77
f 348/308/77 296/305/77 347/306/77
f 330/304/77 350/309/77 351/307/77
f 349/310/77 296/305/77 348/308/77
f 330/304/77 349/310/77 350/309/77
f 330/304/77 296/305/77 349/310/77
f 331/311/77 296/305/77 330/304/77
f 331/311/77 295/312/77 296/305/77
f 332/313/77 295/312/77 331/311/77
f 332/313/77 294/314/77 295/312/77
f 333/315/77 294/314/77 332/313/77
f 333/315/77 293/316/77 294/314/77
f 334/317/77 293/316/77 333/315/77
f 334/317/77 292/318/77 293/316/77
f 335/319/77 292/318/77 334/317/77
f 335/319/77 291/320/77 292/318/77
f 336/321/77 291/320/77 335/319/77
f 336/321/77 290/322/77 291/320/77
f 289/231/77 290/322/77 336/321/77
f 389/323/77 387/324/77 388/325/77
f 389/323/77 386/326/77 387/324/77
f 390/327/77 386/326/77 389/323/77
f 391/328/77 385/231/77 390/327/77
f 385/231/77 386/326/77 390/327/77
f 391/328/77 392/192/77 385/231/77
f 493/329/77 491/330/77 492/331/77
f 493/329/77 490/332/77 491/330/77
f 494/333/77 490/332/77 493/329/77
f 494/333/77 489/334/77 490/332/77
f 495/335/77 489/334/77 494/333/77
f 495/335/77 488/336/77 489/334/77
f 496/337/77 488/336/77 495/335/77
f 496/337/77 487/338/77 488/336/77
f 497/339/77 487/338/77 496/337/77
f 497/339/77 486/340/77 487/338/77
f 498/341/77 486/340/77 497/339/77
f 498/341/77 485/342/77 486/340/77
f 499/343/77 485/342/77 498/341/77
f 499/343/77 484/344/77 485/342/77
f 500/345/77 484/344/77 499/343/77
f 500/345/77 483/346/77 484/344/77
f 501/347/77 466/348/77 500/345/77
f 466/348/77 467/349/77 500/345/77
f 467/349/77 483/346/77 500/345/77
f 468/350/77 483/346/77 467/349/77
f 469/351/77 483/346/77 468/350/77
f 501/347/77 465/352/77 466/348/77
f 470/353/77 483/346/77 469/351/77
f 501/347/77 464/354/77 465/352/77
f 471/355/77 483/346/77 470/353/77
f 501/347/77 463/356/77 464/354/77
f 471/355/77 482/357/77 483/346/77
f 472/358/77 482/357/77 471/355/77
f 501/347/77 462/359/77 463/356/77
f 502/360/77 462/359/77 501/347/77
f 473/361/77 482/357/77 472/358/77
f 502/360/77 461/362/77 462/359/77
f 474/363/77 482/357/77 473/361/77
f 502/360/77 460/364/77 461/362/77
f 475/365/77 482/357/77 474/363/77
f 502/360/77 459/366/77 460/364/77
f 475/365/77 481/367/77 482/357/77
f 503/368/77 459/366/77 502/360/77
f 476/369/77 481/367/77 475/365/77
f 503/368/77 458/370/77 459/366/77
f 477/371/77 481/367/77 476/369/77
f 503/368/77 457/372/77 458/370/77
f 477/371/77 480/373/77 481/367/77
f 504/374/77 457/372/77 503/368/77
f 478/375/77 480/373/77 477/371/77
f 504/374/77 456/376/77 457/372/77
f 479/377/77 480/373/77 478/375/77
f 504/374/77 455/378/77 456/376/77
f 504/374/77 454/379/77 455/378/77
f 505/380/77 454/379/77 504/374/77
f 505/380/77 453/381/77 454/379/77
f 505/380/77 452/382/77 453/381/77
f 505/380/77 451/383/77 452/382/77
f 505/380/77 450/384/77 451/383/77
f 505/380/77 449/385/77 450/384/77
f 506/386/77 449/385/77 505/380/77
f 506/386/77 448/387/77 449/385/77
f 506/386/77 447/388/77 448/387/77
f 506/386/77 446/389/77 447/388/77
f 506/386/77 445/390/77 446/389/77
f 506/386/77 444/391/77 445/390/77
f 506/386/77 443/392/77 444/391/77
f 506/386/77 442/393/77 443/392/77
f 507/394/77 442/393/77 506/386/77
f 507/394/77 441/395/77 442/393/77
f 507/394/77 440/396/77 441/395/77
f 508/397/77 440/396/77 507/394/77
f 508/397/77 439/398/77 440/396/77
f 509/399/77 439/398/77 508/397/77
f 509/399/77 438/400/77 439/398/77
f 509/399/77 437/401/77 438/400/77
f 510/402/77 437/401/77 509/399/77
f 510/402/77 436/403/77 437/401/77
f 511/404/77 436/403/77 510/402/77
f 511/404/77 435/405/77 436/403/77
f 512/406/77 435/405/77 511/404/77
f 512/406/77 434/407/77 435/405/77
f 513/408/77 434/407/77 512/406/77
f 514/409/77 434/407/77 513/408/77
f 514/409/77 433/410/77 434/407/77
f 515/411/77 433/410/77 514/409/77
f 515/411/77 432/412/77 433/410/77
f 516/413/77 432/412/77 515/411/77
f 516/413/77 431/414/77 432/412/77
f 408/415/77 406/416/77 407/417/77
f 408/415/77 405/418/77 406/416/77
f 517/419/77 431/414/77 516/413/77
f 517/419/77 430/420/77 431/414/77
f 408/415/77 404/421/77 405/418/77
f 409/422/77 404/421/77 408/415/77
f 518/423/77 430/420/77 517/419/77
f 409/422/77 403/424/77 404/421/77
f 519/425/77 430/420/77 518/423/77
f 519/425/77 429/426/77 430/420/77
f 409/422/77 402/427/77 403/424/77
f 520/428/77 429/426/77 519/425/77
f 410/429/77 402/427/77 409/422/77
f 410/429/77 401/430/77 402/427/77
f 521/431/77 429/426/77 520/428/77
f 521/431/77 428/432/77 429/426/77
f 410/429/77 400/433/77 401/430/77
f 522/434/77 428/432/77 521/431/77
f 411/435/77 400/433/77 410/429/77
f 411/435/77 399/436/77 400/433/77
f 523/437/77 428/432/77 522/434/77
f 411/435/77 398/438/77 399/436/77
f 523/437/77 427/439/77 428/432/77
f 524/440/77 427/439/77 523/437/77
f 411/435/77 397/441/77 398/438/77
f 525/442/77 427/439/77 524/440/77
f 412/443/77 397/441/77 411/435/77
f 412/443/77 396/444/77 397/441/77
f 526/445/77 427/439/77 525/442/77
f 412/443/77 395/446/77 396/444/77
f 527/192/77 427/439/77 526/445/77
f 527/192/77 426/447/77 427/439/77
f 412/443/77 394/448/77 395/446/77
f 393/231/77 426/447/77 527/192/77
f 394/448/77 426/447/77 393/231/77
f 412/443/77 426/447/77 394/448/77
f 413/449/77 426/447/77 412/443/77
f 413/449/77 425/450/77 426/447/77
f 414/451/77 425/450/77 413/449/77
f 414/451/77 424/452/77 425/450/77
f 415/453/77 424/452/77 414/451/77
f 415/453/77 423/454/77 424/452/77
f 416/455/77 423/454/77 415/453/77
f 416/455/77 422/456/77 423/454/77
f 417/457/77 422/456/77 416/455/77
f 417/457/77 421/458/77 422/456/77
f 418/459/77 421/458/77 417/457/77
f 418/459/77 420/460/77 421/458/77
f 419/461/77 420/460/77 418/459/77
